<?xml  version="1.0" encoding="UTF-8"?>
<!DOCTYPE svg PUBLIC "-//W3C//DTD SVG 1.0//EN" "http://www.w3.org/TR/2001/REC-SVG-20010904/DTD/svg10.dtd" >
<svg xmlns="http://www.w3.org/2000/svg" >
<metadata>
<version>1.0</version>
<id><![CDATA[Alternate Gothic W02 No 1]]></id>
<vendor>Monotype Imaging Inc.</vendor>
<credits>
<name>Fonts.com WebFonts</name>
<URL>http://webfonts.fonts.com</URL>
<role>Home of the Web fonts</role>
</credits>
<license>
<URL>http://webfonts.fonts.com/Legal</URL>
</license>
<copyright><![CDATA[Copyright © 2006 Linotype GmbH, www.linotype.com. All rights reserved. This font software may not be reproduced, modified, disclosed or transferred without the express written approval of Linotype GmbH. This typeface is original artwork of Morris Fuller Benton. The design may be protected in certain jurisdictions.]]></copyright>
<trademark></trademark>
<licensee>
<name></name>
</licensee>
</metadata>
<defs >
<font horiz-adv-x="332" id="1df8467f-53c7-4c32-b004-640e52452762">
<font-face font-family="" panose-1="2 11 5 8 2 9 2 5 2 4" ascent="840" descent="-177" units-per-em="1000" alphabetic="0">
</font-face>
<missing-glyph horiz-adv-x="485" d="M210 174H263V111H210V174ZM211 238Q211 263 213 281T222 313T240 341T268 369Q298 398 306 415T314 449Q314 483 293 506T242 529Q213 529 192 509T165 439Q153 441 141 443T117 447Q124 516 159 546T245 577Q297 577 330 544T363 453Q363 422 351 398T303 340Q284 323 275 312T261 289T257 262T257 222H211V238ZM438 47V632H47V47H438ZM0 680H485V0H0V680Z"  />

<glyph unicode="&#xA;" />
<glyph unicode="&#xD;" horiz-adv-x="500" />
<glyph unicode=" " horiz-adv-x="173" />
<glyph unicode="!" horiz-adv-x="224" d="M60 667H164L140 187H81L60 667ZM65 100H158V0H65V100Z"  />
<glyph unicode="&quot;" horiz-adv-x="352" d="M45 667H146L130 400H61L45 667ZM207 667H308L292 400H223L207 667Z"  />
<glyph unicode="#" horiz-adv-x="366" d="M79 182H38L48 250H88L110 409H67L78 476H119L146 667H194L168 477H231L257 667H306L280 477H320L311 409H270L248 250H293L283 182H239L214 0H165L190 182H127L102 0H53L79 182ZM200 250L222 409H159L137 250H200Z"  />
<glyph unicode="$" horiz-adv-x="340" d="M136 17Q106 25 83 46Q60 68 52 95T43 169Q43 177 43 184T44 202L131 207V179Q131 131 140 113T175 94Q216 94 216 156Q216 171 214 184T205 210T189 240T162 278L119 342Q99 371 85 395T63 439T51 479T47 519Q47 570 69 603T136 648V707H211V650Q259 636 279 598T297 486L211 477Q211 500 211 512T208 534Q203 573 173 573Q135 573 135 515Q135 501 136 491T144 467T162 434T197 382L241 318Q276 269 290 232T304 157Q304 104 280 69T211 20V-40H136V17Z"  />
<glyph unicode="%" horiz-adv-x="474" d="M40 579Q40 610 42 622T51 645Q70 674 110 674Q149 674 168 645Q175 634 177 622T179 579V406Q179 390 179 380T177 363T174 351T168 339Q160 325 144 318T110 310Q70 310 51 339Q48 345 46 350T42 363T41 380T40 406V579ZM130 597Q130 626 110 626Q89 626 89 597V388Q89 359 110 359Q130 359 130 388V597ZM307 700H356L164 -33H118L307 700ZM295 262Q295 293 297 305T306 328Q325 357 365 357Q404 357 423 328Q430 317 432 305T434 262V89Q434 73 434 63T432 46T429 34T423 22Q415 8 399 1T365 -7Q325 -7 306 22Q303 28 301 33T297 46T296 63T295 89V262ZM385 280Q385 309 365 309Q344 309 344 280V71Q344 42 365 42Q385 42 385 71V280Z"  />
<glyph unicode="&amp;" horiz-adv-x="418" d="M377 -7Q336 5 284 54Q269 38 261 31T243 17Q227 6 205 0T163 -7Q111 -7 79 36T47 148Q47 237 117 340Q107 360 99 385T84 435T74 484T70 526Q70 587 101 623T187 660Q236 660 266 627T297 538Q297 493 275 444T204 332Q213 310 220 293T236 261T253 232T276 199Q282 213 286 224T293 248T299 276T306 313L385 303Q380 255 367 215T331 132Q337 124 341 119T351 109T362 101T377 93V-7ZM154 251Q139 222 133 201T127 154Q127 118 139 97T173 76Q190 76 202 84T232 115Q223 127 212 145T189 184T168 223T154 251ZM171 418Q197 460 208 487T220 540Q220 561 212 573T187 585Q168 585 158 570T147 529Q147 496 171 418Z"  />
<glyph unicode="&apos;" horiz-adv-x="193" d="M45 667H149L133 400H61L45 667Z"  />
<glyph unicode="(" horiz-adv-x="273" d="M177 -124Q106 -14 73 85T40 290Q40 395 73 494T177 704L240 668Q181 572 154 481T127 290Q127 190 153 100T240 -88L177 -124Z"  />
<glyph unicode=")" horiz-adv-x="273" d="M33 -88Q91 8 118 99T146 290Q146 390 119 481T33 668L95 704Q166 594 199 495T233 290Q233 185 200 85T95 -124L33 -88Z"  />
<glyph unicode="*" horiz-adv-x="313" d="M62 522L110 574L40 589L63 658L127 628L120 700H193L186 628L250 659L273 589L203 574L251 522L192 479L157 540L121 479L62 522Z"  />
<glyph unicode="+" horiz-adv-x="340" d="M133 313H37V379H133V487H206V379H303V313H206V206H133V313Z"  />
<glyph unicode="&#x2c;" horiz-adv-x="187" d="M81 0H47V100H140V0L98 -119H47L81 0Z"  />
<glyph unicode="-" horiz-adv-x="125" d="M0 287H125V209H0V287Z"  />
<glyph unicode="." horiz-adv-x="187" d="M47 100H140V0H47V100Z"  />
<glyph unicode="/" horiz-adv-x="311" d="M226 667H288L76 -67H17L226 667Z"  />
<glyph unicode="0" horiz-adv-x="340" d="M38 498Q38 528 38 547T41 579T48 602T59 623Q76 648 105 662T170 677Q205 677 234 663T281 623Q288 612 292 603T298 580T301 547T302 498V170Q302 140 301 121T298 89T292 66T281 45Q264 19 235 5T170 -10Q135 -10 106 4T59 45Q52 56 48 65T42 88T39 121T38 170V498ZM209 536Q209 565 200 577T170 590Q150 590 141 578T131 536V131Q131 102 140 90T170 77Q190 77 199 89T209 131V536Z"  />
<glyph unicode="1" horiz-adv-x="340" d="M130 537H83V604Q98 612 108 619T128 633T146 648T165 667H223V0H130V537Z"  />
<glyph unicode="2" horiz-adv-x="340" d="M41 77Q51 95 57 107T72 137T95 183T135 263Q158 309 172 341T193 400T203 450T206 507Q206 557 200 574T174 591Q162 591 155 586T144 568T137 532T135 473H48Q47 483 47 490T47 502Q47 588 80 632T179 677Q237 677 267 640T297 532Q297 399 212 229Q210 225 191 190T135 87H291V0H41V77Z"  />
<glyph unicode="3" horiz-adv-x="340" d="M200 236Q200 274 186 291T139 308H126V393Q148 394 159 397T179 410Q200 432 200 464V553Q200 590 171 590Q144 590 140 565Q139 561 139 557T138 546T137 525T137 490H50V514Q50 677 168 677Q196 677 219 666T258 635Q274 614 280 588T286 513Q286 472 285 447T278 405T264 378T238 355Q257 347 268 338T284 311T291 260T293 171Q293 143 292 123T287 86T278 58T263 33Q229 -10 163 -10Q100 -10 70 29T40 150Q40 161 40 169T41 191H132Q131 182 131 177T131 165Q131 117 139 97T169 77Q187 77 195 93Q198 101 199 109T200 145V236Z"  />
<glyph unicode="4" horiz-adv-x="340" d="M174 149H23V236L174 667H267V236H304V149H267V0H174V149ZM174 236V477L101 236H174Z"  />
<glyph unicode="5" horiz-adv-x="340" d="M203 331Q203 379 174 379Q145 379 131 325H52L62 667H279L276 580H138L131 419Q151 445 168 455T205 466Q249 466 272 426T296 313V158Q296 107 290 82T267 35Q250 14 224 2T166 -10Q106 -10 74 30T42 147Q42 159 42 167T44 189H131V162Q131 117 140 97T169 77Q203 77 203 130V331Z"  />
<glyph unicode="6" horiz-adv-x="340" d="M40 539Q40 602 74 639T165 677Q204 677 234 658T278 604Q285 587 288 563T291 497H203Q204 507 204 512T204 524Q204 559 196 574T168 590Q149 590 139 573Q135 567 134 557T133 527V379Q153 400 169 409T206 418Q249 418 274 383Q281 372 286 361T294 335T298 300T299 251V139Q299 69 264 30T167 -10Q108 -10 74 28T40 132V539ZM206 269Q206 311 200 325T175 340Q152 340 133 316V117Q133 100 143 89T169 77Q206 77 206 125V269Z"  />
<glyph unicode="7" horiz-adv-x="340" d="M186 580H46V667H284V614L185 0H88L186 580Z"  />
<glyph unicode="8" horiz-adv-x="340" d="M241 355Q260 347 271 338T288 309T295 258T297 170Q297 118 290 87T266 33Q250 13 225 2T170 -10Q140 -10 115 1T73 33Q56 56 50 85T43 170Q43 226 44 259T51 310T68 338T99 355Q82 367 73 377T58 404T52 446T50 514Q50 561 56 587T78 635Q109 677 170 677Q231 677 262 635Q277 614 283 588T289 513Q289 472 288 447T281 405T267 378T241 355ZM202 543Q202 572 195 584T170 597Q152 597 145 585T137 543V455Q137 426 144 414T170 401Q187 401 194 413T202 455V543ZM206 247Q206 279 198 292T170 306Q150 306 142 294T134 247V135Q134 101 142 89T170 76Q190 76 198 89T206 135V247Z"  />
<glyph unicode="9" horiz-adv-x="340" d="M206 288Q186 267 170 258T133 249Q90 249 65 284Q57 294 53 305T45 332T41 367T40 416V528Q40 598 75 637T172 677Q231 677 265 639T299 535V128Q299 65 265 28T174 -10Q135 -10 105 9T61 63Q54 80 51 104T48 170H136Q135 160 135 155T135 143Q135 108 143 93T171 77Q190 77 200 94Q204 100 205 110T206 140V288ZM206 550Q206 567 196 578T170 590Q133 590 133 542V398Q133 356 139 342T164 327Q187 327 206 351V550Z"  />
<glyph unicode=":" horiz-adv-x="187" d="M47 451H140V351H47V451ZM47 100H140V0H47V100Z"  />
<glyph unicode=";" horiz-adv-x="187" d="M47 451H140V351H47V451ZM81 0H47V100H140V0L98 -119H47L81 0Z"  />
<glyph unicode="&lt;" horiz-adv-x="340" d="M22 295V376L317 585V492L90 335L317 179V86L22 295Z"  />
<glyph unicode="=" horiz-adv-x="340" d="M37 312H303V246H37V312ZM37 445H303V379H37V445Z"  />
<glyph unicode="&gt;" horiz-adv-x="340" d="M23 179L250 336L23 492V585L318 376V295L23 86V179Z"  />
<glyph unicode="?" horiz-adv-x="325" d="M125 289Q125 323 126 343T131 382T145 426T172 491Q179 509 184 520T191 539T195 552T196 562Q196 574 187 582T165 591Q151 591 140 577T118 528L40 554Q70 674 170 674Q223 674 255 642T287 557Q287 542 286 532T279 506T261 467T227 401Q220 387 215 374T207 345T203 309T202 262V183H125V289ZM116 100H209V0H116V100Z"  />
<glyph unicode="@" horiz-adv-x="404" d="M333 -118Q287 -177 211 -177Q179 -177 149 -166T99 -136Q78 -115 66 -80T53 -5V344Q53 425 92 467T207 510Q279 510 319 468T360 349V10H308L299 38Q284 17 271 9T238 0Q173 0 173 84V272Q173 315 191 339T243 363Q258 363 268 357T292 337V358Q292 400 269 424T207 449Q169 449 143 420Q136 412 132 404T125 386T121 361T120 328V17Q120 -16 123 -36T136 -72Q147 -92 167 -104T211 -116Q256 -116 292 -72L333 -118ZM292 256Q292 277 287 285T267 294Q253 294 248 286T242 256V104Q242 83 247 75T267 66Q281 66 286 74T292 104V256Z"  />
<glyph unicode="A" horiz-adv-x="352" d="M118 667H238L325 0H234L217 150H133L117 0H27L118 667ZM207 237L175 546L143 237H207Z"  />
<glyph unicode="B" horiz-adv-x="351" d="M40 667H124Q154 667 174 666T210 660T237 647T261 627Q283 605 292 575T302 499Q302 467 299 445T289 405T271 375T242 351Q262 343 276 332T298 302T310 258T314 196Q314 136 307 104T279 48Q257 22 223 11T133 0H40V667ZM142 87Q166 87 181 91T206 108T218 141T221 195Q221 228 218 249T206 282T182 298T142 303H133V87H142ZM146 390Q166 390 179 394T199 409T208 439T211 491Q211 544 198 562T146 580H133V390H146Z"  />
<glyph unicode="C" horiz-adv-x="340" d="M39 517Q39 677 170 677Q305 677 305 503Q305 491 305 481T303 450H210Q212 466 212 475T212 496Q212 551 204 570T170 590Q147 590 140 576T132 517V150Q132 106 139 92T170 77Q195 77 203 96T212 168Q212 183 212 198T210 237H303Q304 210 304 196T305 167Q305 -10 170 -10Q39 -10 39 150V517Z"  />
<glyph unicode="D" horiz-adv-x="343" d="M40 667H139Q188 667 214 659T262 630Q304 589 304 513V154Q304 77 262 37Q241 16 215 8T139 0H40V667ZM145 87Q183 87 197 101T211 154V513Q211 551 197 565T145 580H133V87H145Z"  />
<glyph unicode="E" horiz-adv-x="294" d="M40 667H265V580H133V393H225V306H133V87H273V0H40V667Z"  />
<glyph unicode="F" horiz-adv-x="278" d="M40 667H265V580H133V393H225V306H133V0H40V667Z"  />
<glyph unicode="G" horiz-adv-x="343" d="M239 46Q201 -10 153 -10Q124 -10 98 6T58 49Q47 70 43 94T39 164V517Q39 677 171 677Q305 677 305 503Q305 492 305 481T303 450H210Q212 467 212 476T212 496Q212 551 204 570T170 590Q147 590 140 576T132 517V164Q132 145 132 134T133 116T135 105T139 96Q148 76 170 76Q194 76 205 101Q206 105 207 109T209 121T210 138T210 164V260H169V339H303V0H253L239 46Z"  />
<glyph unicode="H" horiz-adv-x="342" d="M40 667H133V393H209V667H302V0H209V306H133V0H40V667Z"  />
<glyph unicode="I" horiz-adv-x="173" d="M40 667H133V0H40V667Z"  />
<glyph unicode="J" horiz-adv-x="202" d="M10 92H17Q47 92 58 104T69 150V667H162V160Q162 136 162 120T160 93T157 73T151 57Q143 40 133 29T106 12T67 3T10 0V92Z"  />
<glyph unicode="K" horiz-adv-x="359" d="M40 667H133V416L224 667H319L235 442L339 0H242L173 315L133 206V0H40V667Z"  />
<glyph unicode="L" horiz-adv-x="281" d="M40 667H133V87H265V0H40V667Z"  />
<glyph unicode="M" horiz-adv-x="434" d="M40 667H150L216 335L282 667H394V0H314V471L236 0H196L118 471V0H40V667Z"  />
<glyph unicode="N" horiz-adv-x="376" d="M40 667H120L243 274V667H336V0H243L133 350V0H40V667Z"  />
<glyph unicode="O" horiz-adv-x="341" d="M39 498Q39 528 39 547T42 579T49 602T60 623Q77 648 106 662T171 677Q206 677 235 663T282 623Q289 612 293 603T299 580T302 547T303 498V170Q303 140 302 121T299 89T293 66T282 45Q265 19 236 5T171 -10Q136 -10 107 4T60 45Q53 56 49 65T43 88T40 121T39 170V498ZM210 536Q210 565 201 577T171 590Q151 590 142 578T132 536V131Q132 102 141 90T171 77Q191 77 200 89T210 131V536Z"  />
<glyph unicode="P" horiz-adv-x="329" d="M40 667H128Q159 667 181 665T219 658T246 643T268 621Q278 607 284 594T295 563T300 522T302 468Q302 435 301 411T295 370T284 339T267 314Q230 271 146 271H133V0H40V667ZM146 357Q167 357 179 361T199 378T209 412T212 469Q212 504 210 525T200 559T180 575T146 580H133V357H146Z"  />
<glyph unicode="Q" horiz-adv-x="341" d="M312 -48Q285 -48 261 -36T222 -1Q196 -10 171 -10Q136 -10 107 4T60 45Q53 56 49 65T43 88T40 121T39 170V498Q39 528 39 547T42 579T49 602T60 623Q77 648 106 662T171 677Q206 677 235 663T282 623Q289 612 293 603T299 580T302 547T303 498V170Q303 144 303 128T301 101T298 81T292 64Q297 57 303 53T321 44V-48H312ZM210 536Q210 565 201 577T171 590Q151 590 142 578T132 536V131Q132 102 141 90T171 77Q191 77 200 89T210 131V536Z"  />
<glyph unicode="R" horiz-adv-x="348" d="M40 667H131Q159 667 180 665T218 657T246 642T268 618Q285 594 293 561T302 481Q302 450 300 428T293 387T278 353T255 319L320 0H220L166 287Q154 285 149 285T133 283V0H40V667ZM146 377Q190 377 203 402Q206 407 207 413T209 429T210 453T211 491Q211 518 208 535T198 562T178 576T146 580H133V377H146Z"  />
<glyph unicode="S" horiz-adv-x="324" d="M118 197V168Q118 116 128 97T166 77Q208 77 208 143Q208 159 206 173T197 202T179 234T151 274L105 342Q84 374 70 399T46 447T33 490T29 533Q29 599 66 638T166 677Q214 677 246 652T288 580Q290 571 291 565T292 550T293 530T293 497L202 488Q202 514 202 525T199 548Q194 590 160 590Q121 590 121 528Q121 513 122 502T130 476T150 441T187 385L234 317Q266 269 283 221T301 129Q301 62 266 26T165 -10Q92 -10 54 41Q37 64 31 88T25 157Q25 168 25 174T26 193L118 197Z"  />
<glyph unicode="T" horiz-adv-x="285" d="M94 580H7V667H278V580H187V0H94V580Z"  />
<glyph unicode="U" horiz-adv-x="344" d="M211 667H304V169Q304 139 303 120T300 88T294 65T283 44Q266 19 237 5T172 -10Q137 -10 108 4T61 44Q54 55 50 64T44 87T41 120T40 169V667H133V131Q133 102 142 90T172 77Q193 77 202 89T211 131V667Z"  />
<glyph unicode="V" horiz-adv-x="316" d="M13 667H105L161 261L214 667H303L206 0H114L13 667Z"  />
<glyph unicode="W" horiz-adv-x="467" d="M20 667H105L152 288L197 667H270L315 274L362 667H447L362 0H281L232 359L188 0H105L20 667Z"  />
<glyph unicode="X" horiz-adv-x="350" d="M120 349L28 667H122L177 461L231 667H321L229 349L330 0H229L175 221L120 0H20L120 349Z"  />
<glyph unicode="Y" horiz-adv-x="327" d="M117 277L13 667H114L165 421L216 667H314L210 277V0H117V277Z"  />
<glyph unicode="Z" horiz-adv-x="313" d="M27 87L193 580H46V667H286V580L120 87H286V0H27V87Z"  />
<glyph unicode="[" horiz-adv-x="273" d="M72 667H208V580H154V-21H208V-108H72V667Z"  />
<glyph unicode="\" horiz-adv-x="311" d="M23 667H86L294 -67H235L23 667Z"  />
<glyph unicode="]" horiz-adv-x="273" d="M65 -21H119V580H65V667H201V-108H65V-21Z"  />
<glyph unicode="^" horiz-adv-x="340" d="M134 669H206L321 369H262L170 605L78 369H19L134 669Z"  />
<glyph unicode="_" horiz-adv-x="500" d="M0 -68H500V-128H0V-68Z"  />
<glyph unicode="`" horiz-adv-x="500" d="M152 653H249L294 578H224L152 653Z"  />
<glyph unicode="a" horiz-adv-x="306" d="M186 0Q184 8 183 18T180 40Q149 -7 106 -7Q30 -7 30 119Q30 159 40 188T72 243Q80 252 85 257T99 268T122 285T163 312L180 323V379Q180 408 175 416T153 424Q143 424 137 421T127 410T121 388T117 351H33Q37 393 42 415T58 454Q87 504 154 504Q209 504 238 474T267 385V80Q267 64 267 53T268 34T271 17T276 0H186ZM180 255Q145 226 131 198T117 126Q117 74 144 74Q163 74 180 100V255Z"  />
<glyph unicode="b" horiz-adv-x="309" d="M37 667H124V450Q149 479 167 491T206 504Q222 504 236 496T258 475Q266 462 269 444T272 387V110Q272 71 269 53T258 22Q250 9 236 1T206 -7Q186 -7 168 5T124 47V0H37V667ZM185 387Q185 424 163 424Q154 424 146 420T124 404V93Q138 82 146 78T163 73Q185 73 185 110V387Z"  />
<glyph unicode="c" horiz-adv-x="299" d="M186 154V182H272Q273 167 273 159T274 146T274 137T274 129Q274 63 243 28T152 -7Q95 -7 62 35Q47 53 41 75T35 133V364Q35 399 41 421T62 462Q95 504 152 504Q211 504 242 470T274 369Q274 365 274 362T274 355T274 343T272 323H186V343V365Q186 398 179 411T153 424Q136 424 129 412T122 373V124Q122 97 129 85T153 73Q172 73 179 86T186 132V154Z"  />
<glyph unicode="d" horiz-adv-x="309" d="M185 47Q160 18 142 6T103 -7Q88 -7 74 1T51 22Q43 35 40 53T37 110V387Q37 425 40 443T51 475Q59 488 73 496T103 504Q123 504 141 492T185 450V667H272V0H187L185 47ZM185 404Q171 415 163 419T146 424Q124 424 124 387V110Q124 73 146 73Q155 73 163 77T185 93V404Z"  />
<glyph unicode="e" horiz-adv-x="309" d="M186 154V174H272Q272 161 272 154T273 143T273 135T273 128Q273 62 242 28T152 -7Q95 -7 62 35Q47 54 41 76T35 133V365Q35 504 155 504Q210 504 241 471T272 380V234H122V124Q122 97 129 85T153 73Q186 73 186 132V154ZM185 303V387Q185 424 154 424Q122 424 122 387V303H185Z"  />
<glyph unicode="f" horiz-adv-x="187" d="M50 417H11V497H50V555Q50 586 54 604T70 636Q97 669 148 669Q153 669 162 669T181 667V587Q177 588 174 588T169 588Q137 588 137 555V497H181V417H137V0H50V417Z"  />
<glyph unicode="g" horiz-adv-x="305" d="M41 391Q41 443 70 473T147 504Q177 504 198 493T237 458Q250 481 264 491T302 504V422Q289 426 281 426Q274 426 269 424T255 417V383V261Q255 197 228 162T152 127Q147 127 141 127T129 128Q104 122 104 104Q104 85 128 77Q132 75 135 75T146 73T166 69T205 64Q253 58 280 28T307 -49Q307 -107 265 -142T154 -177Q89 -177 53 -153T16 -87Q16 -38 90 0Q57 11 44 24T31 59Q31 106 90 140Q64 160 53 185T41 247V391ZM179 388Q179 425 148 425Q117 425 117 388V244Q117 206 148 206Q179 206 179 244V388ZM146 -8Q120 -22 111 -32T102 -59Q102 -80 118 -92T161 -104Q190 -104 208 -91T226 -54Q226 -31 211 -22T146 -8Z"  />
<glyph unicode="h" horiz-adv-x="310" d="M37 667H124V450Q149 479 167 491T206 504Q221 504 235 496T258 475Q266 462 269 444T272 387V0H185V387Q185 424 163 424Q154 424 146 420T124 404V0H37V667Z"  />
<glyph unicode="i" horiz-adv-x="161" d="M37 497H124V0H37V497ZM37 667H124V578H37V667Z"  />
<glyph unicode="j" horiz-adv-x="164" d="M-15 -74Q-3 -77 2 -77Q14 -77 21 -74T32 -62T38 -38T40 0V497H127V0Q127 -33 126 -55T122 -92T114 -117T100 -136Q75 -164 26 -164Q15 -164 7 -163T-15 -157V-74ZM40 667H127V578H40V667Z"  />
<glyph unicode="k" horiz-adv-x="306" d="M37 667H124V305L190 497H272L208 338L290 0H204L152 241L124 172V0H37V667Z"  />
<glyph unicode="l" horiz-adv-x="161" d="M37 667H124V0H37V667Z"  />
<glyph unicode="m" horiz-adv-x="459" d="M37 497H122L124 450Q150 481 168 492T210 504Q233 504 246 492T271 450Q289 479 308 491T351 504Q368 504 383 497T407 475Q415 462 418 444T421 387V0H334V387Q334 424 311 424Q302 424 294 420T273 404V0H186V387Q186 424 164 424Q155 424 147 420T124 404V0H37V497Z"  />
<glyph unicode="n" horiz-adv-x="310" d="M37 497H122L124 454Q151 483 168 493T205 504Q221 504 235 496T258 476Q266 463 269 446T272 390V0H185V387Q185 424 163 424Q154 424 146 420T124 404V0H37V497Z"  />
<glyph unicode="o" horiz-adv-x="308" d="M35 364Q35 504 154 504Q272 504 272 364V133Q272 -7 154 -7Q35 -7 35 133V364ZM185 378Q185 424 154 424Q122 424 122 378V119Q122 73 154 73Q185 73 185 119V378Z"  />
<glyph unicode="p" horiz-adv-x="309" d="M37 497H122L124 450Q149 479 167 491T206 504Q221 504 235 496T258 475Q266 462 269 444T272 387V110Q272 72 269 54T258 22Q250 9 236 1T206 -7Q186 -7 168 5T124 47V-170H37V497ZM185 387Q185 424 163 424Q154 424 146 420T124 404V93Q138 82 146 78T163 73Q185 73 185 110V387Z"  />
<glyph unicode="q" horiz-adv-x="309" d="M185 47Q160 18 142 6T103 -7Q87 -7 73 1T51 22Q43 35 40 53T37 110V387Q37 426 40 444T51 475Q59 488 73 496T103 504Q123 504 141 492T185 450L187 497H272V-170H185V47ZM185 404Q171 415 163 419T146 424Q124 424 124 387V110Q124 73 146 73Q155 73 163 77T185 93V404Z"  />
<glyph unicode="r" horiz-adv-x="213" d="M37 497H124V435Q157 504 208 504H212V407Q198 409 192 410T180 411Q124 411 124 337V0H37V497Z"  />
<glyph unicode="s" horiz-adv-x="274" d="M104 132Q103 126 103 123T103 116Q103 73 136 73Q151 73 160 84T169 116Q169 128 167 137T160 157T144 179T119 207L85 242Q28 302 28 379Q28 504 148 504Q183 504 208 489T245 444Q250 430 252 416T254 378L171 372V379Q171 424 142 424Q113 424 113 377Q113 354 121 338T149 300L184 264Q224 222 240 190T256 121Q256 63 223 28T136 -7Q82 -7 51 25T19 114Q19 121 20 126L104 132Z"  />
<glyph unicode="t" horiz-adv-x="213" d="M205 80V0Q186 -4 176 -5T155 -7Q57 -7 57 95V417H15V497H57V633H144V497H205V417H144V125Q144 79 189 79L205 80Z"  />
<glyph unicode="u" horiz-adv-x="310" d="M185 43Q158 14 141 4T104 -7Q88 -7 74 1T51 21Q43 34 40 51T37 107V497H124V110Q124 73 146 73Q155 73 163 77T185 93V497H272V0H192L185 43Z"  />
<glyph unicode="v" horiz-adv-x="282" d="M17 497H100L141 210L182 497H266L182 0H100L17 497Z"  />
<glyph unicode="w" horiz-adv-x="417" d="M17 497H95L135 231L177 497H241L285 226L324 497H400L324 0H257L210 285L161 0H95L17 497Z"  />
<glyph unicode="x" horiz-adv-x="275" d="M90 262L19 497H101L136 355L170 497H252L180 262L262 0H180L136 159L95 0H13L90 262Z"  />
<glyph unicode="y" horiz-adv-x="284" d="M24 -91H32Q67 -91 81 -74T95 -15Q95 -4 95 3T94 20T91 40T86 72L17 497H102L142 205L184 497H268L177 -68Q160 -177 50 -177Q40 -177 24 -174V-91Z"  />
<glyph unicode="z" horiz-adv-x="273" d="M27 74L155 417H42V497H246V423L122 80H246V0H27V74Z"  />
<glyph unicode="{" horiz-adv-x="313" d="M279 -108Q240 -108 216 -107T176 -102T150 -92T130 -75Q113 -57 106 -30T98 40V150Q98 194 86 215T41 245V317Q72 326 85 346T98 408V531Q98 605 132 636Q142 646 152 652T178 661T217 666T279 667V583Q250 583 232 579T203 564T188 536T183 493V394Q183 347 171 322T128 279Q159 262 171 236T183 162V66Q183 38 187 20T202 -8T231 -23T279 -28V-108Z"  />
<glyph unicode="|" horiz-adv-x="500" d="M203 667H297V-167H203V667Z"  />
<glyph unicode="}" horiz-adv-x="313" d="M34 -28Q62 -28 80 -24T110 -9T125 20T129 66V162Q129 210 141 236T184 279Q153 296 141 321T129 394V493Q129 519 125 536T110 563T81 578T34 583V667Q71 667 94 666T134 662T160 652T180 636Q214 605 214 531V408Q214 367 227 347T272 317V245Q240 236 227 215T214 150V40Q214 -3 207 -30T182 -75Q172 -86 162 -92T137 -101T97 -106T34 -108V-28Z"  />
<glyph unicode="~" horiz-adv-x="340" d="M288 722Q295 711 301 702T315 681Q304 649 283 627T226 604Q206 604 192 615T166 639T142 663T114 674Q89 674 75 657T51 616Q45 627 39 636T25 657Q38 687 59 710T115 733Q133 733 147 722T174 698T199 674T225 663Q251 663 265 681T288 722Z"  />
<glyph unicode="&#xA0;" horiz-adv-x="173" />
<glyph unicode="&#xA1;" horiz-adv-x="224" d="M81 310H140L164 -170H60L81 310ZM65 497H158V397H65V497Z"  />
<glyph unicode="&#xA2;" horiz-adv-x="340" d="M139 85Q113 91 94 109Q72 129 63 154T54 222V452Q54 566 139 588V667H207V587Q252 574 272 543T292 457Q292 454 292 451T292 444T292 432T291 411H205V431V453Q205 486 198 499T172 512Q155 512 148 500T141 461V212Q141 185 148 173T172 161Q191 161 198 174T205 220V243V271H291Q291 255 291 247T292 233T292 225T292 218Q292 108 207 86V0H139V85Z"  />
<glyph unicode="&#xA3;" horiz-adv-x="340" d="M28 70Q66 105 82 147T98 254Q98 268 97 281T94 310H38V390H78Q76 397 75 402T70 417Q61 448 56 466T47 497T44 518T43 538Q43 568 53 593T82 637T124 666T178 677Q237 677 272 638T308 532Q308 523 308 516T305 497H220Q221 504 221 510T221 520Q221 590 178 590Q134 590 134 538Q134 528 134 521T138 501T149 470T168 415Q170 408 172 403T176 390H259V310H190Q192 300 192 292T192 271Q192 214 180 168T142 76Q156 80 163 81T179 83Q182 83 186 83T216 79Q222 78 227 78T239 77Q256 77 271 80T307 93L330 15Q315 7 304 2T284 -5T265 -9T241 -10Q223 -10 208 -8T166 -1Q152 2 143 3T128 4Q116 4 103 1T59 -10L28 70Z"  />
<glyph unicode="&#xA4;" horiz-adv-x="340" d="M230 211Q203 190 170 190Q138 190 107 212L75 174L36 220L70 261Q61 279 58 296T54 333Q54 352 57 367T68 403L32 445L75 497L109 456Q140 477 170 477Q187 477 201 472T233 454L266 493L306 447L271 405Q279 387 282 370T286 333Q286 313 283 299T271 265L308 222L264 171L230 211ZM169 412Q145 412 127 389T108 333Q108 300 126 277T170 253Q195 253 213 276T232 331Q232 365 214 388T169 412Z"  />
<glyph unicode="&#xA5;" horiz-adv-x="340" d="M125 301H53V383H104L27 677H122L171 430L219 677H313L235 383H287V301H214V0H125V301Z"  />
<glyph unicode="&#xA6;" horiz-adv-x="500" d="M203 667H297V329H203V667ZM203 153H297V-167H203V153Z"  />
<glyph unicode="&#xA7;" horiz-adv-x="354" d="M136 133Q135 127 135 123T135 116Q135 69 168 69Q196 69 196 100Q196 114 182 134L85 261Q60 293 50 317T40 366Q40 434 108 467L99 478Q81 498 71 523T61 572Q61 620 94 648T181 677Q235 677 267 644T299 556Q299 550 299 545T298 527H210V548Q210 598 179 598Q167 598 160 591T152 571Q152 563 156 555T171 532L284 382Q314 343 314 294Q314 219 251 191L261 179Q275 161 282 139T290 95Q290 48 257 19T170 -10Q111 -10 78 23T45 114Q45 118 45 121T46 133H136ZM200 257Q225 269 225 297Q225 313 208 336L159 400Q132 386 132 365Q132 349 144 332L200 257Z"  />
<glyph unicode="&#xA8;" horiz-adv-x="500" d="M152 667H229V578H152V667ZM272 667H349V578H272V667Z"  />
<glyph unicode="&#xA9;" horiz-adv-x="780" d="M305 443Q305 541 389 541Q474 541 474 435Q474 427 474 420T473 400H410V431Q410 462 406 472T389 483Q377 483 373 475T369 443V226Q369 202 373 195T389 187Q401 187 405 197T410 237V281H473Q474 262 474 254T474 237Q474 129 389 129Q305 129 305 226V443ZM394 679Q464 679 525 652T633 577T707 467T734 333Q734 262 707 199T634 89T524 15T390 -12Q319 -12 256 15T146 89T72 199T45 333Q45 405 72 468T146 578T257 652T394 679ZM394 629Q332 629 278 606T185 543T122 449T99 333Q99 272 122 219T184 125T277 62T390 38Q450 38 503 61T595 124T657 218T680 333Q680 394 657 447T595 541T504 605T394 629Z"  />
<glyph unicode="&#xAA;" horiz-adv-x="207" d="M118 281L117 284Q105 272 96 268T74 263Q23 263 23 340Q23 388 50 416Q55 421 58 424T67 431T81 441T108 457L116 463V494Q116 509 114 513T103 517Q93 517 90 509T85 474H25Q27 502 30 515T41 540Q60 571 104 571Q139 571 158 552T178 497V318Q178 298 179 289T185 267H120L118 281ZM116 413Q99 399 92 383T85 344Q85 317 98 317Q107 317 116 330V413Z"  />
<glyph unicode="&#xAB;" horiz-adv-x="279" d="M163 178V322L239 403V284L213 250L239 216V97L163 178ZM40 178V322L116 397V284L90 250L116 216V103L40 178Z"  />
<glyph unicode="&#xAC;" horiz-adv-x="340" d="M254 198H22V281H317V68H254V198Z"  />
<glyph unicode="&#xAD;" horiz-adv-x="125" d="M0 287H125V209H0V287Z"  />
<glyph unicode="&#xAE;" horiz-adv-x="426" d="M168 591H202Q222 591 232 588T250 573Q255 565 258 555T262 527Q262 506 259 496T246 473L269 365H231L212 460Q208 459 204 459V365H168V591ZM207 495Q221 495 224 500T227 530Q227 547 224 552T207 558H204V495H207ZM216 672Q255 672 290 657T351 615T392 553T407 477Q407 437 392 402T351 341T289 299T214 284Q174 284 139 299T78 340T36 402T20 477Q20 518 35 553T76 615T139 657T216 672ZM216 644Q181 644 151 631T99 596T64 543T51 477Q51 443 64 413T99 361T150 325T214 312Q248 312 277 325T329 360T364 412T377 477Q377 511 364 541T330 595T279 631T216 644Z"  />
<glyph unicode="&#xAF;" horiz-adv-x="500" d="M168 641H332V574H168V641Z"  />
<glyph unicode="&#xB0;" horiz-adv-x="368" d="M184 674Q213 674 238 663T281 632T310 586T321 528Q321 499 310 473T281 428T237 397T184 386Q155 386 131 397T87 427T58 473T47 529Q47 559 57 585T87 631T130 662T184 674ZM183 609Q154 609 133 586T111 530Q111 497 132 473T184 449Q199 449 212 455T235 473T251 498T257 528Q257 562 236 585T183 609Z"  />
<glyph unicode="&#xB1;" horiz-adv-x="340" d="M37 134H303V68H37V134ZM133 291H37V357H133V466H206V357H303V291H206V185H133V291Z"  />
<glyph unicode="&#xB2;" horiz-adv-x="230" d="M31 316Q37 327 41 334T51 352T66 380T91 430Q104 457 113 476T127 511T134 541T136 572Q136 597 132 606T118 616Q105 616 101 603T97 546H35V566Q35 673 121 673Q159 673 179 650T199 584Q199 546 185 500T145 403Q143 399 132 380T99 324H195V266H31V316Z"  />
<glyph unicode="&#xB3;" horiz-adv-x="230" d="M133 409Q133 449 97 449Q96 449 93 449T86 448V505Q133 506 133 544V596Q133 615 118 615Q106 615 103 608T99 574Q99 572 99 567T100 556H38V574Q38 673 116 673Q155 673 176 647Q187 633 190 618T194 572Q194 549 193 534T190 510T182 494T167 480Q177 475 183 470T193 454T197 423T198 371Q198 336 194 319T179 288Q157 261 114 261Q32 261 32 359Q32 364 32 370T33 386H97Q96 379 96 376T96 368Q96 341 100 330T117 319Q127 319 130 326T133 355V409Z"  />
<glyph unicode="&#xB4;" horiz-adv-x="500" d="M245 653H341L269 578H199L245 653Z"  />
<glyph unicode="&#xB5;" horiz-adv-x="310" d="M37 497H124V129Q124 114 124 105T126 91T128 83T132 76Q139 64 153 64Q175 64 185 93V497H272V0H192L186 36Q176 -7 150 -7Q128 -7 124 17V-170H37V497Z"  />
<glyph unicode="&#xB6;" horiz-adv-x="418" d="M189 320Q157 321 130 335T83 372T52 426T40 492Q40 530 52 562T87 617T141 654T209 667H381V637H341V-100H293V637H238V-100H189V320Z"  />
<glyph unicode="&#xB7;" horiz-adv-x="187" d="M47 307H140V207H47V307Z"  />
<glyph unicode="&#xB8;" horiz-adv-x="500" d="M237 -114H211V-46H289V-114L267 -170H220L237 -114Z"  />
<glyph unicode="&#xB9;" horiz-adv-x="230" d="M87 584H57V628Q77 639 87 646T111 667H152V267H87V584Z"  />
<glyph unicode="&#xBA;" horiz-adv-x="208" d="M27 485Q27 571 104 571Q182 571 182 485V349Q182 263 105 263Q27 263 27 349V485ZM120 493Q120 517 105 517Q89 517 89 493V341Q89 317 105 317Q120 317 120 341V493Z"  />
<glyph unicode="&#xBB;" horiz-adv-x="279" d="M40 216L66 250L40 284V403L116 322V178L40 97V216ZM163 216L189 250L163 284V397L239 322V178L163 103V216Z"  />
<glyph unicode="&#xBC;" horiz-adv-x="545" d="M87 584H57V628Q77 639 87 646T111 667H152V267H87V584ZM342 700H392L200 -33H154L342 700ZM429 88H334V143L430 400H494V146H517V88H494V0H429V88ZM431 142V293L383 142H431Z"  />
<glyph unicode="&#xBD;" horiz-adv-x="545" d="M87 584H57V628Q77 639 87 646T111 667H152V267H87V584ZM342 700H392L200 -33H154L342 700ZM346 50Q352 60 356 67T365 85T380 114T406 164Q419 190 428 209T442 244T449 274T451 305Q451 330 447 339T433 349Q420 349 416 336T412 279H350V299Q350 406 436 406Q474 406 494 383T514 317Q514 279 500 234T460 137Q459 135 448 116T414 58H510V0H346V50Z"  />
<glyph unicode="&#xBE;" horiz-adv-x="545" d="M133 409Q133 449 97 449Q96 449 93 449T86 448V505Q133 506 133 544V596Q133 615 118 615Q106 615 103 608T99 574Q99 572 99 567T100 556H38V574Q38 673 116 673Q155 673 176 647Q187 633 190 618T194 572Q194 549 193 534T190 510T182 494T167 480Q177 475 183 470T193 454T197 423T198 371Q198 336 194 319T179 288Q157 261 114 261Q32 261 32 359Q32 364 32 370T33 386H97Q96 379 96 376T96 368Q96 341 100 330T117 319Q127 319 130 326T133 355V409ZM342 700H391L199 -33H153L342 700ZM429 88H334V143L430 400H494V146H517V88H494V0H429V88ZM431 142V293L383 142H431Z"  />
<glyph unicode="&#xBF;" horiz-adv-x="325" d="M285 -58Q255 -177 155 -177Q102 -177 70 -145T38 -60Q38 -45 39 -35T46 -10T64 29T98 95Q105 109 110 122T118 152T122 187T123 234V313H200V207Q200 174 199 154T194 114T180 71T153 6Q145 -12 141 -23T134 -42T130 -55T129 -65Q129 -77 138 -85T160 -94Q174 -94 185 -80T207 -31L285 -58ZM116 497H209V397H116V497Z"  />
<glyph unicode="&#xC0;" horiz-adv-x="352" d="M118 667H238L325 0H234L217 150H133L117 0H27L118 667ZM207 237L175 546L143 237H207ZM80 795H177L222 720H152L80 795Z"  />
<glyph unicode="&#xC1;" horiz-adv-x="352" d="M118 667H238L325 0H234L217 150H133L117 0H27L118 667ZM207 237L175 546L143 237H207ZM173 795H269L197 720H127L173 795Z"  />
<glyph unicode="&#xC2;" horiz-adv-x="352" d="M118 667H238L325 0H234L217 150H133L117 0H27L118 667ZM207 237L175 546L143 237H207ZM131 796H225L270 720H200L178 746L156 720H86L131 796Z"  />
<glyph unicode="&#xC3;" horiz-adv-x="352" d="M118 667H238L325 0H234L217 150H133L117 0H27L118 667ZM207 237L175 546L143 237H207ZM96 787Q109 795 119 798T143 802Q160 802 179 794Q197 786 204 784T220 782Q230 782 237 785T260 800V731Q245 720 238 717T220 713Q212 713 205 715T179 725Q160 733 143 733Q129 733 119 730T96 718V787Z"  />
<glyph unicode="&#xC4;" horiz-adv-x="352" d="M118 667H238L325 0H234L217 150H133L117 0H27L118 667ZM207 237L175 546L143 237H207ZM80 809H157V720H80V809ZM200 809H277V720H200V809Z"  />
<glyph unicode="&#xC5;" horiz-adv-x="352" d="M118 667H238L325 0H234L217 150H133L117 0H27L118 667ZM207 237L175 546L143 237H207ZM179 840Q209 840 230 820T252 771Q252 742 231 722T179 701Q148 701 127 721T105 771Q105 800 126 820T179 840ZM179 805Q164 805 153 795T142 771Q142 757 153 747T179 736Q194 736 204 746T215 771Q215 785 205 795T179 805Z"  />
<glyph unicode="&#xC6;" horiz-adv-x="491" d="M178 667H461V580H328V393H422V306H328V87H470V0H235V150H140L105 0H10L178 667ZM235 237V552L160 237H235Z"  />
<glyph unicode="&#xC7;" horiz-adv-x="340" d="M39 517Q39 677 170 677Q305 677 305 503Q305 491 305 481T303 450H210Q212 466 212 475T212 496Q212 551 204 570T170 590Q147 590 140 576T132 517V150Q132 106 139 92T170 77Q195 77 203 96T212 168Q212 183 212 198T210 237H303Q304 210 304 196T305 167Q305 -10 170 -10Q39 -10 39 150V517ZM161 -114H135V-46H213V-114L191 -170H144L161 -114Z"  />
<glyph unicode="&#xC8;" horiz-adv-x="294" d="M40 667H265V580H133V393H225V306H133V87H273V0H40V667ZM51 795H148L193 720H123L51 795Z"  />
<glyph unicode="&#xC9;" horiz-adv-x="294" d="M40 667H265V580H133V393H225V306H133V87H273V0H40V667ZM144 795H240L168 720H98L144 795Z"  />
<glyph unicode="&#xCA;" horiz-adv-x="294" d="M40 667H265V580H133V393H225V306H133V87H273V0H40V667ZM102 796H196L241 720H171L149 746L127 720H57L102 796Z"  />
<glyph unicode="&#xCB;" horiz-adv-x="294" d="M40 667H265V580H133V393H225V306H133V87H273V0H40V667ZM51 809H128V720H51V809ZM171 809H248V720H171V809Z"  />
<glyph unicode="&#xCC;" horiz-adv-x="173" d="M40 667H133V0H40V667ZM-10 795H87L132 720H62L-10 795Z"  />
<glyph unicode="&#xCD;" horiz-adv-x="173" d="M40 667H133V0H40V667ZM83 795H179L107 720H37L83 795Z"  />
<glyph unicode="&#xCE;" horiz-adv-x="173" d="M40 667H133V0H40V667ZM41 796H135L180 720H110L88 746L66 720H-4L41 796Z"  />
<glyph unicode="&#xCF;" horiz-adv-x="173" d="M40 667H133V0H40V667ZM-10 809H67V720H-10V809ZM110 809H187V720H110V809Z"  />
<glyph unicode="&#xD0;" horiz-adv-x="343" d="M40 306H6V393H40V667H139Q188 667 214 659T262 630Q304 589 304 513V154Q304 77 262 37Q241 16 215 8T139 0H40V306ZM145 87Q183 87 197 101T211 154V513Q211 551 197 565T145 580H133V393H165V306H133V87H145Z"  />
<glyph unicode="&#xD1;" horiz-adv-x="376" d="M40 667H120L243 274V667H336V0H243L133 350V0H40V667ZM108 787Q121 795 131 798T155 802Q172 802 191 794Q209 786 216 784T232 782Q242 782 249 785T272 800V731Q257 720 250 717T232 713Q224 713 217 715T191 725Q172 733 155 733Q141 733 131 730T108 718V787Z"  />
<glyph unicode="&#xD2;" horiz-adv-x="341" d="M39 498Q39 528 39 547T42 579T49 602T60 623Q77 648 106 662T171 677Q206 677 235 663T282 623Q289 612 293 603T299 580T302 547T303 498V170Q303 140 302 121T299 89T293 66T282 45Q265 19 236 5T171 -10Q136 -10 107 4T60 45Q53 56 49 65T43 88T40 121T39 170V498ZM210 536Q210 565 201 577T171 590Q151 590 142 578T132 536V131Q132 102 141 90T171 77Q191 77 200 89T210 131V536ZM74 795H171L216 720H146L74 795Z"  />
<glyph unicode="&#xD3;" horiz-adv-x="341" d="M39 498Q39 528 39 547T42 579T49 602T60 623Q77 648 106 662T171 677Q206 677 235 663T282 623Q289 612 293 603T299 580T302 547T303 498V170Q303 140 302 121T299 89T293 66T282 45Q265 19 236 5T171 -10Q136 -10 107 4T60 45Q53 56 49 65T43 88T40 121T39 170V498ZM210 536Q210 565 201 577T171 590Q151 590 142 578T132 536V131Q132 102 141 90T171 77Q191 77 200 89T210 131V536ZM167 795H263L191 720H121L167 795Z"  />
<glyph unicode="&#xD4;" horiz-adv-x="341" d="M39 498Q39 528 39 547T42 579T49 602T60 623Q77 648 106 662T171 677Q206 677 235 663T282 623Q289 612 293 603T299 580T302 547T303 498V170Q303 140 302 121T299 89T293 66T282 45Q265 19 236 5T171 -10Q136 -10 107 4T60 45Q53 56 49 65T43 88T40 121T39 170V498ZM210 536Q210 565 201 577T171 590Q151 590 142 578T132 536V131Q132 102 141 90T171 77Q191 77 200 89T210 131V536ZM125 796H219L264 720H194L172 746L150 720H80L125 796Z"  />
<glyph unicode="&#xD5;" horiz-adv-x="341" d="M39 498Q39 528 39 547T42 579T49 602T60 623Q77 648 106 662T171 677Q206 677 235 663T282 623Q289 612 293 603T299 580T302 547T303 498V170Q303 140 302 121T299 89T293 66T282 45Q265 19 236 5T171 -10Q136 -10 107 4T60 45Q53 56 49 65T43 88T40 121T39 170V498ZM210 536Q210 565 201 577T171 590Q151 590 142 578T132 536V131Q132 102 141 90T171 77Q191 77 200 89T210 131V536ZM90 787Q103 795 113 798T137 802Q154 802 173 794Q191 786 198 784T214 782Q224 782 231 785T254 800V731Q239 720 232 717T214 713Q206 713 199 715T173 725Q154 733 137 733Q123 733 113 730T90 718V787Z"  />
<glyph unicode="&#xD6;" horiz-adv-x="341" d="M39 498Q39 528 39 547T42 579T49 602T60 623Q77 648 106 662T171 677Q206 677 235 663T282 623Q289 612 293 603T299 580T302 547T303 498V170Q303 140 302 121T299 89T293 66T282 45Q265 19 236 5T171 -10Q136 -10 107 4T60 45Q53 56 49 65T43 88T40 121T39 170V498ZM210 536Q210 565 201 577T171 590Q151 590 142 578T132 536V131Q132 102 141 90T171 77Q191 77 200 89T210 131V536ZM74 809H151V720H74V809ZM194 809H271V720H194V809Z"  />
<glyph unicode="&#xD7;" horiz-adv-x="340" d="M168 296L100 229L53 275L121 343L44 420L95 471L172 395L241 463L288 417L219 348L294 272L243 221L168 296Z"  />
<glyph unicode="&#xD8;" horiz-adv-x="341" d="M61 42Q54 53 50 64T43 88T39 120T38 164V498Q38 528 38 547T41 579T48 602T59 623Q76 649 105 663T170 677Q215 677 252 652L266 698H302L279 625Q286 613 291 603T298 580T301 547T302 498V170Q302 140 301 121T298 89T292 66T281 45Q264 19 235 5T170 -10Q122 -10 86 17L70 -32H38L61 42ZM209 404L131 160V131Q131 102 140 90T170 77Q190 77 199 89T209 131V404ZM209 515V536Q209 565 200 578T170 591Q131 591 131 536V267L209 515Z"  />
<glyph unicode="&#xD9;" horiz-adv-x="344" d="M211 667H304V169Q304 139 303 120T300 88T294 65T283 44Q266 19 237 5T172 -10Q137 -10 108 4T61 44Q54 55 50 64T44 87T41 120T40 169V667H133V131Q133 102 142 90T172 77Q193 77 202 89T211 131V667ZM76 795H173L218 720H148L76 795Z"  />
<glyph unicode="&#xDA;" horiz-adv-x="344" d="M211 667H304V169Q304 139 303 120T300 88T294 65T283 44Q266 19 237 5T172 -10Q137 -10 108 4T61 44Q54 55 50 64T44 87T41 120T40 169V667H133V131Q133 102 142 90T172 77Q193 77 202 89T211 131V667ZM169 795H265L193 720H123L169 795Z"  />
<glyph unicode="&#xDB;" horiz-adv-x="344" d="M211 667H304V169Q304 139 303 120T300 88T294 65T283 44Q266 19 237 5T172 -10Q137 -10 108 4T61 44Q54 55 50 64T44 87T41 120T40 169V667H133V131Q133 102 142 90T172 77Q193 77 202 89T211 131V667ZM127 796H221L266 720H196L174 746L152 720H82L127 796Z"  />
<glyph unicode="&#xDC;" horiz-adv-x="344" d="M211 667H304V169Q304 139 303 120T300 88T294 65T283 44Q266 19 237 5T172 -10Q137 -10 108 4T61 44Q54 55 50 64T44 87T41 120T40 169V667H133V131Q133 102 142 90T172 77Q193 77 202 89T211 131V667ZM76 809H153V720H76V809ZM196 809H273V720H196V809Z"  />
<glyph unicode="&#xDD;" horiz-adv-x="327" d="M117 277L13 667H114L165 421L216 667H314L210 277V0H117V277ZM160 795H256L184 720H114L160 795Z"  />
<glyph unicode="&#xDE;" horiz-adv-x="329" d="M40 667H133V587H142Q193 587 220 577T268 540Q278 527 284 513T295 482T300 441T302 387Q302 354 301 331T295 290T284 259T267 234Q230 191 146 191H133V0H40V667ZM146 277Q167 277 179 281T199 298T209 332T212 389Q212 424 210 445T200 479T180 495T146 500H133V277H146Z"  />
<glyph unicode="&#xDF;" horiz-adv-x="309" d="M152 -6V74Q173 74 179 86T186 137V302Q186 341 180 351T150 362V440Q169 440 174 446T179 475V547Q179 574 173 586T151 598Q143 598 138 595T129 584T125 561T124 523V0H37V508Q37 555 40 579T55 624Q81 674 152 674Q211 674 238 640T266 533V507Q266 480 265 463T259 435T246 417T224 401Q252 393 262 378T273 328V162Q273 130 272 108T268 70T260 44T248 24Q237 11 214 2T168 -7L152 -6Z"  />
<glyph unicode="&#xE0;" horiz-adv-x="306" d="M186 0Q184 8 183 18T180 40Q149 -7 106 -7Q30 -7 30 119Q30 159 40 188T72 243Q80 252 85 257T99 268T122 285T163 312L180 323V379Q180 408 175 416T153 424Q143 424 137 421T127 410T121 388T117 351H33Q37 393 42 415T58 454Q87 504 154 504Q209 504 238 474T267 385V80Q267 64 267 53T268 34T271 17T276 0H186ZM180 255Q145 226 131 198T117 126Q117 74 144 74Q163 74 180 100V255ZM57 653H154L199 578H129L57 653Z"  />
<glyph unicode="&#xE1;" horiz-adv-x="306" d="M186 0Q184 8 183 18T180 40Q149 -7 106 -7Q30 -7 30 119Q30 159 40 188T72 243Q80 252 85 257T99 268T122 285T163 312L180 323V379Q180 408 175 416T153 424Q143 424 137 421T127 410T121 388T117 351H33Q37 393 42 415T58 454Q87 504 154 504Q209 504 238 474T267 385V80Q267 64 267 53T268 34T271 17T276 0H186ZM180 255Q145 226 131 198T117 126Q117 74 144 74Q163 74 180 100V255ZM150 653H246L174 578H104L150 653Z"  />
<glyph unicode="&#xE2;" horiz-adv-x="306" d="M186 0Q184 8 183 18T180 40Q149 -7 106 -7Q30 -7 30 119Q30 159 40 188T72 243Q80 252 85 257T99 268T122 285T163 312L180 323V379Q180 408 175 416T153 424Q143 424 137 421T127 410T121 388T117 351H33Q37 393 42 415T58 454Q87 504 154 504Q209 504 238 474T267 385V80Q267 64 267 53T268 34T271 17T276 0H186ZM180 255Q145 226 131 198T117 126Q117 74 144 74Q163 74 180 100V255ZM108 654H202L247 578H177L155 604L133 578H63L108 654Z"  />
<glyph unicode="&#xE3;" horiz-adv-x="306" d="M186 0Q184 8 183 18T180 40Q149 -7 106 -7Q30 -7 30 119Q30 159 40 188T72 243Q80 252 85 257T99 268T122 285T163 312L180 323V379Q180 408 175 416T153 424Q143 424 137 421T127 410T121 388T117 351H33Q37 393 42 415T58 454Q87 504 154 504Q209 504 238 474T267 385V80Q267 64 267 53T268 34T271 17T276 0H186ZM180 255Q145 226 131 198T117 126Q117 74 144 74Q163 74 180 100V255ZM73 645Q86 653 96 656T120 660Q137 660 156 652Q174 644 181 642T197 640Q207 640 214 643T237 658V589Q222 578 215 575T197 571Q189 571 182 573T156 583Q137 591 120 591Q106 591 96 588T73 576V645Z"  />
<glyph unicode="&#xE4;" horiz-adv-x="306" d="M186 0Q184 8 183 18T180 40Q149 -7 106 -7Q30 -7 30 119Q30 159 40 188T72 243Q80 252 85 257T99 268T122 285T163 312L180 323V379Q180 408 175 416T153 424Q143 424 137 421T127 410T121 388T117 351H33Q37 393 42 415T58 454Q87 504 154 504Q209 504 238 474T267 385V80Q267 64 267 53T268 34T271 17T276 0H186ZM180 255Q145 226 131 198T117 126Q117 74 144 74Q163 74 180 100V255ZM57 667H134V578H57V667ZM177 667H254V578H177V667Z"  />
<glyph unicode="&#xE5;" horiz-adv-x="306" d="M186 0Q184 8 183 18T180 40Q149 -7 106 -7Q30 -7 30 119Q30 159 40 188T72 243Q80 252 85 257T99 268T122 285T163 312L180 323V379Q180 408 175 416T153 424Q143 424 137 421T127 410T121 388T117 351H33Q37 393 42 415T58 454Q87 504 154 504Q209 504 238 474T267 385V80Q267 64 267 53T268 34T271 17T276 0H186ZM180 255Q145 226 131 198T117 126Q117 74 144 74Q163 74 180 100V255ZM156 698Q186 698 207 678T229 629Q229 600 208 580T156 559Q125 559 104 579T82 629Q82 658 103 678T156 698ZM156 663Q141 663 130 653T119 629Q119 615 130 605T156 594Q171 594 181 604T192 629Q192 643 182 653T156 663Z"  />
<glyph unicode="&#xE6;" horiz-adv-x="454" d="M331 154V174H417Q417 161 417 154T418 143T418 135T418 128Q418 62 387 28T294 -7Q259 -7 239 3T199 41Q173 14 154 4T112 -7Q30 -7 30 118Q30 197 72 243Q79 252 84 257T98 268T121 285T163 312L180 323V379Q180 408 175 416T153 424Q143 424 137 421T127 410T121 388T117 351H33Q37 393 42 414T58 454Q88 504 152 504Q177 504 192 497T226 469Q243 489 259 496T302 504Q356 504 386 471T417 380V234H267V124Q267 97 274 85T298 73Q331 73 331 132V154ZM180 255Q145 226 131 198T117 126Q117 74 145 74Q154 74 162 80T180 102V255ZM330 303V387Q330 424 299 424Q267 424 267 387V303H330Z"  />
<glyph unicode="&#xE7;" horiz-adv-x="299" d="M186 154V182H272Q273 167 273 159T274 146T274 137T274 129Q274 63 243 28T152 -7Q95 -7 62 35Q47 53 41 75T35 133V364Q35 399 41 421T62 462Q95 504 152 504Q211 504 242 470T274 369Q274 365 274 362T274 355T274 343T272 323H186V343V365Q186 398 179 411T153 424Q136 424 129 412T122 373V124Q122 97 129 85T153 73Q172 73 179 86T186 132V154ZM143 -114H117V-46H195V-114L173 -170H126L143 -114Z"  />
<glyph unicode="&#xE8;" horiz-adv-x="309" d="M186 154V174H272Q272 161 272 154T273 143T273 135T273 128Q273 62 242 28T152 -7Q95 -7 62 35Q47 54 41 76T35 133V365Q35 504 155 504Q210 504 241 471T272 380V234H122V124Q122 97 129 85T153 73Q186 73 186 132V154ZM185 303V387Q185 424 154 424Q122 424 122 387V303H185ZM59 653H156L201 578H131L59 653Z"  />
<glyph unicode="&#xE9;" horiz-adv-x="309" d="M186 154V174H272Q272 161 272 154T273 143T273 135T273 128Q273 62 242 28T152 -7Q95 -7 62 35Q47 54 41 76T35 133V365Q35 504 155 504Q210 504 241 471T272 380V234H122V124Q122 97 129 85T153 73Q186 73 186 132V154ZM185 303V387Q185 424 154 424Q122 424 122 387V303H185ZM151 653H247L175 578H105L151 653Z"  />
<glyph unicode="&#xEA;" horiz-adv-x="309" d="M186 154V174H272Q272 161 272 154T273 143T273 135T273 128Q273 62 242 28T152 -7Q95 -7 62 35Q47 54 41 76T35 133V365Q35 504 155 504Q210 504 241 471T272 380V234H122V124Q122 97 129 85T153 73Q186 73 186 132V154ZM185 303V387Q185 424 154 424Q122 424 122 387V303H185ZM109 654H203L248 578H178L156 604L134 578H64L109 654Z"  />
<glyph unicode="&#xEB;" horiz-adv-x="309" d="M186 154V174H272Q272 161 272 154T273 143T273 135T273 128Q273 62 242 28T152 -7Q95 -7 62 35Q47 54 41 76T35 133V365Q35 504 155 504Q210 504 241 471T272 380V234H122V124Q122 97 129 85T153 73Q186 73 186 132V154ZM185 303V387Q185 424 154 424Q122 424 122 387V303H185ZM58 667H135V578H58V667ZM178 667H255V578H178V667Z"  />
<glyph unicode="&#xEC;" horiz-adv-x="161" d="M37 497H124V0H37V497ZM-15 653H82L127 578H57L-15 653Z"  />
<glyph unicode="&#xED;" horiz-adv-x="161" d="M38 497H125V0H38V497ZM78 653H174L102 578H32L78 653Z"  />
<glyph unicode="&#xEE;" horiz-adv-x="161" d="M38 497H125V0H38V497ZM36 654H130L175 578H105L83 604L61 578H-9L36 654Z"  />
<glyph unicode="&#xEF;" horiz-adv-x="161" d="M-11 667H66V578H-11V667ZM95 667H172V578H95V667ZM37 497H124V0H37V497Z"  />
<glyph unicode="&#xF0;" horiz-adv-x="308" d="M35 361Q35 424 56 459Q67 479 89 491T135 503Q149 503 159 499T187 484Q179 517 172 538T153 575L109 538L83 569L129 608Q121 618 115 624T100 638L144 681Q154 673 159 668T178 650L232 694L258 664L205 620Q241 570 256 518T272 395V135Q272 62 242 28T149 -7Q35 -7 35 135V361ZM185 377Q185 423 154 423Q122 423 122 377V121Q122 75 154 75Q185 75 185 121V377Z"  />
<glyph unicode="&#xF1;" horiz-adv-x="310" d="M37 497H122L124 454Q151 483 168 493T205 504Q221 504 235 496T258 476Q266 463 269 446T272 390V0H185V387Q185 424 163 424Q154 424 146 420T124 404V0H37V497ZM75 645Q88 653 98 656T122 660Q139 660 158 652Q176 644 183 642T199 640Q209 640 216 643T239 658V589Q224 578 217 575T199 571Q191 571 184 573T158 583Q139 591 122 591Q108 591 98 588T75 576V645Z"  />
<glyph unicode="&#xF2;" horiz-adv-x="308" d="M35 364Q35 504 154 504Q272 504 272 364V133Q272 -7 154 -7Q35 -7 35 133V364ZM185 378Q185 424 154 424Q122 424 122 378V119Q122 73 154 73Q185 73 185 119V378ZM58 653H155L200 578H130L58 653Z"  />
<glyph unicode="&#xF3;" horiz-adv-x="308" d="M35 364Q35 504 154 504Q272 504 272 364V133Q272 -7 154 -7Q35 -7 35 133V364ZM185 378Q185 424 154 424Q122 424 122 378V119Q122 73 154 73Q185 73 185 119V378ZM151 653H247L175 578H105L151 653Z"  />
<glyph unicode="&#xF4;" horiz-adv-x="308" d="M35 364Q35 504 154 504Q272 504 272 364V133Q272 -7 154 -7Q35 -7 35 133V364ZM185 378Q185 424 154 424Q122 424 122 378V119Q122 73 154 73Q185 73 185 119V378ZM109 654H203L248 578H178L156 604L134 578H64L109 654Z"  />
<glyph unicode="&#xF5;" horiz-adv-x="308" d="M35 364Q35 504 154 504Q272 504 272 364V133Q272 -7 154 -7Q35 -7 35 133V364ZM185 378Q185 424 154 424Q122 424 122 378V119Q122 73 154 73Q185 73 185 119V378ZM74 645Q87 653 97 656T121 660Q138 660 157 652Q175 644 182 642T198 640Q208 640 215 643T238 658V589Q223 578 216 575T198 571Q190 571 183 573T157 583Q138 591 121 591Q107 591 97 588T74 576V645Z"  />
<glyph unicode="&#xF6;" horiz-adv-x="308" d="M35 364Q35 504 154 504Q272 504 272 364V133Q272 -7 154 -7Q35 -7 35 133V364ZM185 378Q185 424 154 424Q122 424 122 378V119Q122 73 154 73Q185 73 185 119V378ZM58 667H135V578H58V667ZM178 667H255V578H178V667Z"  />
<glyph unicode="&#xF7;" horiz-adv-x="340" d="M37 379H303V313H37V379ZM134 521H206V444H134V521ZM134 248H206V171H134V248Z"  />
<glyph unicode="&#xF8;" horiz-adv-x="308" d="M67 27Q49 47 42 71T35 133V364Q35 504 153 504Q169 504 184 501T211 492L227 543H260L238 473Q256 454 264 429T272 364V133Q272 -7 154 -7Q117 -7 90 8L76 -36H47L67 27ZM185 308L123 109Q127 73 154 73Q185 73 185 119V308ZM182 400Q176 424 154 424Q122 424 122 378V204L182 400Z"  />
<glyph unicode="&#xF9;" horiz-adv-x="310" d="M185 43Q158 14 141 4T104 -7Q88 -7 74 1T51 21Q43 34 40 51T37 107V497H124V110Q124 73 146 73Q155 73 163 77T185 93V497H272V0H192L185 43ZM59 653H156L201 578H131L59 653Z"  />
<glyph unicode="&#xFA;" horiz-adv-x="310" d="M185 43Q158 14 141 4T104 -7Q88 -7 74 1T51 21Q43 34 40 51T37 107V497H124V110Q124 73 146 73Q155 73 163 77T185 93V497H272V0H192L185 43ZM152 653H248L176 578H106L152 653Z"  />
<glyph unicode="&#xFB;" horiz-adv-x="310" d="M185 43Q158 14 141 4T104 -7Q88 -7 74 1T51 21Q43 34 40 51T37 107V497H124V110Q124 73 146 73Q155 73 163 77T185 93V497H272V0H192L185 43ZM110 654H204L249 578H179L157 604L135 578H65L110 654Z"  />
<glyph unicode="&#xFC;" horiz-adv-x="310" d="M185 43Q158 14 141 4T104 -7Q88 -7 74 1T51 21Q43 34 40 51T37 107V497H124V110Q124 73 146 73Q155 73 163 77T185 93V497H272V0H192L185 43ZM59 667H136V578H59V667ZM179 667H256V578H179V667Z"  />
<glyph unicode="&#xFD;" horiz-adv-x="284" d="M24 -91H32Q67 -91 81 -74T95 -15Q95 -4 95 3T94 20T91 40T86 72L17 497H102L142 205L184 497H268L177 -68Q160 -177 50 -177Q40 -177 24 -174V-91ZM139 653H235L163 578H93L139 653Z"  />
<glyph unicode="&#xFE;" horiz-adv-x="308" d="M37 667H124V450Q149 479 167 491T206 504Q221 504 235 496T258 475Q266 462 269 444T272 387V110Q272 72 269 54T258 22Q250 9 236 1T206 -7Q186 -7 168 5T124 47V-170H37V667ZM185 387Q185 424 163 424Q154 424 146 420T124 404V93Q138 82 146 78T163 73Q185 73 185 110V387Z"  />
<glyph unicode="&#xFF;" horiz-adv-x="284" d="M24 -91H32Q67 -91 81 -74T95 -15Q95 -4 95 3T94 20T91 40T86 72L17 497H102L142 205L184 497H268L177 -68Q160 -177 50 -177Q40 -177 24 -174V-91ZM46 667H123V578H46V667ZM166 667H243V578H166V667Z"  />
<glyph unicode="&#x100;" horiz-adv-x="352" d="M118 667H238L325 0H234L217 150H133L117 0H27L118 667ZM207 237L175 546L143 237H207ZM96 783H260V716H96V783Z"  />
<glyph unicode="&#x101;" horiz-adv-x="306" d="M186 0Q184 8 183 18T180 40Q149 -7 106 -7Q30 -7 30 119Q30 159 40 188T72 243Q80 252 85 257T99 268T122 285T163 312L180 323V379Q180 408 175 416T153 424Q143 424 137 421T127 410T121 388T117 351H33Q37 393 42 415T58 454Q87 504 154 504Q209 504 238 474T267 385V80Q267 64 267 53T268 34T271 17T276 0H186ZM180 255Q145 226 131 198T117 126Q117 74 144 74Q163 74 180 100V255ZM73 641H237V574H73V641Z"  />
<glyph unicode="&#x102;" horiz-adv-x="352" d="M118 667H238L325 0H234L217 150H133L117 0H27L118 667ZM207 237L175 546L143 237H207ZM134 797Q148 787 157 784T178 780Q189 780 198 783T221 797L269 764Q257 741 232 728T178 714Q149 714 124 727T86 764L134 797Z"  />
<glyph unicode="&#x103;" horiz-adv-x="306" d="M186 0Q184 8 183 18T180 40Q149 -7 106 -7Q30 -7 30 119Q30 159 40 188T72 243Q80 252 85 257T99 268T122 285T163 312L180 323V379Q180 408 175 416T153 424Q143 424 137 421T127 410T121 388T117 351H33Q37 393 42 415T58 454Q87 504 154 504Q209 504 238 474T267 385V80Q267 64 267 53T268 34T271 17T276 0H186ZM180 255Q145 226 131 198T117 126Q117 74 144 74Q163 74 180 100V255ZM111 655Q125 645 134 642T155 638Q166 638 175 641T198 655L246 622Q234 599 209 586T155 572Q126 572 101 585T63 622L111 655Z"  />
<glyph unicode="&#x104;" horiz-adv-x="352" d="M299 -147Q289 -152 282 -153T264 -154Q226 -154 204 -136T182 -88Q182 -65 194 -45T234 0L217 150H133L117 0H27L118 667H238L325 0H280Q257 -20 247 -35T236 -68Q236 -101 279 -101Q287 -101 292 -100T307 -96L299 -147ZM207 237L175 546L143 237H207Z"  />
<glyph unicode="&#x105;" horiz-adv-x="306" d="M251 -147Q241 -152 234 -153T216 -154Q178 -154 156 -136T134 -88Q134 -65 146 -45T186 0Q184 8 183 18T180 40Q149 -7 106 -7Q30 -7 30 119Q30 159 40 188T72 243Q80 252 85 257T99 268T122 285T163 312L180 323V379Q180 408 175 416T153 424Q143 424 137 421T127 410T121 388T117 351H33Q37 393 42 415T58 454Q87 504 154 504Q209 504 238 474T267 385V80Q267 64 267 53T268 34T271 17T276 0H232Q209 -20 199 -35T188 -68Q188 -101 231 -101Q239 -101 244 -100T259 -96L251 -147ZM180 255Q145 226 131 198T117 126Q117 74 144 74Q163 74 180 100V255Z"  />
<glyph unicode="&#x106;" horiz-adv-x="340" d="M39 517Q39 677 170 677Q305 677 305 503Q305 491 305 481T303 450H210Q212 466 212 475T212 496Q212 551 204 570T170 590Q147 590 140 576T132 517V150Q132 106 139 92T170 77Q195 77 203 96T212 168Q212 183 212 198T210 237H303Q304 210 304 196T305 167Q305 -10 170 -10Q39 -10 39 150V517ZM167 795H263L191 720H121L167 795Z"  />
<glyph unicode="&#x107;" horiz-adv-x="299" d="M186 154V182H272Q273 167 273 159T274 146T274 137T274 129Q274 63 243 28T152 -7Q95 -7 62 35Q47 53 41 75T35 133V364Q35 399 41 421T62 462Q95 504 152 504Q211 504 242 470T274 369Q274 365 274 362T274 355T274 343T272 323H186V343V365Q186 398 179 411T153 424Q136 424 129 412T122 373V124Q122 97 129 85T153 73Q172 73 179 86T186 132V154ZM146 653H242L170 578H100L146 653Z"  />
<glyph unicode="&#x108;" horiz-adv-x="340" d="M39 517Q39 677 170 677Q305 677 305 503Q305 491 305 481T303 450H210Q212 466 212 475T212 496Q212 551 204 570T170 590Q147 590 140 576T132 517V150Q132 106 139 92T170 77Q195 77 203 96T212 168Q212 183 212 198T210 237H303Q304 210 304 196T305 167Q305 -10 170 -10Q39 -10 39 150V517ZM125 796H219L264 720H194L172 746L150 720H80L125 796Z"  />
<glyph unicode="&#x109;" horiz-adv-x="299" d="M186 154V182H272Q273 167 273 159T274 146T274 137T274 129Q274 63 243 28T152 -7Q95 -7 62 35Q47 53 41 75T35 133V364Q35 399 41 421T62 462Q95 504 152 504Q211 504 242 470T274 369Q274 365 274 362T274 355T274 343T272 323H186V343V365Q186 398 179 411T153 424Q136 424 129 412T122 373V124Q122 97 129 85T153 73Q172 73 179 86T186 132V154ZM104 654H198L243 578H173L151 604L129 578H59L104 654Z"  />
<glyph unicode="&#x10A;" horiz-adv-x="340" d="M39 517Q39 677 170 677Q305 677 305 503Q305 491 305 481T303 450H210Q212 466 212 475T212 496Q212 551 204 570T170 590Q147 590 140 576T132 517V150Q132 106 139 92T170 77Q195 77 203 96T212 168Q212 183 212 198T210 237H303Q304 210 304 196T305 167Q305 -10 170 -10Q39 -10 39 150V517ZM129 809H216V720H129V809Z"  />
<glyph unicode="&#x10B;" horiz-adv-x="299" d="M186 154V182H272Q273 167 273 159T274 146T274 137T274 129Q274 63 243 28T152 -7Q95 -7 62 35Q47 53 41 75T35 133V364Q35 399 41 421T62 462Q95 504 152 504Q211 504 242 470T274 369Q274 365 274 362T274 355T274 343T272 323H186V343V365Q186 398 179 411T153 424Q136 424 129 412T122 373V124Q122 97 129 85T153 73Q172 73 179 86T186 132V154ZM108 667H195V578H108V667Z"  />
<glyph unicode="&#x10C;" horiz-adv-x="340" d="M39 517Q39 677 170 677Q305 677 305 503Q305 491 305 481T303 450H210Q212 466 212 475T212 496Q212 551 204 570T170 590Q147 590 140 576T132 517V150Q132 106 139 92T170 77Q195 77 203 96T212 168Q212 183 212 198T210 237H303Q304 210 304 196T305 167Q305 -10 170 -10Q39 -10 39 150V517ZM80 796H150L172 770L194 796H264L219 720H125L80 796Z"  />
<glyph unicode="&#x10D;" horiz-adv-x="299" d="M186 154V182H272Q273 167 273 159T274 146T274 137T274 129Q274 63 243 28T152 -7Q95 -7 62 35Q47 53 41 75T35 133V364Q35 399 41 421T62 462Q95 504 152 504Q211 504 242 470T274 369Q274 365 274 362T274 355T274 343T272 323H186V343V365Q186 398 179 411T153 424Q136 424 129 412T122 373V124Q122 97 129 85T153 73Q172 73 179 86T186 132V154ZM59 654H129L151 628L173 654H243L198 578H104L59 654Z"  />
<glyph unicode="&#x10E;" horiz-adv-x="343" d="M40 667H139Q188 667 214 659T262 630Q304 589 304 513V154Q304 77 262 37Q241 16 215 8T139 0H40V667ZM145 87Q183 87 197 101T211 154V513Q211 551 197 565T145 580H133V87H145ZM81 796H151L173 770L195 796H265L220 720H126L81 796Z"  />
<glyph unicode="&#x10F;" horiz-adv-x="309" d="M185 47Q160 18 142 6T103 -7Q88 -7 74 1T51 22Q43 35 40 53T37 110V387Q37 425 40 443T51 475Q59 488 73 496T103 504Q123 504 141 492T185 450V667H272V0H187L185 47ZM185 404Q171 415 163 419T146 424Q124 424 124 387V110Q124 73 146 73Q155 73 163 77T185 93V404ZM304 667H351L329 543H282L304 667Z"  />
<glyph unicode="&#x110;" horiz-adv-x="343" d="M40 306H6V393H40V667H139Q188 667 214 659T262 630Q304 589 304 513V154Q304 77 262 37Q241 16 215 8T139 0H40V306ZM145 87Q183 87 197 101T211 154V513Q211 551 197 565T145 580H133V393H165V306H133V87H145Z"  />
<glyph unicode="&#x111;" horiz-adv-x="309" d="M185 47Q160 18 142 6T103 -7Q88 -7 74 1T51 22Q43 35 40 53T37 110V387Q37 425 40 443T51 475Q59 488 73 496T103 504Q123 504 141 492T185 450V545H111V625H185V667H272V625H306V545H272V0H187L185 47ZM185 404Q171 415 163 419T146 424Q124 424 124 387V110Q124 73 146 73Q155 73 163 77T185 93V404Z"  />
<glyph unicode="&#x112;" horiz-adv-x="294" d="M40 667H265V580H133V393H225V306H133V87H273V0H40V667ZM67 783H231V716H67V783Z"  />
<glyph unicode="&#x113;" horiz-adv-x="309" d="M186 154V174H272Q272 161 272 154T273 143T273 135T273 128Q273 62 242 28T152 -7Q95 -7 62 35Q47 54 41 76T35 133V365Q35 504 155 504Q210 504 241 471T272 380V234H122V124Q122 97 129 85T153 73Q186 73 186 132V154ZM185 303V387Q185 424 154 424Q122 424 122 387V303H185ZM74 641H238V574H74V641Z"  />
<glyph unicode="&#x114;" horiz-adv-x="294" d="M40 667H265V580H133V393H225V306H133V87H273V0H40V667ZM105 797Q119 787 128 784T149 780Q160 780 169 783T192 797L240 764Q228 741 203 728T149 714Q120 714 95 727T57 764L105 797Z"  />
<glyph unicode="&#x115;" horiz-adv-x="309" d="M186 154V174H272Q272 161 272 154T273 143T273 135T273 128Q273 62 242 28T152 -7Q95 -7 62 35Q47 54 41 76T35 133V365Q35 504 155 504Q210 504 241 471T272 380V234H122V124Q122 97 129 85T153 73Q186 73 186 132V154ZM185 303V387Q185 424 154 424Q122 424 122 387V303H185ZM112 655Q126 645 135 642T156 638Q167 638 176 641T199 655L247 622Q235 599 210 586T156 572Q127 572 102 585T64 622L112 655Z"  />
<glyph unicode="&#x116;" horiz-adv-x="294" d="M40 667H265V580H133V393H225V306H133V87H273V0H40V667ZM106 809H193V720H106V809Z"  />
<glyph unicode="&#x117;" horiz-adv-x="309" d="M186 154V174H272Q272 161 272 154T273 143T273 135T273 128Q273 62 242 28T152 -7Q95 -7 62 35Q47 54 41 76T35 133V365Q35 504 155 504Q210 504 241 471T272 380V234H122V124Q122 97 129 85T153 73Q186 73 186 132V154ZM185 303V387Q185 424 154 424Q122 424 122 387V303H185ZM113 667H200V578H113V667Z"  />
<glyph unicode="&#x118;" horiz-adv-x="294" d="M273 -147Q263 -152 256 -153T238 -154Q200 -154 178 -136T156 -88Q156 -65 168 -45T208 0H40V667H265V580H133V393H225V306H133V87H273V0H254Q231 -20 221 -35T210 -68Q210 -101 253 -101Q261 -101 266 -100T281 -96L273 -147Z"  />
<glyph unicode="&#x119;" horiz-adv-x="309" d="M233 -147Q223 -152 216 -153T198 -154Q160 -154 138 -136T116 -88Q116 -66 126 -47T160 -7H152Q95 -7 62 35Q47 54 41 76T35 133V365Q35 504 155 504Q210 504 241 471T272 380V234H122V124Q122 97 129 85T153 73Q186 73 186 132V174H272Q272 161 272 154T273 143T273 135T273 128Q273 111 271 95T263 64T245 33T214 1Q190 -19 180 -35T170 -68Q170 -101 213 -101Q221 -101 226 -100T241 -96L233 -147ZM185 303V387Q185 424 154 424Q122 424 122 387V303H185Z"  />
<glyph unicode="&#x11A;" horiz-adv-x="294" d="M40 667H265V580H133V393H225V306H133V87H273V0H40V667ZM57 796H127L149 770L171 796H241L196 720H102L57 796Z"  />
<glyph unicode="&#x11B;" horiz-adv-x="309" d="M186 154V174H272Q272 161 272 154T273 143T273 135T273 128Q273 62 242 28T152 -7Q95 -7 62 35Q47 54 41 76T35 133V365Q35 504 155 504Q210 504 241 471T272 380V234H122V124Q122 97 129 85T153 73Q186 73 186 132V154ZM185 303V387Q185 424 154 424Q122 424 122 387V303H185ZM64 654H134L156 628L178 654H248L203 578H109L64 654Z"  />
<glyph unicode="&#x11C;" horiz-adv-x="343" d="M239 46Q201 -10 153 -10Q124 -10 98 6T58 49Q47 70 43 94T39 164V517Q39 677 171 677Q305 677 305 503Q305 492 305 481T303 450H210Q212 467 212 476T212 496Q212 551 204 570T170 590Q147 590 140 576T132 517V164Q132 145 132 134T133 116T135 105T139 96Q148 76 170 76Q194 76 205 101Q206 105 207 109T209 121T210 138T210 164V260H169V339H303V0H253L239 46ZM126 796H220L265 720H195L173 746L151 720H81L126 796Z"  />
<glyph unicode="&#x11D;" horiz-adv-x="305" d="M41 391Q41 443 70 473T147 504Q177 504 198 493T237 458Q250 481 264 491T302 504V422Q289 426 281 426Q274 426 269 424T255 417V383V261Q255 197 228 162T152 127Q147 127 141 127T129 128Q104 122 104 104Q104 85 128 77Q132 75 135 75T146 73T166 69T205 64Q253 58 280 28T307 -49Q307 -107 265 -142T154 -177Q89 -177 53 -153T16 -87Q16 -38 90 0Q57 11 44 24T31 59Q31 106 90 140Q64 160 53 185T41 247V391ZM179 388Q179 425 148 425Q117 425 117 388V244Q117 206 148 206Q179 206 179 244V388ZM146 -8Q120 -22 111 -32T102 -59Q102 -80 118 -92T161 -104Q190 -104 208 -91T226 -54Q226 -31 211 -22T146 -8ZM107 654H201L246 578H176L154 604L132 578H62L107 654Z"  />
<glyph unicode="&#x11E;" horiz-adv-x="343" d="M239 46Q201 -10 153 -10Q124 -10 98 6T58 49Q47 70 43 94T39 164V517Q39 677 171 677Q305 677 305 503Q305 492 305 481T303 450H210Q212 467 212 476T212 496Q212 551 204 570T170 590Q147 590 140 576T132 517V164Q132 145 132 134T133 116T135 105T139 96Q148 76 170 76Q194 76 205 101Q206 105 207 109T209 121T210 138T210 164V260H169V339H303V0H253L239 46ZM129 797Q143 787 152 784T173 780Q184 780 193 783T216 797L264 764Q252 741 227 728T173 714Q144 714 119 727T81 764L129 797Z"  />
<glyph unicode="&#x11F;" horiz-adv-x="305" d="M41 391Q41 443 70 473T147 504Q177 504 198 493T237 458Q250 481 264 491T302 504V422Q289 426 281 426Q274 426 269 424T255 417V383V261Q255 197 228 162T152 127Q147 127 141 127T129 128Q104 122 104 104Q104 85 128 77Q132 75 135 75T146 73T166 69T205 64Q253 58 280 28T307 -49Q307 -107 265 -142T154 -177Q89 -177 53 -153T16 -87Q16 -38 90 0Q57 11 44 24T31 59Q31 106 90 140Q64 160 53 185T41 247V391ZM179 388Q179 425 148 425Q117 425 117 388V244Q117 206 148 206Q179 206 179 244V388ZM146 -8Q120 -22 111 -32T102 -59Q102 -80 118 -92T161 -104Q190 -104 208 -91T226 -54Q226 -31 211 -22T146 -8ZM110 655Q124 645 133 642T154 638Q165 638 174 641T197 655L245 622Q233 599 208 586T154 572Q125 572 100 585T62 622L110 655Z"  />
<glyph unicode="&#x120;" horiz-adv-x="343" d="M239 46Q201 -10 153 -10Q124 -10 98 6T58 49Q47 70 43 94T39 164V517Q39 677 171 677Q305 677 305 503Q305 492 305 481T303 450H210Q212 467 212 476T212 496Q212 551 204 570T170 590Q147 590 140 576T132 517V164Q132 145 132 134T133 116T135 105T139 96Q148 76 170 76Q194 76 205 101Q206 105 207 109T209 121T210 138T210 164V260H169V339H303V0H253L239 46ZM130 809H217V720H130V809Z"  />
<glyph unicode="&#x121;" horiz-adv-x="305" d="M41 391Q41 443 70 473T147 504Q177 504 198 493T237 458Q250 481 264 491T302 504V422Q289 426 281 426Q274 426 269 424T255 417V383V261Q255 197 228 162T152 127Q147 127 141 127T129 128Q104 122 104 104Q104 85 128 77Q132 75 135 75T146 73T166 69T205 64Q253 58 280 28T307 -49Q307 -107 265 -142T154 -177Q89 -177 53 -153T16 -87Q16 -38 90 0Q57 11 44 24T31 59Q31 106 90 140Q64 160 53 185T41 247V391ZM179 388Q179 425 148 425Q117 425 117 388V244Q117 206 148 206Q179 206 179 244V388ZM146 -8Q120 -22 111 -32T102 -59Q102 -80 118 -92T161 -104Q190 -104 208 -91T226 -54Q226 -31 211 -22T146 -8ZM111 667H198V578H111V667Z"  />
<glyph unicode="&#x122;" horiz-adv-x="343" d="M239 46Q201 -10 153 -10Q124 -10 98 6T58 49Q47 70 43 94T39 164V517Q39 677 171 677Q305 677 305 503Q305 492 305 481T303 450H210Q212 467 212 476T212 496Q212 551 204 570T170 590Q147 590 140 576T132 517V164Q132 145 132 134T133 116T135 105T139 96Q148 76 170 76Q194 76 205 101Q206 105 207 109T209 121T210 138T210 164V260H169V339H303V0H253L239 46ZM160 -114H134V-46H212V-114L190 -170H143L160 -114Z"  />
<glyph unicode="&#x123;" horiz-adv-x="305" d="M41 391Q41 443 70 473T147 504Q177 504 198 493T237 458Q250 481 264 491T302 504V422Q289 426 281 426Q274 426 269 424T255 417V383V261Q255 197 228 162T152 127Q147 127 141 127T129 128Q104 122 104 104Q104 85 128 77Q132 75 135 75T146 73T166 69T205 64Q253 58 280 28T307 -49Q307 -107 265 -142T154 -177Q89 -177 53 -153T16 -87Q16 -38 90 0Q57 11 44 24T31 59Q31 106 90 140Q64 160 53 185T41 247V391ZM179 388Q179 425 148 425Q117 425 117 388V244Q117 206 148 206Q179 206 179 244V388ZM146 -8Q120 -22 111 -32T102 -59Q102 -80 118 -92T161 -104Q190 -104 208 -91T226 -54Q226 -31 211 -22T146 -8ZM115 635L137 691H184L167 635H193V567H115V635Z"  />
<glyph unicode="&#x124;" horiz-adv-x="342" d="M40 667H133V393H209V667H302V0H209V306H133V0H40V667ZM126 796H220L265 720H195L173 746L151 720H81L126 796Z"  />
<glyph unicode="&#x125;" horiz-adv-x="310" d="M37 667H124V450Q149 479 167 491T206 504Q221 504 235 496T258 475Q266 462 269 444T272 387V0H185V387Q185 424 163 424Q154 424 146 420T124 404V0H37V667ZM110 796H204L249 720H179L157 746L135 720H65L110 796Z"  />
<glyph unicode="&#x126;" horiz-adv-x="342" d="M40 486H6V573H40V667H133V573H209V667H302V573H336V486H302V0H209V306H133V0H40V486ZM209 393V486H133V393H209Z"  />
<glyph unicode="&#x127;" horiz-adv-x="310" d="M37 545H3V625H37V667H124V625H198V545H124V450Q149 479 167 491T206 504Q221 504 235 496T258 475Q266 462 269 444T272 387V0H185V387Q185 424 163 424Q154 424 146 420T124 404V0H37V545Z"  />
<glyph unicode="&#x128;" horiz-adv-x="173" d="M40 667H133V0H40V667ZM6 787Q19 795 29 798T53 802Q70 802 89 794Q107 786 114 784T130 782Q140 782 147 785T170 800V731Q155 720 148 717T130 713Q122 713 115 715T89 725Q70 733 53 733Q39 733 29 730T6 718V787Z"  />
<glyph unicode="&#x129;" horiz-adv-x="161" d="M37 497H124V0H37V497ZM0 645Q13 653 23 656T47 660Q64 660 83 652Q101 644 108 642T124 640Q134 640 141 643T164 658V589Q149 578 142 575T124 571Q116 571 109 573T83 583Q64 591 47 591Q33 591 23 588T0 576V645Z"  />
<glyph unicode="&#x12A;" horiz-adv-x="173" d="M40 667H133V0H40V667ZM6 783H170V716H6V783Z"  />
<glyph unicode="&#x12B;" horiz-adv-x="161" d="M37 497H124V0H37V497ZM0 641H164V574H0V641Z"  />
<glyph unicode="&#x12E;" horiz-adv-x="173" d="M40 667H133V0H122Q99 -20 89 -35T78 -68Q78 -101 121 -101Q129 -101 134 -100T149 -96L141 -147Q131 -152 124 -153T106 -154Q68 -154 46 -136T24 -88Q24 -65 36 -45T76 0H40V667Z"  />
<glyph unicode="&#x12F;" horiz-adv-x="161" d="M135 -147Q125 -152 118 -153T100 -154Q62 -154 40 -136T18 -88Q18 -65 30 -45T70 0H37V497H124V0H116Q93 -20 83 -35T72 -68Q72 -101 115 -101Q123 -101 128 -100T143 -96L135 -147ZM37 667H124V578H37V667Z"  />
<glyph unicode="&#x130;" horiz-adv-x="173" d="M40 667H133V0H40V667ZM45 809H132V720H45V809Z"  />
<glyph unicode="&#x131;" horiz-adv-x="161" d="M37 497H124V0H37V497Z"  />
<glyph unicode="&#x132;" horiz-adv-x="375" d="M40 667H133V0H40V667ZM183 92H190Q220 92 231 104T242 150V667H335V160Q335 136 335 120T333 93T330 73T324 57Q316 40 306 29T279 12T240 3T183 0V92Z"  />
<glyph unicode="&#x133;" horiz-adv-x="325" d="M37 497H124V0H37V497ZM37 667H124V578H37V667ZM146 -74Q158 -77 163 -77Q175 -77 182 -74T193 -62T199 -38T201 0V497H288V0Q288 -33 287 -55T283 -92T275 -117T261 -136Q236 -164 187 -164Q176 -164 168 -163T146 -157V-74ZM201 667H288V578H201V667Z"  />
<glyph unicode="&#x134;" horiz-adv-x="202" d="M10 92H17Q47 92 58 104T69 150V667H162V160Q162 136 162 120T160 93T157 73T151 57Q143 40 133 29T106 12T67 3T10 0V92ZM56 796H150L195 720H125L103 746L81 720H11L56 796Z"  />
<glyph unicode="&#x135;" horiz-adv-x="164" d="M-15 -74Q-3 -77 2 -77Q14 -77 21 -74T32 -62T38 -38T40 0V497H127V0Q127 -33 126 -55T122 -92T114 -117T100 -136Q75 -164 26 -164Q15 -164 7 -163T-15 -157V-74ZM37 654H131L176 578H106L84 604L62 578H-8L37 654Z"  />
<glyph unicode="&#x136;" horiz-adv-x="359" d="M40 667H133V416L224 667H319L235 442L339 0H242L173 315L133 206V0H40V667ZM168 -114H142V-46H220V-114L198 -170H151L168 -114Z"  />
<glyph unicode="&#x137;" horiz-adv-x="306" d="M37 667H124V305L190 497H272L208 338L290 0H204L152 241L124 172V0H37V667ZM142 -114H116V-46H194V-114L172 -170H125L142 -114Z"  />
<glyph unicode="&#x139;" horiz-adv-x="281" d="M40 667H133V87H265V0H40V667ZM137 795H233L161 720H91L137 795Z"  />
<glyph unicode="&#x13A;" horiz-adv-x="161" d="M37 667H124V0H37V667ZM77 795H173L101 720H31L77 795Z"  />
<glyph unicode="&#x13B;" horiz-adv-x="281" d="M40 667H133V87H265V0H40V667ZM139 -114H113V-46H191V-114L169 -170H122L139 -114Z"  />
<glyph unicode="&#x13C;" horiz-adv-x="161" d="M37 667H124V0H37V667ZM69 -114H43V-46H121V-114L99 -170H52L69 -114Z"  />
<glyph unicode="&#x13D;" horiz-adv-x="281" d="M40 667H133V87H265V0H40V667ZM177 667H224L202 543H155L177 667Z"  />
<glyph unicode="&#x13E;" horiz-adv-x="161" d="M37 667H124V0H37V667ZM158 667H205L183 543H136L158 667Z"  />
<glyph unicode="&#x13F;" horiz-adv-x="281" d="M40 667H133V87H265V0H40V667ZM165 396H252V307H165V396Z"  />
<glyph unicode="&#x140;" horiz-adv-x="221" d="M37 667H124V0H37V667ZM146 396H233V307H146V396Z"  />
<glyph unicode="&#x141;" horiz-adv-x="281" d="M40 279L13 259V360L40 380V667H133V439L203 492V391L133 338V87H264V0H40V279Z"  />
<glyph unicode="&#x142;" horiz-adv-x="204" d="M58 296L13 261V355L58 390V667H145V447L191 482V387L145 352V0H58V296Z"  />
<glyph unicode="&#x143;" horiz-adv-x="376" d="M40 667H120L243 274V667H336V0H243L133 350V0H40V667ZM185 795H281L209 720H139L185 795Z"  />
<glyph unicode="&#x144;" horiz-adv-x="310" d="M37 497H122L124 454Q151 483 168 493T205 504Q221 504 235 496T258 476Q266 463 269 446T272 390V0H185V387Q185 424 163 424Q154 424 146 420T124 404V0H37V497ZM152 653H248L176 578H106L152 653Z"  />
<glyph unicode="&#x145;" horiz-adv-x="376" d="M40 667H120L243 274V667H336V0H243L133 350V0H40V667ZM177 -114H151V-46H229V-114L207 -170H160L177 -114Z"  />
<glyph unicode="&#x146;" horiz-adv-x="310" d="M37 497H122L124 454Q151 483 168 493T205 504Q221 504 235 496T258 476Q266 463 269 446T272 390V0H185V387Q185 424 163 424Q154 424 146 420T124 404V0H37V497ZM144 -114H118V-46H196V-114L174 -170H127L144 -114Z"  />
<glyph unicode="&#x147;" horiz-adv-x="376" d="M40 667H120L243 274V667H336V0H243L133 350V0H40V667ZM98 796H168L190 770L212 796H282L237 720H143L98 796Z"  />
<glyph unicode="&#x148;" horiz-adv-x="310" d="M37 497H122L124 454Q151 483 168 493T205 504Q221 504 235 496T258 476Q266 463 269 446T272 390V0H185V387Q185 424 163 424Q154 424 146 420T124 404V0H37V497ZM65 654H135L157 628L179 654H249L204 578H110L65 654Z"  />
<glyph unicode="&#x149;" horiz-adv-x="310" d="M37 497H122L124 454Q151 483 168 493T205 504Q221 504 235 496T258 476Q266 463 269 446T272 390V0H185V387Q185 424 163 424Q154 424 146 420T124 404V0H37V497ZM27 667H74L52 543H5L27 667Z"  />
<glyph unicode="&#x14C;" horiz-adv-x="341" d="M39 498Q39 528 39 547T42 579T49 602T60 623Q77 648 106 662T171 677Q206 677 235 663T282 623Q289 612 293 603T299 580T302 547T303 498V170Q303 140 302 121T299 89T293 66T282 45Q265 19 236 5T171 -10Q136 -10 107 4T60 45Q53 56 49 65T43 88T40 121T39 170V498ZM210 536Q210 565 201 577T171 590Q151 590 142 578T132 536V131Q132 102 141 90T171 77Q191 77 200 89T210 131V536ZM90 783H254V716H90V783Z"  />
<glyph unicode="&#x14D;" horiz-adv-x="308" d="M35 364Q35 504 154 504Q272 504 272 364V133Q272 -7 154 -7Q35 -7 35 133V364ZM185 378Q185 424 154 424Q122 424 122 378V119Q122 73 154 73Q185 73 185 119V378ZM74 641H238V574H74V641Z"  />
<glyph unicode="&#x14E;" horiz-adv-x="341" d="M39 498Q39 528 39 547T42 579T49 602T60 623Q77 648 106 662T171 677Q206 677 235 663T282 623Q289 612 293 603T299 580T302 547T303 498V170Q303 140 302 121T299 89T293 66T282 45Q265 19 236 5T171 -10Q136 -10 107 4T60 45Q53 56 49 65T43 88T40 121T39 170V498ZM210 536Q210 565 201 577T171 590Q151 590 142 578T132 536V131Q132 102 141 90T171 77Q191 77 200 89T210 131V536ZM128 797Q142 787 151 784T172 780Q183 780 192 783T215 797L263 764Q251 741 226 728T172 714Q143 714 118 727T80 764L128 797Z"  />
<glyph unicode="&#x14F;" horiz-adv-x="308" d="M35 364Q35 504 154 504Q272 504 272 364V133Q272 -7 154 -7Q35 -7 35 133V364ZM185 378Q185 424 154 424Q122 424 122 378V119Q122 73 154 73Q185 73 185 119V378ZM112 655Q126 645 135 642T156 638Q167 638 176 641T199 655L247 622Q235 599 210 586T156 572Q127 572 102 585T64 622L112 655Z"  />
<glyph unicode="&#x150;" horiz-adv-x="341" d="M39 498Q39 528 39 547T42 579T49 602T60 623Q77 648 106 662T171 677Q206 677 235 663T282 623Q289 612 293 603T299 580T302 547T303 498V170Q303 140 302 121T299 89T293 66T282 45Q265 19 236 5T171 -10Q136 -10 107 4T60 45Q53 56 49 65T43 88T40 121T39 170V498ZM210 536Q210 565 201 577T171 590Q151 590 142 578T132 536V131Q132 102 141 90T171 77Q191 77 200 89T210 131V536ZM116 795H199L137 720H77L116 795ZM238 795H321L259 720H199L238 795Z"  />
<glyph unicode="&#x151;" horiz-adv-x="308" d="M35 364Q35 504 154 504Q272 504 272 364V133Q272 -7 154 -7Q35 -7 35 133V364ZM185 378Q185 424 154 424Q122 424 122 378V119Q122 73 154 73Q185 73 185 119V378ZM100 653H183L121 578H61L100 653ZM222 653H305L243 578H183L222 653Z"  />
<glyph unicode="&#x152;" horiz-adv-x="463" d="M210 0Q189 0 178 0T159 0T146 2T134 5Q72 20 50 75Q47 84 45 92T41 111T40 139T39 180V488Q39 513 39 529T41 556T44 575T50 592Q72 647 134 662Q141 664 146 665T158 666T177 667T210 667H434V580H303V393H395V306H303V87H442V0H210ZM210 87V580H171Q151 580 142 568T132 526V141Q132 112 141 100T171 87H210Z"  />
<glyph unicode="&#x153;" horiz-adv-x="460" d="M337 154V174H423Q423 161 423 154T424 143T424 135T424 128Q424 62 393 28T302 -7Q281 -7 266 -2T229 20Q208 3 193 -2T151 -7Q94 -7 65 28T35 133V364Q35 433 64 468T151 504Q173 504 189 499T229 480Q253 494 269 499T308 504Q362 504 392 471T423 380V234H273V124Q273 97 280 85T304 73Q338 73 337 132V154ZM186 378Q186 424 154 424Q122 424 122 378V119Q122 73 154 73Q186 73 186 119V378ZM336 303V387Q336 424 305 424Q273 424 273 387V303H336Z"  />
<glyph unicode="&#x154;" horiz-adv-x="348" d="M40 667H131Q159 667 180 665T218 657T246 642T268 618Q285 594 293 561T302 481Q302 450 300 428T293 387T278 353T255 319L320 0H220L166 287Q154 285 149 285T133 283V0H40V667ZM146 377Q190 377 203 402Q206 407 207 413T209 429T210 453T211 491Q211 518 208 535T198 562T178 576T146 580H133V377H146ZM171 795H267L195 720H125L171 795Z"  />
<glyph unicode="&#x155;" horiz-adv-x="213" d="M37 497H124V435Q157 504 208 504H212V407Q198 409 192 410T180 411Q124 411 124 337V0H37V497ZM103 653H199L127 578H57L103 653Z"  />
<glyph unicode="&#x156;" horiz-adv-x="348" d="M40 667H131Q159 667 180 665T218 657T246 642T268 618Q285 594 293 561T302 481Q302 450 300 428T293 387T278 353T255 319L320 0H220L166 287Q154 285 149 285T133 283V0H40V667ZM146 377Q190 377 203 402Q206 407 207 413T209 429T210 453T211 491Q211 518 208 535T198 562T178 576T146 580H133V377H146ZM163 -114H137V-46H215V-114L193 -170H146L163 -114Z"  />
<glyph unicode="&#x157;" horiz-adv-x="213" d="M37 497H124V435Q157 504 208 504H212V407Q198 409 192 410T180 411Q124 411 124 337V0H37V497ZM95 -114H69V-46H147V-114L125 -170H78L95 -114Z"  />
<glyph unicode="&#x158;" horiz-adv-x="348" d="M40 667H131Q159 667 180 665T218 657T246 642T268 618Q285 594 293 561T302 481Q302 450 300 428T293 387T278 353T255 319L320 0H220L166 287Q154 285 149 285T133 283V0H40V667ZM146 377Q190 377 203 402Q206 407 207 413T209 429T210 453T211 491Q211 518 208 535T198 562T178 576T146 580H133V377H146ZM84 796H154L176 770L198 796H268L223 720H129L84 796Z"  />
<glyph unicode="&#x159;" horiz-adv-x="213" d="M37 497H124V435Q157 504 208 504H212V407Q198 409 192 410T180 411Q124 411 124 337V0H37V497ZM16 654H86L108 628L130 654H200L155 578H61L16 654Z"  />
<glyph unicode="&#x15A;" horiz-adv-x="324" d="M118 197V168Q118 116 128 97T166 77Q208 77 208 143Q208 159 206 173T197 202T179 234T151 274L105 342Q84 374 70 399T46 447T33 490T29 533Q29 599 66 638T166 677Q214 677 246 652T288 580Q290 571 291 565T292 550T293 530T293 497L202 488Q202 514 202 525T199 548Q194 590 160 590Q121 590 121 528Q121 513 122 502T130 476T150 441T187 385L234 317Q266 269 283 221T301 129Q301 62 266 26T165 -10Q92 -10 54 41Q37 64 31 88T25 157Q25 168 25 174T26 193L118 197ZM159 795H255L183 720H113L159 795Z"  />
<glyph unicode="&#x15B;" horiz-adv-x="274" d="M104 132Q103 126 103 123T103 116Q103 73 136 73Q151 73 160 84T169 116Q169 128 167 137T160 157T144 179T119 207L85 242Q28 302 28 379Q28 504 148 504Q183 504 208 489T245 444Q250 430 252 416T254 378L171 372V379Q171 424 142 424Q113 424 113 377Q113 354 121 338T149 300L184 264Q224 222 240 190T256 121Q256 63 223 28T136 -7Q82 -7 51 25T19 114Q19 121 20 126L104 132ZM134 653H230L158 578H88L134 653Z"  />
<glyph unicode="&#x15C;" horiz-adv-x="324" d="M118 197V168Q118 116 128 97T166 77Q208 77 208 143Q208 159 206 173T197 202T179 234T151 274L105 342Q84 374 70 399T46 447T33 490T29 533Q29 599 66 638T166 677Q214 677 246 652T288 580Q290 571 291 565T292 550T293 530T293 497L202 488Q202 514 202 525T199 548Q194 590 160 590Q121 590 121 528Q121 513 122 502T130 476T150 441T187 385L234 317Q266 269 283 221T301 129Q301 62 266 26T165 -10Q92 -10 54 41Q37 64 31 88T25 157Q25 168 25 174T26 193L118 197ZM117 796H211L256 720H186L164 746L142 720H72L117 796Z"  />
<glyph unicode="&#x15D;" horiz-adv-x="274" d="M104 132Q103 126 103 123T103 116Q103 73 136 73Q151 73 160 84T169 116Q169 128 167 137T160 157T144 179T119 207L85 242Q28 302 28 379Q28 504 148 504Q183 504 208 489T245 444Q250 430 252 416T254 378L171 372V379Q171 424 142 424Q113 424 113 377Q113 354 121 338T149 300L184 264Q224 222 240 190T256 121Q256 63 223 28T136 -7Q82 -7 51 25T19 114Q19 121 20 126L104 132ZM92 654H186L231 578H161L139 604L117 578H47L92 654Z"  />
<glyph unicode="&#x15E;" horiz-adv-x="324" d="M118 197V168Q118 116 128 97T166 77Q208 77 208 143Q208 159 206 173T197 202T179 234T151 274L105 342Q84 374 70 399T46 447T33 490T29 533Q29 599 66 638T166 677Q214 677 246 652T288 580Q290 571 291 565T292 550T293 530T293 497L202 488Q202 514 202 525T199 548Q194 590 160 590Q121 590 121 528Q121 513 122 502T130 476T150 441T187 385L234 317Q266 269 283 221T301 129Q301 62 266 26T165 -10Q92 -10 54 41Q37 64 31 88T25 157Q25 168 25 174T26 193L118 197ZM151 -114H125V-46H203V-114L181 -170H134L151 -114Z"  />
<glyph unicode="&#x15F;" horiz-adv-x="274" d="M104 132Q103 126 103 123T103 116Q103 73 136 73Q151 73 160 84T169 116Q169 128 167 137T160 157T144 179T119 207L85 242Q28 302 28 379Q28 504 148 504Q183 504 208 489T245 444Q250 430 252 416T254 378L171 372V379Q171 424 142 424Q113 424 113 377Q113 354 121 338T149 300L184 264Q224 222 240 190T256 121Q256 63 223 28T136 -7Q82 -7 51 25T19 114Q19 121 20 126L104 132ZM126 -114H100V-46H178V-114L156 -170H109L126 -114Z"  />
<glyph unicode="&#x160;" horiz-adv-x="324" d="M118 197V168Q118 116 128 97T166 77Q208 77 208 143Q208 159 206 173T197 202T179 234T151 274L105 342Q84 374 70 399T46 447T33 490T29 533Q29 599 66 638T166 677Q214 677 246 652T288 580Q290 571 291 565T292 550T293 530T293 497L202 488Q202 514 202 525T199 548Q194 590 160 590Q121 590 121 528Q121 513 122 502T130 476T150 441T187 385L234 317Q266 269 283 221T301 129Q301 62 266 26T165 -10Q92 -10 54 41Q37 64 31 88T25 157Q25 168 25 174T26 193L118 197ZM72 796H142L164 770L186 796H256L211 720H117L72 796Z"  />
<glyph unicode="&#x161;" horiz-adv-x="274" d="M104 132Q103 126 103 123T103 116Q103 73 136 73Q151 73 160 84T169 116Q169 128 167 137T160 157T144 179T119 207L85 242Q28 302 28 379Q28 504 148 504Q183 504 208 489T245 444Q250 430 252 416T254 378L171 372V379Q171 424 142 424Q113 424 113 377Q113 354 121 338T149 300L184 264Q224 222 240 190T256 121Q256 63 223 28T136 -7Q82 -7 51 25T19 114Q19 121 20 126L104 132ZM47 654H117L139 628L161 654H231L186 578H92L47 654Z"  />
<glyph unicode="&#x162;" horiz-adv-x="285" d="M94 580H7V667H278V580H187V0H94V580ZM131 -114H105V-46H183V-114L161 -170H114L131 -114Z"  />
<glyph unicode="&#x163;" horiz-adv-x="213" d="M205 80V0Q186 -4 176 -5T155 -7Q57 -7 57 95V417H15V497H57V633H144V497H205V417H144V125Q144 79 189 79L205 80ZM95 -114H69V-46H147V-114L125 -170H78L95 -114Z"  />
<glyph unicode="&#x164;" horiz-adv-x="285" d="M94 580H7V667H278V580H187V0H94V580ZM52 796H122L144 770L166 796H236L191 720H97L52 796Z"  />
<glyph unicode="&#x165;" horiz-adv-x="213" d="M205 80V0Q186 -4 176 -5T155 -7Q57 -7 57 95V417H15V497H57V633H144V497H205V417H144V125Q144 79 189 79L205 80ZM178 667H225L203 543H156L178 667Z"  />
<glyph unicode="&#x166;" horiz-adv-x="285" d="M187 306V0H94V306H36V393H94V580H7V667H278V580H187V393H245V306H187Z"  />
<glyph unicode="&#x167;" horiz-adv-x="213" d="M29 342H57V417H15V497H57V633H144V497H205V417H144V342H185V262H144V125Q144 79 189 79L205 80V0Q186 -4 176 -5T155 -7Q57 -7 57 95V262H29V342Z"  />
<glyph unicode="&#x168;" horiz-adv-x="344" d="M211 667H304V169Q304 139 303 120T300 88T294 65T283 44Q266 19 237 5T172 -10Q137 -10 108 4T61 44Q54 55 50 64T44 87T41 120T40 169V667H133V131Q133 102 142 90T172 77Q193 77 202 89T211 131V667ZM92 787Q105 795 115 798T139 802Q156 802 175 794Q193 786 200 784T216 782Q226 782 233 785T256 800V731Q241 720 234 717T216 713Q208 713 201 715T175 725Q156 733 139 733Q125 733 115 730T92 718V787Z"  />
<glyph unicode="&#x169;" horiz-adv-x="310" d="M185 43Q158 14 141 4T104 -7Q88 -7 74 1T51 21Q43 34 40 51T37 107V497H124V110Q124 73 146 73Q155 73 163 77T185 93V497H272V0H192L185 43ZM75 645Q88 653 98 656T122 660Q139 660 158 652Q176 644 183 642T199 640Q209 640 216 643T239 658V589Q224 578 217 575T199 571Q191 571 184 573T158 583Q139 591 122 591Q108 591 98 588T75 576V645Z"  />
<glyph unicode="&#x16A;" horiz-adv-x="344" d="M211 667H304V169Q304 139 303 120T300 88T294 65T283 44Q266 19 237 5T172 -10Q137 -10 108 4T61 44Q54 55 50 64T44 87T41 120T40 169V667H133V131Q133 102 142 90T172 77Q193 77 202 89T211 131V667ZM92 783H256V716H92V783Z"  />
<glyph unicode="&#x16B;" horiz-adv-x="310" d="M185 43Q158 14 141 4T104 -7Q88 -7 74 1T51 21Q43 34 40 51T37 107V497H124V110Q124 73 146 73Q155 73 163 77T185 93V497H272V0H192L185 43ZM75 641H239V574H75V641Z"  />
<glyph unicode="&#x16C;" horiz-adv-x="344" d="M211 667H304V169Q304 139 303 120T300 88T294 65T283 44Q266 19 237 5T172 -10Q137 -10 108 4T61 44Q54 55 50 64T44 87T41 120T40 169V667H133V131Q133 102 142 90T172 77Q193 77 202 89T211 131V667ZM130 797Q144 787 153 784T174 780Q185 780 194 783T217 797L265 764Q253 741 228 728T174 714Q145 714 120 727T82 764L130 797Z"  />
<glyph unicode="&#x16D;" horiz-adv-x="310" d="M185 43Q158 14 141 4T104 -7Q88 -7 74 1T51 21Q43 34 40 51T37 107V497H124V110Q124 73 146 73Q155 73 163 77T185 93V497H272V0H192L185 43ZM113 655Q127 645 136 642T157 638Q168 638 177 641T200 655L248 622Q236 599 211 586T157 572Q128 572 103 585T65 622L113 655Z"  />
<glyph unicode="&#x16E;" horiz-adv-x="344" d="M211 667H304V169Q304 139 303 120T300 88T294 65T283 44Q266 19 237 5T172 -10Q137 -10 108 4T61 44Q54 55 50 64T44 87T41 120T40 169V667H133V131Q133 102 142 90T172 77Q193 77 202 89T211 131V667ZM175 840Q205 840 226 820T248 771Q248 742 227 722T175 701Q144 701 123 721T101 771Q101 800 122 820T175 840ZM175 805Q160 805 149 795T138 771Q138 757 149 747T175 736Q190 736 200 746T211 771Q211 785 201 795T175 805Z"  />
<glyph unicode="&#x16F;" horiz-adv-x="310" d="M185 43Q158 14 141 4T104 -7Q88 -7 74 1T51 21Q43 34 40 51T37 107V497H124V110Q124 73 146 73Q155 73 163 77T185 93V497H272V0H192L185 43ZM158 698Q188 698 209 678T231 629Q231 600 210 580T158 559Q127 559 106 579T84 629Q84 658 105 678T158 698ZM158 663Q143 663 132 653T121 629Q121 615 132 605T158 594Q173 594 183 604T194 629Q194 643 184 653T158 663Z"  />
<glyph unicode="&#x170;" horiz-adv-x="344" d="M211 667H304V169Q304 139 303 120T300 88T294 65T283 44Q266 19 237 5T172 -10Q137 -10 108 4T61 44Q54 55 50 64T44 87T41 120T40 169V667H133V131Q133 102 142 90T172 77Q193 77 202 89T211 131V667ZM118 795H201L139 720H79L118 795ZM240 795H323L261 720H201L240 795Z"  />
<glyph unicode="&#x171;" horiz-adv-x="310" d="M185 43Q158 14 141 4T104 -7Q88 -7 74 1T51 21Q43 34 40 51T37 107V497H124V110Q124 73 146 73Q155 73 163 77T185 93V497H272V0H192L185 43ZM101 653H184L122 578H62L101 653ZM223 653H306L244 578H184L223 653Z"  />
<glyph unicode="&#x172;" horiz-adv-x="344" d="M253 -147Q243 -152 236 -153T218 -154Q180 -154 158 -136T136 -88Q136 -67 145 -49T176 -10H172Q137 -10 108 4T61 44Q54 55 50 64T44 87T41 120T40 169V667H133V131Q133 102 142 90T172 77Q193 77 202 89T211 131V667H304V169Q304 139 303 120T300 88T294 65T283 44Q268 23 245 9Q213 -17 202 -34T190 -68Q190 -101 233 -101Q241 -101 246 -100T261 -96L253 -147Z"  />
<glyph unicode="&#x173;" horiz-adv-x="310" d="M257 -147Q247 -152 240 -153T222 -154Q184 -154 162 -136T140 -88Q140 -65 152 -45T192 0L185 43Q158 14 141 4T104 -7Q88 -7 74 1T51 21Q43 34 40 51T37 107V497H124V110Q124 73 146 73Q155 73 163 77T185 93V497H272V0H238Q215 -20 205 -35T194 -68Q194 -101 237 -101Q245 -101 250 -100T265 -96L257 -147Z"  />
<glyph unicode="&#x174;" horiz-adv-x="467" d="M20 667H105L152 288L197 667H270L315 274L362 667H447L362 0H281L232 359L188 0H105L20 667ZM188 796H282L327 720H257L235 746L213 720H143L188 796Z"  />
<glyph unicode="&#x175;" horiz-adv-x="417" d="M17 497H95L135 231L177 497H241L285 226L324 497H400L324 0H257L210 285L161 0H95L17 497ZM163 654H257L302 578H232L210 604L188 578H118L163 654Z"  />
<glyph unicode="&#x176;" horiz-adv-x="327" d="M117 277L13 667H114L165 421L216 667H314L210 277V0H117V277ZM118 796H212L257 720H187L165 746L143 720H73L118 796Z"  />
<glyph unicode="&#x177;" horiz-adv-x="284" d="M24 -91H32Q67 -91 81 -74T95 -15Q95 -4 95 3T94 20T91 40T86 72L17 497H102L142 205L184 497H268L177 -68Q160 -177 50 -177Q40 -177 24 -174V-91ZM97 654H191L236 578H166L144 604L122 578H52L97 654Z"  />
<glyph unicode="&#x178;" horiz-adv-x="327" d="M117 277L13 667H114L165 421L216 667H314L210 277V0H117V277ZM67 809H144V720H67V809ZM187 809H264V720H187V809Z"  />
<glyph unicode="&#x179;" horiz-adv-x="313" d="M27 87L193 580H46V667H286V580L120 87H286V0H27V87ZM153 795H249L177 720H107L153 795Z"  />
<glyph unicode="&#x17A;" horiz-adv-x="273" d="M27 74L155 417H42V497H246V423L122 80H246V0H27V74ZM133 653H229L157 578H87L133 653Z"  />
<glyph unicode="&#x17B;" horiz-adv-x="313" d="M27 87L193 580H46V667H286V580L120 87H286V0H27V87ZM115 809H202V720H115V809Z"  />
<glyph unicode="&#x17C;" horiz-adv-x="273" d="M27 74L155 417H42V497H246V423L122 80H246V0H27V74ZM95 667H182V578H95V667Z"  />
<glyph unicode="&#x17D;" horiz-adv-x="313" d="M27 87L193 580H46V667H286V580L120 87H286V0H27V87ZM67 796H137L159 770L181 796H251L206 720H112L67 796Z"  />
<glyph unicode="&#x17E;" horiz-adv-x="273" d="M27 74L155 417H42V497H246V423L122 80H246V0H27V74ZM47 654H117L139 628L161 654H231L186 578H92L47 654Z"  />
<glyph unicode="&#x192;" horiz-adv-x="340" d="M129 466H90L98 547H138L144 606Q156 720 254 720Q259 720 268 720T286 718L278 638L266 639Q234 641 231 606L224 547H268L260 466H216L157 -100H70L129 466Z"  />
<glyph unicode="&#x218;" horiz-adv-x="324" d="M118 197V168Q118 116 128 97T166 77Q208 77 208 143Q208 159 206 173T197 202T179 234T151 274L105 342Q84 374 70 399T46 447T33 490T29 533Q29 599 66 638T166 677Q214 677 246 652T288 580Q290 571 291 565T292 550T293 530T293 497L202 488Q202 514 202 525T199 548Q194 590 160 590Q121 590 121 528Q121 513 122 502T130 476T150 441T187 385L234 317Q266 269 283 221T301 129Q301 62 266 26T165 -10Q92 -10 54 41Q37 64 31 88T25 157Q25 168 25 174T26 193L118 197ZM151 -114H125V-46H203V-114L181 -170H134L151 -114Z"  />
<glyph unicode="&#x219;" horiz-adv-x="274" d="M104 132Q103 126 103 123T103 116Q103 73 136 73Q151 73 160 84T169 116Q169 128 167 137T160 157T144 179T119 207L85 242Q28 302 28 379Q28 504 148 504Q183 504 208 489T245 444Q250 430 252 416T254 378L171 372V379Q171 424 142 424Q113 424 113 377Q113 354 121 338T149 300L184 264Q224 222 240 190T256 121Q256 63 223 28T136 -7Q82 -7 51 25T19 114Q19 121 20 126L104 132ZM126 -114H100V-46H178V-114L156 -170H109L126 -114Z"  />
<glyph unicode="&#x21A;" horiz-adv-x="285" d="M94 580H7V667H278V580H187V0H94V580ZM131 -114H105V-46H183V-114L161 -170H114L131 -114Z"  />
<glyph unicode="&#x21B;" horiz-adv-x="213" d="M205 80V0Q186 -4 176 -5T155 -7Q57 -7 57 95V417H15V497H57V633H144V497H205V417H144V125Q144 79 189 79L205 80ZM95 -114H69V-46H147V-114L125 -170H78L95 -114Z"  />
<glyph unicode="&#x237;" horiz-adv-x="164" d="M-15 -74Q-3 -77 2 -77Q14 -77 21 -74T32 -62T38 -38T40 0V497H127V0Q127 -33 126 -55T122 -92T114 -117T100 -136Q75 -164 26 -164Q15 -164 7 -163T-15 -157V-74Z"  />
<glyph unicode="&#x2C6;" horiz-adv-x="500" d="M203 654H297L342 578H272L250 604L228 578H158L203 654Z"  />
<glyph unicode="&#x2C7;" horiz-adv-x="500" d="M158 654H228L250 628L272 654H342L297 578H203L158 654Z"  />
<glyph unicode="&#x2C9;" horiz-adv-x="500" d="M168 641H332V574H168V641Z"  />
<glyph unicode="&#x2D8;" horiz-adv-x="500" d="M206 655Q220 645 229 642T250 638Q261 638 270 641T293 655L341 622Q329 599 304 586T250 572Q221 572 196 585T158 622L206 655Z"  />
<glyph unicode="&#x2D9;" horiz-adv-x="500" d="M207 667H294V578H207V667Z"  />
<glyph unicode="&#x2DA;" horiz-adv-x="500" d="M251 698Q281 698 302 678T324 629Q324 600 303 580T251 559Q220 559 199 579T177 629Q177 658 198 678T251 698ZM251 663Q236 663 225 653T214 629Q214 615 225 605T251 594Q266 594 276 604T287 629Q287 643 277 653T251 663Z"  />
<glyph unicode="&#x2DB;" horiz-adv-x="500" d="M305 -147Q295 -152 288 -153T270 -154Q232 -154 210 -136T188 -88Q188 -65 200 -45T240 0H286Q263 -20 253 -35T242 -68Q242 -101 285 -101Q293 -101 298 -100T313 -96L305 -147Z"  />
<glyph unicode="&#x2DC;" horiz-adv-x="500" d="M168 645Q181 653 191 656T215 660Q232 660 251 652Q269 644 276 642T292 640Q302 640 309 643T332 658V589Q317 578 310 575T292 571Q284 571 277 573T251 583Q232 591 215 591Q201 591 191 588T168 576V645Z"  />
<glyph unicode="&#x2DD;" horiz-adv-x="500" d="M194 653H277L215 578H155L194 653ZM316 653H399L337 578H277L316 653Z"  />
<glyph unicode="&#x394;" horiz-adv-x="557" d="M26 46Q78 206 130 363T234 680H325Q372 537 418 397T511 114Q516 94 522 74T533 34V0H26V46ZM454 63Q420 164 386 267T318 472Q311 492 305 513T293 552T284 585T279 605H275Q274 600 270 586T261 553T249 513T236 473Q204 373 169 269T101 63H454Z"  />
<glyph unicode="&#x3A9;" horiz-adv-x="526" d="M35 67H144V71Q124 95 106 127T73 197T51 280T42 372Q42 447 59 506T107 607T179 671T269 693Q315 693 354 671T422 608T466 509T482 377Q482 326 474 280T451 195T418 125T380 71V67H489V0H290V53Q317 79 337 114T370 190T391 274T398 359Q398 402 391 449T368 535T326 599T263 625Q225 625 199 600T157 535T134 450T126 363Q126 324 133 280T155 193T190 113T235 53V0H35V67Z"  />
<glyph unicode="&#x3BC;" horiz-adv-x="310" d="M37 497H124V129Q124 114 124 105T126 91T128 83T132 76Q139 64 153 64Q175 64 185 93V497H272V0H192L186 36Q176 -7 150 -7Q128 -7 124 17V-170H37V497Z"  />
<glyph unicode="&#x3C0;" horiz-adv-x="456" d="M88 440H18V506H435V440H358V119Q358 94 364 76T396 58Q417 58 439 69V13Q422 4 405 -1T367 -6Q342 -6 326 2T301 24T287 56T281 94Q278 121 278 148V440H168V0H88V440Z"  />
<glyph unicode="&#x2013;" horiz-adv-x="340" d="M38 287H302V209H38V287Z"  />
<glyph unicode="&#x2014;" horiz-adv-x="1000" d="M0 287H1000V209H0V287Z"  />
<glyph unicode="&#x2018;" horiz-adv-x="187" d="M47 562L89 680H140L106 562H140V462H47V562Z"  />
<glyph unicode="&#x2019;" horiz-adv-x="187" d="M81 567H47V667H140V567L98 449H47L81 567Z"  />
<glyph unicode="&#x201A;" horiz-adv-x="187" d="M81 0H47V100H140V0L98 -118H47L81 0Z"  />
<glyph unicode="&#x201C;" horiz-adv-x="323" d="M184 562L226 680H277L243 562H277V462H184V562ZM47 562L89 680H140L106 562H140V462H47V562Z"  />
<glyph unicode="&#x201D;" horiz-adv-x="323" d="M81 567H47V667H140V567L98 449H47L81 567ZM218 567H184V667H277V567L235 449H184L218 567Z"  />
<glyph unicode="&#x201E;" horiz-adv-x="323" d="M81 0H47V100H140V0L98 -118H47L81 0ZM218 0H184V100H277V0L235 -118H184L218 0Z"  />
<glyph unicode="&#x2020;" horiz-adv-x="340" d="M131 427H46V502H131V667H211V502H295V427H211V0H131V427Z"  />
<glyph unicode="&#x2021;" horiz-adv-x="340" d="M131 178H46V253H131V427H46V502H131V667H211V502H295V427H211V253H295V178H211V0H131V178Z"  />
<glyph unicode="&#x2022;" horiz-adv-x="667" d="M337 478Q365 478 389 467T432 437T462 393T473 340Q473 311 462 286T433 242T389 212T335 201Q306 201 281 212T237 241T207 285T196 339Q196 368 207 393T237 437T281 467T337 478Z"  />
<glyph unicode="&#x2026;" horiz-adv-x="560" d="M47 100H140V0H47V100ZM234 100H327V0H234V100ZM421 100H514V0H421V100Z"  />
<glyph unicode="&#x2030;" horiz-adv-x="660" d="M40 579Q40 610 42 622T51 645Q70 674 110 674Q149 674 168 645Q175 634 177 622T179 579V406Q179 390 179 380T177 363T174 351T168 339Q160 325 144 318T110 310Q70 310 51 339Q48 345 46 350T42 363T41 380T40 406V579ZM130 597Q130 626 110 626Q89 626 89 597V388Q89 359 110 359Q130 359 130 388V597ZM307 700H356L164 -33H118L307 700ZM294 262Q294 293 296 305T305 328Q324 357 364 357Q404 357 423 328Q430 317 432 305T434 262V89Q434 73 434 63T432 46T429 34T423 22Q404 -7 364 -7Q324 -7 305 22Q302 28 300 33T296 46T295 63T294 89V262ZM385 280Q385 309 364 309Q343 309 343 280V71Q343 42 364 42Q385 42 385 71V280ZM620 89Q620 73 620 63T618 46T615 34T609 22Q601 8 585 1T551 -7Q511 -7 492 22Q489 28 487 33T483 46T482 63T481 89V262Q481 293 483 305T492 328Q511 357 551 357Q590 357 609 328Q616 317 618 305T620 262V89ZM551 42Q571 42 571 71V280Q571 309 551 309Q530 309 530 280V71Q530 42 551 42Z"  />
<glyph unicode="&#x2039;" horiz-adv-x="156" d="M40 178V322L116 403V284L90 250L116 216V97L40 178Z"  />
<glyph unicode="&#x203A;" horiz-adv-x="156" d="M40 216L66 250L40 284V403L116 322V178L40 97V216Z"  />
<glyph unicode="&#x2044;" horiz-adv-x="85" d="M112 700H161L-31 -33H-77L112 700Z"  />
<glyph unicode="&#x20AC;" horiz-adv-x="340" d="M322 26Q301 9 275 0T219 -10Q180 -10 151 -1T101 34T71 104T61 217H-5L15 297H61V367H-5L15 447H62Q62 511 71 555T100 626T149 665T219 677Q254 677 284 669T341 639L309 553Q283 573 265 581T222 590Q202 590 190 583T171 560T161 516T158 447H285L265 367H156V297H254L234 217H157Q157 175 160 148T170 106T190 84T223 77Q248 77 268 88T322 123V26Z"  />
<glyph unicode="&#x2113;" horiz-adv-x="420" d="M172 310Q216 365 242 425T269 553Q269 597 256 613T226 630Q204 630 188 599T172 488V310ZM172 203Q172 164 175 138T186 96T204 72T228 62Q236 60 244 60T261 63Q290 66 308 82T341 117Q350 108 359 98T379 79Q357 42 321 17T233 -9Q198 -9 174 0T133 30T108 82T96 161V174Q85 164 75 157T53 140Q47 151 41 162T28 184Q45 197 62 211T95 240V440Q95 512 104 560T130 637T172 678T226 690Q248 690 268 682T303 656T326 614T335 554Q335 509 324 467T291 385T239 307T172 230V203Z"  />
<glyph unicode="&#x2122;" horiz-adv-x="492" d="M81 612H30V667H194V612H142V287H81V612ZM220 667H290L333 484L375 667H446V287H393V517L347 287H318L272 516V287H220V667Z"  />
<glyph unicode="&#x2126;" horiz-adv-x="526" d="M35 67H144V71Q124 95 106 127T73 197T51 280T42 372Q42 447 59 506T107 607T179 671T269 693Q315 693 354 671T422 608T466 509T482 377Q482 326 474 280T451 195T418 125T380 71V67H489V0H290V53Q317 79 337 114T370 190T391 274T398 359Q398 402 391 449T368 535T326 599T263 625Q225 625 199 600T157 535T134 450T126 363Q126 324 133 280T155 193T190 113T235 53V0H35V67Z"  />
<glyph unicode="&#x212E;" horiz-adv-x="727" d="M183 108Q257 34 363 34Q441 34 498 69T602 183Q613 176 623 171T645 158Q616 113 587 82T525 30T452 0T363 -10Q290 -10 231 16T130 89T66 198T43 333Q43 405 65 467T130 576T231 649T363 676Q435 676 493 651T594 580T659 471T684 333H183V108ZM544 378V558Q467 632 362 632Q255 632 183 558V378H544Z"  />
<glyph unicode="&#x2202;" horiz-adv-x="430" d="M329 378V399Q329 467 317 521T285 614T237 672T180 693Q142 693 116 682T73 659Q67 672 62 684T50 709Q73 725 105 740T186 756Q227 756 266 732T335 660T383 542T401 381Q401 276 382 202T332 81T263 12T186 -10Q117 -10 76 43T34 197Q34 250 48 295T88 372T146 423T217 442Q259 442 286 424T328 378H329ZM193 51Q218 51 240 71T280 125T309 205T323 303Q309 340 284 361T230 382Q205 382 183 369T145 331T118 273T108 199Q108 158 115 130T134 85T161 59T193 51Z"  />
<glyph unicode="&#x2206;" horiz-adv-x="557" d="M26 46Q78 206 130 363T234 680H325Q372 537 418 397T511 114Q516 94 522 74T533 34V0H26V46ZM454 63Q420 164 386 267T318 472Q311 492 305 513T293 552T284 585T279 605H275Q274 600 270 586T261 553T249 513T236 473Q204 373 169 269T101 63H454Z"  />
<glyph unicode="&#x220F;" horiz-adv-x="580" d="M50 748H530V-130H459V685H121V-130H50V748Z"  />
<glyph unicode="&#x2211;" horiz-adv-x="518" d="M10 -81Q61 16 111 112T213 305Q165 404 119 500T24 696V748H489V686H115V682L292 310Q244 216 197 124T101 -62V-67H515V-130H10V-81Z"  />
<glyph unicode="&#x2212;" horiz-adv-x="340" d="M37 379H303V313H37V379Z"  />
<glyph unicode="&#x2215;" horiz-adv-x="85" d="M112 700H161L-31 -33H-77L112 700Z"  />
<glyph unicode="&#x2219;" horiz-adv-x="187" d="M47 307H140V207H47V307Z"  />
<glyph unicode="&#x221A;" horiz-adv-x="502" d="M235 -90Q198 13 162 113T88 317Q70 310 53 304T17 290Q12 301 9 312T0 335Q33 349 66 361T132 388Q160 309 187 232T243 75Q250 53 255 33T262 -1H263Q265 12 268 32T276 74Q280 89 288 125T307 210T332 317T359 436T386 555T411 663T431 749T443 800H507Q454 576 402 355T297 -90H235Z"  />
<glyph unicode="&#x221E;" horiz-adv-x="730" d="M542 117Q514 117 490 127T444 152T402 185T364 222Q345 203 325 185T283 151T235 127T179 117Q148 117 122 128T77 158T48 205T37 264Q37 294 48 320T79 367T126 399T187 411Q215 411 239 401T286 376T327 343T365 306Q384 325 404 343T447 377T495 401T550 411Q581 411 607 400T653 370T682 323T693 264Q693 234 682 208T650 161T603 129T542 117ZM543 175Q561 175 577 182T605 202T624 230T631 264Q631 302 607 327T546 353Q524 353 505 345T467 323T434 295T404 265Q419 251 434 236T466 207T502 184T543 175ZM185 175Q206 175 225 183T263 205T296 233T326 264Q311 277 296 293T264 322T228 344T187 353Q168 353 152 346T123 327T105 298T98 264Q98 226 122 201T185 175Z"  />
<glyph unicode="&#x222B;" horiz-adv-x="317" d="M132 116Q132 168 131 219T127 320T124 422T123 526Q123 758 260 758Q271 758 283 756T302 751Q300 737 297 724T290 696Q284 698 277 699T263 700Q243 700 230 691T207 661T194 606T190 521V495Q190 452 191 412T193 330T196 245T198 152Q198 129 198 107T197 62Q194 0 183 -40T154 -104T113 -137T63 -146Q51 -146 38 -144T16 -137Q19 -123 22 -109T28 -81Q35 -83 43 -84T58 -85Q71 -85 84 -79T107 -54T125 -1T132 90V116Z"  />
<glyph unicode="&#x2248;" horiz-adv-x="340" d="M288 416Q295 405 301 396T315 375Q304 343 283 321T226 298Q206 298 192 309T166 333T142 357T114 368Q89 368 75 351T51 310Q45 321 39 330T25 351Q38 381 59 404T115 427Q133 427 147 416T174 392T199 368T225 357Q251 357 265 375T288 416ZM288 218Q295 208 301 198T315 178Q304 146 282 123T225 100Q206 100 193 111T167 135T143 159T114 170Q89 170 75 153T51 112Q45 123 39 133T25 154Q38 185 59 207T114 229Q133 229 147 218T174 194T199 170T225 159Q251 159 265 176T288 218Z"  />
<glyph unicode="&#x2260;" horiz-adv-x="340" d="M76 18Q84 49 92 79T108 142H25V199H128Q137 234 146 269T166 339H25V397H186Q194 428 202 458T218 520H264L231 397H315V339H211Q201 304 192 269T173 199H315V142H153Q145 110 137 80T121 18H76Z"  />
<glyph unicode="&#x2264;" horiz-adv-x="340" d="M312 105Q240 153 170 199T28 292V349Q100 395 170 441T312 535V472Q255 434 199 397T86 321V319Q143 281 199 244T312 169V105ZM28 55H312V0H28V55Z"  />
<glyph unicode="&#x2265;" horiz-adv-x="340" d="M28 169Q85 207 141 244T254 319V321Q197 359 141 396T28 472V535Q100 488 170 442T312 349V292Q240 245 170 199T28 105V169ZM28 55H312V0H28V55Z"  />
<glyph unicode="&#x25CA;" horiz-adv-x="496" d="M216 -31Q174 60 134 149T52 330Q94 421 134 511T216 692H280Q322 601 362 511T444 330Q402 239 362 150T280 -31H216ZM373 328Q344 396 315 463T257 599Q255 604 253 610T248 625H246Q243 613 238 603Q208 535 180 468T123 331Q149 271 175 211T227 89Q232 76 238 64T248 37H250Q252 42 254 48T258 59Q287 126 315 193T373 328Z"  />
<glyph unicode="&#xFB01;" horiz-adv-x="329" d="M50 417H11V497H50V555Q50 615 74 642T155 669Q171 669 186 668T234 664V584Q215 586 203 587T176 588Q154 588 146 581T137 555V497H292V0H205V417H137V0H50V417Z"  />
<glyph unicode="&#xFB02;" horiz-adv-x="329" d="M50 417H11V497H50V555Q50 617 75 643T158 669Q163 669 168 669T179 668L205 667H292V0H205V586Q190 588 183 588T171 588Q137 588 137 555V497H178V417H137V0H50V417Z"  />

</font>
</defs>
</svg>
