<svg xmlns="http://www.w3.org/2000/svg" viewBox="0 0 238.96 44.02"><defs><style>.cls-1{fill:#071c2c;}</style></defs><title>sanderson-logo</title><g id="Layer_2" data-name="Layer 2"><g id="Layer_2-2" data-name="Layer 2"><path class="cls-1" d="M239,39.94v2.57H225.5V39.9h2.66c.83,0,1.4-.41,1.4-1V25.58s-.21-6.31-4.34-6.31c-4.34,0-6.38,5.48-6.38,7.43v12c0,.8.7,1.16,1.63,1.16h2.46c0,.79,0,2.62,0,2.62H209.58V39.88h2.5c.93,0,1.65-.24,1.63-.87l0-19C213,18,209,18.62,209,18.62V16.14l9.29-.65c.12,1.74.16,3.52.41,5.25,1.86-3.14,5-5.25,8-5.25,5.12,0,8.07,4.13,8.07,9.56l0,13.85c0,1.05,1,1,1.87,1ZM167.13,23.32c-2.72-3.89,1.17-6.55,4.6-6.05,4,.71,6.32,4.35,7.26,8,.66,0,1.37,0,2.08,0V15.46h-1.81a6.25,6.25,0,0,1-1.45,1.81h-.25A14,14,0,0,0,173,15a8.19,8.19,0,0,0-8.44,2.88,9.07,9.07,0,0,0-1.17,8.52,8.33,8.33,0,0,0,5.49,4.35c3.18,1.45,7.69.68,9.63,4.11,1.47,3.17-1.9,6.14-5.8,5.66-4.59-.67-7.64-5-8.54-9.24h-2V42.48h1.85c.7-.74,1-1.73,1.9-2.31,3.1,2.61,8.14,4,11.95,1.8a8.69,8.69,0,0,0,4.32-9.79c-.62-3.1-3.85-5.18-6.73-5.84-1.6-.37-6.81-.94-8.26-3m-11.65-7.81c-4,0-6.51,5.57-7.58,9.17l-.25.25-.23-9.14-9.56.27V18.5s2.33.08,3,.14,2.41.69,2.41,2l0,18.13c0,.82-1,1.29-1.62,1.29h-3.28v2.44h16V40H149.6a1.44,1.44,0,0,1-1.46-1.52v-3.7a38.52,38.52,0,0,1,2-10.3c.21-.62,1.46-4.48,4-5.89,1.69-.93,1.41,0,.78.88a3.29,3.29,0,0,0,.55,4.05c5.29,3.81,8.7-8,0-8M138,34.91l-2.11-1s-4,8.79-11,5.56c-2.36-1.12-4.53-3-4.53-10h17.45S138.32,17,129,15.08a11.59,11.59,0,0,0-11,4.28c-6.45,8.3-3.94,23.89,9.71,23.89,7.5,0,10.32-8.35,10.32-8.35m-5.77-9.64a1.32,1.32,0,0,1-1.5,1.5H120.55c.09-3.39,1.28-9.52,6-9.52,5.22,0,5.63,5,5.63,8M105.66,4.71V19.43a9.3,9.3,0,0,0-5.4-4.14c-4.75-.84-8.69,1.8-10.92,5.52a17.64,17.64,0,0,0-.65,16.25c1.57,2.9,4.58,5.63,8.05,5.93a9.73,9.73,0,0,0,9.15-4.62c.17,1.37.43,4.11.43,4.11h9V40a10.69,10.69,0,0,1-3.51-.3,2.11,2.11,0,0,1-1.1-1.66V0L100.19.68V3.42l3.86,0c.67,0,1.62.8,1.61,1.3M98.26,40c-3.17,0-5.39-4.21-5.39-11.08,0-5.93,2-10.82,6.51-10.82,5.24,0,6.27,5.5,6.27,11.91,0,10.75-6.43,10-7.39,10M83.2,39l0-12.53c0-1.67.48-9.59-7.28-10.89-4-.46-7,2.14-8.94,5.11-.25-1.7-.28-3.47-.41-5.21-3.14.16-9.36.77-9.36.77v2.32s2.77-.24,3.84.3a1.94,1.94,0,0,1,1,1.57V38.92c0,1.28-4.22,1-4.22,1v2.55H71.32V39.9s-4.08.4-4.13-1V26c0-2.16,2.9-6.7,5.94-6.7a5,5,0,0,1,4.94,5.28l0,14.31c0,1.29-4.19,1.06-4.19,1.06v2.5h13.6V40s-4.27.21-4.29-.93l0-12.53M57.37,40s-.72-.79-1-1l-.66.49a2.34,2.34,0,0,1-1.9,0,2.9,2.9,0,0,1-1.24-2.46V23.85a10.68,10.68,0,0,0-1-5c-2.1-3-5.87-3.9-9.67-3.41s-7.61,2.22-8.9,6a3.76,3.76,0,0,0,1.19,3.89,3.46,3.46,0,0,0,3.56.5,3.15,3.15,0,0,0,.63-4.75c-.54-.59-.75-1,.05-1.81s4.29-2.53,7.43-.41c2.15,1.62,1.81,4.76,1.64,7.32-5.82,1.1-18.38,3.71-15.73,12.55a6.72,6.72,0,0,0,5,4.31A11,11,0,0,0,48,38.44c2.1,5.72,6,4.51,7.19,3.86A6.67,6.67,0,0,0,57.37,40M1.92,18.84c3,4.89,7.24,5.17,14.13,7.1,3.65,1,6.53,2.53,7.61,4.64a7.48,7.48,0,0,1-1.09,8c-2.4,2.77-6.58,3.17-10.05,2.17C6.44,38.57,3.6,32.61,2.12,26.91L0,27V43.11H2.38l2.57-3.38,2,1.49c4.25,3.23,11.41,3.82,16.12.94,5.22-3.05,6.76-9.83,5.2-15.66-1.44-4.55-6-6.71-10.16-7.87C13.88,17,8.34,17.36,5.66,13.18A7.68,7.68,0,0,1,6.5,5.86C8.24,3.63,11,3,13.7,3.31c6.57.92,9.74,7.58,11.1,13.21h2.09L26.93,1.1H24.66L22.34,4.28S18.4.09,10.81.62c-5,.37-8.12,4-9.71,8.44a12.39,12.39,0,0,0,.83,9.79M46.77,36.07c-1.09,3.47-5.48,5.25-8,3.75-1.81-1.06-2.82-5.27.18-8.3,2-2,8.53-2.84,8.53-2.84a18.16,18.16,0,0,1-.67,7.39M197.11,17.88c5.1,0,6.55,6.48,6.48,11.16s-1,12-6.41,12c-4.34,0-6.89-4.89-6.89-11s1.86-12.13,6.82-12.13M184.43,29.52c0,9,7,14,13.16,14,5.79,0,12.06-6.2,12.06-13.85,0-7.93-5.86-14.2-13.1-14.2-5.37,0-12.13,5.31-12.13,14.06"/></g></g></svg>