<svg xmlns="http://www.w3.org/2000/svg" viewBox="0 0 18.08 27.21"><defs><style>.cls-1{fill:#fff;}</style></defs><title>sanderson-s</title><g id="Layer_2" data-name="Layer 2"><g id="Layer_1-2" data-name="Layer 1"><path class="cls-1" d="M1.21,11.44c1.86,3.06,4.53,3.24,8.85,4.45,2.29.64,4.09,1.58,4.76,2.91a4.69,4.69,0,0,1-.68,5c-1.51,1.73-4.12,2-6.3,1.36C4,23.8,2.25,20.07,1.33,16.49L0,16.53V26.64H1.49L3.1,24.52l1.27.93a9.59,9.59,0,0,0,10.1.59c3.27-1.91,4.23-6.16,3.25-9.81-.9-2.85-3.75-4.2-6.36-4.93-2.67-1-6.14-.79-7.82-3.41a4.81,4.81,0,0,1,.53-4.58,4.76,4.76,0,0,1,4.51-1.6c4.12.58,6.1,4.75,7,8.27h1.31l0-9.66H15.44L14,2.32A9.3,9.3,0,0,0,6.77,0C3.66.26,1.68,2.55.69,5.31a7.76,7.76,0,0,0,.52,6.13"/></g></g></svg>