<svg xmlns="http://www.w3.org/2000/svg" viewBox="0 0 123.72 55.66"><defs><style>.cls-1{fill:#d3ccc1;}.cls-2{fill:#ddd100;}</style></defs><title>scion-logo</title><g id="Layer_2" data-name="Layer 2"><g id="Layer_2-2" data-name="Layer 2"><rect class="cls-1" x="56.68" y="10.84" width="10.52" height="44.5"/><path class="cls-1" d="M14,26.09V19.21a3.56,3.56,0,0,0-.44-1.74,1.35,1.35,0,0,0-1.21-.81,1.44,1.44,0,0,0-1.44.83,5.06,5.06,0,0,0-.38,2.12v5a12.25,12.25,0,0,0,.06,1.31,2.93,2.93,0,0,0,.24.93,1.93,1.93,0,0,0,.57.69,6,6,0,0,0,1,.63l5.06,2.43L20.53,32a6.8,6.8,0,0,1,2.08,1.48,5.35,5.35,0,0,1,1.19,2.22,13.75,13.75,0,0,1,.38,3.62v6.8a15,15,0,0,1-.77,5.4A5.38,5.38,0,0,1,21,54.39a10.4,10.4,0,0,1-4.29,1.09q-2.63.18-6.35.18a23.81,23.81,0,0,1-4.9-.42,7,7,0,0,1-3.2-1.48A5.82,5.82,0,0,1,.53,50.89,17.11,17.11,0,0,1,0,46.24V39.12H10.52v7.44a7.59,7.59,0,0,0,.06.93,2.84,2.84,0,0,0,.24.87,2.08,2.08,0,0,0,.46.65,1,1,0,0,0,.73.26,1.6,1.6,0,0,0,1.52-.85A4.72,4.72,0,0,0,14,46.16V40.33a16.29,16.29,0,0,0-.08-1.82,2.53,2.53,0,0,0-.36-1.11,2.25,2.25,0,0,0-.79-.71A14.87,14.87,0,0,0,11.41,36L6.55,33.9,3.8,32.64a7.63,7.63,0,0,1-2.06-1.38,5.2,5.2,0,0,1-1.29-2A9.64,9.64,0,0,1,0,26V20.06a16.29,16.29,0,0,1,.63-5,6.37,6.37,0,0,1,1.94-3,7.4,7.4,0,0,1,3.34-1.5,24.71,24.71,0,0,1,4.77-.4q3.4,0,5.93.18a10.57,10.57,0,0,1,4.21,1.07,5.64,5.64,0,0,1,2.53,2.79,13.31,13.31,0,0,1,.85,5.3v6.55Z"/><path class="cls-1" d="M52.54,28.56H42V18.48a3.08,3.08,0,0,0-.08-.65,2.18,2.18,0,0,0-.28-.69,1.76,1.76,0,0,0-.55-.55,1.5,1.5,0,0,0-.83-.22,1.11,1.11,0,0,0-1.11.79,5.49,5.49,0,0,0-.3,2V46.64a3.33,3.33,0,0,0,.38,1.82,1.72,1.72,0,0,0,1.52.57,1,1,0,0,0,1-.63A4.21,4.21,0,0,0,42,46.89V35.64H52.54V47.9a9,9,0,0,1-.69,3.78A5.17,5.17,0,0,1,49.7,54,10.2,10.2,0,0,1,46,55.18a37.21,37.21,0,0,1-5.26.32,51.88,51.88,0,0,1-5.64-.26A8.64,8.64,0,0,1,31.26,54a5.73,5.73,0,0,1-2.2-3,16.81,16.81,0,0,1-.71-5.44V21.72q0-2.63.18-4.53A12.36,12.36,0,0,1,29.19,14a5,5,0,0,1,1.38-2,6.21,6.21,0,0,1,2.31-1.19,15.21,15.21,0,0,1,3.42-.55q2-.12,4.71-.12,2.51,0,4.61.2a10,10,0,0,1,3.64,1,5.69,5.69,0,0,1,2.41,2.35,8.7,8.7,0,0,1,.87,4.23Z"/><path class="cls-1" d="M85.19,19.54a7.32,7.32,0,0,0-.3-2.43,1.29,1.29,0,0,0-1.36-.81,1.3,1.3,0,0,0-1.34.75,6.85,6.85,0,0,0-.32,2.49V46a6.25,6.25,0,0,0,.3,2.12,1.28,1.28,0,0,0,1.35.83,1.45,1.45,0,0,0,.89-.24,1.61,1.61,0,0,0,.51-.67,3.06,3.06,0,0,0,.22-1c0-.36,0-.75,0-1.15ZM95.71,44.05q0,2.27-.16,4.33A8.38,8.38,0,0,1,94.47,52a6.33,6.33,0,0,1-2.89,2.49,13.45,13.45,0,0,1-5.58.93,58.59,58.59,0,0,1-7.75-.4,9.56,9.56,0,0,1-4.43-1.56,5.35,5.35,0,0,1-2-3.28,26.62,26.62,0,0,1-.47-5.52V20.47a24.37,24.37,0,0,1,.48-5.36,5.78,5.78,0,0,1,1.86-3.24,7.94,7.94,0,0,1,3.78-1.58,37,37,0,0,1,6.21-.42,35.85,35.85,0,0,1,6.33.44A7,7,0,0,1,93.64,12a6,6,0,0,1,1.66,3.32,30.63,30.63,0,0,1,.4,5.52Z"/><path class="cls-1" d="M110.29,10.68V12.5A24.11,24.11,0,0,1,112.9,11a6.94,6.94,0,0,1,3.18-.69,11.08,11.08,0,0,1,2.91.36,6.24,6.24,0,0,1,2.59,1.54,5.83,5.83,0,0,1,1.27,1.58,6.94,6.94,0,0,1,.63,1.7,9.41,9.41,0,0,1,.22,1.86q0,1,0,2.06v36H113.53V18.81a1.8,1.8,0,0,0-.4-1.15,1.72,1.72,0,0,0-1.42-.51,1.1,1.1,0,0,0-1.15.83,6.67,6.67,0,0,0-.26,2V55.34H99.78V10.68Z"/><rect class="cls-2" x="56.67" width="10.52" height="9.02" rx="1.77" ry="1.77"/></g></g></svg>