<svg xmlns="http://www.w3.org/2000/svg" viewBox="0 0 27.81 52.26"><defs><style>.cls-1{fill:#fff;}</style></defs><title>scion-s</title><g id="Layer_2" data-name="Layer 2"><g id="Layer_1-2" data-name="Layer 1"><path class="cls-1" d="M16.09,18.27v-7.9a4.09,4.09,0,0,0-.51-2,1.55,1.55,0,0,0-1.39-.93,1.65,1.65,0,0,0-1.65,1,5.82,5.82,0,0,0-.44,2.44v5.72a14.08,14.08,0,0,0,.07,1.51,3.36,3.36,0,0,0,.28,1.07,2.22,2.22,0,0,0,.65.79,6.88,6.88,0,0,0,1.19.72l5.81,2.79,3.51,1.67a7.82,7.82,0,0,1,2.4,1.7,6.15,6.15,0,0,1,1.37,2.56,15.8,15.8,0,0,1,.44,4.16v7.81a17.29,17.29,0,0,1-.88,6.21,6.19,6.19,0,0,1-2.79,3.26,12,12,0,0,1-4.93,1.26q-3,.21-7.3.21a27.37,27.37,0,0,1-5.63-.49,8.09,8.09,0,0,1-3.67-1.7,6.69,6.69,0,0,1-2-3.3A19.66,19.66,0,0,1,0,41.43V33.25H12.09V41.8a8.72,8.72,0,0,0,.07,1.07,3.27,3.27,0,0,0,.28,1,2.39,2.39,0,0,0,.53.74,1.18,1.18,0,0,0,.84.3,1.84,1.84,0,0,0,1.74-1,5.43,5.43,0,0,0,.53-2.6v-6.7A18.73,18.73,0,0,0,16,32.55a2.91,2.91,0,0,0-.42-1.28,2.58,2.58,0,0,0-.91-.81,17.09,17.09,0,0,0-1.56-.74L7.53,27.25q-1.77-.79-3.16-1.44A8.77,8.77,0,0,1,2,24.23,6,6,0,0,1,.51,21.88,11.08,11.08,0,0,1,0,18.18V11.35a18.72,18.72,0,0,1,.72-5.7A7.32,7.32,0,0,1,3,2.18,8.5,8.5,0,0,1,6.79.46,28.4,28.4,0,0,1,12.28,0q3.91,0,6.81.21a12.15,12.15,0,0,1,4.83,1.23,6.48,6.48,0,0,1,2.91,3.21,15.3,15.3,0,0,1,1,6.09v7.53Z"/></g></g></svg>