<svg xmlns="http://www.w3.org/2000/svg" viewBox="0 0 353.72 29.53"><defs><style>.cls-1{fill:#232020;}</style></defs><title>anthology</title><g id="Layer_2" data-name="Layer 2"><g id="Layer_1-2" data-name="Layer 1"><path class="cls-1" d="M15.37,5.43l6.28,12.51H9.15ZM13.89.62,0,28.74v.07H3.77l3.75-7.59H23.23l3.85,7.59h3.85L16.85.62Z"/><polygon class="cls-1" points="45.81 0.61 47.66 0.61 66.12 21.68 66.12 0.61 69.65 0.61 69.65 28.81 67.86 28.81 49.34 7.74 49.34 28.81 45.81 28.81 45.81 0.61"/><polygon class="cls-1" points="93.65 3.85 81.68 3.85 81.68 0.61 109.16 0.61 109.16 3.85 97.19 3.85 97.19 28.81 93.65 28.81 93.65 3.85"/><polygon class="cls-1" points="121.24 0.61 124.83 0.61 124.83 11.74 141.6 11.74 141.6 0.61 145.14 0.61 145.14 28.81 141.6 28.81 141.6 15.02 124.83 15.02 124.83 28.81 121.24 28.81 121.24 0.61"/><path class="cls-1" d="M176.74,0a14.33,14.33,0,0,1,14.77,14.81c0,8.56-6.28,14.71-14.77,14.71S162,23.38,162,14.81,168.24,0,176.74,0m0,26.25c6.38,0,11.08-4.82,11.08-11.43S183.12,3.28,176.74,3.28,165.66,8.1,165.66,14.81s4.75,11.43,11.08,11.43"/><polygon class="cls-1" points="208.28 0.61 211.82 0.61 211.82 25.58 230.39 25.58 230.39 28.81 208.28 28.81 208.28 0.61"/><path class="cls-1" d="M256.71,0a14.33,14.33,0,0,1,14.77,14.81c0,8.56-6.28,14.71-14.77,14.71S242,23.38,242,14.81,248.22,0,256.71,0m0,26.25c6.38,0,11.08-4.82,11.08-11.43S263.09,3.28,256.71,3.28,245.63,8.1,245.63,14.81s4.75,11.43,11.08,11.43"/><path class="cls-1" d="M313.58,22.25a14.27,14.27,0,0,1-12.87,7.28c-8.49,0-14.72-6.15-14.72-14.71S292.21,0,300.7,0a14.44,14.44,0,0,1,12.45,6.56l-3,2.1a10.48,10.48,0,0,0-9.49-5.38c-6.33,0-11.08,4.82-11.08,11.53s4.75,11.43,11.08,11.43A10.67,10.67,0,0,0,310,21.17V17h-7.75V13.79h11.29Z"/><polygon class="cls-1" points="337.31 14.71 324.5 0.61 328.93 0.61 339.11 11.74 349.24 0.61 353.72 0.61 340.85 14.76 340.85 28.81 337.31 28.81 337.31 14.71"/></g></g></svg>