<svg xmlns="http://www.w3.org/2000/svg" viewBox="0 0 640 480"><defs><style>.cls-1{fill:#002f99;}.cls-2{fill:#fff;}</style></defs><title>int-flag.svg</title><g id="Layer_2" data-name="Layer 2"><g id="Layer_1-2" data-name="Layer 1"><path class="cls-1" d="M0,0H640V480H0Z"/><path class="cls-2" d="M484.32,158.33c3.06-.51,3.66,3.68,5.47,7.67a24,24,0,0,1-5.47.44C484.32,164,483.74,160.66,484.32,158.33Zm-28.91-34.9c-.4-2.83,0-6.09,0-9,7.51,8,12.74,15.26-.83,15.64C445.1,130.38,447,125,455.42,123.43Zm-241.17-22.2C236.54,93.42,213.7,112.9,214.25,101.23Zm6.42,8.91q2.16-.38,4.34-.68c-.11,0-4.72,7.93-10.76,2.53Zm276.38,79.39c-8.07,0-12.47-1.84-19.07-3.32-5.5-1.23-2.88-3.76-9.15-2.87-4.61.65-4.33,4.68-4.7,4.75-8,1.46-24.71-2.22-22.41-15.51-8.89.7-17.12,2.79-25.33,4.16-6.44,1.08-18.42-1.23-23,5.57-1.9,2.82.86,7.82-.77,10.79-1.48,2.68-7.88,5.69-10.14,7.31-3.34,2.41-18,14.56-4.32,13.58-3.67,14.56-6.37,35.48,15.36,42.56,7.5,2.44,18.3-4.72,24.8-4.89,4.31-.11,21,4.65,22.53,6.64,1.9,2.53-2.13,10.94-1.42,14.24,1,4.38,5.34,9.41,7.51,13.25,7.57,13.35-2.23,12.48-1.19,25.5.37,4.59,4.55,5.84,5.56,9.88,1.21,4.84-.53,10,1.09,14.64,1,2.9,4.49,9.54,5.9,12.22,2.68,5.1-3.57,9.84,6.07,7.91-63.41,78-181.48,89.89-259,25.91a183.19,183.19,0,0,1-38.31-239.65c1.14,8.86-13.08,17.91-13.86,27.94-.84,10.83,2.95,5.09,5.63,11.51,1.69,4.05.72,8.75,2,14,.73,3,9.12,20.72,13.48,13.82,1.89-3-7.66-19-7.83-24.55,2.29-.31,14.3,21,16,25.62,1.59,4.35-3.84,9.19,3.81,14.66,3.49,2.5,12,2.93,16,3.93,4.35-7.86,5,2.51,5.78,2.9,5.91,2.84,10.47,2.11,15.65,6.29,2.68,2.16,4.34,6.6,7.31,8.35,2.81,1.66,7.22,0,9.92,1.61,5,3,8.72,4.67,4.81,12.86s-8.19,3.52-8.51,15.06c-.21,7.62-.67,6,3,12.56,1.88,3.4,7.7,13.55,10.31,16.29,3.41,3.59,12.74,4.51,16.07,10.13,2.73,4.6,1.12,13.09,1.12,18.7,0,4.9,2.74,12.84,2.86,14.37.3,3.86-1.36,11.42-.65,16.09.44,2.92,4.57,5.63,5.3,8.71.83,3.51-1.54,7.79-.92,11.35,1.74,10,13.38,26.72,24.65,26,12.61-.84,1.06-3.35-.23-9.12-.88-3.93.33-7.95.92-12.71-12,1.46-3.33-4.94-4.24-7.38-.09-.25-3.15-8.52-3.62-7.56.52-1.08,12.09-3.69,14.33-5.23,4.24-2.9,4.93-5.28,8.14-9.36,2.89-3.67,9.77-9.32,10.81-13.85,1.34-5.86-5.28-10.35,0-16,3.07-3.28,8.5,0,12.54-2.13,7.21-3.8,5.49-6.62,6.93-13.73,1.17-5.78.83-10.3,3.14-15.35,1.88-4.11,9-8.41,7.45-14.11,1.09,4-13.6-9.92-11.18-8.86-4.48-2-10.36-.41-15.68-1.36-3.44-.62-11.81-2.12-14-4.86-3-3.7.78-10.39-3.79-14.69-3.66-3.43-9.28-.57-13.38-3.19-5.85-3.75-4-10.36-12-12.36-1.71,9.08-10.48,1-14.06-.22-13.48-4.6-8.53-1.77-19.51,4.56-5.35,3.09-13.93,2.43-16.92-2.75-6.65-11.51,5-12.72-11.59-15.6,3-3.62,5.1-8.31,3.05-12.73-5.82,3.9-12.9,11.85-20.55,8.59-6.67-2.84-5.36-9.73-2.77-15.7,6.82-15.71,22.43-13.25,37-13.25-1.49,5.71,1.66,9.42,7.71,10.24-.54-10.3-.27-12,7.57-18.63,7.22-6.1,9-9.9,15.18-16.84,5.19-5.79,25-23.15,29-18.53a40.4,40.4,0,0,0,3.85-3.77c-9.68.21-7.1-4.7-.08-6,1.35-.25,2.29,3.15,4.45,3.16,1.07,0,9-2.9,7-3.56,7.75,2.48-6.9,12.48,9.26,11.76,10.61-.47-2.68-5.83-4.39-9.79,7.74-.25,6.66-4.36,6.07-9.27-.16-1.33-5.37-2.81-6.15-4.55-1.08-2.41-.3-7.24-.41-10-4,2.56-8.39,4.65-13.1,4.7,3.44-7.69-1.43-11.17-9.19-10.61-7.91.56-5.51,2.67-8.4,7.78-1.08,1.91,1.2,6.22,0,8.09s-6.44,1-8.2,2.58c-3.71,3.35-3.66,8.88-9.67,9.31,1.57-17.51-13-5.14-14.62-18-.9-7.41,16-13.92,23.46-15.38.44,8.75,5.6,3.88,10.24,1.81-1.29-1.25-1.21-3.06-2.37-4.66,8.67,1.08,19-15.49,27.87-2.42l-14,7.43c5.43,1.29,13.48,4.33,18,3.44-1,.2,3.86-5.06,4-5.17,4.14-2.63,6.7,2.14,8.51-5.18-8.76-.38-2.16-5.25-6-8.16-3.49-2.66-11.49-6.26-15.8-7-8.49-1.44-23.46,1.26-19.1,13-10.67,1.28-8.48-8-1.37-11.88-6.51-.32-15.14-3.2-17.23,4.57l4.57.77c-.06,3.44-7.75,7.66-9.91,8.07-1.87.35-8.08.85-9.52.27s-2.81-6.33-2.52-6.33c7.41,0,10.85-.35,15.57-6.74-6-4.11-3.76,3.1-8.55,2.93-8.86-.31-5.62-3.33-11.7-5.45-9.92-3.45-13.77-.14-22.46,6.33,5.55-1.15,14-.81,8.27,5.29,5.41.16,11-1.82,12.64,4.3-12.45-.49-20.81-9.68-34.09-7.42,48.78-35.53,113.64-44.76,170.37-24.08,10.92,4,62.48,26.32,56.37,38.69-1.67,3.38-11.08,1.72-12,7.2-1,5.67,7.19,4.7,7.82,11.72,2.13-1.52,5.42-1.48,7.51-3.05a29,29,0,0,1,1.24,8.8c-11.59-2.24-19.49,3.43-26.69,10.38-4.94,4.78-3.5-2.32-5.77,6.75-.64,2.57,3.39,3.72,3.66,3.07-3.71,8.69-4.37,1.7-12.84,3.82-16.07,4-5.94,24.87,9.73,18.36,5.76-2.39,7-10.89,12.7-15.28,4.07-3.11,8.35,1.73,12.65-5.26,1.45,7,9.8,10,15.42,13.77-3.39,1.56-3.37,2.57-8.23,2,4.78,9.51,12.08.87,13.1-4.21-5.35-5.17-12.83-5.48-13.73-14.18,16-4.25,15.9,16.43,24.69,23.09.17-5.32,2.05-11.49,7.56-13-.9,7.41,2.42,9.25,6.48,13.72,1.23,1.35,6.71-1.38,8.07-.13C495.42,176.9,497.19,186.09,497.06,189.53ZM231.19,131.18c3-2,5.72-2.68,9.12-1.24C240.39,137.56,232.65,139.6,231.19,131.18Zm25.5,13.73c0,6.78-9.71,4.2-15.1,2.65C244.6,141.39,253.79,141.65,256.7,144.91Zm5,5.26c-.42,4-1.31,6-6.18,6.05C254.27,151,256.16,148.81,261.71,150.18Zm-3.09-1.49v-4.34l3.78,3.41Zm1.73,8.8c.18,5.18-3,7.52-8.47,6.18C252.87,159.61,255.79,157.62,260.35,157.49Zm-14.54-7.31a51.71,51.71,0,0,1,6.07,0c-2.07,2.91-6,12-9.35,10C238.59,157.84,243.05,152.15,245.81,150.18Zm24.81,6.05c-.12,6.67-7.93,4.2-7.42-2C265.48,154.68,268.63,155,270.62,156.23Zm-5.38-4.89c1.86.06,1.8-3,4.49,0C267.33,154.61,267.48,151.41,265.25,151.34ZM500,198.76q1.59-2.23,1.33,2.49Zm0,0"/></g></g></svg>