<svg xmlns="http://www.w3.org/2000/svg" viewBox="0 0 312.37 72.72"><defs><style>.cls-1{fill:#6a6869;}</style></defs><title>stylelibrary-darkgrey</title><g id="Layer_2" data-name="Layer 2"><g id="Layer_2-2" data-name="Layer 2"><path class="cls-1" d="M.86,45.67Q1.6,47.39,2.37,49a13,13,0,0,0,1.82,2.83,8.3,8.3,0,0,0,2.53,2,7.79,7.79,0,0,0,3.63.77q.56,0,1.48-.06A4.59,4.59,0,0,0,13.65,54a4.19,4.19,0,0,0,1.54-1.42,4.86,4.86,0,0,0,.65-2.74,4.53,4.53,0,0,0-.15-1.14,3.32,3.32,0,0,0-.65-1.2,5.6,5.6,0,0,0-1.45-1.2A15.44,15.44,0,0,0,11,45.11L6,43.27a13.83,13.83,0,0,1-1.85-.83A7.21,7.21,0,0,1,2.31,41,7.42,7.42,0,0,1,.92,39a6.8,6.8,0,0,1-.55-2.87,8,8,0,0,1,.74-3.39,8.64,8.64,0,0,1,2.06-2.8A9.93,9.93,0,0,1,6.38,28a11.53,11.53,0,0,1,4.1-.71,9.31,9.31,0,0,1,2.19.25q1,.25,1.85.52T16,28.6a3.08,3.08,0,0,0,1,.25c.45,0,.74-.08.86-.25a2.42,2.42,0,0,0,.31-.55H19v7.52h-.8q-.62-1.48-1.26-2.83a10.25,10.25,0,0,0-1.54-2.37,6.36,6.36,0,0,0-2.19-1.6,7.77,7.77,0,0,0-3.2-.59,6.81,6.81,0,0,0-3.73,1.08,3.52,3.52,0,0,0-1.69,3.17,4.59,4.59,0,0,0,.12,1,3.05,3.05,0,0,0,.55,1.14,5,5,0,0,0,1.36,1.17,12.74,12.74,0,0,0,2.46,1.14l5.24,1.79a12.07,12.07,0,0,1,5.05,3.08,7,7,0,0,1,1.72,4.87,7.51,7.51,0,0,1-.89,3.67A9,9,0,0,1,17.9,53a10.67,10.67,0,0,1-3.36,1.76,12.79,12.79,0,0,1-3.94.62,13,13,0,0,1-2.4-.25q-1.29-.25-2.5-.59T3.51,54A6.84,6.84,0,0,0,2,53.74a1.08,1.08,0,0,0-.71.18,1.66,1.66,0,0,0-.4.68H0V45.67Z"/><path class="cls-1" d="M28.52,20.87a7.29,7.29,0,0,0,3.76,0,15.38,15.38,0,0,0,1.88-.62V28.2h7.21v.86H34.16V49.7a11.2,11.2,0,0,0,.12,1.73,4.57,4.57,0,0,0,.46,1.45,2.47,2.47,0,0,0,1,1,3.4,3.4,0,0,0,1.69.37,3.85,3.85,0,0,0,2-.49,5.29,5.29,0,0,0,1.45-1.26,7,7,0,0,0,1-1.76,16.36,16.36,0,0,0,.65-1.91l.92.18a8.26,8.26,0,0,1-1.26,3.36,6.71,6.71,0,0,1-2,1.94,7,7,0,0,1-2.43.89,15.15,15.15,0,0,1-2.46.21,13.19,13.19,0,0,1-5-.74,6.09,6.09,0,0,1-2.59-1.85,4.68,4.68,0,0,1-1-2.4q-.13-1.29-.12-2.4v-19H22.51V28.2h4.13V20.25a15.44,15.44,0,0,0,1.88.62"/><path class="cls-1" d="M70.2,29.06H65.09V28.2H74v.86H71.18q-3.45,7.39-5.91,13.25T61,52.72l-3.2,8q-1.39,3.48-2.62,6.13A11.18,11.18,0,0,1,52.39,71a6.22,6.22,0,0,1-4.13,1.29,7.32,7.32,0,0,1-4.53-1.32A4.34,4.34,0,0,1,42,67.26a2.94,2.94,0,0,1,1.14-2.59,4.64,4.64,0,0,1,2.74-.8,4.15,4.15,0,0,1,2.22.65,2.13,2.13,0,0,1,1,1.94,3.49,3.49,0,0,1-.4,1.79,3.09,3.09,0,0,0-.4,1.6,1.31,1.31,0,0,0,.37,1,1.24,1.24,0,0,0,.86.34,3.15,3.15,0,0,0,2.06-.8,8.75,8.75,0,0,0,1.72-2,18,18,0,0,0,1.36-2.56q.58-1.36,1-2.46l2.65-6.59L46.79,29.06H43.52V28.2H59.17v.86H54.86l7.52,17.8Z"/><polygon class="cls-1" points="85.17 10.21 85.17 53.77 89.3 53.77 89.3 54.63 73.52 54.63 73.52 53.77 77.65 53.77 77.65 11.07 73.52 11.07 73.52 10.21 85.17 10.21"/><path class="cls-1" d="M150,15.16a4.37,4.37,0,0,1,7.45,3.08A4.37,4.37,0,1,1,150,15.16m6.84,13V53.77h4.13v.86H145.17v-.86h4.13V29.06h-4.13V28.2Z"/><path class="cls-1" d="M174.65,45.67a15.34,15.34,0,0,0,.89,4.31,8.33,8.33,0,0,0,2.19,3.33,5.75,5.75,0,0,0,4,1.32,3.92,3.92,0,0,0,2.74-.92A5.74,5.74,0,0,0,186,51.06a18.57,18.57,0,0,0,.68-4.16q.15-2.43.15-5.45a59.38,59.38,0,0,0-.28-6.25,14.18,14.18,0,0,0-1-4.1,4.89,4.89,0,0,0-1.72-2.22,4.8,4.8,0,0,0-2.65-.68,5,5,0,0,0-3.63,1.29,8,8,0,0,0-2,3.26,18.33,18.33,0,0,0-.89,4.31q-.22,2.34-.22,4.37t.15,4.22M162.91,11.07v-.86H174.5v22.3h.12a8.09,8.09,0,0,1,2.65-3.88,7.3,7.3,0,0,1,4.5-1.29,12.51,12.51,0,0,1,6.1,1.39A13.33,13.33,0,0,1,192,32.2a14.36,14.36,0,0,1,2.4,4.56,15.54,15.54,0,0,1,.77,4.62,14.58,14.58,0,0,1-3.73,9.77,13.33,13.33,0,0,1-4.22,3.11,12.64,12.64,0,0,1-5.48,1.17A7.09,7.09,0,0,1,177.24,54a9,9,0,0,1-2.74-4h-.12v4.56H162.91v-.86H167V11.07Z"/><path class="cls-1" d="M209.55,28.2v5.17h.12a12.68,12.68,0,0,1,3-4,7.13,7.13,0,0,1,5-1.69A6.17,6.17,0,0,1,221.81,29a4.82,4.82,0,0,1,1.6,3.85,4.33,4.33,0,0,1-.89,2.89,3.57,3.57,0,0,1-2.86,1,5.69,5.69,0,0,1-2.59-.59,2.21,2.21,0,0,1-1.17-2.19,5.67,5.67,0,0,1,.06-.65c0-.31.09-.64.15-1s.11-.67.15-1,.06-.45.06-.49a2.85,2.85,0,0,0-.18-.77,1.3,1.3,0,0,0-.4-.49,1.34,1.34,0,0,0-.83-.22,3.09,3.09,0,0,0-1.54.59,6.36,6.36,0,0,0-1.72,1.69,11.31,11.31,0,0,0-1.39,2.68,10.08,10.08,0,0,0-.58,3.54V53.77h4.87v.86H198.15v-.86h4V29.06h-4V28.2Z"/><path class="cls-1" d="M240.48,39.35a1.85,1.85,0,0,1-.46.71,4.83,4.83,0,0,1-1.2.77q-1.17.55-2.34,1.08a8.42,8.42,0,0,0-2.09,1.32,6.32,6.32,0,0,0-1.51,2,6.75,6.75,0,0,0-.58,3q0,.74.09,1.72a6.23,6.23,0,0,0,.49,1.91,4.07,4.07,0,0,0,1.2,1.57,3.44,3.44,0,0,0,2.22.65,3.61,3.61,0,0,0,1.57-.37,4,4,0,0,0,1.39-1.14,5.89,5.89,0,0,0,1-2,11,11,0,0,0,.37-3V39.35Zm10.07,15.83a20.57,20.57,0,0,1-3,.25,7.88,7.88,0,0,1-4.65-1.11A4.75,4.75,0,0,1,241,51.24h-.12a6,6,0,0,1-2.71,3.33,11.47,11.47,0,0,1-5,.86,15.39,15.39,0,0,1-3-.31,10.52,10.52,0,0,1-2.83-1,5.59,5.59,0,0,1-2.09-1.88,5.16,5.16,0,0,1-.8-2.93,5.81,5.81,0,0,1,.71-3,6.73,6.73,0,0,1,1.85-2A10.28,10.28,0,0,1,229.54,43q1.44-.52,3-1,2.53-.74,4.1-1.26a10.08,10.08,0,0,0,2.43-1.11,3.29,3.29,0,0,0,1.2-1.32,4.6,4.6,0,0,0,.34-1.91V32.57a5.84,5.84,0,0,0-.8-3,3.21,3.21,0,0,0-3-1.36,4.59,4.59,0,0,0-2.46.65,2.56,2.56,0,0,0-1,2.37,5.53,5.53,0,0,0,.06.65q.06.46.12,1t.12,1c0,.33.06.55.06.68a2.21,2.21,0,0,1-.43,1.45,2.64,2.64,0,0,1-1,.77,3.62,3.62,0,0,1-1.23.28l-1.08,0a8.83,8.83,0,0,1-1.26-.09,2.63,2.63,0,0,1-1.14-.43,2.7,2.7,0,0,1-.83-1,3.44,3.44,0,0,1-.34-1.66,4.84,4.84,0,0,1,.89-2.86A7.14,7.14,0,0,1,229.57,29a12.54,12.54,0,0,1,3.36-1.26,17.5,17.5,0,0,1,3.91-.43,25,25,0,0,1,4.41.37,9.55,9.55,0,0,1,3.57,1.36,7.08,7.08,0,0,1,2.4,2.68,9.15,9.15,0,0,1,.89,4.28V51.3a5.8,5.8,0,0,0,.34,2.06q.34.89,1.69.89a2.57,2.57,0,0,0,1.32-.31,4.29,4.29,0,0,0,1-.86l.55.56a3.48,3.48,0,0,1-2.5,1.54"/><path class="cls-1" d="M266.84,28.2v5.17H267a12.65,12.65,0,0,1,3-4,7.12,7.12,0,0,1,5-1.69A6.18,6.18,0,0,1,279.1,29a4.82,4.82,0,0,1,1.6,3.85,4.33,4.33,0,0,1-.89,2.89,3.57,3.57,0,0,1-2.87,1,5.7,5.7,0,0,1-2.59-.59,2.22,2.22,0,0,1-1.17-2.19,5.51,5.51,0,0,1,.06-.65c0-.31.09-.64.15-1s.11-.67.15-1,.06-.45.06-.49a2.82,2.82,0,0,0-.18-.77,1.31,1.31,0,0,0-.4-.49,1.34,1.34,0,0,0-.83-.22,3.09,3.09,0,0,0-1.54.59,6.38,6.38,0,0,0-1.73,1.69,11.31,11.31,0,0,0-1.39,2.68A10.08,10.08,0,0,0,267,38V53.77h4.87v.86H255.45v-.86h4V29.06h-4V28.2Z"/><path class="cls-1" d="M308.55,29.06h-5.11V28.2h8.93v.86h-2.83q-3.45,7.39-5.91,13.25t-4.28,10.41l-3.2,8q-1.39,3.48-2.62,6.13A11.16,11.16,0,0,1,290.75,71a6.21,6.21,0,0,1-4.13,1.29,7.32,7.32,0,0,1-4.53-1.32,4.34,4.34,0,0,1-1.76-3.67,2.94,2.94,0,0,1,1.14-2.59,4.64,4.64,0,0,1,2.74-.8,4.15,4.15,0,0,1,2.22.65,2.13,2.13,0,0,1,1,1.94,3.5,3.5,0,0,1-.4,1.79,3.09,3.09,0,0,0-.4,1.6,1.31,1.31,0,0,0,.37,1,1.24,1.24,0,0,0,.86.34,3.16,3.16,0,0,0,2.06-.8,8.77,8.77,0,0,0,1.72-2,18.06,18.06,0,0,0,1.36-2.56q.58-1.36,1-2.46l2.65-6.59L285.14,29.06h-3.27V28.2h15.65v.86h-4.31l7.52,17.8Z"/><path class="cls-1" d="M110.27,53.71a8.59,8.59,0,0,1-4.16.92,7,7,0,0,1-4.31-1.17,7.46,7.46,0,0,1-2.34-3,12.54,12.54,0,0,1-1-4.07q-.19-2.25-.19-4.47V39.17h18l-6,14.54h0M98.5,34.95a12.63,12.63,0,0,1,.71-3.27,5.94,5.94,0,0,1,1.69-2.5,4.8,4.8,0,0,1,3.23-1,3.56,3.56,0,0,1,2.31.68,3.87,3.87,0,0,1,1.2,1.66,6.83,6.83,0,0,1,.43,2q.06,1,.06,1.66V38.3H98.29q.06-1.6.22-3.36m40.23,18.79V10.18H129.2L133.28.33,132.49,0l-16,38.79a11.88,11.88,0,0,0-1.09-5,10.91,10.91,0,0,0-2.83-3.67A11.51,11.51,0,0,0,108.64,28a14.32,14.32,0,0,0-4.31-.68,13.36,13.36,0,0,0-5.64,1.2,15.56,15.56,0,0,0-4.56,3.14,14.52,14.52,0,0,0-3.05,4.47A12.77,12.77,0,0,0,90,41.32a14.41,14.41,0,0,0,1.17,5.94,12.73,12.73,0,0,0,3.23,4.44,14.26,14.26,0,0,0,4.84,2.77,18.25,18.25,0,0,0,6,1,12.37,12.37,0,0,0,4.62-.77l.09,0-7.35,17.77.79.33L128.85,11h2.37V53.74h-4.13v.86h15.77v-.86Z"/></g></g></svg>