<?xml  version="1.0" encoding="UTF-8"?>
<!DOCTYPE svg PUBLIC "-//W3C//DTD SVG 1.0//EN" "http://www.w3.org/TR/2001/REC-SVG-20010904/DTD/svg10.dtd" >
<svg xmlns="http://www.w3.org/2000/svg" >
<metadata>
<version>1.0</version>
<id><![CDATA[Gill Sans W04 Light]]></id>
<vendor>Monotype Imaging Inc.</vendor>
<credits>
<name>Fonts.com WebFonts</name>
<URL>http://webfonts.fonts.com</URL>
<role>Home of the Web fonts</role>
</credits>
<license>
<URL>http://webfonts.fonts.com/Legal</URL>
</license>
<copyright><![CDATA[Font software Copyright 2001 Adobe Systems Incorporated. Typeface designs Copyright The Monotype Corporation. All Rights Reserved.]]></copyright>
<trademark><![CDATA[Gill Sans is a registered trademark of The Monotype Corporation in the Unites States and/or other countries.]]></trademark>
<licensee>
<name></name>
</licensee>
</metadata>
<defs >
<font horiz-adv-x="479" id="2f1959a9-36af-4490-bdb5-aec3ca90bbb2">
<font-face font-family="" panose-1="2 11 3 2 2 1 4 2 2 3" ascent="682" descent="-318" units-per-em="1000" alphabetic="0">
</font-face>
<missing-glyph horiz-adv-x="500" d="M12 665H487V0H12V665ZM250 375L411 618H88L250 375ZM60 91Q60 91 67 101T85 128T110 167T140 212Q175 266 221 333L60 575V91ZM278 333L440 90V575L278 333ZM250 290L88 48H411L250 290Z"  />

<glyph unicode="&#xA;" />
<glyph unicode="&#xD;" horiz-adv-x="250" />
<glyph unicode=" " horiz-adv-x="250" />
<glyph unicode="!" horiz-adv-x="177" d="M112 357L102 192H74L57 682H121L112 357ZM121 0H57V96H121V0Z"  />
<glyph unicode="&quot;" horiz-adv-x="281" d="M39 565V682H111V565L97 435H53L39 565ZM170 565V682H242V565L228 435H184L170 565Z"  />
<glyph unicode="#" horiz-adv-x="660" d="M219 483L261 687H307L265 483H454L498 687H544L502 483H583V438H493L454 244H583V199H442L398 -4H354L398 199H206L162 -4H118L162 199H77V244H169L210 438H77V483H219ZM255 438L215 244H406L446 438H255Z"  />
<glyph unicode="$" horiz-adv-x="521" d="M455 544Q436 557 418 568T379 589T335 604T283 613V353Q302 348 336 337T403 304T460 249T484 167Q484 144 475 115T442 60T380 15T283 -9V-117H236V-9Q165 -4 116 19T35 71V126Q70 101 98 85T149 60T194 47T236 39V315Q217 321 185 332T120 365T65 417T41 495Q41 511 47 536T74 588T132 634T236 661V691H283V661Q309 659 330 655T372 644T412 627T455 600V544ZM236 613Q206 612 180 603T133 579T102 543T90 498Q90 468 103 448T138 412T185 387T236 368V613ZM283 40Q308 41 334 49T383 72T419 110T433 163Q433 192 422 213T390 250T343 277T283 299V40Z"  />
<glyph unicode="%" horiz-adv-x="698" d="M180 648Q156 648 135 639T97 614T72 577T62 530Q62 506 71 485T97 447T134 422T180 412Q204 412 225 421T263 447T288 484T298 530Q298 555 289 576T263 614T226 639T180 648ZM96 -9H46L596 691H645L96 -9ZM518 269Q494 269 473 260T435 235T410 198T400 151Q400 127 409 106T435 68T472 43T518 33Q542 33 563 42T601 68T626 105T636 151Q636 176 627 197T601 235T564 260T518 269ZM180 691Q213 691 242 679T293 644T327 593T340 531Q340 498 328 469T293 417T242 383T180 370Q147 370 118 382T67 416T32 467T19 531Q19 564 32 593T66 644T117 678T180 691ZM518 312Q551 312 580 300T632 265T666 214T679 152Q679 119 667 90T632 38T581 4T518 -9Q485 -9 456 3T406 37T371 88T358 152Q358 185 370 214T405 265T456 299T518 312Z"  />
<glyph unicode="&amp;" horiz-adv-x="615" d="M609 0H542L439 107Q428 95 408 75T360 37T295 5T212 -9Q173 -9 139 3T80 38T41 89T26 153Q26 171 31 197T55 251T106 308T195 361Q158 403 134 438T110 520Q110 548 121 575T154 623T205 656T272 669Q307 669 334 658T381 627T411 582T421 528Q421 487 404 457T364 404T316 368T278 347L433 186Q444 202 465 238T508 340H564Q547 289 525 241T470 147L609 0ZM244 384Q282 400 307 418T346 454T366 491T372 524Q372 542 366 559T346 590T314 612T269 621Q245 621 225 613T191 592T169 560T161 523Q161 512 164 499T176 468T201 429T244 384ZM230 324Q210 315 185 302T138 270T100 225T84 164Q84 139 93 117T119 77T161 49T218 39Q260 39 306 61T403 144L230 324Z"  />
<glyph unicode="&apos;" horiz-adv-x="219" d="M73 565V682H145V565L132 435H87L73 565Z"  />
<glyph unicode="(" horiz-adv-x="333" d="M276 -227Q262 -212 239 -187T189 -122Q136 -44 108 47T80 233Q80 328 103 404T159 538T225 633T276 691H326Q288 657 253 609T191 503T147 376T130 234Q130 148 152 66T216 -90Q247 -144 275 -174T326 -227H276Z"  />
<glyph unicode=")" horiz-adv-x="333" d="M57 691Q76 671 109 633T174 537T229 404T253 233Q253 139 226 48T145 -122Q119 -161 96 -186T57 -227H8Q31 -204 59 -174T117 -90Q159 -17 181 65T203 234Q203 308 187 375T143 501T81 608T8 691H57Z"  />
<glyph unicode="*" horiz-adv-x="469" d="M258 500Q256 500 256 498Q256 496 258 496L437 511V464L258 484Q255 484 255 481Q255 478 258 478L395 364L361 330L246 469Q244 468 240 469L258 285H212L228 469Q226 468 223 469L110 330L75 364L216 478Q213 481 212 484L32 464V511L212 496Q212 496 213 498Q213 499 212 500L75 613L110 648L223 511Q226 512 228 511L212 691H258L240 511Q243 512 246 511L361 648L395 613L258 500Z"  />
<glyph unicode="+" horiz-adv-x="660" d="M307 318H68V364H307V603H353V364H592V318H353V79H307V318Z"  />
<glyph unicode="&#x2c;" horiz-adv-x="177" d="M121 37Q121 27 120 8T113 -32T94 -76T56 -117V-83Q62 -72 69 -54T77 0H56V95H121V37Z"  />
<glyph unicode="-" horiz-adv-x="312" d="M275 202H38V249H275V202Z"  />
<glyph unicode="." horiz-adv-x="177" d="M121 0H56V97H121V0Z"  />
<glyph unicode="/" horiz-adv-x="281" d="M227 691H274L54 -9H8L227 691Z"  />
<glyph unicode="0" horiz-adv-x="500" d="M468 338Q468 245 448 180T397 72T327 11T252 -9Q208 -9 169 12T99 77T50 183T32 329Q32 412 46 477T81 578Q93 599 109 619T147 655T194 681T250 691Q292 691 331 670T400 606T449 496T468 338ZM418 344Q418 384 411 436T384 534T333 613T251 645Q208 645 177 618T124 548T93 451T83 342Q83 280 94 225T126 129T178 64T248 40Q294 40 326 69T379 142T408 240T418 344Z"  />
<glyph unicode="1" horiz-adv-x="500" d="M276 0H224V682H276V0Z"  />
<glyph unicode="2" horiz-adv-x="500" d="M470 48V0H35Q99 59 154 124T259 260Q271 277 287 303T317 361T342 428T352 499Q352 534 338 561T303 607T254 635T200 645Q151 645 115 623T45 570V629Q79 658 119 674T204 691Q249 691 286 675T349 631T389 570T404 498Q404 474 400 449T385 392T354 323T302 238Q268 188 230 142T153 48H470Z"  />
<glyph unicode="3" horiz-adv-x="500" d="M44 72Q117 37 196 37Q231 37 260 47T311 77T344 123T356 183Q356 205 349 231T322 281T268 320T178 335V383Q224 384 256 396T309 428T339 471T348 516Q348 546 335 570T299 610T249 635T191 644Q153 644 118 632T50 598V647Q57 652 68 659T97 674T139 686T194 691Q243 691 281 677T345 638T384 583T397 519Q397 477 382 449T347 403T307 376T274 362Q287 357 309 348T352 320T389 268T405 187Q405 132 385 95T333 34T267 1T202 -9Q190 -9 172 -8T133 -3T89 7T44 25V72Z"  />
<glyph unicode="4" horiz-adv-x="500" d="M376 304H471V263H376V0H325V263H14V280L357 691H376V304ZM325 592L85 304H325V592Z"  />
<glyph unicode="5" horiz-adv-x="500" d="M386 636H145V419Q156 421 169 422T199 423Q266 423 310 402T380 350T416 281T426 212Q426 167 411 127T366 57T296 9T205 -9Q176 -9 150 -4T103 8T67 23T41 36V94Q53 87 70 78T109 59T155 44T206 38Q237 38 267 49T321 81T358 134T373 208Q373 261 354 294T307 346T249 371T195 378Q166 378 142 374T99 365V682H386V636Z"  />
<glyph unicode="6" horiz-adv-x="500" d="M375 655Q363 647 342 631T295 591T241 537T189 471T147 397T121 316Q154 340 192 354T272 369Q305 369 339 358T400 323T445 264T463 183Q463 140 449 105T408 45T347 5T269 -9Q225 -9 187 6T121 52T77 127T61 231Q61 317 93 396T182 541Q188 548 202 564T238 601T287 645T345 691L375 655ZM112 257Q112 252 111 240T110 217Q110 197 116 167T139 108T187 59T266 39Q300 39 327 50T373 81T402 124T412 176Q412 196 404 221T379 269T334 306T265 321Q236 321 212 314T169 297T136 276T112 257Z"  />
<glyph unicode="7" horiz-adv-x="500" d="M163 -9L119 10L401 635H29V682H475L163 -9Z"  />
<glyph unicode="8" horiz-adv-x="500" d="M344 355Q393 326 419 285T445 186Q445 145 430 110T389 48T328 6T252 -9Q212 -9 177 5T114 45T72 106T56 182Q56 220 70 255T108 317Q122 331 134 339T158 355Q126 377 108 400T82 445T71 483T69 509Q69 542 82 575T119 633T176 675T249 691Q286 691 319 677T377 638T416 580T431 510Q431 442 387 392Q375 378 365 370T344 355ZM381 511Q381 539 371 562T342 603T300 631T248 641Q221 641 197 631T156 602T128 560T118 509Q118 481 128 457T157 416T199 388T251 378Q280 378 304 388T345 417T371 459T381 511ZM393 189Q393 220 381 245T350 289T304 318T249 328Q219 328 194 317T149 286T118 240T107 184Q107 154 118 128T150 83T196 53T252 42Q283 42 309 53T353 84T382 130T393 189Z"  />
<glyph unicode="9" horiz-adv-x="500" d="M116 28Q149 53 189 86T266 161T332 253T372 365Q362 359 347 351T313 334T271 321T222 315Q189 315 156 326T95 361T50 419T32 501Q32 538 45 572T82 633T142 675T224 691Q270 691 308 676T375 630T418 556T434 452Q434 360 402 286T323 154T228 57T144 -9L116 28ZM381 426Q383 456 382 484T369 548Q355 590 319 618T227 646Q194 646 168 635T123 604T94 558T84 504Q84 475 94 450T123 405T167 374T223 363Q268 363 308 380T381 426Z"  />
<glyph unicode=":" horiz-adv-x="177" d="M121 352H56V449H121V352ZM121 0H56V97H121V0Z"  />
<glyph unicode=";" horiz-adv-x="177" d="M121 353H56V449H121V353ZM121 37Q121 27 120 8T113 -32T94 -76T56 -117V-83Q62 -72 69 -54T77 0H56V95H121V37Z"  />
<glyph unicode="&lt;" horiz-adv-x="660" d="M68 361L592 583V534L128 341L592 149V100L68 320V361Z"  />
<glyph unicode="=" horiz-adv-x="660" d="M68 482H592V436H68V482ZM68 246H592V201H68V246Z"  />
<glyph unicode="&gt;" horiz-adv-x="660" d="M592 322L68 100V149L532 342L68 533V583L592 362V322Z"  />
<glyph unicode="?" horiz-adv-x="281" d="M113 165Q96 185 85 208T74 257Q74 274 77 288T87 319T107 357T139 408Q168 455 179 490T190 555Q190 573 185 589T170 619T146 640T115 648Q97 648 84 642T61 627T45 609T35 595H25L48 673Q60 679 75 685T116 691Q173 691 207 652T241 549Q241 509 226 470T193 404Q167 366 152 342T127 301T115 271T112 242Q112 223 117 211T131 179L113 165ZM150 0H85V98H150V0Z"  />
<glyph unicode="@" horiz-adv-x="802" d="M620 505L537 113Q535 100 534 93T532 83T531 78T531 74Q531 66 537 61T554 55Q579 55 612 74T675 129T725 217T746 336Q746 356 742 387T727 453T693 523T635 587T547 634T421 652Q331 652 260 621T141 535T66 410T40 260Q40 181 65 112T140 -9T261 -90T425 -120Q503 -120 558 -103T652 -61T715 -10T753 34H803Q787 10 763 -20T692 -83Q639 -118 571 -138T424 -159Q327 -159 249 -128T115 -42T29 91T-1 261Q-1 342 25 419T103 556T236 654T424 691Q496 691 551 674T647 628T714 562T757 486T780 408T787 337Q787 258 761 197T697 95T615 32T535 10Q526 10 516 12T496 19T482 34T476 61Q476 72 477 84T480 101Q456 72 433 55T389 27T348 14T313 10Q275 10 244 26T191 70T157 135T144 217Q144 270 162 323T212 420T291 490T393 517Q429 517 455 506T499 479T527 449T542 424L559 505H620ZM519 336Q519 366 510 391T484 435T444 464T394 475Q346 475 311 448T253 381T218 296T206 213Q206 183 214 155T238 104T277 69T331 56Q373 56 410 86T473 166Q493 202 506 249T519 336Z"  />
<glyph unicode="A" horiz-adv-x="667" d="M663 0H608L500 236H167L59 0H4L317 687H348L663 0ZM333 601L186 281H479L333 601Z"  />
<glyph unicode="B" horiz-adv-x="531" d="M186 682Q245 682 281 678T349 660Q395 641 422 599T449 506Q449 469 438 443T410 399T378 371T351 354Q399 344 429 325T478 283T502 233T509 182Q509 131 489 97T442 46Q419 31 399 22T357 8T312 2T258 0H80V682H186ZM133 637V366H197Q218 366 251 368T315 383T369 423T392 502Q392 536 378 565T339 609Q319 621 285 629T184 637H133ZM133 322V44H251Q270 44 303 46T370 61T427 102T451 183Q451 209 442 233T409 279Q396 291 381 299T344 312T294 320T227 322H133Z"  />
<glyph unicode="C" horiz-adv-x="678" d="M636 576Q616 586 592 597T539 618T477 634T404 641Q336 641 280 619T183 556T120 461T98 341Q98 275 120 220T183 126T279 64T401 42Q442 42 479 50T548 68T604 90T643 110V55Q601 33 563 20T494 1T438 -7T401 -9Q331 -9 266 14T150 83T69 193T38 340Q38 427 71 493T157 603T272 669T394 691Q457 691 518 676T636 634V576Z"  />
<glyph unicode="D" horiz-adv-x="729" d="M287 682Q324 682 355 682T416 677T473 663T531 636Q611 590 651 513T691 344Q691 305 682 262T654 179T604 104T531 47Q498 29 470 20T413 6T355 1T287 0H80V682H287ZM133 638V43H293Q322 43 347 44T396 49T446 63T501 90Q532 108 556 135T597 195T623 266T632 343Q632 373 626 406T605 472T565 535T501 590Q475 607 452 616T404 631T353 637T293 638H133Z"  />
<glyph unicode="E" horiz-adv-x="502" d="M452 638H133V366H444V322H133V43H460V0H80V682H452V638Z"  />
<glyph unicode="F" horiz-adv-x="450" d="M430 638H132V379H401V335H132V0H80V682H430V638Z"  />
<glyph unicode="G" horiz-adv-x="701" d="M638 573Q583 608 521 624T394 641Q338 641 285 621T190 563T123 468T97 340Q97 270 122 214T189 119T284 60T392 39Q446 39 497 50T598 82V266H454V311H651V49Q590 21 525 6T394 -9Q328 -9 264 16T150 86T69 197T38 343Q38 416 65 479T140 590T255 664T404 691Q481 691 539 671T638 633V573Z"  />
<glyph unicode="H" horiz-adv-x="721" d="M641 0H588V323H132V0H80V682H132V368H588V682H641V0Z"  />
<glyph unicode="I" horiz-adv-x="214" d="M134 0H80V682H134V0Z"  />
<glyph unicode="J" horiz-adv-x="208" d="M136 11Q136 -13 134 -42T123 -99T96 -150T44 -188Q37 -191 31 -192T17 -195T-4 -197T-39 -199L-45 -147Q-40 -149 -35 -150T-20 -151Q18 -151 38 -134T69 -92T80 -37T82 17V682H136V11Z"  />
<glyph unicode="K" horiz-adv-x="553" d="M201 342L558 0H490L132 342V0H80V682H132V342L460 682H526L201 342Z"  />
<glyph unicode="L" horiz-adv-x="470" d="M132 43H470V0H80V682H132V43Z"  />
<glyph unicode="M" horiz-adv-x="784" d="M704 0H651V605L392 286L132 605V0H80V682H132L392 365L651 682H704V0Z"  />
<glyph unicode="N" horiz-adv-x="775" d="M695 0H651L133 600V0H80V682H129L642 86V682H695V0Z"  />
<glyph unicode="O" horiz-adv-x="799" d="M761 344Q761 267 733 203T655 91T539 18T399 -9Q322 -9 257 18T142 93T66 204T38 342Q38 411 64 474T137 586T251 662T400 691Q481 691 548 663T662 587T735 476T761 344ZM702 344Q702 402 680 456T618 550T523 615T401 640Q336 640 281 617T185 553T121 458T98 340Q98 280 120 226T182 130T277 65T398 41Q457 41 512 62T609 122T676 218T702 344Z"  />
<glyph unicode="P" horiz-adv-x="504" d="M218 682Q254 682 281 682T329 678T368 669T404 653Q443 631 466 593T489 503Q489 449 464 408T401 347Q379 337 360 332T320 323T276 320T225 319H132V0H80V682H218ZM132 639V363H228Q279 363 314 368T381 393Q404 408 417 438T430 501Q430 533 417 562T380 608Q369 615 356 621T325 631T282 637T220 639H132Z"  />
<glyph unicode="Q" horiz-adv-x="800" d="M673 -143Q638 -138 595 -129T498 -94Q495 -92 482 -86T449 -68T407 -41T363 -7Q289 -1 230 30T127 108T61 215T38 340Q38 410 64 474T139 586T253 662T400 691Q482 691 548 663T662 587T736 476T762 342Q762 293 750 249T715 166T661 96T592 42Q545 15 506 6T440 -7Q485 -37 522 -54T587 -78T632 -87T655 -89Q679 -89 695 -80T721 -64L733 -74L673 -143ZM703 341Q703 405 680 460T616 556T520 620T401 643Q338 643 283 620T186 555T121 459T97 341Q97 282 119 228T181 133T276 66T398 41Q456 41 511 62T609 123T677 217T703 341Z"  />
<glyph unicode="R" horiz-adv-x="587" d="M215 682Q245 682 268 682T310 679T345 672T378 662Q398 654 416 640T449 605T472 560T481 506Q481 443 447 403T351 340Q366 331 379 318T413 274T470 191T565 47L597 0H534L403 206Q395 218 385 232T363 261T341 287T319 306Q296 322 270 324T206 327H133V0H80V682H215ZM133 638V372H206Q235 372 257 373T298 376T330 383T359 394Q387 408 404 439T421 506Q421 541 404 571T358 616Q350 620 339 624T312 631T274 636T219 638H133Z"  />
<glyph unicode="S" horiz-adv-x="460" d="M399 590Q358 614 323 629T245 644Q208 644 181 632T136 600T110 558T101 513Q101 480 114 458T148 420T197 394T253 373Q283 362 314 348T370 311T411 256T427 179Q427 134 410 99T364 40T300 4T229 -9Q181 -9 137 8T54 51V113Q99 81 139 61T227 41Q264 41 291 53T336 85T363 129T372 177Q372 211 358 235T322 277T277 304T232 322Q198 334 177 342T143 358T122 370T109 381Q82 404 65 437T47 511Q47 545 61 577T100 635T160 675T240 691Q282 691 322 680T399 648V590Z"  />
<glyph unicode="T" horiz-adv-x="573" d="M569 638H314V0H260V638H4V682H569V638Z"  />
<glyph unicode="U" horiz-adv-x="698" d="M634 338Q634 302 633 272T626 214T612 163T586 114Q571 90 549 68T498 29T432 2T352 -9Q319 -9 285 -2T219 19T160 57T114 112Q96 143 86 170T71 225T65 279T64 338V682H116V328Q116 257 126 216T153 148Q165 127 183 108T225 73T279 49T348 40Q378 40 407 47T463 67T510 100T544 146Q567 191 574 234T582 328V682H634V338Z"  />
<glyph unicode="V" horiz-adv-x="594" d="M306 -5H289L2 682H56L298 105L538 682H591L306 -5Z"  />
<glyph unicode="W" horiz-adv-x="1031" d="M760 -5H744L515 569L288 -5H272L-1 682H53L279 116L507 682H524L751 116L979 682H1032L760 -5Z"  />
<glyph unicode="X" horiz-adv-x="687" d="M378 349L688 0H620L344 312L67 0H0L311 349L16 682H82L344 388L606 682H671L378 349Z"  />
<glyph unicode="Y" horiz-adv-x="584" d="M317 366V0H264V366L0 682H64L291 412L519 682H584L317 366Z"  />
<glyph unicode="Z" horiz-adv-x="635" d="M607 664L96 43H611V0H9V15L521 639H32V682H607V664Z"  />
<glyph unicode="[" horiz-adv-x="302" d="M295 634H118V-174H295V-221H69V682H295V634Z"  />
<glyph unicode="\" horiz-adv-x="281" d="M8 691H54L274 -9H227L8 691Z"  />
<glyph unicode="]" horiz-adv-x="302" d="M7 -174H184V634H7V682H233V-221H7V-174Z"  />
<glyph unicode="^" horiz-adv-x="656" d="M110 429L328 691L547 429L515 403L328 628L140 403L110 429Z"  />
<glyph unicode="_" horiz-adv-x="500" d="M506 -75V-125H-6V-75H506Z"  />
<glyph unicode="`" horiz-adv-x="333" d="M79 677L184 521H150L-2 677H79Z"  />
<glyph unicode="a" horiz-adv-x="416" d="M413 38Q381 15 360 3T323 -9Q302 -9 297 6T290 47Q281 40 268 31T237 12T197 -3T149 -9Q124 -9 102 -1T64 23T37 59T27 104Q27 141 42 167T81 211T135 240T194 257T248 266T290 269V326Q290 365 269 390T191 415Q150 415 120 401T53 361V410Q63 416 77 424T110 439T150 452T197 458Q225 458 257 449T310 418Q329 396 333 374T338 313V83Q338 73 338 59T339 43Q341 38 348 38Q353 38 362 42T381 53T399 67T413 78V38ZM290 230Q269 229 234 227T167 211Q150 204 134 194T105 171T84 141T76 104Q76 84 85 70T107 47T136 34T165 30Q186 30 204 36T239 50T267 69T290 89V230Z"  />
<glyph unicode="b" horiz-adv-x="508" d="M62 682H110V385Q123 397 139 409T174 433T218 451T272 458Q308 458 344 445T408 405T454 337T472 239Q472 183 455 138T405 60T326 9T221 -9Q164 -9 125 3T62 25V682ZM110 59Q148 45 176 41T221 37Q266 37 302 52T365 93T406 156T421 234Q421 267 411 300T381 358T332 400T266 416Q237 416 213 407T169 385T135 357T110 331V59Z"  />
<glyph unicode="c" horiz-adv-x="409" d="M375 383Q351 394 323 403T257 413Q214 413 183 397T130 353T99 292T89 223Q89 188 98 155T129 95T182 52T262 36Q304 36 333 45T383 64V14Q360 6 329 -1T255 -9Q222 -9 184 2T114 39T60 109T38 218Q38 279 57 324T106 399T176 443T255 458Q295 458 324 451T375 436V383Z"  />
<glyph unicode="d" horiz-adv-x="505" d="M444 0H396V35Q376 21 345 6T263 -9Q220 -9 179 7T107 53T56 127T36 225Q36 277 53 320T102 393T174 441T263 458Q309 458 341 446T396 422V682H444V0ZM396 369Q377 381 346 397T265 413Q224 413 191 398T136 358T101 299T89 228Q89 184 104 149T145 88T205 50T275 36Q321 36 349 50T396 79V369Z"  />
<glyph unicode="e" horiz-adv-x="477" d="M89 242Q87 188 102 150T142 86T200 48T265 36Q297 36 323 43T371 62T407 84T433 105V51Q401 26 359 9T260 -9Q205 -9 163 11T93 65T51 142T36 230Q36 275 50 316T90 388T155 439T242 458Q279 458 309 448T361 420T398 382T422 341Q434 314 437 290T441 242H89ZM384 280Q381 295 376 313T357 352Q340 381 310 398T242 415Q219 415 196 407T152 383T116 341T94 280H384Z"  />
<glyph unicode="f" horiz-adv-x="292" d="M332 627Q311 634 293 638T252 643Q217 643 196 631T162 600T146 555T142 505V449H229V409H142V0H94V409H11V449H94V505Q94 572 114 609T161 665T213 687T250 691Q277 691 296 685T332 672V627Z"  />
<glyph unicode="g" horiz-adv-x="417" d="M407 409H305Q313 401 323 391T344 365T360 331T367 287Q367 281 365 262T351 220T313 173T239 137Q207 128 188 123T157 114T139 107T127 99Q111 86 111 68Q111 52 122 43T149 29T185 23T219 21Q241 20 259 19T292 16T321 9T350 -4Q373 -16 389 -41T406 -99Q406 -159 355 -194T205 -230Q131 -230 91 -213T33 -174T11 -133T8 -110Q8 -98 12 -82T31 -50T71 -21T139 0Q116 6 102 14T79 31T69 48T66 65Q66 81 73 92T92 111T120 125T156 139Q144 143 124 152T85 177T53 220T39 287Q39 332 60 370T119 426Q155 443 185 446T249 449H407V409ZM200 409Q176 409 154 400T116 374T91 337T81 290Q81 265 90 244T116 206T153 180T200 170Q225 170 246 179T284 205T310 243T320 290Q320 315 311 336T285 374T246 399T200 409ZM361 -103Q361 -73 344 -57T304 -34T256 -25T217 -24Q193 -24 176 -25T146 -28T121 -35T99 -44Q93 -47 86 -52T71 -64T58 -83T53 -108Q53 -139 73 -155T120 -179T172 -188T208 -190Q249 -190 278 -183T325 -163T352 -135T361 -103Z"  />
<glyph unicode="h" horiz-adv-x="490" d="M110 367Q116 377 127 393T156 423T199 447T259 458Q279 458 300 454T340 440T375 417T401 382Q411 363 416 347T423 313T426 277T427 232V0H378V236Q378 276 375 300T359 348Q347 372 321 391T252 411Q219 411 194 400T154 374Q138 360 129 345T110 310V0H63V682H110V367Z"  />
<glyph unicode="i" horiz-adv-x="187" d="M117 600H70V682H117V600ZM117 0H70V449H117V0Z"  />
<glyph unicode="j" horiz-adv-x="183" d="M116 600H68V682H116V600ZM116 -18Q116 -56 113 -92T96 -158T56 -207T-16 -230L-30 -190Q7 -187 27 -172T56 -134T66 -80T68 -15V449H116V-18Z"  />
<glyph unicode="k" horiz-adv-x="440" d="M107 0H59V682H107V0ZM181 236L466 0H397L114 236L362 449H425L181 236Z"  />
<glyph unicode="l" horiz-adv-x="188" d="M118 0H70V682H118V0Z"  />
<glyph unicode="m" horiz-adv-x="771" d="M107 370Q114 381 126 396T155 425T197 448T253 458Q292 458 317 445T359 415T385 379T398 350Q435 412 473 435T555 458Q596 458 630 440T682 389Q692 370 698 354T707 320T710 284T711 241V0H663V237Q663 279 659 305T642 355Q628 379 603 395T547 412Q535 412 518 408T481 391T443 359T409 306V0H361V230Q361 263 359 285T354 322T346 346T335 364Q320 385 296 398T242 412Q213 412 192 402T154 376T126 344T107 315V0H60V449H107V370Z"  />
<glyph unicode="n" horiz-adv-x="490" d="M110 371Q118 382 129 397T158 425T200 448T257 458Q295 458 332 442T391 395Q414 360 420 324T427 243V0H379V239Q379 291 372 317T351 361Q335 384 309 398T251 412Q219 412 191 398T142 363Q130 349 123 338T110 315V0H62V449H110V371Z"  />
<glyph unicode="o" horiz-adv-x="529" d="M265 458Q317 458 359 440T431 389T477 315T493 224Q493 169 474 126T423 53T350 7T265 -9Q221 -9 180 7T107 53T56 126T36 224Q36 271 51 313T96 388T168 439T265 458ZM265 413Q234 413 203 402T146 367T104 308T88 225Q88 182 102 147T140 87T196 49T265 35Q302 35 334 49T390 88T428 148T442 225Q442 271 427 306T386 365T329 401T265 413Z"  />
<glyph unicode="p" horiz-adv-x="504" d="M111 424Q132 434 165 446T248 458Q294 458 334 441T404 393T451 320T468 226Q468 169 448 125T396 52T324 7T245 -9Q197 -9 164 3T111 25V-230H63V449H111V424ZM111 72Q130 61 159 49T236 36Q280 36 313 51T369 91T403 150T415 222Q415 268 400 303T359 363T299 399T229 412Q188 412 161 401T111 378V72Z"  />
<glyph unicode="q" horiz-adv-x="509" d="M446 -230H398V26Q376 16 339 4T249 -9Q210 -9 172 5T104 46T55 116T36 216Q36 271 54 315T102 391T173 440T257 458Q308 458 342 444T398 418V449H446V-230ZM398 371Q378 384 347 398T267 413Q222 413 189 395T133 349T99 284T88 213Q88 189 95 159T121 101T174 54T261 35Q312 35 344 49T398 74V371Z"  />
<glyph unicode="r" horiz-adv-x="373" d="M345 360Q328 375 305 392T256 409Q236 409 217 398T179 370T143 329T111 282V0H63V449H111V331Q118 342 133 363T170 405T217 442T271 458Q287 458 301 453T329 439T353 422T373 405L345 360Z"  />
<glyph unicode="s" horiz-adv-x="348" d="M303 368Q283 382 252 398T180 414Q134 414 109 390T83 338Q83 318 93 304T120 280T154 262T190 248Q205 242 227 233T268 209T302 171T316 115Q316 92 307 70T279 31T233 2T170 -9Q155 -9 119 -3T35 32V79Q58 67 94 52T175 36Q222 36 245 59T268 111Q268 132 259 146T234 171T195 192T144 213Q133 217 115 225T80 247T51 282T38 334Q38 355 47 377T74 417T119 446T183 458Q204 458 222 454T256 443T284 431T303 420V368Z"  />
<glyph unicode="t" horiz-adv-x="305" d="M144 449H270V409H144V134Q144 118 144 108T145 91T148 79T153 68Q161 54 175 47T212 39Q236 39 254 45T293 60V14Q262 0 240 -4T200 -9Q171 -9 144 5T106 45Q98 62 97 80T96 134V409H-25V449H96V556L129 598H144V449Z"  />
<glyph unicode="u" horiz-adv-x="490" d="M423 0H375V74Q366 63 353 49T321 21T278 0T222 -9Q181 -9 143 10T86 62Q66 95 62 128T58 196V449H106V196Q106 159 109 135T124 88Q142 56 172 45T227 33Q256 33 285 44T341 80Q352 92 359 105T375 135V449H423V0Z"  />
<glyph unicode="v" horiz-adv-x="427" d="M234 -9H204L0 449H49L218 71L380 449H427L234 -9Z"  />
<glyph unicode="w" horiz-adv-x="708" d="M514 -9H491L353 356L214 -9H192L0 449H47L200 83L341 449H367L504 83L660 449H708L514 -9Z"  />
<glyph unicode="x" d="M270 230L482 0H421L240 198L60 0H6L211 230L6 449H68L240 263L411 449H467L270 230Z"  />
<glyph unicode="y" horiz-adv-x="411" d="M81 -230H32L189 87L0 449H49L213 135L368 449H417L81 -230Z"  />
<glyph unicode="z" horiz-adv-x="399" d="M385 431L90 45H385V0H10V15L307 403H29V449H385V431Z"  />
<glyph unicode="{" horiz-adv-x="333" d="M49 258Q83 259 102 276T130 318T141 368T143 414Q143 470 143 506T146 566T154 605T171 635Q185 653 200 663T230 677T259 682T286 682V627Q257 626 240 621T213 600T201 551T198 463Q198 429 198 407T196 371T193 346T188 326Q180 300 169 283T146 255T123 237T102 226Q119 218 137 206T170 168Q180 149 186 132T194 95T197 54T198 2Q198 -58 199 -92T209 -145T235 -168T286 -176V-230Q243 -231 216 -220T172 -188T150 -136T143 -64Q143 -7 143 28T141 85T136 120T127 146Q118 164 109 173T89 187T69 193T49 194V258Z"  />
<glyph unicode="|" horiz-adv-x="219" d="M84 691H134V-230H84V691Z"  />
<glyph unicode="}" horiz-adv-x="333" d="M285 194Q250 193 231 176T203 134T192 84T190 38Q190 -18 190 -54T187 -115T178 -154T162 -183Q148 -201 133 -211T103 -225T74 -230T48 -230V-175Q77 -174 94 -169T120 -148T132 -99T135 -11Q135 23 135 45T137 81T141 106T146 126Q154 152 164 169T187 197T210 215T232 226Q215 234 196 246T163 284Q152 303 147 320T139 357T136 398T135 450Q135 510 134 544T124 597T99 620T48 627V682Q90 683 117 673T161 641T184 589T191 517Q191 463 191 433T191 385T193 358T197 337Q203 308 214 292T239 269T264 260T285 258V194Z"  />
<glyph unicode="~" horiz-adv-x="660" d="M68 345Q148 404 208 404Q228 404 257 396T340 362Q368 349 386 342T417 332T438 327T453 326Q488 326 522 346T592 391V337Q581 329 567 319T534 300T496 285T455 278Q424 278 393 289T332 315Q300 330 280 338T246 351T225 356T208 357Q172 357 141 340T68 291V345Z"  />
<glyph unicode="&#xA0;" horiz-adv-x="250" />
<glyph unicode="&#xA1;" horiz-adv-x="177" d="M57 -221L74 269H102L112 105L121 -221H57ZM57 366V461H121V366H57Z"  />
<glyph unicode="&#xA2;" horiz-adv-x="417" d="M343 450Q351 448 356 446T377 438V385Q357 395 348 398T327 405L202 50Q213 47 228 43T264 39Q306 39 339 50T387 67V20Q371 12 341 2T261 -9Q232 -9 215 -5T186 2L118 -187H74L148 20Q136 27 118 40T83 77T54 134T42 217Q42 282 62 328T114 404T183 447T254 461Q267 461 281 460T302 458L367 640H410L343 450ZM288 415Q270 416 257 416T229 412Q193 405 167 387T125 343T101 286T93 224Q93 188 101 162T120 117T143 88T164 69L288 415Z"  />
<glyph unicode="&#xA3;" horiz-adv-x="552" d="M531 635Q520 639 507 642T475 645Q420 645 381 614T314 538T270 443T240 354H346V307H226L159 53Q182 55 209 57T264 60Q280 60 291 60T314 58T345 53T394 44Q407 42 418 42T439 41Q477 41 499 49T538 66V13Q525 7 503 -1T442 -9Q433 -9 425 -9T405 -6T372 -1T318 8Q298 11 278 11T251 12Q202 12 164 7T94 -5L178 307H94V354H191Q210 417 233 481T293 594Q307 612 324 629T361 660T406 682T459 691Q476 691 486 689T507 682L531 635Z"  />
<glyph unicode="&#xA4;" horiz-adv-x="552" d="M506 539L443 476Q491 417 491 341Q491 318 485 292T468 244Q463 231 457 223T443 205L506 143L475 111L411 173Q368 140 331 133T274 126Q247 126 225 131T187 144T159 160T140 173L78 111L46 143L107 205Q101 213 93 225T78 253T65 292T60 342Q60 394 77 426T107 476L46 539L78 572L140 508Q150 515 163 523T194 539T231 552T277 557Q302 557 323 552T360 540T389 524T411 508L475 572L506 539ZM276 510Q241 510 210 497T156 461T120 408T106 341Q106 306 119 276T156 222T210 186T276 172Q311 172 341 185T395 222T431 275T445 341Q445 377 432 407T395 461T341 497T276 510Z"  />
<glyph unicode="&#xA5;" horiz-adv-x="552" d="M72 716L279 360L483 716H552L342 360H521V315H315L309 304V238H521V193H309V0H245V193H31V238H245V304L239 315H31V360H212L0 716H72Z"  />
<glyph unicode="&#xA6;" horiz-adv-x="219" d="M84 691H134V324H84V691ZM84 137H134V-230H84V137Z"  />
<glyph unicode="&#xA7;" horiz-adv-x="396" d="M286 581Q281 606 268 619T242 639T216 646T200 647Q177 647 160 639T132 619T114 591T108 563Q108 547 112 531T129 494T167 449T233 388Q273 353 299 325T342 273T364 227T370 183Q370 156 362 133T342 89T314 52T286 21Q293 13 301 2T317 -24T330 -57T335 -98Q335 -136 321 -161T286 -202T239 -223T193 -230Q173 -230 145 -223T93 -193Q74 -174 69 -157T60 -122H110Q115 -146 126 -159T151 -178T176 -185T194 -186Q219 -186 236 -178T265 -157T281 -129T287 -98Q287 -64 261 -28T173 63Q141 91 115 116T68 166T37 219T26 279Q26 325 49 363T110 438Q93 459 77 488T60 559Q60 590 71 615T102 656T147 682T202 691Q244 691 269 678T309 646T329 610T337 581H286ZM141 407Q132 398 121 386T99 359T82 324T75 280Q75 239 97 208T160 140Q165 135 178 123T207 98T236 72T256 53Q285 81 303 111T322 179Q322 202 313 225T287 268Q282 273 278 277T266 289T244 312T205 350Q187 365 177 374T160 389T149 398T141 407Z"  />
<glyph unicode="&#xA8;" horiz-adv-x="333" d="M77 636Q95 636 107 624T120 593Q120 575 108 562T77 549Q59 549 47 562T34 593Q34 611 46 623T77 636ZM256 636Q274 636 287 624T300 593Q300 575 287 562T256 549Q239 549 226 562T213 593Q213 611 226 623T256 636Z"  />
<glyph unicode="&#xA9;" horiz-adv-x="802" d="M516 401Q505 426 491 442T463 467T434 479T406 482Q392 482 369 477T324 454T286 406T269 322Q269 279 280 247T309 193T351 160T401 149Q432 149 452 159T487 185T509 217T523 249L567 233Q559 213 548 189T511 143Q488 123 459 114T403 105Q357 105 322 124T264 173T228 242T216 319Q216 354 227 390T262 455T321 503T406 522Q456 522 494 498T563 414L516 401ZM401 691Q477 691 545 662T664 583T744 464T774 318Q774 241 745 173T665 55T546 -25T401 -55Q324 -55 256 -26T138 54T58 173T28 318Q28 396 57 464T138 583T256 662T401 691ZM401 646Q334 646 275 621T171 551T100 447T74 318Q74 250 99 191T169 87T273 17T401 -9Q469 -9 528 17T632 87T703 190T729 318Q729 387 703 446T632 550T528 620T401 646Z"  />
<glyph unicode="&#xAA;" horiz-adv-x="281" d="M280 438Q254 423 240 416T215 409Q198 409 194 419T189 438Q178 431 157 420T105 409Q70 409 46 429T21 480Q21 513 43 532T94 562T150 576T189 579V610Q189 632 177 646T132 660Q105 660 85 651T37 622V661Q52 669 76 680T136 691Q169 691 189 681T218 661Q226 650 228 637T231 603V467Q231 461 232 455T239 448Q244 448 255 456T280 474V438ZM189 550Q150 549 126 542T88 524T69 501T64 479Q64 459 79 449T115 439Q137 439 154 448T189 471V550Z"  />
<glyph unicode="&#xAB;" horiz-adv-x="500" d="M208 7L19 231L208 455H268L80 231L268 7H208ZM422 7L233 231L422 455H481L292 231L481 7H422Z"  />
<glyph unicode="&#xAC;" horiz-adv-x="660" d="M68 482H592V201H546V436H68V482Z"  />
<glyph unicode="&#xAD;" horiz-adv-x="312" d="M275 202H38V249H275V202Z"  />
<glyph unicode="&#xAE;" horiz-adv-x="802" d="M401 691Q477 691 545 662T664 583T744 464T774 318Q774 241 745 173T665 55T546 -25T401 -55Q324 -55 256 -26T138 54T58 173T28 318Q28 396 57 464T138 583T256 662T401 691ZM401 646Q334 646 275 621T171 551T100 447T74 318Q74 250 99 191T169 87T273 17T401 -9Q469 -9 528 17T632 87T703 190T729 318Q729 387 703 446T632 550T528 620T401 646ZM413 511Q462 511 489 497T528 464T543 428T546 406Q546 378 533 354T497 316Q483 307 468 303T430 295Q450 287 464 279T492 254T521 204T561 118H502Q477 172 460 205T424 257T382 282T322 288H299V118H250V511H413ZM299 329H364Q388 329 411 331T451 340T478 362T489 402Q489 426 480 440T455 460T418 469T372 471H299V329Z"  />
<glyph unicode="&#xAF;" horiz-adv-x="333" d="M300 572H33V623H300V572Z"  />
<glyph unicode="&#xB0;" horiz-adv-x="396" d="M58 551Q58 580 69 605T99 650T143 680T198 691Q227 691 252 680T297 650T327 606T338 551Q338 522 327 497T297 452T253 422T198 411Q168 411 143 422T99 452T69 497T58 551ZM98 551Q98 531 105 513T126 482T158 460T198 452Q240 452 269 480T298 551Q298 572 290 590T269 621T237 643T198 651Q177 651 159 643T127 622T106 590T98 551Z"  />
<glyph unicode="&#xB1;" horiz-adv-x="660" d="M307 318H68V364H307V603H353V364H592V318H353V79H307V318ZM68 34H592V-11H68V34Z"  />
<glyph unicode="&#xB2;" horiz-adv-x="323" d="M301 304V273H28Q38 282 56 297T96 334T140 379T179 429T208 481T220 531Q220 548 213 561T193 583T166 597T135 602Q106 602 85 590T38 557V598Q48 605 73 618T138 632Q166 632 189 623T228 600T253 568T262 530Q262 501 250 473T217 417T170 360T117 304H301Z"  />
<glyph unicode="&#xB3;" horiz-adv-x="313" d="M29 319Q40 314 64 306T124 298Q163 298 188 316T213 370Q213 392 204 406T181 429T147 441T108 444V475Q140 475 159 482T190 499T204 520T208 539Q208 555 200 567T180 587T152 598T122 602Q90 602 69 592T33 573V607Q41 613 63 622T124 632Q182 632 215 606T249 541Q249 533 247 523T238 502T217 480T181 461Q216 450 235 428T254 371Q254 343 242 324T210 292T169 274T128 268Q102 268 77 272T29 287V319Z"  />
<glyph unicode="&#xB4;" horiz-adv-x="333" d="M183 521H150L254 677H335L183 521Z"  />
<glyph unicode="&#xB5;" horiz-adv-x="513" d="M379 449H427V71Q427 42 444 42Q463 42 501 62V21Q493 16 481 11T456 2T432 -6T413 -9Q379 -9 379 37V67Q333 -9 256 -9Q176 -9 111 77V-230H62V449H111V138Q166 36 251 36Q308 36 343 73T379 200V449Z"  />
<glyph unicode="&#xB6;" horiz-adv-x="646" d="M619 615H523V-232H460V615H330V-232H267V271Q197 271 154 294T87 349T55 417T47 477Q47 521 62 558T107 623T180 666T281 682H619V615Z"  />
<glyph unicode="&#xB7;" horiz-adv-x="281" d="M141 399Q163 399 178 384T194 345Q194 322 178 307T141 292Q118 292 103 307T87 345Q87 367 102 383T141 399Z"  />
<glyph unicode="&#xB8;" horiz-adv-x="333" d="M186 -35Q194 -37 204 -40T225 -51T241 -69T248 -98Q248 -127 225 -151T149 -175Q135 -175 125 -174T106 -170L111 -138Q119 -139 125 -139T142 -140Q149 -140 160 -140T182 -135T201 -123T209 -101Q209 -87 202 -80T184 -68T164 -63T147 -62L169 8H198L186 -35Z"  />
<glyph unicode="&#xB9;" horiz-adv-x="312" d="M177 273H135V628H177V273Z"  />
<glyph unicode="&#xBA;" horiz-adv-x="354" d="M329 554Q329 517 316 490T280 444T231 418T175 409Q143 409 116 419T68 449T37 494T25 551Q25 582 36 607T68 651T116 680T177 691Q215 691 243 679T291 646T319 602T329 554ZM285 551Q285 575 277 595T253 629T218 650T176 658Q157 658 138 652T104 632T80 599T70 551Q70 497 101 470T176 442Q222 442 253 471T285 551Z"  />
<glyph unicode="&#xBB;" horiz-adv-x="500" d="M292 455L481 231L292 7H232L420 231L232 455H292ZM78 455L267 231L78 7H19L208 231L19 455H78Z"  />
<glyph unicode="&#xBC;" horiz-adv-x="833" d="M749 162H805V134H749V0H707V134H524V147L729 360H749V162ZM707 293L581 162H707V293ZM185 332H143V687H185V332ZM173 -27H134L660 691H699L173 -27Z"  />
<glyph unicode="&#xBD;" horiz-adv-x="833" d="M183 332H141V687H183V332ZM153 -27H114L640 691H679L153 -27ZM797 31V0H523Q539 13 571 41T635 106T691 183T715 258Q715 275 708 288T688 311T661 325T631 330Q602 330 581 317T534 284V325Q543 332 568 346T634 360Q662 360 685 351T724 328T749 295T758 258Q758 229 746 201T713 144T666 87T613 31H797Z"  />
<glyph unicode="&#xBE;" horiz-adv-x="833" d="M37 378Q48 373 72 365T132 357Q171 357 196 375T221 429Q221 451 212 465T189 488T155 500T116 503V534Q148 534 168 541T198 558T212 579T216 598Q216 614 208 626T188 646T160 657T130 661Q98 661 77 651T41 632V666Q49 672 71 681T132 691Q190 691 223 665T257 600Q257 592 255 582T246 561T226 539T190 520Q224 509 243 487T262 430Q262 402 250 383T219 351T178 333T136 327Q110 327 85 331T37 346V378ZM173 -27H134L660 691H699L173 -27ZM749 162H805V134H749V0H707V134H524V147L729 360H749V162ZM707 293L581 162H707V293Z"  />
<glyph unicode="&#xBF;" horiz-adv-x="281" d="M150 299Q167 280 178 257T189 207Q189 190 186 176T176 145T156 108T124 56Q95 9 84 -26T72 -90Q72 -108 77 -125T93 -154T117 -175T148 -183Q166 -183 179 -177T202 -163T218 -145T228 -130H238L214 -209Q202 -217 187 -223T146 -230Q120 -230 97 -221T57 -193T31 -148T21 -88Q21 -47 36 -8T70 59Q95 96 111 120T136 162T148 192T151 221Q151 241 146 253T132 285L150 299ZM113 461H178V364H113V461Z"  />
<glyph unicode="&#xC0;" horiz-adv-x="667" d="M663 0H608L500 236H167L59 0H4L317 687H348L663 0ZM333 601L186 281H479L333 601ZM414 728H365L170 856H292L414 728Z"  />
<glyph unicode="&#xC1;" horiz-adv-x="667" d="M663 0H608L500 236H167L59 0H4L317 687H348L663 0ZM333 601L186 281H479L333 601ZM497 856L302 728H253L375 856H497Z"  />
<glyph unicode="&#xC2;" horiz-adv-x="667" d="M663 0H608L500 236H167L59 0H4L317 687H348L663 0ZM333 601L186 281H479L333 601ZM447 728L333 816L222 728H169L293 865H371L498 728H447Z"  />
<glyph unicode="&#xC3;" horiz-adv-x="667" d="M663 0H608L500 236H167L59 0H4L317 687H348L663 0ZM333 601L186 281H479L333 601ZM168 736Q167 754 168 772T178 811Q188 833 208 844T250 855Q258 855 268 854T291 848T323 837T368 816Q383 808 393 804T409 798T420 795T428 794Q446 794 451 809T459 857H500Q499 834 498 817T490 782Q479 756 459 747T424 737Q403 737 375 745T304 774Q271 790 260 793T242 796Q220 796 216 779T209 736H168Z"  />
<glyph unicode="&#xC4;" horiz-adv-x="667" d="M663 0H608L500 236H167L59 0H4L317 687H348L663 0ZM333 601L186 281H479L333 601ZM239 841Q257 841 270 828T283 797Q283 779 270 767T239 754Q221 754 209 766T196 797Q196 815 208 828T239 841ZM428 840Q446 840 458 827T471 796Q471 779 459 766T428 753Q410 753 398 765T385 796Q385 815 398 827T428 840Z"  />
<glyph unicode="&#xC5;" horiz-adv-x="667" d="M663 0H608L500 236H167L59 0H4L317 687H348L663 0ZM333 601L186 281H479L333 601ZM334 937Q355 937 374 929T407 907T430 873T438 833Q438 811 430 792T408 759T374 736T334 728Q313 728 294 736T260 758T238 792T229 833Q229 855 237 874T259 907T293 929T334 937ZM332 906Q302 906 280 885T258 833Q258 801 280 780T332 759Q363 759 384 780T406 833Q406 863 385 884T332 906Z"  />
<glyph unicode="&#xC6;" horiz-adv-x="865" d="M818 639H498V366H811V322H498V44H827V0H444V322H244L44 0H-14L412 682H818V639ZM444 646L273 366H444V646Z"  />
<glyph unicode="&#xC7;" horiz-adv-x="678" d="M643 55Q574 19 512 5T401 -9L393 -38Q424 -43 441 -52T468 -73T479 -96T482 -113Q482 -125 476 -140T455 -168T414 -190T348 -199Q325 -199 309 -198T279 -194L285 -156Q296 -157 311 -158T347 -159Q351 -159 365 -159T394 -154T421 -141T433 -115Q433 -90 406 -83T340 -74L359 -7Q285 2 226 31T125 106T61 211T38 340Q38 427 71 493T157 603T272 669T394 691Q457 691 518 676T636 634V576Q617 586 594 597T541 618T478 634T405 641Q337 641 281 619T184 557T121 462T98 341Q98 272 122 217T187 123T282 63T397 42Q440 42 477 49T546 67T602 90T643 110V55Z"  />
<glyph unicode="&#xC8;" horiz-adv-x="502" d="M452 638H133V366H444V322H133V43H460V0H80V682H452V638ZM341 728H292L97 856H219L341 728Z"  />
<glyph unicode="&#xC9;" horiz-adv-x="502" d="M452 638H133V366H444V322H133V43H460V0H80V682H452V638ZM449 856L254 728H205L327 856H449Z"  />
<glyph unicode="&#xCA;" horiz-adv-x="502" d="M452 638H133V366H444V322H133V43H460V0H80V682H452V638ZM374 728L260 816L149 728H96L220 865H298L425 728H374Z"  />
<glyph unicode="&#xCB;" horiz-adv-x="502" d="M452 638H133V366H444V322H133V43H460V0H80V682H452V638ZM166 841Q184 841 197 828T210 797Q210 779 197 767T166 754Q148 754 136 766T123 797Q123 815 135 828T166 841ZM355 840Q373 840 385 827T398 796Q398 779 386 766T355 753Q337 753 325 765T312 796Q312 815 325 827T355 840Z"  />
<glyph unicode="&#xCC;" horiz-adv-x="214" d="M134 0H80V682H134V0ZM188 728H139L-56 856H66L188 728Z"  />
<glyph unicode="&#xCD;" horiz-adv-x="214" d="M134 0H80V682H134V0ZM271 856L76 728H27L149 856H271Z"  />
<glyph unicode="&#xCE;" horiz-adv-x="214" d="M134 0H80V682H134V0ZM221 728L107 816L-4 728H-57L67 865H145L272 728H221Z"  />
<glyph unicode="&#xCF;" horiz-adv-x="214" d="M134 0H80V682H134V0ZM13 841Q31 841 44 828T57 797Q57 779 44 767T13 754Q-5 754 -17 766T-30 797Q-30 815 -18 828T13 841ZM202 840Q220 840 232 827T245 796Q245 779 233 766T202 753Q184 753 172 765T159 796Q159 815 172 827T202 840Z"  />
<glyph unicode="&#xD0;" horiz-adv-x="740" d="M0 320V362H79V682H286Q323 682 354 682T415 677T472 663T530 636Q610 590 650 513T690 344Q690 305 681 262T653 179T603 104T530 47Q497 29 469 20T412 6T354 1T286 0H79V320H0ZM132 320V43H292Q321 43 346 44T395 49T445 63T500 90Q531 108 555 135T596 195T622 266T631 343Q631 373 625 406T604 472T564 535T500 590Q474 607 451 616T403 631T352 637T292 638H132V362H353V320H132Z"  />
<glyph unicode="&#xD1;" horiz-adv-x="775" d="M695 0H651L133 600V0H80V682H129L642 86V682H695V0ZM222 736Q221 754 222 772T232 811Q242 833 262 844T304 855Q312 855 322 854T345 848T377 837T422 816Q437 808 447 804T463 798T474 795T482 794Q500 794 505 809T513 857H554Q553 834 552 817T544 782Q533 756 513 747T478 737Q457 737 429 745T358 774Q325 790 314 793T296 796Q274 796 270 779T263 736H222Z"  />
<glyph unicode="&#xD2;" horiz-adv-x="799" d="M761 344Q761 267 733 203T655 91T539 18T399 -9Q322 -9 257 18T142 93T66 204T38 342Q38 411 64 474T137 586T251 662T400 691Q481 691 548 663T662 587T735 476T761 344ZM702 344Q702 402 680 456T618 550T523 615T401 640Q336 640 281 617T185 553T121 458T98 340Q98 280 120 226T182 130T277 65T398 41Q457 41 512 62T609 122T676 218T702 344ZM490 728H441L246 856H368L490 728Z"  />
<glyph unicode="&#xD3;" horiz-adv-x="799" d="M761 344Q761 267 733 203T655 91T539 18T399 -9Q322 -9 257 18T142 93T66 204T38 342Q38 411 64 474T137 586T251 662T400 691Q481 691 548 663T662 587T735 476T761 344ZM702 344Q702 402 680 456T618 550T523 615T401 640Q336 640 281 617T185 553T121 458T98 340Q98 280 120 226T182 130T277 65T398 41Q457 41 512 62T609 122T676 218T702 344ZM563 856L368 728H319L441 856H563Z"  />
<glyph unicode="&#xD4;" horiz-adv-x="799" d="M761 344Q761 267 733 203T655 91T539 18T399 -9Q322 -9 257 18T142 93T66 204T38 342Q38 411 64 474T137 586T251 662T400 691Q481 691 548 663T662 587T735 476T761 344ZM702 344Q702 402 680 456T618 550T523 615T401 640Q336 640 281 617T185 553T121 458T98 340Q98 280 120 226T182 130T277 65T398 41Q457 41 512 62T609 122T676 218T702 344ZM513 728L399 816L288 728H235L359 865H437L564 728H513Z"  />
<glyph unicode="&#xD5;" horiz-adv-x="799" d="M761 344Q761 267 733 203T655 91T539 18T399 -9Q322 -9 257 18T142 93T66 204T38 342Q38 411 64 474T137 586T251 662T400 691Q481 691 548 663T662 587T735 476T761 344ZM702 344Q702 402 680 456T618 550T523 615T401 640Q336 640 281 617T185 553T121 458T98 340Q98 280 120 226T182 130T277 65T398 41Q457 41 512 62T609 122T676 218T702 344ZM234 736Q233 754 234 772T244 811Q254 833 274 844T316 855Q324 855 334 854T357 848T389 837T434 816Q449 808 459 804T475 798T486 795T494 794Q512 794 517 809T525 857H566Q565 834 564 817T556 782Q545 756 525 747T490 737Q469 737 441 745T370 774Q337 790 326 793T308 796Q286 796 282 779T275 736H234Z"  />
<glyph unicode="&#xD6;" horiz-adv-x="799" d="M761 344Q761 267 733 203T655 91T539 18T399 -9Q322 -9 257 18T142 93T66 204T38 342Q38 411 64 474T137 586T251 662T400 691Q481 691 548 663T662 587T735 476T761 344ZM702 344Q702 402 680 456T618 550T523 615T401 640Q336 640 281 617T185 553T121 458T98 340Q98 280 120 226T182 130T277 65T398 41Q457 41 512 62T609 122T676 218T702 344ZM305 841Q323 841 336 828T349 797Q349 779 336 767T305 754Q287 754 275 766T262 797Q262 815 274 828T305 841ZM494 840Q512 840 524 827T537 796Q537 779 525 766T494 753Q476 753 464 765T451 796Q451 815 464 827T494 840Z"  />
<glyph unicode="&#xD7;" horiz-adv-x="660" d="M298 341L129 510L161 542L330 373L499 542L531 510L362 341L531 172L499 140L330 309L161 140L129 172L298 341Z"  />
<glyph unicode="&#xD8;" horiz-adv-x="801" d="M659 591Q670 580 687 560T722 508T751 436T763 341Q763 265 734 201T656 91T541 18T402 -9Q342 -9 287 8T181 58L119 -11L81 18L146 88Q131 103 116 120T85 164Q62 205 50 249T38 340Q38 405 62 468T133 580T248 660T403 691Q448 691 483 683T546 664T591 641T622 621L686 687L723 662L659 591ZM217 98Q259 68 303 54T399 39Q469 39 525 64T622 132T683 228T705 341Q705 399 684 452T622 549L217 98ZM587 580Q578 587 563 597T526 618T473 635T403 642Q335 642 279 617T182 550T120 454T98 339Q98 302 107 264T135 190Q147 168 158 155T182 129L587 580Z"  />
<glyph unicode="&#xD9;" horiz-adv-x="698" d="M634 338Q634 302 633 272T626 214T612 163T586 114Q571 90 549 68T498 29T432 2T352 -9Q319 -9 285 -2T219 19T160 57T114 112Q96 143 86 170T71 225T65 279T64 338V682H116V328Q116 257 126 216T153 148Q165 127 183 108T225 73T279 49T348 40Q378 40 407 47T463 67T510 100T544 146Q567 191 574 234T582 328V682H634V338ZM430 728H381L186 856H308L430 728Z"  />
<glyph unicode="&#xDA;" horiz-adv-x="698" d="M634 338Q634 302 633 272T626 214T612 163T586 114Q571 90 549 68T498 29T432 2T352 -9Q319 -9 285 -2T219 19T160 57T114 112Q96 143 86 170T71 225T65 279T64 338V682H116V328Q116 257 126 216T153 148Q165 127 183 108T225 73T279 49T348 40Q378 40 407 47T463 67T510 100T544 146Q567 191 574 234T582 328V682H634V338ZM513 856L318 728H269L391 856H513Z"  />
<glyph unicode="&#xDB;" horiz-adv-x="698" d="M634 338Q634 302 633 272T626 214T612 163T586 114Q571 90 549 68T498 29T432 2T352 -9Q319 -9 285 -2T219 19T160 57T114 112Q96 143 86 170T71 225T65 279T64 338V682H116V328Q116 257 126 216T153 148Q165 127 183 108T225 73T279 49T348 40Q378 40 407 47T463 67T510 100T544 146Q567 191 574 234T582 328V682H634V338ZM463 728L349 816L238 728H185L309 865H387L514 728H463Z"  />
<glyph unicode="&#xDC;" horiz-adv-x="698" d="M634 338Q634 302 633 272T626 214T612 163T586 114Q571 90 549 68T498 29T432 2T352 -9Q319 -9 285 -2T219 19T160 57T114 112Q96 143 86 170T71 225T65 279T64 338V682H116V328Q116 257 126 216T153 148Q165 127 183 108T225 73T279 49T348 40Q378 40 407 47T463 67T510 100T544 146Q567 191 574 234T582 328V682H634V338ZM255 841Q273 841 286 828T299 797Q299 779 286 767T255 754Q237 754 225 766T212 797Q212 815 224 828T255 841ZM444 840Q462 840 474 827T487 796Q487 779 475 766T444 753Q426 753 414 765T401 796Q401 815 414 827T444 840Z"  />
<glyph unicode="&#xDD;" horiz-adv-x="584" d="M317 366V0H264V366L0 682H64L291 412L519 682H584L317 366ZM485 856L290 728H241L363 856H485Z"  />
<glyph unicode="&#xDE;" horiz-adv-x="510" d="M131 682V523H217Q253 523 280 522T328 518T367 510T403 494Q442 471 465 433T488 343Q488 289 463 248T400 188Q378 178 359 173T319 164T275 161T224 160H131V0H79V682H131ZM131 479V203H227Q278 203 313 208T380 234Q403 249 416 279T429 342Q429 374 416 402T379 448Q368 455 356 461T325 471T281 477T219 479H131Z"  />
<glyph unicode="&#xDF;" horiz-adv-x="500" d="M218 50Q235 44 248 41T279 37Q310 37 334 49T375 83T400 134T409 197Q409 274 371 313T273 356V401Q313 401 335 419T367 459T378 500T380 523Q380 555 370 579T342 619T300 643T249 651Q211 651 179 637T130 590Q122 573 118 559T112 527T110 489T109 436V0H62V436Q62 501 67 544T98 624Q112 643 130 656T169 677T209 688T247 691Q287 691 320 679T378 645T415 593T429 526Q429 494 417 464T385 411Q374 398 362 391T339 379Q351 374 371 364T410 334T444 281T459 198Q459 156 447 119T412 53T355 8T280 -9Q260 -9 245 -6T218 0V50Z"  />
<glyph unicode="&#xE0;" horiz-adv-x="416" d="M413 38Q381 15 360 3T323 -9Q302 -9 297 6T290 47Q281 40 268 31T237 12T197 -3T149 -9Q124 -9 102 -1T64 23T37 59T27 104Q27 141 42 167T81 211T135 240T194 257T248 266T290 269V326Q290 365 269 390T191 415Q150 415 120 401T53 361V410Q63 416 77 424T110 439T150 452T197 458Q225 458 257 449T310 418Q329 396 333 374T338 313V83Q338 73 338 59T339 43Q341 38 348 38Q353 38 362 42T381 53T399 67T413 78V38ZM290 230Q269 229 234 227T167 211Q150 204 134 194T105 171T84 141T76 104Q76 84 85 70T107 47T136 34T165 30Q186 30 204 36T239 50T267 69T290 89V230ZM98 677L203 521H169L17 677H98Z"  />
<glyph unicode="&#xE1;" horiz-adv-x="416" d="M413 38Q381 15 360 3T323 -9Q302 -9 297 6T290 47Q281 40 268 31T237 12T197 -3T149 -9Q124 -9 102 -1T64 23T37 59T27 104Q27 141 42 167T81 211T135 240T194 257T248 266T290 269V326Q290 365 269 390T191 415Q150 415 120 401T53 361V410Q63 416 77 424T110 439T150 452T197 458Q225 458 257 449T310 418Q329 396 333 374T338 313V83Q338 73 338 59T339 43Q341 38 348 38Q353 38 362 42T381 53T399 67T413 78V38ZM290 230Q269 229 234 227T167 211Q150 204 134 194T105 171T84 141T76 104Q76 84 85 70T107 47T136 34T165 30Q186 30 204 36T239 50T267 69T290 89V230ZM222 521H189L293 677H374L222 521Z"  />
<glyph unicode="&#xE2;" horiz-adv-x="416" d="M413 38Q381 15 360 3T323 -9Q302 -9 297 6T290 47Q281 40 268 31T237 12T197 -3T149 -9Q124 -9 102 -1T64 23T37 59T27 104Q27 141 42 167T81 211T135 240T194 257T248 266T290 269V326Q290 365 269 390T191 415Q150 415 120 401T53 361V410Q63 416 77 424T110 439T150 452T197 458Q225 458 257 449T310 418Q329 396 333 374T338 313V83Q338 73 338 59T339 43Q341 38 348 38Q353 38 362 42T381 53T399 67T413 78V38ZM290 230Q269 229 234 227T167 211Q150 204 134 194T105 171T84 141T76 104Q76 84 85 70T107 47T136 34T165 30Q186 30 204 36T239 50T267 69T290 89V230ZM323 512H285L187 621L86 512H48L156 676H217L323 512Z"  />
<glyph unicode="&#xE3;" horiz-adv-x="416" d="M413 38Q381 15 360 3T323 -9Q302 -9 297 6T290 47Q281 40 268 31T237 12T197 -3T149 -9Q124 -9 102 -1T64 23T37 59T27 104Q27 141 42 167T81 211T135 240T194 257T248 266T290 269V326Q290 365 269 390T191 415Q150 415 120 401T53 361V410Q63 416 77 424T110 439T150 452T197 458Q225 458 257 449T310 418Q329 396 333 374T338 313V83Q338 73 338 59T339 43Q341 38 348 38Q353 38 362 42T381 53T399 67T413 78V38ZM290 230Q269 229 234 227T167 211Q150 204 134 194T105 171T84 141T76 104Q76 84 85 70T107 47T136 34T165 30Q186 30 204 36T239 50T267 69T290 89V230ZM22 548Q23 557 25 573T36 604T59 631T102 643Q122 643 141 638T198 618Q233 604 247 600T274 596Q288 596 296 601T310 613T316 629T319 643H349Q350 609 338 590T311 561T283 549T268 547Q257 547 240 551T185 569Q160 578 145 583T121 591T107 594T96 595Q76 595 66 581T54 548H22Z"  />
<glyph unicode="&#xE4;" horiz-adv-x="416" d="M413 38Q381 15 360 3T323 -9Q302 -9 297 6T290 47Q281 40 268 31T237 12T197 -3T149 -9Q124 -9 102 -1T64 23T37 59T27 104Q27 141 42 167T81 211T135 240T194 257T248 266T290 269V326Q290 365 269 390T191 415Q150 415 120 401T53 361V410Q63 416 77 424T110 439T150 452T197 458Q225 458 257 449T310 418Q329 396 333 374T338 313V83Q338 73 338 59T339 43Q341 38 348 38Q353 38 362 42T381 53T399 67T413 78V38ZM290 230Q269 229 234 227T167 211Q150 204 134 194T105 171T84 141T76 104Q76 84 85 70T107 47T136 34T165 30Q186 30 204 36T239 50T267 69T290 89V230ZM96 636Q114 636 126 624T139 593Q139 575 127 562T96 549Q78 549 66 562T53 593Q53 611 65 623T96 636ZM275 636Q293 636 306 624T319 593Q319 575 306 562T275 549Q258 549 245 562T232 593Q232 611 245 623T275 636Z"  />
<glyph unicode="&#xE5;" horiz-adv-x="416" d="M413 38Q381 15 360 3T323 -9Q302 -9 297 6T290 47Q281 40 268 31T237 12T197 -3T149 -9Q124 -9 102 -1T64 23T37 59T27 104Q27 141 42 167T81 211T135 240T194 257T248 266T290 269V326Q290 365 269 390T191 415Q150 415 120 401T53 361V410Q63 416 77 424T110 439T150 452T197 458Q225 458 257 449T310 418Q329 396 333 374T338 313V83Q338 73 338 59T339 43Q341 38 348 38Q353 38 362 42T381 53T399 67T413 78V38ZM290 230Q269 229 234 227T167 211Q150 204 134 194T105 171T84 141T76 104Q76 84 85 70T107 47T136 34T165 30Q186 30 204 36T239 50T267 69T290 89V230ZM186 679Q204 679 219 673T246 654T265 626T272 592Q272 574 266 559T247 532T220 513T186 506Q168 506 152 513T125 531T106 558T99 592Q99 610 106 626T125 654T152 672T186 679ZM186 652Q161 652 144 635T127 593Q127 569 144 552T186 534Q210 534 227 551T244 593Q244 618 227 635T186 652Z"  />
<glyph unicode="&#xE6;" horiz-adv-x="661" d="M334 243V206Q334 197 334 184T336 158T340 133T347 112Q357 90 371 76T401 53T433 42T462 38Q471 38 486 39T523 46T569 64T624 97V42Q586 19 544 5T457 -9Q426 -9 402 -1T361 19T332 42T315 61Q273 30 233 11T146 -9Q117 -9 95 1T57 28T35 66T27 107Q27 146 47 173T101 219T183 253T287 282Q287 308 287 323T282 355Q277 374 267 386T245 404T220 413T198 415Q172 415 149 409T106 393T72 374T48 358V408Q83 432 123 445T205 458Q235 458 255 451T289 433T311 410T325 389Q332 398 342 410T368 432T403 450T451 458Q469 458 490 454T533 437T572 405T603 354Q617 319 620 290T624 243H334ZM571 282Q569 299 566 317T550 356Q536 380 510 396T450 413Q403 413 370 378T334 282H571ZM287 243Q252 234 215 223T146 195T95 158T75 106Q75 75 98 54T158 32Q179 32 198 38T235 54T265 73T287 89V243Z"  />
<glyph unicode="&#xE7;" horiz-adv-x="409" d="M384 14Q361 6 332 -1T264 -9L248 -42Q259 -42 271 -44T297 -54Q310 -62 318 -76T327 -107Q327 -118 322 -133T298 -163T245 -185T150 -191L157 -154Q171 -154 190 -153T228 -147T259 -133T272 -106Q272 -94 265 -87T245 -77T219 -73T193 -72L224 -7Q185 -1 151 16T92 61T53 129T39 222Q39 276 56 320T103 394T172 441T257 458Q296 458 324 451T376 436V383Q353 393 325 403T256 413Q217 413 186 398T134 357T101 296T90 222Q90 186 100 152T132 93T185 52T262 36Q304 36 333 45T384 64V14Z"  />
<glyph unicode="&#xE8;" horiz-adv-x="477" d="M89 242Q87 188 102 150T142 86T200 48T265 36Q297 36 323 43T371 62T407 84T433 105V51Q401 26 359 9T260 -9Q205 -9 163 11T93 65T51 142T36 230Q36 275 50 316T90 388T155 439T242 458Q279 458 309 448T361 420T398 382T422 341Q434 314 437 290T441 242H89ZM384 280Q381 295 376 313T357 352Q340 381 310 398T242 415Q219 415 196 407T152 383T116 341T94 280H384ZM183 677L288 521H254L102 677H183Z"  />
<glyph unicode="&#xE9;" horiz-adv-x="477" d="M89 242Q87 188 102 150T142 86T200 48T265 36Q297 36 323 43T371 62T407 84T433 105V51Q401 26 359 9T260 -9Q205 -9 163 11T93 65T51 142T36 230Q36 275 50 316T90 388T155 439T242 458Q279 458 309 448T361 420T398 382T422 341Q434 314 437 290T441 242H89ZM384 280Q381 295 376 313T357 352Q340 381 310 398T242 415Q219 415 196 407T152 383T116 341T94 280H384ZM257 521H224L328 677H409L257 521Z"  />
<glyph unicode="&#xEA;" horiz-adv-x="477" d="M89 242Q87 188 102 150T142 86T200 48T265 36Q297 36 323 43T371 62T407 84T433 105V51Q401 26 359 9T260 -9Q205 -9 163 11T93 65T51 142T36 230Q36 275 50 316T90 388T155 439T242 458Q279 458 309 448T361 420T398 382T422 341Q434 314 437 290T441 242H89ZM384 280Q381 295 376 313T357 352Q340 381 310 398T242 415Q219 415 196 407T152 383T116 341T94 280H384ZM383 512H345L247 621L146 512H108L216 676H277L383 512Z"  />
<glyph unicode="&#xEB;" horiz-adv-x="477" d="M89 242Q87 188 102 150T142 86T200 48T265 36Q297 36 323 43T371 62T407 84T433 105V51Q401 26 359 9T260 -9Q205 -9 163 11T93 65T51 142T36 230Q36 275 50 316T90 388T155 439T242 458Q279 458 309 448T361 420T398 382T422 341Q434 314 437 290T441 242H89ZM384 280Q381 295 376 313T357 352Q340 381 310 398T242 415Q219 415 196 407T152 383T116 341T94 280H384ZM156 636Q174 636 186 624T199 593Q199 575 187 562T156 549Q138 549 126 562T113 593Q113 611 125 623T156 636ZM335 636Q353 636 366 624T379 593Q379 575 366 562T335 549Q318 549 305 562T292 593Q292 611 305 623T335 636Z"  />
<glyph unicode="&#xEC;" horiz-adv-x="187" d="M117 0H70V449H117V0ZM6 677L111 521H77L-75 677H6Z"  />
<glyph unicode="&#xED;" horiz-adv-x="187" d="M117 0H70V449H117V0ZM110 521H77L181 677H262L110 521Z"  />
<glyph unicode="&#xEE;" horiz-adv-x="187" d="M117 0H70V449H117V0ZM231 512H193L95 621L-6 512H-44L64 676H125L231 512Z"  />
<glyph unicode="&#xEF;" horiz-adv-x="187" d="M117 0H70V449H117V0ZM4 636Q22 636 34 624T47 593Q47 575 35 562T4 549Q-14 549 -26 562T-39 593Q-39 611 -27 623T4 636ZM183 636Q201 636 214 624T227 593Q227 575 214 562T183 549Q166 549 153 562T140 593Q140 611 153 623T183 636Z"  />
<glyph unicode="&#xF0;" horiz-adv-x="563" d="M402 657L418 625L354 595Q379 575 407 548T464 472Q496 417 511 361T526 251Q526 185 506 136T452 55T373 7T278 -9Q221 -9 177 11T102 64T56 138T40 221Q40 263 55 305T101 381T177 436T283 458Q322 458 351 450T401 429T438 404T463 380Q449 412 436 437T406 485T366 528T312 572L200 518L184 549L279 595Q262 604 249 611T223 623T196 634T160 646L179 682Q200 676 216 671T247 658T280 642T322 618L402 657ZM477 226Q477 277 459 313T414 372T352 406T284 417Q239 417 203 401T141 357T101 295T87 220Q87 180 101 146T142 87T204 48T285 34Q326 34 361 46T422 83T462 143T477 226Z"  />
<glyph unicode="&#xF1;" horiz-adv-x="490" d="M110 371Q118 382 129 397T158 425T200 448T257 458Q295 458 332 442T391 395Q414 360 420 324T427 243V0H379V239Q379 291 372 317T351 361Q335 384 309 398T251 412Q219 412 191 398T142 363Q130 349 123 338T110 315V0H62V449H110V371ZM82 548Q83 557 85 573T96 604T119 631T162 643Q182 643 201 638T258 618Q293 604 307 600T334 596Q348 596 356 601T370 613T376 629T379 643H409Q410 609 398 590T371 561T343 549T328 547Q317 547 300 551T245 569Q220 578 205 583T181 591T167 594T156 595Q136 595 126 581T114 548H82Z"  />
<glyph unicode="&#xF2;" horiz-adv-x="529" d="M265 458Q317 458 359 440T431 389T477 315T493 224Q493 169 474 126T423 53T350 7T265 -9Q221 -9 180 7T107 53T56 126T36 224Q36 271 51 313T96 388T168 439T265 458ZM265 413Q234 413 203 402T146 367T104 308T88 225Q88 182 102 147T140 87T196 49T265 35Q302 35 334 49T390 88T428 148T442 225Q442 271 427 306T386 365T329 401T265 413ZM203 677L308 521H274L122 677H203Z"  />
<glyph unicode="&#xF3;" horiz-adv-x="529" d="M265 458Q317 458 359 440T431 389T477 315T493 224Q493 169 474 126T423 53T350 7T265 -9Q221 -9 180 7T107 53T56 126T36 224Q36 271 51 313T96 388T168 439T265 458ZM265 413Q234 413 203 402T146 367T104 308T88 225Q88 182 102 147T140 87T196 49T265 35Q302 35 334 49T390 88T428 148T442 225Q442 271 427 306T386 365T329 401T265 413ZM267 521H234L338 677H419L267 521Z"  />
<glyph unicode="&#xF4;" horiz-adv-x="529" d="M265 458Q317 458 359 440T431 389T477 315T493 224Q493 169 474 126T423 53T350 7T265 -9Q221 -9 180 7T107 53T56 126T36 224Q36 271 51 313T96 388T168 439T265 458ZM265 413Q234 413 203 402T146 367T104 308T88 225Q88 182 102 147T140 87T196 49T265 35Q302 35 334 49T390 88T428 148T442 225Q442 271 427 306T386 365T329 401T265 413ZM413 512H375L277 621L176 512H138L246 676H307L413 512Z"  />
<glyph unicode="&#xF5;" horiz-adv-x="529" d="M265 458Q317 458 359 440T431 389T477 315T493 224Q493 169 474 126T423 53T350 7T265 -9Q221 -9 180 7T107 53T56 126T36 224Q36 271 51 313T96 388T168 439T265 458ZM265 413Q234 413 203 402T146 367T104 308T88 225Q88 182 102 147T140 87T196 49T265 35Q302 35 334 49T390 88T428 148T442 225Q442 271 427 306T386 365T329 401T265 413ZM112 548Q113 557 115 573T126 604T149 631T192 643Q212 643 231 638T288 618Q323 604 337 600T364 596Q378 596 386 601T400 613T406 629T409 643H439Q440 609 428 590T401 561T373 549T358 547Q347 547 330 551T275 569Q250 578 235 583T211 591T197 594T186 595Q166 595 156 581T144 548H112Z"  />
<glyph unicode="&#xF6;" horiz-adv-x="529" d="M265 458Q317 458 359 440T431 389T477 315T493 224Q493 169 474 126T423 53T350 7T265 -9Q221 -9 180 7T107 53T56 126T36 224Q36 271 51 313T96 388T168 439T265 458ZM265 413Q234 413 203 402T146 367T104 308T88 225Q88 182 102 147T140 87T196 49T265 35Q302 35 334 49T390 88T428 148T442 225Q442 271 427 306T386 365T329 401T265 413ZM186 636Q204 636 216 624T229 593Q229 575 217 562T186 549Q168 549 156 562T143 593Q143 611 155 623T186 636ZM365 636Q383 636 396 624T409 593Q409 575 396 562T365 549Q348 549 335 562T322 593Q322 611 335 623T365 636Z"  />
<glyph unicode="&#xF7;" horiz-adv-x="660" d="M331 546Q348 546 358 535T369 507Q369 492 359 481T331 469Q314 469 303 480T292 507Q292 523 303 534T331 546ZM331 209Q347 209 358 198T369 171Q369 156 358 145T331 133Q315 133 304 144T293 171Q293 188 304 198T331 209ZM68 364H592V318H68V364Z"  />
<glyph unicode="&#xF8;" horiz-adv-x="530" d="M434 387Q455 365 467 342T485 297T492 257T494 226Q494 173 476 130T427 56T355 8T265 -9Q237 -9 215 -4T176 7T147 21T126 35L69 -30L36 0L95 64Q89 71 79 85T60 119T44 165T37 225Q37 268 51 310T93 385T165 438T265 458Q293 458 315 453T354 442T382 428T402 415L455 474L486 449L434 387ZM372 380Q360 388 333 401T264 415Q231 415 200 404T144 369T104 310T89 226Q89 173 103 144T128 102L372 380ZM158 71Q171 62 195 50T264 37Q304 37 337 52T393 92T430 151T443 223Q443 228 442 241T438 272T426 310T402 350L158 71Z"  />
<glyph unicode="&#xF9;" horiz-adv-x="490" d="M423 0H375V74Q366 63 353 49T321 21T278 0T222 -9Q181 -9 143 10T86 62Q66 95 62 128T58 196V449H106V196Q106 159 109 135T124 88Q142 56 172 45T227 33Q256 33 285 44T341 80Q352 92 359 105T375 135V449H423V0ZM173 677L278 521H244L92 677H173Z"  />
<glyph unicode="&#xFA;" horiz-adv-x="490" d="M423 0H375V74Q366 63 353 49T321 21T278 0T222 -9Q181 -9 143 10T86 62Q66 95 62 128T58 196V449H106V196Q106 159 109 135T124 88Q142 56 172 45T227 33Q256 33 285 44T341 80Q352 92 359 105T375 135V449H423V0ZM262 521H229L333 677H414L262 521Z"  />
<glyph unicode="&#xFB;" horiz-adv-x="490" d="M423 0H375V74Q366 63 353 49T321 21T278 0T222 -9Q181 -9 143 10T86 62Q66 95 62 128T58 196V449H106V196Q106 159 109 135T124 88Q142 56 172 45T227 33Q256 33 285 44T341 80Q352 92 359 105T375 135V449H423V0ZM383 512H345L247 621L146 512H108L216 676H277L383 512Z"  />
<glyph unicode="&#xFC;" horiz-adv-x="490" d="M423 0H375V74Q366 63 353 49T321 21T278 0T222 -9Q181 -9 143 10T86 62Q66 95 62 128T58 196V449H106V196Q106 159 109 135T124 88Q142 56 172 45T227 33Q256 33 285 44T341 80Q352 92 359 105T375 135V449H423V0ZM156 636Q174 636 186 624T199 593Q199 575 187 562T156 549Q138 549 126 562T113 593Q113 611 125 623T156 636ZM335 636Q353 636 366 624T379 593Q379 575 366 562T335 549Q318 549 305 562T292 593Q292 611 305 623T335 636Z"  />
<glyph unicode="&#xFD;" horiz-adv-x="411" d="M81 -230H32L189 87L0 449H49L213 135L368 449H417L81 -230ZM219 521H186L290 677H371L219 521Z"  />
<glyph unicode="&#xFE;" horiz-adv-x="510" d="M111 424Q132 434 165 446T248 458Q294 458 334 441T404 393T451 320T468 226Q468 169 448 125T396 52T324 7T245 -9Q197 -9 164 3T111 25V-230H63V682H111V424ZM111 72Q130 61 159 49T236 36Q280 36 313 51T369 91T403 150T415 222Q415 268 400 303T359 363T299 399T229 412Q188 412 161 401T111 378V72Z"  />
<glyph unicode="&#xFF;" horiz-adv-x="411" d="M81 -230H32L189 87L0 449H49L213 135L368 449H417L81 -230ZM123 636Q141 636 153 624T166 593Q166 575 154 562T123 549Q105 549 93 562T80 593Q80 611 92 623T123 636ZM302 636Q320 636 333 624T346 593Q346 575 333 562T302 549Q285 549 272 562T259 593Q259 611 272 623T302 636Z"  />
<glyph unicode="&#x100;" horiz-adv-x="667" d="M663 0H608L500 236H167L59 0H4L317 687H348L663 0ZM333 601L186 281H479L333 601ZM493 771H174V821H493V771Z"  />
<glyph unicode="&#x101;" horiz-adv-x="416" d="M413 38Q381 15 360 3T323 -9Q302 -9 297 6T290 47Q281 40 268 31T237 12T197 -3T149 -9Q124 -9 102 -1T64 23T37 59T27 104Q27 141 42 167T81 211T135 240T194 257T248 266T290 269V326Q290 365 269 390T191 415Q150 415 120 401T53 361V410Q63 416 77 424T110 439T150 452T197 458Q225 458 257 449T310 418Q329 396 333 374T338 313V83Q338 73 338 59T339 43Q341 38 348 38Q353 38 362 42T381 53T399 67T413 78V38ZM290 230Q269 229 234 227T167 211Q150 204 134 194T105 171T84 141T76 104Q76 84 85 70T107 47T136 34T165 30Q186 30 204 36T239 50T267 69T290 89V230ZM319 572H52V623H319V572Z"  />
<glyph unicode="&#x102;" horiz-adv-x="667" d="M663 0H608L500 236H167L59 0H4L317 687H348L663 0ZM333 601L186 281H479L333 601ZM218 841Q239 814 269 798T334 782Q368 782 397 797T447 841H499Q494 826 487 811T462 779Q436 753 403 741T334 728Q295 728 261 742T202 782Q187 799 180 813T168 841H218Z"  />
<glyph unicode="&#x103;" horiz-adv-x="416" d="M413 38Q381 15 360 3T323 -9Q302 -9 297 6T290 47Q281 40 268 31T237 12T197 -3T149 -9Q124 -9 102 -1T64 23T37 59T27 104Q27 141 42 167T81 211T135 240T194 257T248 266T290 269V326Q290 365 269 390T191 415Q150 415 120 401T53 361V410Q63 416 77 424T110 439T150 452T197 458Q225 458 257 449T310 418Q329 396 333 374T338 313V83Q338 73 338 59T339 43Q341 38 348 38Q353 38 362 42T381 53T399 67T413 78V38ZM290 230Q269 229 234 227T167 211Q150 204 134 194T105 171T84 141T76 104Q76 84 85 70T107 47T136 34T165 30Q186 30 204 36T239 50T267 69T290 89V230ZM90 647Q108 609 134 594T186 578Q209 578 226 586T254 605T273 627T284 647H322Q304 599 272 566T187 533Q154 533 131 546T91 577T65 615T50 647H90Z"  />
<glyph unicode="&#x104;" horiz-adv-x="667" d="M500 236H167L59 0H4L317 687H348L663 0H651Q623 -26 613 -43T603 -79Q603 -84 604 -95T615 -118T642 -136T695 -141V-183Q684 -185 674 -187T649 -189Q598 -189 572 -161T546 -97Q546 -66 563 -42T608 0L500 236ZM479 281L333 601L186 281H479Z"  />
<glyph unicode="&#x105;" horiz-adv-x="416" d="M386 -165Q377 -167 368 -168T345 -170Q299 -170 275 -145T251 -86Q251 -58 266 -37T302 -1Q293 9 290 47Q281 40 268 31T237 12T197 -3T149 -9Q124 -9 102 -1T64 23T37 59T27 104Q27 141 42 167T81 211T135 240T194 257T248 266T290 269V326Q290 365 269 390T191 415Q150 415 120 401T53 361V410Q63 416 77 424T110 439T150 452T197 458Q225 458 257 449T310 418Q329 396 333 374T338 313V83Q338 73 338 59T339 43Q341 38 348 38Q353 38 362 42T381 53T399 67T413 78V38Q399 28 390 22T374 12T360 4T342 -6Q328 -13 316 -32T303 -73Q303 -96 319 -111T361 -128Q369 -129 375 -129T386 -127V-165ZM290 230Q269 229 234 227T167 211Q150 204 134 194T105 171T84 141T76 104Q76 84 85 70T107 47T136 34T165 30Q186 30 204 36T239 50T267 69T290 89V230Z"  />
<glyph unicode="&#x106;" horiz-adv-x="678" d="M636 576Q616 586 592 597T539 618T477 634T404 641Q336 641 280 619T183 556T120 461T98 341Q98 275 120 220T183 126T279 64T401 42Q442 42 479 50T548 68T604 90T643 110V55Q601 33 563 20T494 1T438 -7T401 -9Q331 -9 266 14T150 83T69 193T38 340Q38 427 71 493T157 603T272 669T394 691Q457 691 518 676T636 634V576ZM531 856L336 728H287L409 856H531Z"  />
<glyph unicode="&#x107;" horiz-adv-x="409" d="M375 383Q351 394 323 403T257 413Q214 413 183 397T130 353T99 292T89 223Q89 188 98 155T129 95T182 52T262 36Q304 36 333 45T383 64V14Q360 6 329 -1T255 -9Q222 -9 184 2T114 39T60 109T38 218Q38 279 57 324T106 399T176 443T255 458Q295 458 324 451T375 436V383ZM251 521H218L322 677H403L251 521Z"  />
<glyph unicode="&#x108;" horiz-adv-x="678" d="M647 576Q627 586 603 597T550 618T488 634T415 641Q347 641 291 619T194 556T131 461T109 341Q109 275 131 220T194 126T290 64T412 42Q453 42 490 50T559 68T615 90T654 110V55Q612 33 574 20T505 1T449 -7T412 -9Q342 -9 277 14T161 83T80 193T49 340Q49 427 82 493T168 603T283 669T405 691Q468 691 529 676T647 634V576ZM502 728L388 816L277 728H224L348 865H426L553 728H502Z"  />
<glyph unicode="&#x109;" horiz-adv-x="409" d="M375 383Q351 394 323 403T257 413Q214 413 183 397T130 353T99 292T89 223Q89 188 98 155T129 95T182 52T262 36Q304 36 333 45T383 64V14Q360 6 329 -1T255 -9Q222 -9 184 2T114 39T60 109T38 218Q38 279 57 324T106 399T176 443T255 458Q295 458 324 451T375 436V383ZM382 512H344L246 621L145 512H107L215 676H276L382 512Z"  />
<glyph unicode="&#x10A;" horiz-adv-x="677" d="M647 576Q627 586 603 597T550 618T488 634T415 641Q347 641 291 619T194 556T131 461T109 341Q109 275 131 220T194 126T290 64T412 42Q453 42 490 50T559 68T615 90T654 110V55Q612 33 574 20T505 1T449 -7T412 -9Q342 -9 277 14T161 83T80 193T49 340Q49 427 82 493T168 603T283 669T405 691Q468 691 529 676T647 634V576ZM384 839Q401 839 414 827T427 796Q427 779 415 766T384 753Q365 753 353 766T341 796Q341 814 353 826T384 839Z"  />
<glyph unicode="&#x10B;" horiz-adv-x="417" d="M379 383Q355 394 327 403T261 413Q218 413 187 397T134 353T103 292T93 223Q93 188 102 155T133 95T186 52T266 36Q308 36 337 45T387 64V14Q364 6 333 -1T259 -9Q226 -9 188 2T118 39T64 109T42 218Q42 279 61 324T110 399T180 443T259 458Q299 458 328 451T379 436V383ZM239 636Q256 636 269 624T282 593Q282 575 270 562T239 549Q221 549 208 562T195 593Q195 611 208 623T239 636Z"  />
<glyph unicode="&#x10C;" horiz-adv-x="678" d="M636 576Q616 586 592 597T539 618T477 634T404 641Q336 641 280 619T183 556T120 461T98 341Q98 275 120 220T183 126T279 64T401 42Q442 42 479 50T548 68T604 90T643 110V55Q601 33 563 20T494 1T438 -7T401 -9Q331 -9 266 14T150 83T69 193T38 340Q38 427 71 493T157 603T272 669T394 691Q457 691 518 676T636 634V576ZM410 728H332L208 865H261L372 777L486 865H537L410 728Z"  />
<glyph unicode="&#x10D;" horiz-adv-x="409" d="M375 383Q351 394 323 403T257 413Q214 413 183 397T130 353T99 292T89 223Q89 188 98 155T129 95T182 52T262 36Q304 36 333 45T383 64V14Q360 6 329 -1T255 -9Q222 -9 184 2T114 39T60 109T38 218Q38 279 57 324T106 399T176 443T255 458Q295 458 324 451T375 436V383ZM215 512L107 676H145L246 565L344 676H382L276 512H215Z"  />
<glyph unicode="&#x10E;" horiz-adv-x="728" d="M286 682Q323 682 354 682T415 677T472 663T530 636Q610 590 650 513T690 344Q690 305 681 262T653 179T603 104T530 47Q497 29 469 20T412 6T354 1T286 0H79V682H286ZM132 638V43H292Q321 43 346 44T395 49T445 63T500 90Q531 108 555 135T596 195T622 266T631 343Q631 373 625 406T604 472T564 535T500 590Q474 607 451 616T403 631T352 637T292 638H132ZM378 728H300L176 865H229L340 777L454 865H505L378 728Z"  />
<glyph unicode="&#x10F;" horiz-adv-x="514" d="M444 0H396V35Q376 21 345 6T263 -9Q220 -9 179 7T107 53T56 127T36 225Q36 277 53 320T102 393T174 441T263 458Q309 458 341 446T396 422V682H444V0ZM396 369Q377 381 346 397T265 413Q224 413 191 398T136 358T101 299T89 228Q89 184 104 149T145 88T205 50T275 36Q321 36 349 50T396 79V369ZM557 633Q557 623 556 604T549 564T530 520T492 479V513Q498 524 505 542T512 596H492V691H557V633Z"  />
<glyph unicode="&#x110;" horiz-adv-x="728" d="M0 320V362H79V682H286Q323 682 354 682T415 677T472 663T530 636Q610 590 650 513T690 344Q690 305 681 262T653 179T603 104T530 47Q497 29 469 20T412 6T354 1T286 0H79V320H0ZM132 320V43H292Q321 43 346 44T395 49T445 63T500 90Q531 108 555 135T596 195T622 266T631 343Q631 373 625 406T604 472T564 535T500 590Q474 607 451 616T403 631T352 637T292 638H132V362H353V320H132Z"  />
<glyph unicode="&#x111;" horiz-adv-x="505" d="M505 584V544H444V0H396V35Q376 21 345 6T263 -9Q220 -9 179 7T107 53T56 127T36 225Q36 277 53 320T102 393T174 441T263 458Q309 458 341 446T396 422V544H243V584H396V682H444V584H505ZM396 369Q377 381 346 397T265 413Q224 413 191 398T136 358T101 299T89 228Q89 184 104 149T145 88T205 50T275 36Q321 36 349 50T396 79V369Z"  />
<glyph unicode="&#x112;" horiz-adv-x="502" d="M452 638H133V366H444V322H133V43H460V0H80V682H452V638ZM420 771H101V821H420V771Z"  />
<glyph unicode="&#x113;" horiz-adv-x="477" d="M89 242Q87 188 102 150T142 86T200 48T265 36Q297 36 323 43T371 62T407 84T433 105V51Q401 26 359 9T260 -9Q205 -9 163 11T93 65T51 142T36 230Q36 275 50 316T90 388T155 439T242 458Q279 458 309 448T361 420T398 382T422 341Q434 314 437 290T441 242H89ZM384 280Q381 295 376 313T357 352Q340 381 310 398T242 415Q219 415 196 407T152 383T116 341T94 280H384ZM384 572H117V623H384V572Z"  />
<glyph unicode="&#x114;" horiz-adv-x="502" d="M452 638H133V366H444V322H133V43H460V0H80V682H452V638ZM150 841Q171 814 201 798Q233 782 266 782Q300 782 329 797T379 841H431Q426 826 419 811T394 779Q368 753 335 741T266 728Q227 728 193 742T134 782Q119 799 112 813T100 841H150Z"  />
<glyph unicode="&#x115;" horiz-adv-x="477" d="M89 242Q87 188 102 150T142 86T200 48T265 36Q297 36 323 43T371 62T407 84T433 105V51Q401 26 359 9T260 -9Q205 -9 163 11T93 65T51 142T36 230Q36 275 50 316T90 388T155 439T242 458Q279 458 309 448T361 420T398 382T422 341Q434 314 437 290T441 242H89ZM384 280Q381 295 376 313T357 352Q340 381 310 398T242 415Q219 415 196 407T152 383T116 341T94 280H384ZM145 647Q163 609 189 594T241 578Q264 578 281 586T309 605T328 627T339 647H377Q359 599 327 566T242 533Q209 533 186 546T146 577T120 615T105 647H145Z"  />
<glyph unicode="&#x116;" horiz-adv-x="502" d="M452 638H133V366H444V322H133V43H460V0H80V682H452V638ZM261 839Q278 839 291 827T304 796Q304 779 292 766T261 753Q242 753 230 766T218 796Q218 814 230 826T261 839Z"  />
<glyph unicode="&#x117;" horiz-adv-x="477" d="M89 242Q87 188 102 150T142 86T200 48T265 36Q297 36 323 43T371 62T407 84T433 105V51Q401 26 359 9T260 -9Q205 -9 163 11T93 65T51 142T36 230Q36 275 50 316T90 388T155 439T242 458Q279 458 309 448T361 420T398 382T422 341Q434 314 437 290T441 242H89ZM384 280Q381 295 376 313T357 352Q340 381 310 398T242 415Q219 415 196 407T152 383T116 341T94 280H384ZM246 636Q263 636 276 624T289 593Q289 575 277 562T246 549Q228 549 215 562T202 593Q202 611 215 623T246 636Z"  />
<glyph unicode="&#x118;" horiz-adv-x="502" d="M460 -183Q449 -185 439 -187T414 -189Q363 -189 337 -161T311 -97Q311 -40 372 0H80V682H452V638H133V366H444V322H133V43H460V0H415Q399 -16 384 -35T368 -82Q368 -106 386 -123T432 -142Q440 -143 447 -143T460 -141V-183Z"  />
<glyph unicode="&#x119;" horiz-adv-x="477" d="M319 -165Q309 -167 300 -168T278 -170Q232 -170 208 -146T184 -88Q184 -71 189 -58T201 -36T215 -19T229 -7Q176 0 139 24T79 81T46 152T36 227Q36 274 50 316T91 389T156 439T242 458Q279 458 309 448T361 420T398 382T422 341Q434 314 437 290T441 242H89Q87 188 102 150T142 86T200 48T265 36Q297 36 323 43T371 62T407 84T433 105V51Q424 45 411 36T378 17T332 1T269 -9Q254 -25 245 -38T236 -71Q236 -75 237 -85T247 -106T272 -123T319 -127V-165ZM384 280Q381 295 376 313T357 352Q340 381 310 398T242 415Q219 415 196 407T152 383T116 341T94 280H384Z"  />
<glyph unicode="&#x11A;" horiz-adv-x="502" d="M452 638H133V366H444V322H133V43H460V0H80V682H452V638ZM298 728H220L96 865H149L260 777L374 865H425L298 728Z"  />
<glyph unicode="&#x11B;" horiz-adv-x="477" d="M89 242Q87 188 102 150T142 86T200 48T265 36Q297 36 323 43T371 62T407 84T433 105V51Q401 26 359 9T260 -9Q205 -9 163 11T93 65T51 142T36 230Q36 275 50 316T90 388T155 439T242 458Q279 458 309 448T361 420T398 382T422 341Q434 314 437 290T441 242H89ZM384 280Q381 295 376 313T357 352Q340 381 310 398T242 415Q219 415 196 407T152 383T116 341T94 280H384ZM221 512L113 676H151L252 565L350 676H388L282 512H221Z"  />
<glyph unicode="&#x11C;" horiz-adv-x="701" d="M638 573Q583 608 521 624T394 641Q338 641 285 621T190 563T123 468T97 340Q97 270 122 214T189 119T284 60T392 39Q446 39 497 50T598 82V266H454V311H651V49Q590 21 525 6T394 -9Q328 -9 264 16T150 86T69 197T38 343Q38 416 65 479T140 590T255 664T404 691Q481 691 539 671T638 633V573ZM496 728L382 816L271 728H218L342 865H420L547 728H496Z"  />
<glyph unicode="&#x11D;" horiz-adv-x="417" d="M407 409H305Q313 401 323 391T344 365T360 331T367 287Q367 281 365 262T351 220T313 173T239 137Q207 128 188 123T157 114T139 107T127 99Q111 86 111 68Q111 52 122 43T149 29T185 23T219 21Q241 20 259 19T292 16T321 9T350 -4Q373 -16 389 -41T406 -99Q406 -159 355 -194T205 -230Q131 -230 91 -213T33 -174T11 -133T8 -110Q8 -98 12 -82T31 -50T71 -21T139 0Q116 6 102 14T79 31T69 48T66 65Q66 81 73 92T92 111T120 125T156 139Q144 143 124 152T85 177T53 220T39 287Q39 332 60 370T119 426Q155 443 185 446T249 449H407V409ZM200 409Q176 409 154 400T116 374T91 337T81 290Q81 265 90 244T116 206T153 180T200 170Q225 170 246 179T284 205T310 243T320 290Q320 315 311 336T285 374T246 399T200 409ZM361 -103Q361 -73 344 -57T304 -34T256 -25T217 -24Q193 -24 176 -25T146 -28T121 -35T99 -44Q93 -47 86 -52T71 -64T58 -83T53 -108Q53 -139 73 -155T120 -179T172 -188T208 -190Q249 -190 278 -183T325 -163T352 -135T361 -103ZM341 512H303L205 621L104 512H66L174 676H235L341 512Z"  />
<glyph unicode="&#x11E;" horiz-adv-x="701" d="M638 573Q583 608 521 624T394 641Q338 641 285 621T190 563T123 468T97 340Q97 270 122 214T189 119T284 60T392 39Q446 39 497 50T598 82V266H454V311H651V49Q590 21 525 6T394 -9Q328 -9 264 16T150 86T69 197T38 343Q38 416 65 479T140 590T255 664T404 691Q481 691 539 671T638 633V573ZM267 841Q288 814 318 798T383 782Q417 782 446 797T496 841H548Q543 826 536 811T511 779Q485 753 452 741T383 728Q344 728 310 742T251 782Q236 799 229 813T217 841H267Z"  />
<glyph unicode="&#x11F;" horiz-adv-x="417" d="M407 409H305Q313 401 323 391T344 365T360 331T367 287Q367 281 365 262T351 220T313 173T239 137Q207 128 188 123T157 114T139 107T127 99Q111 86 111 68Q111 52 122 43T149 29T185 23T219 21Q241 20 259 19T292 16T321 9T350 -4Q373 -16 389 -41T406 -99Q406 -159 355 -194T205 -230Q131 -230 91 -213T33 -174T11 -133T8 -110Q8 -98 12 -82T31 -50T71 -21T139 0Q116 6 102 14T79 31T69 48T66 65Q66 81 73 92T92 111T120 125T156 139Q144 143 124 152T85 177T53 220T39 287Q39 332 60 370T119 426Q155 443 185 446T249 449H407V409ZM200 409Q176 409 154 400T116 374T91 337T81 290Q81 265 90 244T116 206T153 180T200 170Q225 170 246 179T284 205T310 243T320 290Q320 315 311 336T285 374T246 399T200 409ZM361 -103Q361 -73 344 -57T304 -34T256 -25T217 -24Q193 -24 176 -25T146 -28T121 -35T99 -44Q93 -47 86 -52T71 -64T58 -83T53 -108Q53 -139 73 -155T120 -179T172 -188T208 -190Q249 -190 278 -183T325 -163T352 -135T361 -103ZM123 647Q141 609 167 594T219 578Q242 578 259 586T287 605T306 627T317 647H355Q337 599 305 566T220 533Q187 533 164 546T124 577T98 615T83 647H123Z"  />
<glyph unicode="&#x120;" horiz-adv-x="701" d="M638 573Q583 608 521 624T394 641Q338 641 285 621T190 563T123 468T97 340Q97 270 122 214T189 119T284 60T392 39Q446 39 497 50T598 82V266H454V311H651V49Q590 21 525 6T394 -9Q328 -9 264 16T150 86T69 197T38 343Q38 416 65 479T140 590T255 664T404 691Q481 691 539 671T638 633V573ZM368 839Q385 839 398 827T411 796Q411 779 399 766T368 753Q349 753 337 766T325 796Q325 814 337 826T368 839Z"  />
<glyph unicode="&#x121;" horiz-adv-x="417" d="M407 409H305Q313 401 323 391T344 365T360 331T367 287Q367 281 365 262T351 220T313 173T239 137Q207 128 188 123T157 114T139 107T127 99Q111 86 111 68Q111 52 122 43T149 29T185 23T219 21Q241 20 259 19T292 16T321 9T350 -4Q373 -16 389 -41T406 -99Q406 -159 355 -194T205 -230Q131 -230 91 -213T33 -174T11 -133T8 -110Q8 -98 12 -82T31 -50T71 -21T139 0Q116 6 102 14T79 31T69 48T66 65Q66 81 73 92T92 111T120 125T156 139Q144 143 124 152T85 177T53 220T39 287Q39 332 60 370T119 426Q155 443 185 446T249 449H407V409ZM200 409Q176 409 154 400T116 374T91 337T81 290Q81 265 90 244T116 206T153 180T200 170Q225 170 246 179T284 205T310 243T320 290Q320 315 311 336T285 374T246 399T200 409ZM361 -103Q361 -73 344 -57T304 -34T256 -25T217 -24Q193 -24 176 -25T146 -28T121 -35T99 -44Q93 -47 86 -52T71 -64T58 -83T53 -108Q53 -139 73 -155T120 -179T172 -188T208 -190Q249 -190 278 -183T325 -163T352 -135T361 -103ZM204 636Q221 636 234 624T247 593Q247 575 235 562T204 549Q186 549 173 562T160 593Q160 611 173 623T204 636Z"  />
<glyph unicode="&#x122;" horiz-adv-x="701" d="M638 573Q583 608 521 624T394 641Q338 641 285 621T190 563T123 468T97 340Q97 270 122 214T189 119T284 60T392 39Q446 39 497 50T598 82V266H454V311H651V49Q590 21 525 6T394 -9Q328 -9 264 16T150 86T69 197T38 343Q38 416 65 479T140 590T255 664T404 691Q481 691 539 671T638 633V573ZM280 -153Q290 -155 298 -155T319 -156Q327 -156 342 -156T373 -151T399 -138T411 -112Q411 -97 399 -89T370 -76T332 -72T296 -72L303 -36Q313 -35 321 -35T341 -35Q348 -35 368 -36T409 -44T446 -66T462 -108Q462 -123 455 -138T433 -166T391 -186T328 -194Q308 -194 297 -193T273 -189L280 -153Z"  />
<glyph unicode="&#x123;" horiz-adv-x="417" d="M407 409H305Q313 401 323 391T344 365T360 331T367 287Q367 281 365 262T351 220T313 173T239 137Q207 128 188 123T157 114T139 107T127 99Q111 86 111 68Q111 52 122 43T149 29T185 23T219 21Q241 20 259 19T292 16T321 9T350 -4Q373 -16 389 -41T406 -99Q406 -159 355 -194T205 -230Q131 -230 91 -213T33 -174T11 -133T8 -110Q8 -98 12 -82T31 -50T71 -21T139 0Q116 6 102 14T79 31T69 48T66 65Q66 81 73 92T92 111T120 125T156 139Q144 143 124 152T85 177T53 220T39 287Q39 332 60 370T119 426Q155 443 185 446T249 449H407V409ZM200 409Q176 409 154 400T116 374T91 337T81 290Q81 265 90 244T116 206T153 180T200 170Q225 170 246 179T284 205T310 243T320 290Q320 315 311 336T285 374T246 399T200 409ZM361 -103Q361 -73 344 -57T304 -34T256 -25T217 -24Q193 -24 176 -25T146 -28T121 -35T99 -44Q93 -47 86 -52T71 -64T58 -83T53 -108Q53 -139 73 -155T120 -179T172 -188T208 -190Q249 -190 278 -183T325 -163T352 -135T361 -103ZM199 574Q199 583 200 600T206 636T224 676T258 712V681Q252 671 246 655T239 607H258V521H199V574Z"  />
<glyph unicode="&#x124;" horiz-adv-x="721" d="M641 0H588V323H132V0H80V682H132V368H588V682H641V0ZM474 728L360 816L249 728H196L320 865H398L525 728H474Z"  />
<glyph unicode="&#x125;" horiz-adv-x="490" d="M110 367Q116 377 127 393T156 423T199 447T259 458Q279 458 300 454T340 440T375 417T401 382Q411 363 416 347T423 313T426 277T427 232V0H378V236Q378 276 375 300T359 348Q347 372 321 391T252 411Q219 411 194 400T154 374Q138 360 129 345T110 310V0H63V682H110V367ZM383 724H345L247 833L146 724H108L216 888H277L383 724Z"  />
<glyph unicode="&#x126;" horiz-adv-x="719" d="M719 546V504H640V0H587V323H131V0H79V504H0V546H79V682H131V546H587V682H640V546H719ZM131 504V368H587V504H131Z"  />
<glyph unicode="&#x127;" horiz-adv-x="490" d="M284 581V541H110V367Q116 377 127 393T156 423T199 447T259 458Q279 458 300 454T340 440T375 417T401 382Q411 363 416 347T423 313T426 277T427 232V0H378V236Q378 276 375 300T359 348Q347 372 321 391T252 411Q219 411 194 400T154 374Q138 360 129 345T110 310V0H63V541H0V581H63V682H110V581H284Z"  />
<glyph unicode="&#x128;" horiz-adv-x="214" d="M133 0H79V682H133V0ZM-59 736Q-60 754 -59 772T-49 811Q-39 833 -19 844T23 855Q31 855 41 854T64 848T96 837T141 816Q156 808 166 804T182 798T193 795T201 794Q219 794 224 809T232 857H273Q272 834 271 817T263 782Q252 756 232 747T197 737Q176 737 148 745T77 774Q44 790 33 793T15 796Q-7 796 -11 779T-18 736H-59Z"  />
<glyph unicode="&#x129;" horiz-adv-x="187" d="M117 0H70V449H117V0ZM-70 548Q-69 557 -67 573T-56 604T-33 631T10 643Q30 643 49 638T106 618Q141 604 155 600T182 596Q196 596 204 601T218 613T224 629T227 643H257Q258 609 246 590T219 561T191 549T176 547Q165 547 148 551T93 569Q68 578 53 583T29 591T15 594T4 595Q-16 595 -26 581T-38 548H-70Z"  />
<glyph unicode="&#x12A;" horiz-adv-x="214" d="M134 0H80V682H134V0ZM267 771H-52V821H267V771Z"  />
<glyph unicode="&#x12B;" horiz-adv-x="187" d="M117 0H70V449H117V0ZM227 572H-40V623H227V572Z"  />
<glyph unicode="&#x12C;" horiz-adv-x="214" d="M134 0H80V682H134V0ZM-4 841Q17 814 47 798T112 782Q146 782 175 797T225 841H277Q272 826 265 811T240 779Q214 753 181 741T112 728Q73 728 39 742T-20 782Q-35 799 -42 813T-54 841H-4Z"  />
<glyph unicode="&#x12D;" horiz-adv-x="187" d="M117 0H70V449H117V0ZM-2 647Q16 609 42 594T94 578Q117 578 134 586T162 605T181 627T192 647H230Q212 599 180 566T95 533Q62 533 39 546T-1 577T-27 615T-42 647H-2Z"  />
<glyph unicode="&#x12E;" horiz-adv-x="214" d="M168 -183Q157 -185 147 -187T122 -189Q71 -189 45 -161T19 -97Q19 -77 30 -51T80 0V682H134V0H123Q96 -26 86 -43T76 -80Q76 -83 77 -94T87 -116T114 -136T168 -141V-183Z"  />
<glyph unicode="&#x12F;" horiz-adv-x="187" d="M149 -165Q140 -167 131 -168T108 -170Q84 -170 67 -163T37 -145T20 -119T14 -89Q14 -60 29 -38T70 0V449H117V0H109Q84 -23 75 -38T66 -72Q66 -75 67 -85T76 -105T101 -123T149 -127V-165ZM117 600H70V682H117V600Z"  />
<glyph unicode="&#x130;" horiz-adv-x="214" d="M134 0H80V682H134V0ZM108 839Q125 839 138 827T151 796Q151 779 139 766T108 753Q89 753 77 766T65 796Q65 814 77 826T108 839Z"  />
<glyph unicode="&#x131;" horiz-adv-x="187" d="M117 0H70V449H117V0Z"  />
<glyph unicode="&#x132;" horiz-adv-x="417" d="M131 0H77V682H131V0ZM344 11Q344 -13 342 -42T331 -99T304 -150T252 -188Q245 -191 240 -192T226 -195T204 -197T170 -199L163 -147Q168 -149 173 -150T188 -151Q226 -151 247 -134T277 -92T289 -37T291 17V682H344V11Z"  />
<glyph unicode="&#x133;" horiz-adv-x="375" d="M118 602H70V682H118V602ZM118 0H70V449H118V0ZM304 27Q304 -13 303 -46T296 -108T280 -160T248 -201Q230 -217 210 -223T167 -230L156 -187Q172 -183 183 -181T202 -174T216 -165T230 -150Q237 -140 242 -127T250 -94T254 -45T256 27V449H304V27ZM304 602H256V682H304V602Z"  />
<glyph unicode="&#x134;" horiz-adv-x="208" d="M136 11Q136 -13 134 -42T123 -99T96 -150T44 -188Q37 -191 31 -192T17 -195T-4 -197T-39 -199L-45 -147Q-40 -149 -35 -150T-20 -151Q18 -151 38 -134T69 -92T80 -37T82 17V682H136V11ZM218 728L104 816L-7 728H-60L64 865H142L269 728H218Z"  />
<glyph unicode="&#x135;" horiz-adv-x="183" d="M114 -18Q114 -56 111 -92T94 -158T54 -207T-18 -230L-32 -190Q5 -187 25 -172T54 -134T64 -80T66 -15V449H114V-18ZM228 512H189L91 621L-9 512H-48L61 676H121L228 512Z"  />
<glyph unicode="&#x136;" horiz-adv-x="553" d="M201 342L558 0H490L132 342V0H80V682H132V342L460 682H526L201 342ZM182 -153Q192 -155 200 -155T221 -156Q229 -156 244 -156T275 -151T301 -138T313 -112Q313 -97 301 -89T272 -76T234 -72T198 -72L205 -36Q215 -35 223 -35T243 -35Q250 -35 270 -36T311 -44T348 -66T364 -108Q364 -123 357 -138T335 -166T293 -186T230 -194Q210 -194 199 -193T175 -189L182 -153Z"  />
<glyph unicode="&#x137;" horiz-adv-x="440" d="M107 0H59V682H107V0ZM181 236L466 0H397L114 236L362 449H425L181 236ZM158 -138Q166 -139 172 -139T188 -140Q194 -140 205 -140T228 -135T248 -123T257 -100Q257 -87 250 -80T234 -68T213 -63T194 -62L198 -35Q238 -29 266 -46T295 -98Q295 -111 290 -124T274 -149T243 -168T196 -175Q182 -175 172 -174T153 -170L158 -138Z"  />
<glyph unicode="&#x138;" horiz-adv-x="427" d="M107 0H59V449H107V0ZM181 236L466 0H397L114 236L362 449H425L181 236Z"  />
<glyph unicode="&#x139;" horiz-adv-x="470" d="M131 43H469V0H79V682H131V43ZM318 856L123 728H74L196 856H318Z"  />
<glyph unicode="&#x13A;" horiz-adv-x="188" d="M118 0H70V682H118V0ZM111 733H78L182 889H263L111 733Z"  />
<glyph unicode="&#x13B;" horiz-adv-x="469" d="M131 43H469V0H79V682H131V43ZM147 -153Q157 -155 165 -155T186 -156Q194 -156 209 -156T240 -151T266 -138T278 -112Q278 -97 266 -89T237 -76T199 -72T163 -72L170 -36Q180 -35 188 -35T208 -35Q215 -35 235 -36T276 -44T313 -66T329 -108Q329 -123 322 -138T300 -166T258 -186T195 -194Q175 -194 164 -193T140 -189L147 -153Z"  />
<glyph unicode="&#x13C;" horiz-adv-x="188" d="M118 0H70V682H118V0ZM39 -138Q47 -139 53 -139T69 -140Q75 -140 86 -140T109 -135T129 -123T138 -100Q138 -87 131 -80T115 -68T94 -63T75 -62L79 -35Q119 -29 147 -46T176 -98Q176 -111 171 -124T155 -149T124 -168T77 -175Q63 -175 53 -174T34 -170L39 -138Z"  />
<glyph unicode="&#x13D;" horiz-adv-x="469" d="M131 43H469V0H79V682H131V43ZM372 624Q372 614 371 595T364 555T345 511T307 470V504Q313 515 320 533T328 587H307V682H372V624Z"  />
<glyph unicode="&#x13E;" horiz-adv-x="188" d="M118 0H70V682H118V0ZM231 633Q231 623 230 604T223 564T204 520T166 479V513Q172 524 179 542T186 596H166V691H231V633Z"  />
<glyph unicode="&#x13F;" horiz-adv-x="470" d="M131 43H469V0H79V682H131V43ZM291 386Q309 386 322 373T335 342Q335 324 322 312T291 299Q273 299 261 311T248 342Q248 360 261 373T291 386Z"  />
<glyph unicode="&#x140;" horiz-adv-x="292" d="M118 0H69V682H118V0ZM238 384Q255 384 268 372T281 341Q281 323 268 311T238 298Q220 298 207 310T194 341Q194 359 207 371T238 384Z"  />
<glyph unicode="&#x141;" horiz-adv-x="469" d="M299 488V438L131 301V43H469V0H79V258L0 193V243L79 308V682H131V351L299 488Z"  />
<glyph unicode="&#x142;" horiz-adv-x="187" d="M187 445V395L120 339V0H72V298L0 237V287L72 349V682H120V389L187 445Z"  />
<glyph unicode="&#x143;" horiz-adv-x="775" d="M695 0H651L133 600V0H80V682H129L642 86V682H695V0ZM581 856L386 728H337L459 856H581Z"  />
<glyph unicode="&#x144;" horiz-adv-x="490" d="M110 371Q118 382 129 397T158 425T200 448T257 458Q295 458 332 442T391 395Q414 360 420 324T427 243V0H379V239Q379 291 372 317T351 361Q335 384 309 398T251 412Q219 412 191 398T142 363Q130 349 123 338T110 315V0H62V449H110V371ZM262 521H229L333 677H414L262 521Z"  />
<glyph unicode="&#x145;" horiz-adv-x="773" d="M695 0H651L133 600V0H80V682H129L642 86V682H695V0ZM300 -153Q310 -155 318 -155T339 -156Q347 -156 362 -156T393 -151T419 -138T431 -112Q431 -97 419 -89T390 -76T352 -72T316 -72L323 -36Q333 -35 341 -35T361 -35Q368 -35 388 -36T429 -44T466 -66T482 -108Q482 -123 475 -138T453 -166T411 -186T348 -194Q328 -194 317 -193T293 -189L300 -153Z"  />
<glyph unicode="&#x146;" horiz-adv-x="490" d="M110 371Q118 382 129 397T158 425T200 448T257 458Q295 458 332 442T391 395Q414 360 420 324T427 243V0H379V239Q379 291 372 317T351 361Q335 384 309 398T251 412Q219 412 191 398T142 363Q130 349 123 338T110 315V0H62V449H110V371ZM190 -138Q198 -139 204 -139T220 -140Q226 -140 237 -140T260 -135T280 -123T289 -100Q289 -87 282 -80T266 -68T245 -63T226 -62L230 -35Q270 -29 298 -46T327 -98Q327 -111 322 -124T306 -149T275 -168T228 -175Q214 -175 204 -174T185 -170L190 -138Z"  />
<glyph unicode="&#x147;" horiz-adv-x="775" d="M695 0H651L133 600V0H80V682H129L642 86V682H695V0ZM425 728H347L223 865H276L387 777L501 865H552L425 728Z"  />
<glyph unicode="&#x148;" horiz-adv-x="490" d="M110 371Q118 382 129 397T158 425T200 448T257 458Q295 458 332 442T391 395Q414 360 420 324T427 243V0H379V239Q379 291 372 317T351 361Q335 384 309 398T251 412Q219 412 191 398T142 363Q130 349 123 338T110 315V0H62V449H110V371ZM216 512L108 676H146L247 565L345 676H383L277 512H216Z"  />
<glyph unicode="&#x149;" horiz-adv-x="529" d="M150 371Q157 382 169 397T198 425T240 448T297 458Q335 458 372 442T430 395Q454 360 460 324T467 243V0H418V239Q418 291 411 317T391 361Q375 384 349 398T291 412Q259 412 231 398T182 363Q169 349 163 338T150 315V0H102V449H150V371ZM66 624Q66 614 65 595T58 555T39 511T0 470V504Q7 515 14 533T21 587H0V682H66V624Z"  />
<glyph unicode="&#x14A;" horiz-adv-x="706" d="M574 380Q574 512 514 576T355 640Q274 640 216 603T131 490V0H79V682H131V578Q141 597 161 617T210 653T278 680T363 691Q402 691 448 681T534 639T600 545T627 383V150Q627 120 620 91T595 40T550 5T482 -9Q473 -9 463 -8T441 -5L435 48Q443 46 451 45T475 44Q505 44 524 52T554 74T570 110T574 157V380Z"  />
<glyph unicode="&#x14B;" horiz-adv-x="490" d="M427 -18Q427 -55 424 -91T407 -157T367 -207T294 -230L281 -190Q318 -187 338 -173T367 -133T377 -72T379 11V239Q379 291 372 317T351 361Q335 384 309 398T251 412Q219 412 191 398T142 363Q130 349 123 338T110 315V0H62V449H110V371Q118 382 129 397T158 425T200 448T257 458Q295 458 332 442T391 395Q414 360 420 324T427 243V-18Z"  />
<glyph unicode="&#x14C;" horiz-adv-x="799" d="M761 344Q761 267 733 203T655 91T539 18T399 -9Q322 -9 257 18T142 93T66 204T38 342Q38 411 64 474T137 586T251 662T400 691Q481 691 548 663T662 587T735 476T761 344ZM702 344Q702 402 680 456T618 550T523 615T401 640Q336 640 281 617T185 553T121 458T98 340Q98 280 120 226T182 130T277 65T398 41Q457 41 512 62T609 122T676 218T702 344ZM569 771H250V821H569V771Z"  />
<glyph unicode="&#x14D;" horiz-adv-x="529" d="M265 458Q317 458 359 440T431 389T477 315T493 224Q493 169 474 126T423 53T350 7T265 -9Q221 -9 180 7T107 53T56 126T36 224Q36 271 51 313T96 388T168 439T265 458ZM265 413Q234 413 203 402T146 367T104 308T88 225Q88 182 102 147T140 87T196 49T265 35Q302 35 334 49T390 88T428 148T442 225Q442 271 427 306T386 365T329 401T265 413ZM409 572H142V623H409V572Z"  />
<glyph unicode="&#x14E;" horiz-adv-x="799" d="M761 344Q761 267 733 203T655 91T539 18T399 -9Q322 -9 257 18T142 93T66 204T38 342Q38 411 64 474T137 586T251 662T400 691Q481 691 548 663T662 587T735 476T761 344ZM702 344Q702 402 680 456T618 550T523 615T401 640Q336 640 281 617T185 553T121 458T98 340Q98 280 120 226T182 130T277 65T398 41Q457 41 512 62T609 122T676 218T702 344ZM284 841Q305 814 335 798T400 782Q434 782 463 797T513 841H565Q560 826 553 811T528 779Q502 753 469 741T400 728Q361 728 327 742T268 782Q253 799 246 813T234 841H284Z"  />
<glyph unicode="&#x14F;" horiz-adv-x="529" d="M265 458Q317 458 359 440T431 389T477 315T493 224Q493 169 474 126T423 53T350 7T265 -9Q221 -9 180 7T107 53T56 126T36 224Q36 271 51 313T96 388T168 439T265 458ZM265 413Q234 413 203 402T146 367T104 308T88 225Q88 182 102 147T140 87T196 49T265 35Q302 35 334 49T390 88T428 148T442 225Q442 271 427 306T386 365T329 401T265 413ZM170 647Q188 609 214 594T266 578Q289 578 306 586T334 605T353 627T364 647H402Q384 599 352 566T267 533Q234 533 211 546T171 577T145 615T130 647H170Z"  />
<glyph unicode="&#x150;" horiz-adv-x="799" d="M761 344Q761 267 733 203T655 91T539 18T399 -9Q322 -9 257 18T142 93T66 204T38 342Q38 411 64 474T137 586T251 662T400 691Q481 691 548 663T662 587T735 476T761 344ZM702 344Q702 402 680 456T618 550T523 615T401 640Q336 640 281 617T185 553T121 458T98 340Q98 280 120 226T182 130T277 65T398 41Q457 41 512 62T609 122T676 218T702 344ZM326 728H289L368 856H473L326 728ZM475 728H437L517 856H621L475 728Z"  />
<glyph unicode="&#x151;" horiz-adv-x="529" d="M265 458Q317 458 359 440T431 389T477 315T493 224Q493 169 474 126T423 53T350 7T265 -9Q221 -9 180 7T107 53T56 126T36 224Q36 271 51 313T96 388T168 439T265 458ZM265 413Q234 413 203 402T146 367T104 308T88 225Q88 182 102 147T140 87T196 49T265 35Q302 35 334 49T390 88T428 148T442 225Q442 271 427 306T386 365T329 401T265 413ZM215 522H184L283 677H372L215 522ZM347 522H317L417 677H507L347 522Z"  />
<glyph unicode="&#x152;" horiz-adv-x="893" d="M848 637H526V364H841V320H526V44H855V0H450Q414 0 381 1T314 7T249 25T183 61Q152 82 126 111T80 175T49 251T38 340Q38 388 48 426T73 494T107 547T142 586Q179 622 217 641T295 670T373 680T450 682H848V637ZM473 637Q424 638 387 637T311 626Q273 617 235 594T166 534T116 450T96 340Q96 290 109 248T146 173T198 115T260 75Q313 51 367 47T473 44V637Z"  />
<glyph unicode="&#x153;" horiz-adv-x="828" d="M478 242V222Q478 214 479 201T482 173T489 141T500 109Q516 73 550 56T618 39Q649 39 675 46T721 64T755 86T778 105V50Q742 21 699 6T610 -9Q568 -9 540 3T493 32T464 67T449 96Q439 83 424 65T385 31T331 3T257 -9Q222 -9 183 3T112 44T58 116T36 224Q36 285 56 329T109 402T181 444T262 458Q322 458 367 434T449 362Q458 378 467 391T494 418Q516 436 544 447T603 458Q612 458 629 456T668 446T710 424T749 385T777 326T788 242H478ZM732 286Q727 329 710 354T673 392T634 409T604 413Q571 413 543 397T498 352Q486 333 483 317T478 286H732ZM428 233Q428 271 418 304T388 361T336 399T264 413Q220 413 188 398T133 357T99 297T88 226Q88 179 103 144T142 84T198 48T261 36Q294 36 324 48T377 85T414 147T428 233Z"  />
<glyph unicode="&#x154;" horiz-adv-x="587" d="M214 682Q244 682 267 682T309 679T344 672T377 662Q397 654 415 640T448 605T471 560T480 506Q480 443 446 403T350 340Q365 331 378 318T412 274T469 191T564 47L596 0H533L402 206Q394 218 384 232T362 261T340 287T318 306Q295 322 269 324T205 327H132V0H79V682H214ZM132 638V372H205Q234 372 256 373T297 376T329 383T358 394Q386 408 403 439T420 506Q420 541 403 571T357 616Q349 620 338 624T311 631T273 636T218 638H132ZM420 856L225 728H176L298 856H420Z"  />
<glyph unicode="&#x155;" horiz-adv-x="373" d="M345 360Q328 375 305 392T256 409Q236 409 217 398T179 370T143 329T111 282V0H63V449H111V331Q118 342 133 363T170 405T217 442T271 458Q287 458 301 453T329 439T353 422T373 405L345 360ZM213 521H180L284 677H365L213 521Z"  />
<glyph unicode="&#x156;" horiz-adv-x="586" d="M214 682Q244 682 267 682T309 679T344 672T377 662Q397 654 415 640T448 605T471 560T480 506Q480 443 446 403T350 340Q365 331 378 318T412 274T469 191T564 47L596 0H533L402 206Q394 218 384 232T362 261T340 287T318 306Q295 322 269 324T205 327H132V0H79V682H214ZM132 638V372H205Q234 372 256 373T297 376T329 383T358 394Q386 408 403 439T420 506Q420 541 403 571T357 616Q349 620 338 624T311 631T273 636T218 638H132ZM199 -153Q209 -155 217 -155T238 -156Q246 -156 261 -156T292 -151T318 -138T330 -112Q330 -97 318 -89T289 -76T251 -72T215 -72L222 -36Q232 -35 240 -35T260 -35Q267 -35 287 -36T328 -44T365 -66T381 -108Q381 -123 374 -138T352 -166T310 -186T247 -194Q227 -194 216 -193T192 -189L199 -153Z"  />
<glyph unicode="&#x157;" horiz-adv-x="373" d="M345 360Q328 375 305 392T256 409Q236 409 217 398T179 370T143 329T111 282V0H63V449H111V331Q118 342 133 363T170 405T217 442T271 458Q287 458 301 453T329 439T353 422T373 405L345 360ZM61 -138Q69 -139 75 -139T91 -140Q97 -140 108 -140T131 -135T151 -123T160 -100Q160 -87 153 -80T137 -68T116 -63T97 -62L101 -35Q141 -29 169 -46T198 -98Q198 -111 193 -124T177 -149T146 -168T99 -175Q85 -175 75 -174T56 -170L61 -138Z"  />
<glyph unicode="&#x158;" horiz-adv-x="586" d="M214 682Q244 682 267 682T309 679T344 672T377 662Q397 654 415 640T448 605T471 560T480 506Q480 443 446 403T350 340Q365 331 378 318T412 274T469 191T564 47L596 0H533L402 206Q394 218 384 232T362 261T340 287T318 306Q295 322 269 324T205 327H132V0H79V682H214ZM132 638V372H205Q234 372 256 373T297 376T329 383T358 394Q386 408 403 439T420 506Q420 541 403 571T357 616Q349 620 338 624T311 631T273 636T218 638H132ZM284 728H206L82 865H135L246 777L360 865H411L284 728Z"  />
<glyph unicode="&#x159;" horiz-adv-x="373" d="M345 360Q328 375 305 392T256 409Q236 409 217 398T179 370T143 329T111 282V0H63V449H111V331Q118 342 133 363T170 405T217 442T271 458Q287 458 301 453T329 439T353 422T373 405L345 360ZM167 512L59 676H97L198 565L296 676H334L228 512H167Z"  />
<glyph unicode="&#x15A;" horiz-adv-x="460" d="M399 590Q358 614 323 629T245 644Q208 644 181 632T136 600T110 558T101 513Q101 480 114 458T148 420T197 394T253 373Q283 362 314 348T370 311T411 256T427 179Q427 134 410 99T364 40T300 4T229 -9Q181 -9 137 8T54 51V113Q99 81 139 61T227 41Q264 41 291 53T336 85T363 129T372 177Q372 211 358 235T322 277T277 304T232 322Q198 334 177 342T143 358T122 370T109 381Q82 404 65 437T47 511Q47 545 61 577T100 635T160 675T240 691Q282 691 322 680T399 648V590ZM413 856L218 728H169L291 856H413Z"  />
<glyph unicode="&#x15B;" horiz-adv-x="348" d="M303 368Q283 382 252 398T180 414Q134 414 109 390T83 338Q83 318 93 304T120 280T154 262T190 248Q205 242 227 233T268 209T302 171T316 115Q316 92 307 70T279 31T233 2T170 -9Q155 -9 119 -3T35 32V79Q58 67 94 52T175 36Q222 36 245 59T268 111Q268 132 259 146T234 171T195 192T144 213Q133 217 115 225T80 247T51 282T38 334Q38 355 47 377T74 417T119 446T183 458Q204 458 222 454T256 443T284 431T303 420V368ZM203 521H170L274 677H355L203 521Z"  />
<glyph unicode="&#x15C;" horiz-adv-x="460" d="M399 590Q358 614 323 629T245 644Q208 644 181 632T136 600T110 558T101 513Q101 480 114 458T148 420T197 394T253 373Q283 362 314 348T370 311T411 256T427 179Q427 134 410 99T364 40T300 4T229 -9Q181 -9 137 8T54 51V113Q99 81 139 61T227 41Q264 41 291 53T336 85T363 129T372 177Q372 211 358 235T322 277T277 304T232 322Q198 334 177 342T143 358T122 370T109 381Q82 404 65 437T47 511Q47 545 61 577T100 635T160 675T240 691Q282 691 322 680T399 648V590ZM358 728L244 816L133 728H80L204 865H282L409 728H358Z"  />
<glyph unicode="&#x15D;" horiz-adv-x="348" d="M303 368Q283 382 252 398T180 414Q134 414 109 390T83 338Q83 318 93 304T120 280T154 262T190 248Q205 242 227 233T268 209T302 171T316 115Q316 92 307 70T279 31T233 2T170 -9Q155 -9 119 -3T35 32V79Q58 67 94 52T175 36Q222 36 245 59T268 111Q268 132 259 146T234 171T195 192T144 213Q133 217 115 225T80 247T51 282T38 334Q38 355 47 377T74 417T119 446T183 458Q204 458 222 454T256 443T284 431T303 420V368ZM324 512H286L188 621L87 512H49L157 676H218L324 512Z"  />
<glyph unicode="&#x15E;" horiz-adv-x="460" d="M239 -38Q272 -43 290 -54T317 -77T326 -99T328 -112Q328 -146 297 -172T194 -199Q172 -199 156 -198T126 -194L132 -156Q143 -157 158 -158T194 -159Q198 -159 212 -159T241 -154T268 -141T280 -115Q280 -102 273 -95T253 -83T223 -76T187 -74L206 -8Q188 -6 148 4T54 51V113Q99 81 139 61T227 41Q264 41 291 53T336 85T363 129T372 177Q372 211 358 235T322 277T277 304T232 322Q198 334 177 342T143 358T122 370T109 381Q82 404 65 437T47 511Q47 545 61 577T100 635T160 675T240 691Q282 691 322 680T399 648V590Q358 614 323 629T245 644Q208 644 181 632T136 600T110 558T101 513Q101 480 114 458T148 420T197 394T253 373Q283 362 314 348T370 311T411 256T427 179Q427 137 412 104T372 47T315 9T248 -8L239 -38Z"  />
<glyph unicode="&#x15F;" horiz-adv-x="348" d="M175 -42Q205 -43 221 -52T244 -73T253 -95T254 -107Q254 -113 251 -128T230 -159T177 -184T77 -191L84 -154Q97 -154 117 -153T155 -147T186 -133T199 -106Q199 -94 192 -87T173 -77T147 -73T120 -72L151 -8Q106 -3 79 9T35 32V79Q58 67 94 52T175 36Q222 36 245 59T268 111Q268 132 259 146T234 171T195 192T144 213Q133 217 115 225T80 247T51 282T38 334Q38 355 47 377T74 417T119 446T183 458Q204 458 222 454T256 443T284 431T303 420V368Q283 382 252 398T180 414Q134 414 109 390T83 338Q83 318 93 304T120 280T154 262T190 248Q205 242 227 233T268 209T302 171T316 115Q316 96 309 76T286 38T248 9T192 -8L175 -42Z"  />
<glyph unicode="&#x160;" horiz-adv-x="460" d="M399 590Q358 614 323 629T245 644Q208 644 181 632T136 600T110 558T101 513Q101 480 114 458T148 420T197 394T253 373Q283 362 314 348T370 311T411 256T427 179Q427 134 410 99T364 40T300 4T229 -9Q181 -9 137 8T54 51V113Q99 81 139 61T227 41Q264 41 291 53T336 85T363 129T372 177Q372 211 358 235T322 277T277 304T232 322Q198 334 177 342T143 358T122 370T109 381Q82 404 65 437T47 511Q47 545 61 577T100 635T160 675T240 691Q282 691 322 680T399 648V590ZM282 728H204L80 865H133L244 777L358 865H409L282 728Z"  />
<glyph unicode="&#x161;" horiz-adv-x="348" d="M303 368Q283 382 252 398T180 414Q134 414 109 390T83 338Q83 318 93 304T120 280T154 262T190 248Q205 242 227 233T268 209T302 171T316 115Q316 92 307 70T279 31T233 2T170 -9Q155 -9 119 -3T35 32V79Q58 67 94 52T175 36Q222 36 245 59T268 111Q268 132 259 146T234 171T195 192T144 213Q133 217 115 225T80 247T51 282T38 334Q38 355 47 377T74 417T119 446T183 458Q204 458 222 454T256 443T284 431T303 420V368ZM162 512L54 676H92L193 565L291 676H329L223 512H162Z"  />
<glyph unicode="&#x162;" horiz-adv-x="573" d="M569 638H314V0H260V638H4V682H569V638ZM174 -153Q184 -155 192 -155T213 -156Q221 -156 236 -156T267 -151T293 -138T305 -112Q305 -97 293 -89T264 -76T226 -72T190 -72L197 -36Q207 -35 215 -35T235 -35Q242 -35 262 -36T303 -44T340 -66T356 -108Q356 -123 349 -138T327 -166T285 -186T222 -194Q202 -194 191 -193T167 -189L174 -153Z"  />
<glyph unicode="&#x163;" horiz-adv-x="302" d="M150 449H276V409H150V134Q150 118 150 108T151 91T154 79T159 68Q167 54 181 47T218 39Q242 39 260 45T299 60V14Q268 0 246 -4T206 -9Q177 -9 150 5T112 45Q104 62 103 80T102 134V409H-19V449H102V556L135 598H150V449ZM121 -138Q129 -139 135 -139T151 -140Q157 -140 168 -140T191 -135T211 -123T220 -100Q220 -87 213 -80T197 -68T176 -63T157 -62L161 -35Q201 -29 229 -46T258 -98Q258 -111 253 -124T237 -149T206 -168T159 -175Q145 -175 135 -174T116 -170L121 -138Z"  />
<glyph unicode="&#x164;" horiz-adv-x="573" d="M569 638H314V0H260V638H4V682H569V638ZM324 728H246L122 865H175L286 777L400 865H451L324 728Z"  />
<glyph unicode="&#x165;" horiz-adv-x="406" d="M149 449H275V409H149V134Q149 118 149 108T150 91T153 79T158 68Q173 39 217 39Q241 39 259 45T298 60V14Q267 0 245 -4T205 -9Q176 -9 149 5T111 45Q103 62 102 80T101 134V409H-20V449H101V556L134 598H149V449ZM377 624Q377 614 376 595T369 555T350 511T312 470V504Q318 515 325 533T332 587H312V682H377V624Z"  />
<glyph unicode="&#x166;" horiz-adv-x="573" d="M544 363V321H314V0H260V321H28V363H260V638H4V682H569V638H314V363H544Z"  />
<glyph unicode="&#x167;" horiz-adv-x="302" d="M289 298V257H150V134Q150 118 150 108T151 91T154 79T159 68Q167 54 181 47T218 39Q242 39 260 45T299 60V14Q268 0 246 -4T206 -9Q177 -9 150 5T112 45Q104 62 103 80T102 134V257H-19V298H102V409H-19V449H102V556L135 598H150V449H276V409H150V298H289Z"  />
<glyph unicode="&#x168;" horiz-adv-x="698" d="M634 338Q634 302 633 272T626 214T612 163T586 114Q571 90 549 68T498 29T432 2T352 -9Q319 -9 285 -2T219 19T160 57T114 112Q96 143 86 170T71 225T65 279T64 338V682H116V328Q116 257 126 216T153 148Q165 127 183 108T225 73T279 49T348 40Q378 40 407 47T463 67T510 100T544 146Q567 191 574 234T582 328V682H634V338ZM184 736Q183 754 184 772T194 811Q204 833 224 844T266 855Q274 855 284 854T307 848T339 837T384 816Q399 808 409 804T425 798T436 795T444 794Q462 794 467 809T475 857H516Q515 834 514 817T506 782Q495 756 475 747T440 737Q419 737 391 745T320 774Q287 790 276 793T258 796Q236 796 232 779T225 736H184Z"  />
<glyph unicode="&#x169;" horiz-adv-x="490" d="M423 0H375V74Q366 63 353 49T321 21T278 0T222 -9Q181 -9 143 10T86 62Q66 95 62 128T58 196V449H106V196Q106 159 109 135T124 88Q142 56 172 45T227 33Q256 33 285 44T341 80Q352 92 359 105T375 135V449H423V0ZM82 548Q83 557 85 573T96 604T119 631T162 643Q182 643 201 638T258 618Q293 604 307 600T334 596Q348 596 356 601T370 613T376 629T379 643H409Q410 609 398 590T371 561T343 549T328 547Q317 547 300 551T245 569Q220 578 205 583T181 591T167 594T156 595Q136 595 126 581T114 548H82Z"  />
<glyph unicode="&#x16A;" horiz-adv-x="698" d="M634 338Q634 302 633 272T626 214T612 163T586 114Q571 90 549 68T498 29T432 2T352 -9Q319 -9 285 -2T219 19T160 57T114 112Q96 143 86 170T71 225T65 279T64 338V682H116V328Q116 257 126 216T153 148Q165 127 183 108T225 73T279 49T348 40Q378 40 407 47T463 67T510 100T544 146Q567 191 574 234T582 328V682H634V338ZM509 771H190V821H509V771Z"  />
<glyph unicode="&#x16B;" horiz-adv-x="490" d="M423 0H375V74Q366 63 353 49T321 21T278 0T222 -9Q181 -9 143 10T86 62Q66 95 62 128T58 196V449H106V196Q106 159 109 135T124 88Q142 56 172 45T227 33Q256 33 285 44T341 80Q352 92 359 105T375 135V449H423V0ZM379 572H112V623H379V572Z"  />
<glyph unicode="&#x16C;" horiz-adv-x="698" d="M634 338Q634 302 633 272T626 214T612 163T586 114Q571 90 549 68T498 29T432 2T352 -9Q319 -9 285 -2T219 19T160 57T114 112Q96 143 86 170T71 225T65 279T64 338V682H116V328Q116 257 126 216T153 148Q165 127 183 108T225 73T279 49T348 40Q378 40 407 47T463 67T510 100T544 146Q567 191 574 234T582 328V682H634V338ZM234 841Q255 814 285 798T350 782Q384 782 413 797T463 841H515Q510 826 503 811T478 779Q452 753 419 741T350 728Q311 728 277 742T218 782Q203 799 196 813T184 841H234Z"  />
<glyph unicode="&#x16D;" horiz-adv-x="490" d="M423 0H375V74Q366 63 353 49T321 21T278 0T222 -9Q181 -9 143 10T86 62Q66 95 62 128T58 196V449H106V196Q106 159 109 135T124 88Q142 56 172 45T227 33Q256 33 285 44T341 80Q352 92 359 105T375 135V449H423V0ZM150 647Q168 609 194 594T246 578Q269 578 286 586T314 605T333 627T344 647H382Q364 599 332 566T247 533Q214 533 191 546T151 577T125 615T110 647H150Z"  />
<glyph unicode="&#x16E;" horiz-adv-x="698" d="M634 338Q634 302 633 272T626 214T612 163T586 114Q571 90 549 68T498 29T432 2T352 -9Q319 -9 285 -2T219 19T160 57T114 112Q96 143 86 170T71 225T65 279T64 338V682H116V328Q116 257 126 216T153 148Q165 127 183 108T225 73T279 49T348 40Q378 40 407 47T463 67T510 100T544 146Q567 191 574 234T582 328V682H634V338ZM350 937Q371 937 390 929T423 907T446 873T454 833Q454 811 446 792T424 759T390 736T350 728Q329 728 310 736T276 758T254 792T245 833Q245 855 253 874T275 907T309 929T350 937ZM348 906Q318 906 296 885T274 833Q274 801 296 780T348 759Q379 759 400 780T422 833Q422 863 401 884T348 906Z"  />
<glyph unicode="&#x16F;" horiz-adv-x="490" d="M423 0H375V74Q366 63 353 49T321 21T278 0T222 -9Q181 -9 143 10T86 62Q66 95 62 128T58 196V449H106V196Q106 159 109 135T124 88Q142 56 172 45T227 33Q256 33 285 44T341 80Q352 92 359 105T375 135V449H423V0ZM246 679Q264 679 279 673T306 654T325 626T332 592Q332 574 326 559T307 532T280 513T246 506Q228 506 212 513T185 531T166 558T159 592Q159 610 166 626T185 654T212 672T246 679ZM246 652Q221 652 204 635T187 593Q187 569 204 552T246 534Q270 534 287 551T304 593Q304 618 287 635T246 652Z"  />
<glyph unicode="&#x170;" horiz-adv-x="698" d="M634 338Q634 302 633 272T626 214T612 163T586 114Q571 90 549 68T498 29T432 2T352 -9Q319 -9 285 -2T219 19T160 57T114 112Q96 143 86 170T71 225T65 279T64 338V682H116V328Q116 257 126 216T153 148Q165 127 183 108T225 73T279 49T348 40Q378 40 407 47T463 67T510 100T544 146Q567 191 574 234T582 328V682H634V338ZM276 728H239L318 856H423L276 728ZM425 728H387L467 856H571L425 728Z"  />
<glyph unicode="&#x171;" horiz-adv-x="490" d="M423 0H375V74Q366 63 353 49T321 21T278 0T222 -9Q181 -9 143 10T86 62Q66 95 62 128T58 196V449H106V196Q106 159 109 135T124 88Q142 56 172 45T227 33Q256 33 285 44T341 80Q352 92 359 105T375 135V449H423V0ZM200 522H169L268 677H357L200 522ZM332 522H302L402 677H492L332 522Z"  />
<glyph unicode="&#x172;" horiz-adv-x="698" d="M540 -183Q529 -185 519 -187T494 -189Q443 -189 417 -161T390 -97Q390 -59 414 -33T478 19Q460 11 430 1T352 -9Q320 -9 286 -2T219 19T160 57T114 112Q96 144 86 171T71 225T65 279T64 338V682H116V328Q116 257 126 216T153 148Q165 127 183 108T225 73T279 49T348 40Q378 40 407 47T463 67T510 100T544 146Q567 191 574 234T582 328V682H634V338Q634 293 631 252T614 171T573 89T496 1Q464 -30 456 -47T447 -80Q447 -83 448 -94T458 -116T486 -136T540 -141V-183Z"  />
<glyph unicode="&#x173;" horiz-adv-x="490" d="M454 -165Q445 -167 436 -168T413 -170Q389 -170 372 -163T343 -145T326 -119T320 -89Q320 -61 335 -38T375 0V74Q366 63 353 49T321 21T278 0T222 -9Q181 -9 143 10T86 62Q66 95 62 128T58 196V449H106V196Q106 159 109 135T124 88Q142 56 172 45T227 33Q256 33 285 44T341 80Q352 92 359 105T375 135V449H423V0H413Q398 -14 385 -31T371 -72Q371 -75 372 -85T381 -105T406 -123T454 -127V-165Z"  />
<glyph unicode="&#x174;" horiz-adv-x="1031" d="M760 -5H744L515 569L288 -5H272L-1 682H53L279 116L507 682H524L751 116L979 682H1032L760 -5ZM629 728L515 816L404 728H351L475 865H553L680 728H629Z"  />
<glyph unicode="&#x175;" horiz-adv-x="708" d="M514 -9H491L353 356L214 -9H192L0 449H47L200 83L341 449H367L504 83L660 449H708L514 -9ZM492 512H454L356 621L255 512H217L325 676H386L492 512Z"  />
<glyph unicode="&#x176;" horiz-adv-x="584" d="M317 366V0H264V366L0 682H64L291 412L519 682H584L317 366ZM407 728L293 816L182 728H129L253 865H331L458 728H407Z"  />
<glyph unicode="&#x177;" horiz-adv-x="411" d="M81 -230H32L189 87L0 449H49L213 135L368 449H417L81 -230ZM343 512H305L207 621L106 512H68L176 676H237L343 512Z"  />
<glyph unicode="&#x178;" horiz-adv-x="584" d="M317 366V0H264V366L0 682H64L291 412L519 682H584L317 366ZM197 841Q215 841 228 828T241 797Q241 779 228 767T197 754Q179 754 167 766T154 797Q154 815 166 828T197 841ZM386 840Q404 840 416 827T429 796Q429 779 417 766T386 753Q368 753 356 765T343 796Q343 815 356 827T386 840Z"  />
<glyph unicode="&#x179;" horiz-adv-x="635" d="M607 664L96 43H611V0H9V15L521 639H32V682H607V664ZM481 856L286 728H237L359 856H481Z"  />
<glyph unicode="&#x17A;" horiz-adv-x="399" d="M385 431L90 45H385V0H10V15L307 403H29V449H385V431ZM215 521H182L286 677H367L215 521Z"  />
<glyph unicode="&#x17B;" horiz-adv-x="635" d="M607 664L96 43H611V0H9V15L521 639H32V682H607V664ZM318 839Q335 839 348 827T361 796Q361 779 349 766T318 753Q299 753 287 766T275 796Q275 814 287 826T318 839Z"  />
<glyph unicode="&#x17C;" horiz-adv-x="399" d="M385 431L90 45H385V0H10V15L307 403H29V449H385V431ZM199 636Q216 636 229 624T242 593Q242 575 230 562T199 549Q181 549 168 562T155 593Q155 611 168 623T199 636Z"  />
<glyph unicode="&#x17D;" horiz-adv-x="635" d="M607 664L96 43H611V0H9V15L521 639H32V682H607V664ZM355 728H277L153 865H206L317 777L431 865H482L355 728Z"  />
<glyph unicode="&#x17E;" horiz-adv-x="399" d="M385 431L90 45H385V0H10V15L307 403H29V449H385V431ZM169 512L61 676H99L200 565L298 676H336L230 512H169Z"  />
<glyph unicode="&#x192;" horiz-adv-x="552" d="M439 518L428 474H320L199 -83Q194 -108 186 -131T163 -171T125 -199T65 -210Q38 -210 17 -205T-23 -195L-12 -146Q2 -150 20 -153T59 -157Q64 -157 74 -156T95 -151T117 -136T132 -108Q138 -81 142 -65T148 -37T152 -18T156 0L259 474H176L186 518H268L280 571Q292 621 301 650T333 698Q355 716 379 722T420 728Q439 728 457 725T510 712L500 664Q481 669 463 671T424 674Q402 674 389 667T367 646T353 613T342 571L329 518H439Z"  />
<glyph unicode="&#x1FC;" horiz-adv-x="865" d="M818 639H498V366H811V322H498V44H827V0H444V322H244L44 0H-14L412 682H818V639ZM444 646L273 366H444V646ZM796 856L601 728H552L674 856H796Z"  />
<glyph unicode="&#x1FD;" horiz-adv-x="661" d="M334 243V206Q334 197 334 184T336 158T340 133T347 112Q357 90 371 76T401 53T433 42T462 38Q471 38 486 39T523 46T569 64T624 97V42Q586 19 544 5T457 -9Q426 -9 402 -1T361 19T332 42T315 61Q273 30 233 11T146 -9Q117 -9 95 1T57 28T35 66T27 107Q27 146 47 173T101 219T183 253T287 282Q287 308 287 323T282 355Q277 374 267 386T245 404T220 413T198 415Q172 415 149 409T106 393T72 374T48 358V408Q83 432 123 445T205 458Q235 458 255 451T289 433T311 410T325 389Q332 398 342 410T368 432T403 450T451 458Q469 458 490 454T533 437T572 405T603 354Q617 319 620 290T624 243H334ZM571 282Q569 299 566 317T550 356Q536 380 510 396T450 413Q403 413 370 378T334 282H571ZM287 243Q252 234 215 223T146 195T95 158T75 106Q75 75 98 54T158 32Q179 32 198 38T235 54T265 73T287 89V243ZM344 521H311L415 677H496L344 521Z"  />
<glyph unicode="&#x1FE;" horiz-adv-x="801" d="M659 591Q670 580 687 560T722 508T751 436T763 341Q763 265 734 201T656 91T541 18T402 -9Q342 -9 287 8T181 58L119 -11L81 18L146 88Q131 103 116 120T85 164Q62 205 50 249T38 340Q38 405 62 468T133 580T248 660T403 691Q448 691 483 683T546 664T591 641T622 621L686 687L723 662L659 591ZM217 98Q259 68 303 54T399 39Q469 39 525 64T622 132T683 228T705 341Q705 399 684 452T622 549L217 98ZM587 580Q578 587 563 597T526 618T473 635T403 642Q335 642 279 617T182 550T120 454T98 339Q98 302 107 264T135 190Q147 168 158 155T182 129L587 580ZM564 856L369 728H320L442 856H564Z"  />
<glyph unicode="&#x1FF;" horiz-adv-x="530" d="M434 387Q455 365 467 342T485 297T492 257T494 226Q494 173 476 130T427 56T355 8T265 -9Q237 -9 215 -4T176 7T147 21T126 35L69 -30L36 0L95 64Q89 71 79 85T60 119T44 165T37 225Q37 268 51 310T93 385T165 438T265 458Q293 458 315 453T354 442T382 428T402 415L455 474L486 449L434 387ZM372 380Q360 388 333 401T264 415Q231 415 200 404T144 369T104 310T89 226Q89 173 103 144T128 102L372 380ZM158 71Q171 62 195 50T264 37Q304 37 337 52T393 92T430 151T443 223Q443 228 442 241T438 272T426 310T402 350L158 71ZM282 521H249L353 677H434L282 521Z"  />
<glyph unicode="&#x218;" horiz-adv-x="460" d="M399 590Q358 614 323 629T245 644Q208 644 181 632T136 600T110 558T101 513Q101 480 114 458T148 420T197 394T253 373Q283 362 314 348T370 311T411 256T427 179Q427 134 410 99T364 40T300 4T229 -9Q181 -9 137 8T54 51V113Q99 81 139 61T227 41Q264 41 291 53T336 85T363 129T372 177Q372 211 358 235T322 277T277 304T232 322Q198 334 177 342T143 358T122 370T109 381Q82 404 65 437T47 511Q47 545 61 577T100 635T160 675T240 691Q282 691 322 680T399 648V590ZM122 -153Q132 -155 140 -155T161 -156Q169 -156 184 -156T215 -151T241 -138T253 -112Q253 -97 241 -89T212 -76T174 -72T138 -72L145 -36Q155 -35 163 -35T183 -35Q190 -35 210 -36T251 -44T288 -66T304 -108Q304 -123 297 -138T275 -166T233 -186T170 -194Q150 -194 139 -193T115 -189L122 -153Z"  />
<glyph unicode="&#x219;" horiz-adv-x="348" d="M303 368Q283 382 252 398T180 414Q134 414 109 390T83 338Q83 318 93 304T120 280T154 262T190 248Q205 242 227 233T268 209T302 171T316 115Q316 92 307 70T279 31T233 2T170 -9Q155 -9 119 -3T35 32V79Q58 67 94 52T175 36Q222 36 245 59T268 111Q268 132 259 146T234 171T195 192T144 213Q133 217 115 225T80 247T51 282T38 334Q38 355 47 377T74 417T119 446T183 458Q204 458 222 454T256 443T284 431T303 420V368ZM100 -138Q108 -139 114 -139T130 -140Q136 -140 147 -140T170 -135T190 -123T199 -100Q199 -87 192 -80T176 -68T155 -63T136 -62L140 -35Q180 -29 208 -46T237 -98Q237 -111 232 -124T216 -149T185 -168T138 -175Q124 -175 114 -174T95 -170L100 -138Z"  />
<glyph unicode="&#x21A;" horiz-adv-x="573" d="M569 638H314V0H260V638H4V682H569V638ZM174 -153Q184 -155 192 -155T213 -156Q221 -156 236 -156T267 -151T293 -138T305 -112Q305 -97 293 -89T264 -76T226 -72T190 -72L197 -36Q207 -35 215 -35T235 -35Q242 -35 262 -36T303 -44T340 -66T356 -108Q356 -123 349 -138T327 -166T285 -186T222 -194Q202 -194 191 -193T167 -189L174 -153Z"  />
<glyph unicode="&#x21B;" horiz-adv-x="302" d="M150 449H276V409H150V134Q150 118 150 108T151 91T154 79T159 68Q167 54 181 47T218 39Q242 39 260 45T299 60V14Q268 0 246 -4T206 -9Q177 -9 150 5T112 45Q104 62 103 80T102 134V409H-19V449H102V556L135 598H150V449ZM121 -138Q129 -139 135 -139T151 -140Q157 -140 168 -140T191 -135T211 -123T220 -100Q220 -87 213 -80T197 -68T176 -63T157 -62L161 -35Q201 -29 229 -46T258 -98Q258 -111 253 -124T237 -149T206 -168T159 -175Q145 -175 135 -174T116 -170L121 -138Z"  />
<glyph unicode="&#x2C6;" horiz-adv-x="333" d="M304 512H266L168 621L67 512H29L137 676H198L304 512Z"  />
<glyph unicode="&#x2C7;" horiz-adv-x="333" d="M137 512L29 676H67L168 565L266 676H304L198 512H137Z"  />
<glyph unicode="&#x2C9;" horiz-adv-x="333" d="M300 572H33V623H300V572Z"  />
<glyph unicode="&#x2D8;" horiz-adv-x="333" d="M71 647Q89 609 115 594T167 578Q190 578 207 586T235 605T254 627T265 647H303Q285 599 253 566T168 533Q135 533 112 546T72 577T46 615T31 647H71Z"  />
<glyph unicode="&#x2D9;" horiz-adv-x="333" d="M167 636Q184 636 197 624T210 593Q210 575 198 562T167 549Q149 549 136 562T123 593Q123 611 136 623T167 636Z"  />
<glyph unicode="&#x2DA;" horiz-adv-x="333" d="M167 679Q185 679 200 673T227 654T246 626T253 592Q253 574 247 559T228 532T201 513T167 506Q149 506 133 513T106 531T87 558T80 592Q80 610 87 626T106 654T133 672T167 679ZM167 652Q142 652 125 635T108 593Q108 569 125 552T167 534Q191 534 208 551T225 593Q225 618 208 635T167 652Z"  />
<glyph unicode="&#x2DB;" horiz-adv-x="333" d="M232 -165Q223 -167 214 -168T191 -170Q145 -170 122 -145T98 -88Q98 -27 171 10H202Q188 -4 178 -14T162 -34T152 -52T149 -72Q149 -75 150 -85T159 -105T184 -123T232 -127V-165Z"  />
<glyph unicode="&#x2DC;" horiz-adv-x="333" d="M3 548Q4 557 6 573T17 604T40 631T83 643Q103 643 122 638T179 618Q214 604 228 600T255 596Q269 596 277 601T291 613T297 629T300 643H330Q331 609 319 590T292 561T264 549T249 547Q238 547 221 551T166 569Q141 578 126 583T102 591T88 594T77 595Q57 595 47 581T35 548H3Z"  />
<glyph unicode="&#x2DD;" horiz-adv-x="333" d="M101 522H70L169 677H258L101 522ZM233 522H203L303 677H393L233 522Z"  />
<glyph unicode="&#x3A9;" horiz-adv-x="722" d="M666 44V0H420V46Q524 122 573 200T622 378Q622 438 602 486T547 569T464 622T361 641Q318 641 272 628T188 584T125 503T100 378Q100 328 112 284T148 200T211 122T301 46V0H56V44H240Q181 87 143 127T82 208T50 290T41 379Q41 449 65 506T133 605T234 668T361 691Q427 691 485 670T586 608T655 510T681 379Q681 334 672 292T641 210T580 128T481 44H666Z"  />
<glyph unicode="&#x3BC;" horiz-adv-x="513" d="M379 449H427V71Q427 42 444 42Q463 42 501 62V21Q493 16 481 11T456 2T432 -6T413 -9Q379 -9 379 37V67Q333 -9 256 -9Q176 -9 111 77V-230H62V449H111V138Q166 36 251 36Q308 36 343 73T379 200V449Z"  />
<glyph unicode="&#x3C0;" horiz-adv-x="573" d="M566 449V407H476V0H427V407H160V0H111V407Q48 407 14 389V430Q48 449 139 449H566Z"  />
<glyph unicode="&#x1E80;" horiz-adv-x="1031" d="M760 -5H744L515 569L288 -5H272L-1 682H53L279 116L507 682H524L751 116L979 682H1032L760 -5ZM596 728H547L352 856H474L596 728Z"  />
<glyph unicode="&#x1E81;" horiz-adv-x="708" d="M514 -9H491L353 356L214 -9H192L0 449H47L200 83L341 449H367L504 83L660 449H708L514 -9ZM267 677L372 521H338L186 677H267Z"  />
<glyph unicode="&#x1E82;" horiz-adv-x="1031" d="M760 -5H744L515 569L288 -5H272L-1 682H53L279 116L507 682H524L751 116L979 682H1032L760 -5ZM679 856L484 728H435L557 856H679Z"  />
<glyph unicode="&#x1E83;" horiz-adv-x="708" d="M514 -9H491L353 356L214 -9H192L0 449H47L200 83L341 449H367L504 83L660 449H708L514 -9ZM371 521H338L442 677H523L371 521Z"  />
<glyph unicode="&#x1E84;" horiz-adv-x="1031" d="M760 -5H744L515 569L288 -5H272L-1 682H53L279 116L507 682H524L751 116L979 682H1032L760 -5ZM421 841Q439 841 452 828T465 797Q465 779 452 767T421 754Q403 754 391 766T378 797Q378 815 390 828T421 841ZM610 840Q628 840 640 827T653 796Q653 779 641 766T610 753Q592 753 580 765T567 796Q567 815 580 827T610 840Z"  />
<glyph unicode="&#x1E85;" horiz-adv-x="708" d="M514 -9H491L353 356L214 -9H192L0 449H47L200 83L341 449H367L504 83L660 449H708L514 -9ZM265 636Q283 636 295 624T308 593Q308 575 296 562T265 549Q247 549 235 562T222 593Q222 611 234 623T265 636ZM444 636Q462 636 475 624T488 593Q488 575 475 562T444 549Q427 549 414 562T401 593Q401 611 414 623T444 636Z"  />
<glyph unicode="&#x1EF2;" horiz-adv-x="584" d="M317 366V0H264V366L0 682H64L291 412L519 682H584L317 366ZM342 728H293L98 856H220L342 728Z"  />
<glyph unicode="&#x1EF3;" horiz-adv-x="411" d="M81 -230H32L189 87L0 449H49L213 135L368 449H417L81 -230ZM115 677L220 521H186L34 677H115Z"  />
<glyph unicode="&#x2013;" horiz-adv-x="500" d="M506 234H-6V266H506V234Z"  />
<glyph unicode="&#x2014;" horiz-adv-x="1000" d="M1006 234H-6V266H1006V234Z"  />
<glyph unicode="&#x2018;" horiz-adv-x="177" d="M56 528Q56 538 57 557T64 598T83 642T121 682V648Q115 637 108 619T101 566H121V470H56V528Z"  />
<glyph unicode="&#x2019;" horiz-adv-x="177" d="M121 624Q121 614 120 595T113 555T94 511T56 470V504Q62 515 69 533T77 587H56V682H121V624Z"  />
<glyph unicode="&#x201A;" horiz-adv-x="177" d="M121 37Q121 27 120 8T113 -32T94 -76T56 -117V-82Q62 -71 69 -53T77 0H56V96H121V37Z"  />
<glyph unicode="&#x201C;" horiz-adv-x="396" d="M275 528Q275 538 276 557T283 598T302 642T340 682V648Q333 637 326 619T319 566H340V470H275V528ZM56 528Q56 538 57 557T64 598T83 642T121 682V648Q115 637 108 619T101 566H121V470H56V528Z"  />
<glyph unicode="&#x201D;" horiz-adv-x="396" d="M121 624Q121 614 120 595T113 555T94 511T56 470V504Q63 515 70 533T77 587H56V682H121V624ZM340 624Q340 614 339 595T332 555T313 511T274 470V504Q281 515 288 533T295 587H274V682H340V624Z"  />
<glyph unicode="&#x201E;" horiz-adv-x="396" d="M123 37Q123 27 122 8T115 -32T96 -76T58 -117V-83Q64 -72 71 -54T78 0H58V95H123V37ZM338 37Q338 27 337 8T330 -32T311 -76T273 -117V-83Q279 -72 286 -54T293 0H273V95H338V37Z"  />
<glyph unicode="&#x2020;" horiz-adv-x="490" d="M259 408L464 421V366L259 379L277 -230H211L229 379L25 366V421L229 408L211 691H277L259 408Z"  />
<glyph unicode="&#x2021;" d="M254 438L453 449V397L254 411L268 230L254 49L453 62V8L254 23L272 -230H208L227 23L26 8V62L227 49L213 230L227 411L26 397V449L227 438L208 691H272L254 438Z"  />
<glyph unicode="&#x2022;" horiz-adv-x="500" d="M250 463Q275 463 297 454T335 428T362 389T372 341Q372 315 363 293T337 255T298 229T250 219Q225 219 203 228T165 254T138 293T128 341Q128 367 138 389T164 427T203 453T250 463Z"  />
<glyph unicode="&#x2026;" horiz-adv-x="1000" d="M199 0H134V97H199V0ZM533 0H467V97H533V0ZM866 0H801V97H866V0Z"  />
<glyph unicode="&#x2030;" horiz-adv-x="1052" d="M82 -9H33L583 691H632L82 -9ZM177 648Q153 648 132 639T94 614T69 577T59 530Q59 506 68 485T94 447T131 422T177 412Q201 412 222 421T260 447T285 484T295 530Q295 555 286 576T260 614T223 639T177 648ZM505 269Q481 269 460 260T422 235T397 198T387 151Q387 127 396 106T422 68T459 43T505 33Q529 33 550 42T588 68T613 105T623 151Q623 176 614 197T588 235T551 260T505 269ZM177 691Q210 691 239 679T291 644T325 593T338 531Q338 498 326 469T291 417T240 383T177 370Q144 370 115 382T64 416T29 467T16 531Q16 564 29 593T63 644T114 678T177 691ZM505 312Q538 312 567 300T619 265T653 214T666 152Q666 119 654 90T619 38T568 4T505 -9Q472 -9 443 3T392 37T358 88T345 152Q345 185 357 214T392 265T443 299T505 312ZM875 312Q908 312 937 300T989 265T1023 214T1036 152Q1036 119 1024 90T989 38T938 4T875 -9Q842 -9 813 3T762 37T727 88T714 152Q714 185 727 214T761 265T812 299T875 312ZM875 269Q851 269 830 260T792 235T767 198T757 151Q757 127 766 106T792 68T829 43T875 33Q899 33 920 42T958 68T983 105T993 151Q993 176 984 197T958 235T921 260T875 269Z"  />
<glyph unicode="&#x2039;" horiz-adv-x="281" d="M205 7L16 231L205 455H265L77 231L265 7H205Z"  />
<glyph unicode="&#x203A;" horiz-adv-x="281" d="M76 455L265 231L76 7H16L204 231L16 455H76Z"  />
<glyph unicode="&#x2044;" horiz-adv-x="135" d="M-176 -27H-215L311 691H350L-176 -27Z"  />
<glyph unicode="&#x20AC;" horiz-adv-x="559" d="M529 54Q517 46 500 35T461 15T411 -2T351 -9Q334 -9 311 -6T261 8T208 37T158 85T116 158T90 260H16L25 308H86Q84 325 84 343T86 372H16L25 420H90Q98 476 119 525T173 611T253 669T356 691Q416 691 461 674T535 641L525 590Q483 613 444 627T358 641Q313 641 277 624T215 576T171 506T147 420H491L482 372H142Q140 353 140 338T142 308H471L462 260H147Q149 249 152 233T160 199T174 161T196 123Q205 112 218 98T251 72T296 51T353 42Q403 42 445 62T529 109V54Z"  />
<glyph unicode="&#x2113;" horiz-adv-x="464" d="M380 56Q371 45 359 33T332 11T299 -5T259 -12Q214 -12 189 15Q155 51 155 126V261L95 192Q87 199 80 205T65 220Q88 247 110 273T155 327V570Q155 651 183 689T259 728Q282 728 298 719T324 696T339 665T344 632Q344 596 336 562T313 495T278 429T235 363Q229 354 220 342T205 322V119Q205 71 223 51T266 31Q293 31 315 48T355 85Q361 77 367 71T380 56ZM296 628Q296 648 288 666T258 685Q247 685 237 680T220 662T209 625T205 566V393Q215 407 223 419Q256 472 276 524T296 628Z"  />
<glyph unicode="&#x2122;" horiz-adv-x="938" d="M409 682V639H279V283H229V639H99V682H409ZM530 682L630 363L733 682H809V283H764V639L646 283H612L500 639V283H455V682H530Z"  />
<glyph unicode="&#x2126;" horiz-adv-x="722" d="M666 44V0H420V46Q524 122 573 200T622 378Q622 438 602 486T547 569T464 622T361 641Q318 641 272 628T188 584T125 503T100 378Q100 328 112 284T148 200T211 122T301 46V0H56V44H240Q181 87 143 127T82 208T50 290T41 379Q41 449 65 506T133 605T234 668T361 691Q427 691 485 670T586 608T655 510T681 379Q681 334 672 292T641 210T580 128T481 44H666Z"  />
<glyph unicode="&#x212E;" horiz-adv-x="637" d="M162 285V89Q226 25 317 25Q390 25 440 59T527 155Q536 149 545 144T563 133Q541 100 517 73T463 27T398 -2T317 -12Q253 -12 202 11T115 75T60 169T40 285Q40 347 59 401T114 495T201 559T318 582Q384 582 436 559T524 496T579 401T601 285H162ZM475 480Q443 511 403 528T317 545Q223 545 162 481V322H475V480Z"  />
<glyph unicode="&#x2153;" horiz-adv-x="771" d="M184 332H142V687H184V332ZM130 -27H91L617 691H656L130 -27ZM481 47Q492 42 516 34T576 25Q615 25 639 44T664 97Q664 119 655 133T632 156T598 168T560 171V202Q592 202 611 209T642 227T656 248T660 266Q660 282 652 294T632 314T604 325T573 329Q541 329 520 319T484 301V335Q493 340 514 350T575 360Q633 360 667 333T701 268Q701 260 699 250T690 229T669 207T633 188Q668 177 686 155T705 98Q705 70 693 51T662 19T621 1T580 -5Q554 -5 529 -1T481 15V47Z"  />
<glyph unicode="&#x2154;" horiz-adv-x="781" d="M149 -27H110L636 691H675L149 -27ZM296 363V332H23Q33 340 51 356T91 393T135 438T174 488T203 540T215 590Q215 607 208 620T188 642T161 656T130 661Q101 661 80 649T33 616V657Q43 664 68 677T133 691Q161 691 184 682T223 659T248 627T257 589Q257 560 245 532T212 476T165 419T112 363H296ZM488 47Q499 42 523 34T583 25Q622 25 647 44T672 97Q672 119 663 133T640 156T606 168T567 171V202Q599 202 619 209T649 227T663 248T667 266Q667 282 659 294T639 314T611 325T581 329Q549 329 528 319T492 301V335Q500 340 522 350T583 360Q641 360 674 333T708 268Q708 260 706 250T697 229T677 207T641 188Q675 177 694 155T713 98Q713 70 701 51T670 19T629 1T587 -5Q534 -5 488 15V47Z"  />
<glyph unicode="&#x215B;" horiz-adv-x="771" d="M671 185Q675 182 685 176T704 160T721 134T729 98Q729 76 720 58T694 25T656 3T609 -5Q585 -5 563 3T524 24T497 56T487 96Q487 103 489 114T497 138T515 162T546 185Q514 204 505 225T496 264Q496 281 504 298T526 329T561 351T607 360Q630 360 651 353T687 332T712 301T721 264Q721 247 712 225T671 185ZM680 264Q680 279 674 291T657 311T633 324T607 328Q576 328 556 309T536 262Q536 233 558 216T609 199Q640 199 660 217T680 264ZM687 100Q687 116 680 129T661 150T635 163T607 168Q575 168 553 148T530 97Q530 65 554 47T610 28Q642 28 664 47T687 100ZM184 332H142V687H184V332ZM136 -27H97L623 691H662L136 -27Z"  />
<glyph unicode="&#x215C;" horiz-adv-x="771" d="M671 185Q675 182 685 176T704 160T721 134T729 98Q729 76 720 58T694 25T656 3T609 -5Q585 -5 563 3T524 24T497 56T487 96Q487 103 489 114T497 138T515 162T546 185Q514 204 505 225T496 264Q496 281 504 298T526 329T561 351T607 360Q630 360 651 353T687 332T712 301T721 264Q721 247 712 225T671 185ZM680 264Q680 279 674 291T657 311T633 324T607 328Q576 328 556 309T536 262Q536 233 558 216T609 199Q640 199 660 217T680 264ZM687 100Q687 116 680 129T661 150T635 163T607 168Q575 168 553 148T530 97Q530 65 554 47T610 28Q642 28 664 47T687 100ZM133 -27H94L620 691H659L133 -27ZM36 378Q47 373 71 365T131 357Q170 357 194 375T219 429Q219 451 210 465T187 488T153 500T115 503V534Q147 534 166 541T197 558T211 579T215 598Q215 614 207 626T187 646T159 657T128 661Q96 661 75 651T39 633V667Q48 672 69 681T130 691Q188 691 222 665T256 600Q256 592 254 582T245 561T224 539T188 520Q223 509 241 487T260 430Q260 402 248 383T217 351T176 333T135 327Q109 327 84 331T36 346V378Z"  />
<glyph unicode="&#x215D;" horiz-adv-x="750" d="M661 185Q665 182 674 176T694 160T711 134T718 98Q718 76 709 58T683 25T645 3T598 -5Q574 -5 552 3T514 24T487 56T477 96Q477 103 479 114T487 138T504 162T535 185Q504 204 495 225T485 264Q485 281 493 298T516 329T551 351T597 360Q620 360 640 353T676 332T701 301T710 264Q710 247 701 225T661 185ZM669 264Q669 295 646 311T596 328Q565 328 546 309T526 262Q526 233 548 216T598 199Q630 199 649 217T669 264ZM676 100Q676 116 669 129T651 150T625 163T597 168Q565 168 542 148T519 97Q519 65 544 47T599 28Q632 28 654 47T676 100ZM122 -27H83L610 691H649L122 -27ZM239 657H97V553Q114 555 140 554T196 541Q217 532 229 520T249 494T259 467T262 443Q262 420 253 399T225 362T182 337T126 327Q89 327 63 336T24 352V390Q41 381 68 370T127 358Q145 358 161 363T190 378T211 404T219 441Q219 470 206 487T177 512T144 523T120 525Q103 525 88 523T57 517V687H239V657Z"  />
<glyph unicode="&#x215E;" horiz-adv-x="750" d="M662 185Q666 182 675 176T695 160T712 134T719 98Q719 76 710 58T684 25T646 3T599 -5Q575 -5 553 3T515 24T488 56T478 96Q478 103 480 114T488 138T505 162T536 185Q505 204 496 225T486 264Q486 281 494 298T517 329T552 351T598 360Q621 360 641 353T677 332T702 301T711 264Q711 247 702 225T662 185ZM670 264Q670 295 647 311T597 328Q566 328 547 309T527 262Q527 233 549 216T599 199Q630 199 650 217T670 264ZM677 100Q677 116 670 129T652 150T626 163T598 168Q566 168 543 148T520 97Q520 65 544 47T600 28Q633 28 655 47T677 100ZM81 327L45 341L211 658H-7V691H269L81 327ZM120 -27H81L608 691H646L120 -27Z"  />
<glyph unicode="&#x2202;" horiz-adv-x="537" d="M487 505Q487 465 481 414T461 306Q448 253 426 198T372 96T296 20T197 -10Q128 -10 87 37T45 166Q45 235 66 296T122 402T204 474T301 501Q352 501 383 478T429 426H431Q433 443 435 462T437 505Q437 598 401 640T302 682Q282 682 259 676T215 657Q211 667 208 677T199 696Q216 707 247 716T307 725Q391 725 439 671T487 505ZM422 365Q411 406 381 432T299 458Q258 458 221 434T156 370T112 276T95 165Q95 102 124 68T200 33Q275 33 333 120T422 365Z"  />
<glyph unicode="&#x2206;" horiz-adv-x="662" d="M315 687H347L659 0H3L315 687ZM331 600L79 45H583L331 600Z"  />
<glyph unicode="&#x220F;" horiz-adv-x="667" d="M532 -230V656H136V-230H86V700H582V-230H532Z"  />
<glyph unicode="&#x2211;" horiz-adv-x="589" d="M23 -230V-211Q105 -98 186 14T351 239Q275 348 200 457T48 675V700H535V657H117Q189 551 261 448T406 240Q328 133 251 27T96 -187H561V-230H23Z"  />
<glyph unicode="&#x2212;" horiz-adv-x="660" d="M68 364H592V318H68V364Z"  />
<glyph unicode="&#x2215;" horiz-adv-x="135" d="M-176 -27H-215L311 691H350L-176 -27Z"  />
<glyph unicode="&#x2219;" horiz-adv-x="281" d="M141 399Q163 399 178 384T194 345Q194 322 178 307T141 292Q118 292 103 307T87 345Q87 367 102 383T141 399Z"  />
<glyph unicode="&#x221A;" horiz-adv-x="461" d="M473 728Q425 542 380 358T286 -12H244Q209 79 176 168T108 347Q95 340 83 334T56 319Q51 328 47 337T38 356Q63 369 87 381T136 407Q168 322 199 239T263 71Q305 236 345 399T427 728H473H473Z"  />
<glyph unicode="&#x221E;" horiz-adv-x="723" d="M669 294Q669 263 659 236T631 189T586 157T528 145Q498 145 473 154T427 178T390 212T361 252H359Q332 209 291 177T200 145Q165 145 138 156T92 186T63 232T53 289Q53 353 90 395T196 438Q228 438 253 428T299 402T335 368T360 332H362Q373 349 388 368T424 402T469 428T523 438Q554 438 581 428T627 399T658 354T669 294ZM620 293Q620 335 596 365T523 395Q478 395 445 367T383 292Q412 241 448 215T522 188Q572 188 596 219T620 293ZM339 292Q314 336 276 365T199 395Q173 395 155 387T125 364T108 330T102 289Q102 243 129 216T199 188Q221 188 241 196T278 219T311 252T339 292Z"  />
<glyph unicode="&#x222B;" horiz-adv-x="462" d="M382 696Q376 699 364 702T339 705Q297 705 277 678T256 603V-74Q256 -143 220 -181T124 -219Q110 -219 93 -217T67 -209Q70 -199 73 -189T79 -168Q88 -171 98 -173T122 -176Q164 -176 185 -150T206 -75V604Q206 671 241 709T339 748Q355 748 371 745T394 737Q391 727 388 717T382 696Z"  />
<glyph unicode="&#x2248;" horiz-adv-x="660" d="M560 420Q538 388 507 364T429 339Q400 339 373 349T323 373Q302 386 279 396T230 407Q202 407 177 389T133 341L101 373Q124 405 153 429T231 453Q262 453 289 444T337 420Q361 405 383 395T430 385Q458 385 483 403T528 451L560 420ZM560 212Q538 181 507 157T429 132Q400 132 373 142T323 166Q302 179 279 189T230 200Q202 200 177 182T133 133L101 166Q124 198 153 222T231 246Q262 246 289 236T337 212Q361 197 383 188T430 178Q458 178 483 196T528 244L560 212Z"  />
<glyph unicode="&#x2260;" horiz-adv-x="660" d="M289 165L221 23H173L242 165H113V211H265L343 373H113V419H365L433 561H481L412 419H548V373H390L312 211H548V165H289Z"  />
<glyph unicode="&#x2264;" horiz-adv-x="660" d="M113 0V46H548V0H113ZM113 336V358L548 564V512L195 348V346L548 181V129L113 336Z"  />
<glyph unicode="&#x2265;" horiz-adv-x="660" d="M113 0V46H548V0H113ZM113 129V181L466 345V347L113 512V564L548 358V336L113 129Z"  />
<glyph unicode="&#x25CA;" horiz-adv-x="516" d="M459 350Q412 262 366 175T272 0H242Q195 88 149 174T55 349Q102 437 148 524T242 700H272Q319 612 365 525T459 350ZM410 350Q372 422 334 492T257 635L104 350Q142 278 180 208T256 65Q294 137 332 207T410 350Z"  />
<glyph unicode="&#xFB00;" horiz-adv-x="537" d="M478 409H405V0H357V409H136V0H88V409H11V449H88V506Q88 511 88 523T91 551T97 584T110 617Q129 655 168 673T249 691Q269 691 289 687T328 671V627Q313 632 290 639T241 647Q229 647 216 643T190 633T167 617T151 595Q140 572 138 551T136 506V449H357V506Q357 512 357 525T360 554T368 587T382 621Q400 653 438 672T519 691Q540 691 553 688T577 682V635Q554 640 540 642T511 645Q491 645 464 634T422 598Q409 576 407 552T405 506V449H478V409Z"  />
<glyph unicode="&#xFB01;" d="M235 411H142V0H94V411H12V449H94V505Q94 525 97 553T113 609Q125 637 145 653T187 678T226 689T255 691Q284 691 311 685T359 663T393 624T409 565H361Q359 576 355 591T341 619T311 641T259 650Q231 650 210 643T173 620T150 575T142 505V449H235V411ZM409 0H361V449H409V0Z"  />
<glyph unicode="&#xFB02;" d="M237 412H144V0H96V412H13V449H96V505Q96 534 98 561T116 618Q134 653 169 672T246 691Q272 691 287 686T314 676V629Q297 634 279 639T240 644Q214 644 189 630T155 591Q148 571 146 549T144 505V449H237V412ZM409 0H361V682H409V0Z"  />
<glyph unicode="&#xFB03;" horiz-adv-x="750" d="M508 412H415V0H367V412H145V0H97V412H13V449H97V505Q97 546 101 572T120 622Q133 644 150 657T186 678T223 688T257 691Q290 691 313 684T353 667T380 647T395 630Q401 637 410 647T435 667T474 684T530 691Q550 691 575 687T624 669T664 631T682 566H634Q631 578 627 593T612 621T582 643T531 652Q496 652 474 643T438 615T420 569T415 505V449H508V412ZM367 449V505Q367 533 368 547T374 580Q371 587 364 599T344 624T310 644T258 653Q216 653 193 636T160 594T147 545T145 505V449H367ZM682 0H634V449H682V0Z"  />
<glyph unicode="&#xFB04;" horiz-adv-x="750" d="M507 412H414V0H365V412H144V0H96V412H12V449H96V505Q96 543 98 565T112 610Q125 637 143 653T180 677T220 688T256 691Q283 691 302 687T338 674T367 654T395 630Q443 691 519 691Q544 691 558 686T584 676V630Q569 635 552 639T514 644Q488 644 462 629T427 588Q422 575 418 555T414 505V449H507V412ZM365 449V505Q365 522 367 544T371 581Q366 589 359 601T338 625T304 645T256 653Q249 653 236 652T208 644T179 627T156 596Q149 581 147 562T144 505V449H365ZM681 0H633V682H681V0Z"  />

</font>
</defs>
</svg>
