<svg xmlns="http://www.w3.org/2000/svg" viewBox="0 0 554.04 72.16"><defs><style>.cls-1{fill:#0e1131;fill-rule:evenodd;}</style></defs><title>zoffany-logo</title><g id="Layer_2" data-name="Layer 2"><g id="Layer_1-2" data-name="Layer 1"><path class="cls-1" d="M554,1a4,4,0,0,1-.76.88c-4.36,2.25-4.8,2.83-5.85,3.28a7.41,7.41,0,0,1-.28,1.6C538,18.21,538,18.21,534,23.78c-.58,1.18-1.17,2.34-1.89,3.66-.89,1.17-1.78,2.5-2.82,3.82a5.83,5.83,0,0,1-1.53-.12,4,4,0,0,0-.78-.85,3.4,3.4,0,0,0-.17-1.31c1-1.46,2.07-2.93,3.26-4.4.28-.73.57-1.46.85-2.18,3-4.41,7-9.24,9.49-13.35.11-1.74.41-2,.38-3.49a3,3,0,0,1-.47-.71c-1.68-.41-3.35-.81-5.18-1.22a5.77,5.77,0,0,1-.93-1,5.18,5.18,0,0,1,.28-1.45A1.72,1.72,0,0,1,535,.74c7-.12,7.75.14,13.82,0,2.56-.48,2.56-.48,2.87-.78A11.54,11.54,0,0,1,554,.12c0,.29,0,.59,0,.87"/><path class="cls-1" d="M533.45,71.13c-.15.15-.32.3-.6.59a6.62,6.62,0,0,0-1.66.17,10.14,10.14,0,0,1-1.54-.55c-4.71-.06-9.55-.49-14.41-.56-1.8,0-3.65.22-5.46.39a20.13,20.13,0,0,0-2.12.77c-.91,0-1.81,0-2.72.06a19.78,19.78,0,0,0-2-1.28c.16-.14.46-.45.75-.74,1.52-.17,4.54-2.14,6-2.31a8.44,8.44,0,0,0,2.67-2.51c.29-1,.6-2,.86-3.05.09-3,.19-6.23.28-9.41-.2-2.47-.55-4.93-.9-7.53a11,11,0,0,1,.25-2.17c-.35-1.89-.69-3.91-1.17-5.93-4.23-7.46-4.23-7.46-9.87-16-.31-.29-.61-.72-1.09-1.14-.63-1.3-1.25-2.73-2-4.17-1.71-2.15-3.42-4.28-5.29-6.56-.79-1.43-1.56-3-2.52-4.61-.63-.56-1.4-1.13-2.16-1.69-1.83-.11-3.65-.37-5.64-.62a3.66,3.66,0,0,0-.78-.86c.3-.29.74-.73,1.19-1.18l4.86-.09a28.71,28.71,0,0,1,3.05.54c5.46-.11,11.07-.19,16.69-.3a2.63,2.63,0,0,1,.47.71,3.81,3.81,0,0,0-.44.73l-2.27.92c-.29.43-.73.88-1.19,1.46a10.48,10.48,0,0,1-.12,2.31c.64,1.45,1.28,2.88,2.06,4.32a7.5,7.5,0,0,1,2,3.13l1.4.86c.79,2.15,1.61,4.46,2.55,6.76.63,1,1.42,2.16,2.19,3.3.63,1.44,1.27,3,2.05,4.6.64.86,1.26,1.86,2,2.86.77.71,1.69,1.42,2.62,2.13,1.23.42,2.6.82,4,1.23.19.86.35,1.74.66,2.75.07,2.75.12,5.49.16,8.26-.42,1.88-.42,1.88-.32,6.81a9.67,9.67,0,0,1-.57,1.16c.07,4.64.07,4.64.38,5.07l.55,4.78c.47.85,1,1.71,1.57,2.72a32.13,32.13,0,0,1,3.22,1.54c.46,0,.9.6,1.52.73a1.94,1.94,0,0,1,.76,1.66"/><path class="cls-1" d="M470.4,2.45a11.6,11.6,0,0,0-1,.6l-7.27,1-1.49,1.48c-.73,1.61-1.46,3.2-2.34,5,0,1.6.05,3.19-.07,4.78l-1.52,0c-.15-.42-.31-.87-.48-1.44a15.69,15.69,0,0,1,.26-2.47c-.17-1.6-.52-3.32-.86-5.06a8.2,8.2,0,0,0-2.77-2.12c-3.5-.23-3.5-.23-5-.78-.16-.29-.33-.59-.47-.86a3.35,3.35,0,0,1,1.94-2c2.87-.05,3.65.22,9.72.12.76-.3.76-.3,8.34-.43a4.55,4.55,0,0,1,3.06,1.45c0,.14,0,.42,0,.72"/><path class="cls-1" d="M459.55,30.74c-.13,1-.27,2-.39,3,.07,4.06.3,8.11.53,12.31,0,5.65-.08,11.31-.27,17a19.4,19.4,0,0,0,.36,3.17,41.38,41.38,0,0,1-1,4.37c-.13.16-.3,1-.59,1.35a6.1,6.1,0,0,0-1.67,0c-6.8-6.69-6.8-7.18-11.43-11.16-4-4.42-8.22-9-12.41-13.54-.77-.56-1.55-1.28-2.47-2-6.21-6.85-7.59-7.84-9.6-10.12-.65-1.15-1.26-2.3-2-3.59-2-2.28-4-4.71-6.2-7.13-1.4-1.15-2.77-2.28-4.17-3.4-2.59-.68-2.59-.68-3-.52a9.34,9.34,0,0,0-1.92,3.34c-.11,2.62-.21,5.23-.3,8,.06,3.17.28,6.36.49,9.69-.53,11.89-.53,11.89-.29,17.11.36,2.45.71,4.92,1.21,7.51a6.69,6.69,0,0,0,2.17,2.56L412,70.39c0,.28-.18,1.35.17,1-1.22,1.16-13.24.54-22.77.24-1.29,0-1.22-.42-1.84-1,0-.72,0-.72.59-1.3a31.49,31.49,0,0,1,4,.07c.3-.29,1.81-.46,4.52-1.68a8.37,8.37,0,0,0,1.34-1,11.91,11.91,0,0,1,.73-2.18c.26-2.47.52-5.08.92-7.7.47-14.78.47-14.78.36-21.3a15.91,15.91,0,0,0-.36-2.6c.11-2,.23-4.06.48-6.1-.54-12.31-.54-12.31-1.05-15.2-2.22-5-2.22-5-3.15-6.46-.61-.43-1.38-.84-2.16-1.41-2.12-.53-2.12-.53-5.61-.62a5.83,5.83,0,0,0-.79-1.3c.29-.3.59-.74,1-1.18,2.4,0,3,.24,6.52.33.46.28.46.28,3.49.23,1.35-.31,2.72-.63,4.09-1.08a17.25,17.25,0,0,1,2.58.25l5.09,3.83,6.18,5.67a34.6,34.6,0,0,0,2,3c1.41,1.43,2.95,2.86,4.49,4.28,2.65,3.28,5.44,6.71,8.24,10.13,1.71,1.72,3.56,3.41,5.41,5.13.63,1.15,1.26,2.3,2,3.58,3.1,3.57,6.36,7.13,9.62,10.7.76.28,1.67.56,2.59,1,.92,0,1.83,0,2.74-.05a8.57,8.57,0,0,0,2.38-2.37c.08-3.76.32-7.68.54-11.59,0-2-.23-4-.42-6.08.13-1.3.26-2.61.39-4.06.28-.3.59-.59.88-.88,1.07,0,1.07,0,1.54.41.5,2.32.5,2.32.75,7.67"/><path class="cls-1" d="M375.51,70.47a1.43,1.43,0,0,1-.82,1.6c-10.18,0-10.47,0-23,0-1.55,0-1.4-.06-7,0-1.52-.55-1.64-.18-2.11-.75,1.21-.6,1.21-.6,9.37-2.63a10.42,10.42,0,0,1,1.19-1.32c.13-1.31.25-2.76.53-4.21-1.13-3.31-2.42-6.62-3.69-10.07-.33-.44-.77-.87-1.24-1.45-2-1.27-4.15-2.53-6.3-3.8-1.67-.1-3.51-.36-5.33-.62l-7.59.12a7.66,7.66,0,0,1-.93-1.15c0-.44,0-.86,0-1.45.76-.44.76-.44,6.36-1.12,2,0,3.95-.07,5.92,0,.76-.31,1.51-.61,2.27-.9a14.12,14.12,0,0,0,.88-1.47,2.14,2.14,0,0,0-.32-.85c.26-1.75.68-3.5,1.1-5.38-.65-2.61-1.32-5.19-2.11-7.93-1-1.58-2.05-3.3-3.15-5a44.62,44.62,0,0,0-1.59-4.31c-.93-.72-1.86-1.57-2.79-2.41a10.27,10.27,0,0,0-2,.16c-.29.17-.74.46-1.19.75-2.06,3.66-2.06,3.66-2.8,4.39-1.73,5.55-1.73,5.55-5.65,15-.41,2.32-.41,2.32-.19,5.8a8.14,8.14,0,0,0,.63,1.14,32.08,32.08,0,0,1-.7,3.35c-.74.59-.74.59-4.2,1.81-.57,2-1.16,4.07-1.72,6.12-.3.58-.59,1.16-1,1.9-.13.86-.26,1.88-.39,2.9C315,60.8,314,62.84,313,65a10.35,10.35,0,0,0,.2,2.17c2.18,2.87,2.18,2.87,3.1,3.42a8.08,8.08,0,0,1,1.53.26l.92.86a15.26,15.26,0,0,0-2.15.34c-6.08-.33-5.93.16-6.39-.12-8.66.16-8.24.09-9.45.12-.31-.15-1.3-.15-1.75-.29,0-.28,0-.59,0-1,1.21-.46,2.42-.91,3.62-1.5,2.09-1.34,4.19-2.83,6.45-4.3.71-1.77,1.6-3.52,2.48-5.42.85-2.91,1.7-6,2.72-9,1-2.05,2.17-4.1,3.36-6.29.14-1,.27-2,.4-3.19.87-1.9,1.74-3.95,2.76-6a13.48,13.48,0,0,1,.11-2.46c3.94-8.33,3.94-8.33,5-9.79.28-1.17.56-2.33.83-3.64,1.31-2.63,2.64-5.25,4-8,4-6.29,4-6.29,6.35-9.22.75-.6,1.64-1.18,2.56-1.79.29.28.77.57,1.22,1,.63,1.3,1.42,2.59,2.2,3.87,1.29,3.46,2.72,6.91,4.15,10.52.61,1,1.41,2.15,2.18,3.29.82,2.3,1.61,4.59,2.56,7l3.76,6.46c2.67,12,2.67,12,4.29,17.75.95,2,2.06,4,3.16,6.17a54.2,54.2,0,0,0,3.23,10,20,20,0,0,0,4.75,2.67c1.36.27,2.89.53,4.42.94,0,.14,0,.43,0,.72"/><path class="cls-1" d="M299,15.56c-.14.29-.14.29-2,.17-4.12-8.77-4.12-8.77-5.06-10-1.07-.57-2.15-1.14-3.36-1.84a15.8,15.8,0,0,0-5.18-.48c-.44.29-.44.29-4.84.37a4.59,4.59,0,0,1-2.33-1.84,3.18,3.18,0,0,1,.59-.88c.46-.16,1.07-.46,1.67-.75A43.07,43.07,0,0,1,283,.76c9.1-.45,9.1-.45,10.6-.76.77.41,1.7.84,2.61,1.4.7,4.75,1.85,9.09,2.7,14.15"/><path class="cls-1" d="M286.33,23c-.83,4.53-.83,4.53-1.39,6,.06,3.32.13,6.66.19,10.13a7.74,7.74,0,0,0,.62,1c0,1.31.07,2.6.08,3.9-.28.74-.58,1.62-.87,2.48l-1.07,0c-.49-2.45-1-4.91-1.5-7.51-.77-.56-1.55-1.28-2.46-2l-4.59-1.24-5.45.1a46.21,46.21,0,0,0-4.54,1.1c-.74.59-1.65,1.32-2.54,2.06-.88,1-1.78,2.2-2.66,3.38-.27,2.32-.52,4.65-.78,7.12.08,4.35.16,8.7.4,13.17a20.24,20.24,0,0,0,.66,2.74c.92.57,1.84,1.13,2.77,1.84a45.3,45.3,0,0,0,8.05.3l2.3.84a4.21,4.21,0,0,0,.76.85A5.9,5.9,0,0,1,274,71c-.6.3-1.2.59-1.79.9-1.54,0-1.68-.27-6.55-.62-12.91-.06-13.24-.35-29.18-.22a3.34,3.34,0,0,1,.15-1.16c.29-.15.59-.45,1-.75,2.14,0,4.25-.21,6.37-.39a15.16,15.16,0,0,0,2.26-1.06c.59-.74,1.33-1.47,2.09-2.35.08-2.9.2-6,.44-9a12.59,12.59,0,0,0-.63-1.58c-.06-3.2-.12-6.37-.34-9.7.37-4.49.73-9,1.27-13.49-.39-3.9-.13-6.38-.45-7.24.12-1.16.26-2.32.39-3.63-.39-4.91-.8-10-1.19-15-.93-.56-1.86-1.12-2.93-1.83-1.68-.12-3.35-.24-5.18-.49-.92-.55-.92-.55-1.25-1.14.31-.42.48-1.36.93-1.8C245.55-.1,245.64.29,251.1.2c1.06.28,9.15-.61,18.26.24.47.59,0,1.58-.12,2a15.48,15.48,0,0,0-2.57.18c-.75.45-1.65.9-2.55,1.36a11.86,11.86,0,0,0-2.38,3.52c.09,5.51.21,11,.17,16.66l1,6.2c.3.29.62.73,1.08,1.14,2.28.4,4.55.79,7,1.33l4.56-.09c.9-.3,2-.61,3-1.06a25,25,0,0,0,2.23-1.93c.59-1,1.18-2,1.92-3.08.82-4.64.82-4.64,1.27-5.37a5.93,5.93,0,0,0,1.52-.17c.93,1.58.93,1.58.78,1.86"/><path class="cls-1" d="M226.55,15.86c-.41,2.9-.41,2.9-.85,3.33a34.52,34.52,0,0,1-4.21-6.56c-2.17-2.41-4.18-5.55-6.2-7.68-2.91-1.68-2.91-1.68-4.27-2.09-3.47.06-7,0-10.59-.12-.62-.41-.62-.41-.93-1.28A15.62,15.62,0,0,0,201.74.27l6.52-.11a32.7,32.7,0,0,1,3.48.53l8.62-.16,1.83.84a17.28,17.28,0,0,0,1.54,1.71A36.38,36.38,0,0,0,224.86,7q.28,2.78.55,5.6c.63.85.63.85,1.14,3.3"/><path class="cls-1" d="M213.11,25c-.43,1.45-.38,4-.91,7.67.23,4,.45,8.07.83,12.25-.6.73-1.17,1.61-1.76,2.48l-.76-.71c-.2-1.57-.38-3.3-.57-5-.61-.86-1.39-1.86-2.15-2.85-.92-.56-1.85-1.12-2.91-1.82-2.13,0-4.24.07-6.5,0-1.67-.11-3.5-.37-5.32-.63-1,.31-2.11.61-3.31.93-.58.88-1.33,1.76-2.06,2.78-.68,3.33-1.39,6.66-2.09,10,.33.86.33.86.61,15.57a14.8,14.8,0,0,1,.92,1.58c3.8.94,3.8.94,6.08,1,.91.42,2,.83,3,1.25a20.07,20.07,0,0,0,2,1.68,7.67,7.67,0,0,1-1.19.89c-9.07.15-9.82-.13-13.92-.05-1,.31-2,0-16.18.13-1.67-.54-1.67-.54-2.28-1.11l1.34-.88a22.59,22.59,0,0,0,3.17-.21A19.18,19.18,0,0,0,174,67.84c.31-.43.6-1,1-1.61.07-3.9.17-7.79.39-11.68-.21-2.46-.4-4.91-.74-7.49-.06-2.45.05-5,.15-7.64a32.09,32.09,0,0,1,.7-3.2,15.93,15.93,0,0,0-.35-2.59l.42-1c-.16-.44-.32-.87-.48-1.44.25-2.46.25-2.46.13-10.1-1.28-10.8-1.28-10.8-1.35-14.11a5.91,5.91,0,0,0-2.31-2.41c-2.58-.82-2.58-.82-7.43-1.6A5.14,5.14,0,0,0,164,1.5c2.4-.62,3.66-1.72,4-1.43,8.76,0,16.1,0,25,0a11.47,11.47,0,0,0,.48,1.65,6.37,6.37,0,0,1-3.3.92,11.79,11.79,0,0,0-1.8,1C187.62,4.85,186.88,6,186,7.19c-.11,2.45-.22,4.9-.31,7.5.38,4.33.92,8.64,1.44,13,.32.86.65,1.87,1.13,2.87.29.41.76.84,1.24,1.42a32.52,32.52,0,0,0,6.21.89,18.64,18.64,0,0,1,2.12.55c1.82-.18,3.63-.5,5.44-.82,4.49-2.1,4.49-2.1,6.29-3.27.29-.44.59-1,1-1.61.12-1.59.38-3.18.66-4.77.16-.14.29-.44.59-.74.77.42.77.42,1.24,1.42,0,.43,0,.86,0,1.45"/><path class="cls-1" d="M153.33,34.83c-.25,1.93-.49,4-.9,6.08s-1.08,3.88-1.76,6c-2.79,5.84-3.36,6.26-4.19,8.34-1.13,1.27-2.26,2.51-3.55,3.79-.56.29-1.14.57-1.85,1-3.7,3-7.55,5.92-11.4,9-3.59,1.17-3.73,1.44-5.16,1.6-.29.3-.29.3-7.93,1.39l-3.46.06c-1.6-.67-1.6-.67-5.08-1.29-1.46-.52-2.92-1.19-4.53-1.85-3.95-2.28-7.89-4.7-12-7.1-2.51-3-5.17-6-7.82-9.11-1.65-3-3.3-6-5-9.15-.3-1.11-.61-2.2-1.08-3.43,0-1.92-.06-4-.25-6.07.79-3.6,1.36-4.56,3.13-10.39,1.82-3.49,3.78-6.42,4.61-8.36,2.69-2.53,5.4-5.06,8.1-7.73,3.28-2,7.58-3.85,10.88-5.68a14.34,14.34,0,0,1,4.61-.65c.45.27.89.68,1.48,1.08-.29.28-.58.7-1,1.13a37.91,37.91,0,0,0-3.91.62,19.85,19.85,0,0,0-1.85,1l-4.67,5c-1.53,3.06-3.07,6.11-4.75,9.19-1.58,7.48-1.58,7.48-2.14,8.85-.18,5.25-.52,10.64-.86,16,.17,1.1.33,2.2.5,3.43,2.11,4.38,3,7.39,4.08,9.58.6.82,1.2,1.63,1.93,2.59,1.91,1.48,3.83,3.1,5.88,4.73,1.75.66,3.5,1.45,5.25,2.25,1.45.24,3,.5,4.64.89l7.67-.13c2-.59,4-1.31,6-2,1.28-.71,2.57-1.42,3.85-2.28,1.82-2.79,3.65-5.72,5.62-8.65.83-1.81,1.81-3.62,2.78-5.56.39-1.67.8-3.34,1.21-5,0-1.38-.06-2.76-.08-4.13.25-1.81.65-3.74,1-5.67-.18-2.2-.36-4.41-.57-6.76-1.38-4.52-2.76-9.18-4.15-13.85-.6-1.36-1.21-2.75-2-4.1l-2.21-2C130.24,6,127.89,4.52,125.41,3l-3.49-.77-2.59,0a10.3,10.3,0,0,1-1.45-.52L117.42,1l.71-.7c5.79.31,5.95.59,7.68.7,5,2.39,9.93,4.79,14.88,7.32a20.68,20.68,0,0,0,4.13,4.34c1.33,1.77,2.66,3.56,4,5.33.92,1.91,1.81,3.82,2.86,5.87.48,2.48,1,5,1.58,7.56,0,1.09,0,2.21.07,3.44"/><path class="cls-1" d="M66.51,54.7c-3.83,6.31-4.87,7.48-5.29,8.79,0,1.31.06,2.61.07,4.06-.43,1-.86,2-1.45,3.21a8.15,8.15,0,0,1-1.19.89L39.51,72c-.46-.43-.46-.43-.82-2.6a9.79,9.79,0,0,1,1.21-.89,41.14,41.14,0,0,0,4.25-.21c2.73-.77,5.43-1.69,8.15-2.6a107.76,107.76,0,0,0,8.29-10.73,26.55,26.55,0,0,0,2.24-2.06A10.93,10.93,0,0,0,65,52.71c1.72,1.71,1.72,1.71,1.56,2"/><path class="cls-1" d="M62.52,4.07c-.3.59-.59,1.17-1,1.9A28.55,28.55,0,0,0,58.81,7.9c-.91,1.32-2.69,3-6.52,8.36l-3.9,3.41c-1.92,2.92-3,4-3.84,5.86-2.23,2.93-3.68,5.85-5.91,8.79-1.31,2.63-2.62,5.27-3.93,8C32.2,46,32.2,46,28.36,52.91c-2.21,3.07-4.59,6.16-7,9.24a15.62,15.62,0,0,1-1,2.19c0,.42,0,.87,0,1.44.46.42.46.42,5,1.37a26,26,0,0,1,3.34.09,6.12,6.12,0,0,1,2.48,2.28c-.43,1.31-.43,1.31-1.18,1.9-2.27.18-2.27.18-10.94-.38-18.66,1-18.66,1-19.12.75,0-.29,0-.57,0-1,1.35-1.46,2.68-3.08,4-4.69C12.16,54.63,12.16,54.63,20,42.47c1.32-2.34,2.65-4.68,4-7.17,4.88-7,9.75-14.23,14.78-21.41.42-1.44.85-3.06,1.43-4.66a3.57,3.57,0,0,0-.32-1c-1.22-.57-2.46-1.12-3.68-1.67-1.37-.29-2.74-.55-4.27-1L19,5.4,14.9,7.65c-3.42,2.8-3.42,2.8-9.1,8.56-1.06.3-1.06.3-1.37,0A40.09,40.09,0,0,1,7.18,8.78c2.08-2.63,3-4.39,5-6.75A19.13,19.13,0,0,0,14.47.56c3.18-.2,3.18-.2,3.34.08,7.15.75,7.15.75,10.48.7a15.1,15.1,0,0,1,2,.54c22.32-.38,23.21-.68,28.85-.79a7,7,0,0,1,3.36,1.4c0,.42,0,1,0,1.58"/></g></g></svg>