<svg xmlns="http://www.w3.org/2000/svg" viewBox="0 0 66.57 71.56"><defs><style>.cls-1{fill:#adacaa;fill-rule:evenodd;}</style></defs><title>zoffany-z</title><g id="Layer_2" data-name="Layer 2"><g id="Layer_1-2" data-name="Layer 1"><path class="cls-1" d="M66.51,54.28c-3.83,6.31-4.87,7.48-5.29,8.79,0,1.31.06,2.61.07,4.06-.43,1-.86,2-1.45,3.21a8.15,8.15,0,0,1-1.19.89l-19.12.33c-.46-.43-.46-.43-.82-2.6a9.79,9.79,0,0,1,1.21-.89,41.14,41.14,0,0,0,4.25-.21c2.73-.77,5.43-1.69,8.15-2.6a107.76,107.76,0,0,0,8.29-10.73,26.55,26.55,0,0,0,2.24-2.06A10.93,10.93,0,0,0,65,52.29c1.72,1.71,1.72,1.71,1.56,2"/><path class="cls-1" d="M62.52,3.66c-.3.59-.59,1.17-1,1.9a28.55,28.55,0,0,0-2.69,1.93c-.91,1.32-2.69,3-6.52,8.36l-3.9,3.41c-1.92,2.92-3,4-3.84,5.86-2.23,2.93-3.68,5.85-5.91,8.79-1.31,2.63-2.62,5.27-3.93,8C32.2,45.6,32.2,45.6,28.36,52.49c-2.21,3.07-4.59,6.16-7,9.24a15.62,15.62,0,0,1-1,2.19c0,.42,0,.87,0,1.44.46.42.46.42,5,1.37a26,26,0,0,1,3.34.09,6.12,6.12,0,0,1,2.48,2.28c-.43,1.31-.43,1.31-1.18,1.9-2.27.18-2.27.18-10.94-.38-18.66,1-18.66,1-19.12.75,0-.29,0-.57,0-1,1.35-1.46,2.68-3.08,4-4.69C12.16,54.21,12.16,54.21,20,42.05c1.32-2.34,2.65-4.68,4-7.17,4.88-7,9.75-14.23,14.78-21.41.42-1.44.85-3.06,1.43-4.66a3.57,3.57,0,0,0-.32-1c-1.22-.57-2.46-1.12-3.68-1.67-1.37-.29-2.74-.55-4.27-1L19,5,14.9,7.23C11.48,10,11.48,10,5.8,15.79c-1.06.3-1.06.3-1.37,0A40.09,40.09,0,0,1,7.18,8.37c2.08-2.63,3-4.39,5-6.75A19.13,19.13,0,0,0,14.47.14c3.18-.2,3.18-.2,3.34.08C25,1,25,1,28.29.92a15.1,15.1,0,0,1,2,.54C52.6,1.08,53.49.78,59.13.67a7,7,0,0,1,3.36,1.4c0,.42,0,1,0,1.58"/></g></g></svg>