<svg xmlns="http://www.w3.org/2000/svg" viewBox="0 0 291.06 34.55"><defs><style>.cls-1{fill:#7e7f7f;}</style></defs><title>harlequin-logo</title><g id="Layer_2" data-name="Layer 2"><g id="Layer_1-2" data-name="Layer 1"><path class="cls-1" d="M25,15.33c0-.73-.32-.82-1.41-.82h-16c-1,0-1.28.14-1.28.82v8.9c0,1.73.27,2.87,2.05,3.38.5.14.87,0,.87.41,0,.23-.09.27-.27.27A30.7,30.7,0,0,0,4.33,28c-2.24,0-3.56.23-3.92.23H.23A.3.3,0,0,1,0,27.92c0-.55,1.28-.23,2.19-.91q1.1-.82,1.1-13.27c0-.82,0-3.47,0-7.94V5.2c0-2.14,0-3.19-1-3.83s-2-.28-2-.82C.41.41.55.27.82.27S3.1.5,6.48.5C8.17.5,9.08.36,9.31.36s.37.09.37.32c0,.5-1.64.23-2.51,1A2.88,2.88,0,0,0,6.48,3.6C6.3,5.52,6.2,7.53,6.2,9.31c0,1,0,1.87.09,2.65v.36c0,.64.09.82,1.51.82H23.49c1,0,1.46-.09,1.46-1V4.47c0-1.87-.23-2.78-1.32-3.29C22.72.77,22.08.91,22.08.64s.09-.41.23-.41a39,39,0,0,0,4,.32c2,0,3.38-.27,4.06-.27.23,0,.32.09.32.27,0,.59-1.09.27-1.92,1.28s-.87,5.57-.87,14v4.79c0,3.83.09,5.75,1,6.52s1.78.32,1.78.87c0,.23-.09.27-.32.27a31.2,31.2,0,0,0-3.79-.32c-2.14,0-3.6.32-4.24.32-.32,0-.41,0-.41-.32,0-.59,1-.23,1.92-1s1.19-3,1.19-7.21c0-1.23,0-2.6-.09-4.15l0-.27"/><path class="cls-1" d="M55,18.8c-.18-.5-.5-.5-.91-.5H45.35c-.5,0-.78,0-1,.64l-2,5.38a4.76,4.76,0,0,0-.27,1.41c0,2.05,3.33,1.64,3.33,2.33,0,.14-.14.27-.46.27s-.55,0-.78,0c-.59,0-1.73-.27-3.42-.27-1.41,0-2.46.23-3,.23a.24.24,0,0,1-.23-.23c0-.37.55-.27,1.37-.82,1.41-.91,2.87-4.79,5.66-11.77C48.77,4.79,50,.23,50.46.23s.46.87,1,2.51c2.28,6.29,5,13,8,20.26,1,2.42,1.6,3.65,3,4.2.68.27,1,.18,1,.46s-.09.27-.36.27-1.32-.14-3.19-.14-3.19.32-3.88.32h-.32c-.27,0-.41,0-.41-.23,0-.64,2.1-.18,2.1-1.82a3.65,3.65,0,0,0-.23-1L55,18.8M49.59,6c-.14,0-.27.09-.37.32L45.3,16.51a2,2,0,0,0-.14.46c0,.32,0,.32.46.32H54c.18,0,.23-.09.23-.27a1,1,0,0,0-.14-.5L49.91,6.43c-.14-.27-.18-.46-.32-.46"/><path class="cls-1" d="M95.12,27.42c2.19,1.37,3.1.91,3.1,1.46,0,.18-.09.32-.37.32H96.76c-4.93,0-9.9-4.79-15.47-14.37h-.64a28.1,28.1,0,0,1-4.06-.32c0,1,0,1.92,0,2.78v2.28c0,4.84,0,7,1,7.48,1.51.73,2.28.37,2.28,1,0,.14,0,.32-.18.32A34.43,34.43,0,0,0,75,27.92a21.33,21.33,0,0,0-3.92.41c-.18,0-.23-.14-.23-.32,0-.46.41-.32,1.32-.68,1.51-.55,1.55-2.28,1.55-5.61v-8.9c0-7,0-10.49-1-11.13s-2.28-.18-2.28-.82a.36.36,0,0,1,.41-.41c.36,0,1.32.18,2.87.18C76,.64,78.51,0,81.07,0c5.66,0,9.31,3.15,9.31,7.66,0,3-2,5.52-5.7,6.61,4,6.8,7.35,11.18,10.45,13.09M80.06,13.87c4.61,0,7.16-2.28,7.16-5.79,0-4.2-2.6-7.16-7-7.16-2.05,0-3.19.46-3.38,1.32s-.27,4.56-.32,11.18a15.06,15.06,0,0,0,3.51.46"/><path class="cls-1" d="M120.85,27.92c-9,0-13.78.23-14.42.23-.32,0-.41,0-.41-.27,0-.5.55-.27,1.69-.73s1.23-1.51,1.23-4.2c0-1.51,0-3.51,0-6.2,0-8.9-.14-13.82-.64-14.78s-2.42-.59-2.42-1,.09-.41.37-.41,1.55.18,3.6.18c2.6,0,4.38-.32,5.25-.32a.31.31,0,0,1,.23.32c0,.55-1.41.14-2.6.82-.78.41-.87,2.51-.87,6.61V12c0,8.26.09,12.82.27,13.64s1,1.23,4,1.23c5.52,0,9.12-1.1,9.95-2.1s.64-2.42,1.28-2.42c.32,0,.36.14.36.41,0,1.28-.87,3.06-1.55,5.52a25,25,0,0,0-5.25-.37"/><path class="cls-1" d="M154.29,5.56c-.18,0-.41-.14-.41-.32a12.31,12.31,0,0,0,.23-1.83c0-1.5-1.92-2-7.07-2a39.29,39.29,0,0,0-5.52.41c-.23,3.42-.32,6.71-.32,9.85v.78c0,.87.18,1,2,1h2.05c3.88,0,6-.09,6.8-.82,1-.91.64-2.19,1.19-2.19.23,0,.27.09.27.32,0,.68-.27,1.87-.27,3.47,0,1.82.23,3,.23,3.56,0,.37,0,.55-.32.55s-.23-.68-.59-1.92c-.55-1.82-1.69-2-6.16-2h-2.46c-2.65,0-2.74.09-2.74,1.14v2.69c0,2.19,0,5,.23,8.3a36.77,36.77,0,0,0,5.43.46c4.88,0,7.48-.82,9.12-3.51.64-1,.64-1.78,1-1.78s.27.09.27.27a19,19,0,0,1-1.87,6.11c-4.11-.14-7.3-.18-9.44-.18-6.8,0-10,.37-10.45.37S135,28.19,135,28c0-.59,1.92-.41,2.46-1.14s.78-6.07.78-16.06V6.57c0-3.19-.14-4.61-1.23-5.06s-1.78-.32-1.78-.78c0-.18.14-.27.41-.27s1.64.18,4.29.18c1,0,6.2-.18,15.6-.18-.87,3.1-.59,5.11-1.28,5.11"/><path class="cls-1" d="M181,28.33h-1.19c-7.35,0-13.46-6.29-13.46-14.32A14.1,14.1,0,0,1,180.48,0a13.87,13.87,0,0,1,14.19,14.1c0,6.25-3.6,11.68-9.4,13.55M169.21,12.46a16.4,16.4,0,0,0,3.1,9.35,12,12,0,0,0,9.58,5.2c5.93,0,9.9-4.74,9.9-10.9,0-8.39-5.75-14.69-12-14.69s-10.63,4.56-10.63,11"/><path class="cls-1" d="M213.18.36c.09,0,.18.14.18.23,0,.59-1.14.32-2.46.91-1,.46-1.14,2.19-1.14,5.93V18.7c0,5.48,2.87,8.26,8.58,8.26,4.52,0,7.66-1.41,8.94-3.74,1.05-1.92,1.37-6.43,1.37-13.69,0-5,0-7.44-1.14-8-.78-.41-2.33-.09-2.33-.68,0-.23.18-.37.55-.37,1.1,0,2.37.23,3.83.23,1.87,0,2.92-.14,3.1-.14a.31.31,0,0,1,.27.32c0,.82-2.74-.64-2.74,2.24a3.74,3.74,0,0,1,0,.5V6.39c0,8.71-.82,14.37-1.41,16.33-1.09,3.51-4.93,5.61-10.77,5.61-7.48,0-11.36-3.19-11.36-9.17,0-.87.09-3,.09-6.29,0-6.75-.27-10.49-.91-11.13-.87-.87-2.37-.23-2.37-.91,0-.27.18-.32.5-.32s1.73.18,4.06.18,4.11-.32,5.11-.32"/><path class="cls-1" d="M251.87.59c0,.55-1.87.32-2.92,1.19s-1.05,6-1.05,15.92v4.24c0,3.7.18,5.06,1.69,5.38,1.32.27,2.19,0,2.19.5,0,.32-.23.37-.69.37h-.32c-1.28,0-3.1-.23-5.47-.23-1.73,0-3,.18-3.74.18-.18,0-.46,0-.73,0s-.41,0-.41-.27.18-.41.59-.41c2.1,0,3.06-.64,3.47-1.78s.5-5,.5-11.41c0-7.89-.09-11.86-1.41-12.5-1.51-.73-2.92-.18-2.92-.82,0-.32.18-.36.5-.36h.18c1.32,0,2.69.14,4.15.14,2.6,0,4.56-.37,5.79-.37.41,0,.59,0,.59.27"/><path class="cls-1" d="M264.19,5.43v4c0,10.54,0,16.1.82,17.06,1,1.23,4.29.68,4.29,1.51,0,.23-.09.23-.32.23-1,0-2.28-.23-3.69-.23-2.19,0-3.79.32-4.65.32-.27,0-.46,0-.46-.27,0-.41.69-.27,1.87-.68,1-.32,1.1-.73,1.1-2.05v-2c0-1.87.09-3.92.09-6.07V14.1c0-6.94,0-10.77-1.19-12s-2.87-.87-2.87-1.37c0-.23.14-.32.41-.32.59,0,1.41.09,2.46.09q1.16,0,2.74-.14c4,5.15,11.27,11.91,21.71,21l.37-.18c.09-2,.09-3.69.09-5.06V13.82c0-7.8,0-11.68-1.64-12.68-1.05-.68-2.19-.32-2.19-.82,0-.23.09-.32.32-.32.78,0,2.28.32,4.33.32,1,0,1.92-.09,2.65-.09.41,0,.64,0,.64.36,0,.5-1.23.18-2,.73-1,.77-1.09,4.65-1.09,12V18.8c0,4.2.14,7,.14,8.44a5.16,5.16,0,0,1,0,.59c0,.27-.09.37-.37.37-.5,0-1-2.1-5.56-6.48C273.31,13,267.2,7.89,264.55,5.25l-.37.18"/><path class="cls-1" d="M188.21,26.24c-1.83,1.28-4.77,2.16-7.9,3l5.57,1.57c3.44,1,5.8,1.72,7.22,1.72,2.18,0,3.29-1.45,3.59-1.45a.37.37,0,0,1,.41.39c0,.38-.53.8-1.37,1.56a6.18,6.18,0,0,1-4.28,1.49A21.51,21.51,0,0,1,185,33.33l-7.49-2.44a8.31,8.31,0,0,0-2.55-.54c-1.91,0-3.06.88-3.74.88a.18.18,0,0,1-.19-.19c0-.73,2.67-2.18,5.85-2.18.3,0,.8,0,1.49.08.72-.2,1.72-.46,2.94-.84"/></g></g></svg>