<svg xmlns="http://www.w3.org/2000/svg" viewBox="0 0 30.75 28.06"><defs><style>.cls-1{fill:#fff;}</style></defs><title>harlequin-h</title><g id="Layer_2" data-name="Layer 2"><g id="Layer_1-2" data-name="Layer 1"><path class="cls-1" d="M25,15.1c0-.73-.32-.82-1.41-.82h-16c-1,0-1.28.14-1.28.82V24c0,1.73.27,2.87,2.05,3.38.5.14.87,0,.87.41,0,.23-.09.27-.27.27a30.7,30.7,0,0,0-4.56-.32C2.1,27.74.78,28,.41,28H.23A.3.3,0,0,1,0,27.69c0-.55,1.28-.23,2.19-.91Q3.28,26,3.28,13.5c0-.82,0-3.47,0-7.94V5c0-2.14,0-3.19-1-3.83S.41.87.41.32C.41.18.55,0,.82,0S3.1.27,6.48.27C8.17.27,9.08.14,9.31.14s.37.09.37.32c0,.5-1.64.23-2.51,1a2.88,2.88,0,0,0-.68,1.92C6.3,5.29,6.2,7.3,6.2,9.08c0,1,0,1.87.09,2.65v.36c0,.64.09.82,1.51.82H23.49c1,0,1.46-.09,1.46-1V4.24c0-1.87-.23-2.78-1.32-3.29C22.72.55,22.08.68,22.08.41s.09-.41.23-.41a39,39,0,0,0,4,.32c2,0,3.38-.27,4.06-.27.23,0,.32.09.32.27,0,.59-1.09.27-1.92,1.28s-.87,5.57-.87,14v4.79c0,3.83.09,5.75,1,6.52s1.78.32,1.78.87c0,.23-.09.27-.32.27a31.2,31.2,0,0,0-3.79-.32c-2.14,0-3.6.32-4.24.32-.32,0-.41,0-.41-.32,0-.59,1-.23,1.92-1s1.19-3,1.19-7.21c0-1.23,0-2.6-.09-4.15l0-.27"/></g></g></svg>