<?xml version="1.0" standalone="no"?>
<!DOCTYPE svg PUBLIC "-//W3C//DTD SVG 1.1//EN" "http://www.w3.org/Graphics/SVG/1.1/DTD/svg11.dtd" >
<svg>
<metadata>
Created by FontForge 20090622 at Tue Apr 19 14:10:28 2016
 By deploy user
Copyright 2002 International Typeface Corporation. All rights reserved.
</metadata>
<defs>
<font id="ITCGoldenTypeW01-Original" horiz-adv-x="495" >
  <font-face 
    font-family="ITCGoldenTypeW01-Original"
    font-weight="400"
    font-stretch="normal"
    units-per-em="1000"
    panose-1="2 0 6 4 4 0 0 2 0 3"
    ascent="800"
    descent="-200"
    x-height="375"
    cap-height="667"
    bbox="-65 -251 1092 905"
    underline-thickness="50"
    underline-position="-100"
    unicode-range="U+000D-U+2122"
  />
<missing-glyph horiz-adv-x="248" 
 />
    <glyph glyph-name=".notdef" horiz-adv-x="248" 
 />
    <glyph glyph-name=".null" horiz-adv-x="0" 
 />
    <glyph glyph-name="uni000D" unicode="&#xd;" horiz-adv-x="600" 
 />
    <glyph glyph-name="glyph218" horiz-adv-x="0" 
 />
    <glyph glyph-name="glyph218" horiz-adv-x="0" 
 />
    <glyph glyph-name="space" unicode=" " horiz-adv-x="248" 
 />
    <glyph glyph-name="exclam" unicode="!" horiz-adv-x="336" 
d="M219 652l-2 -23t-6 -65.5l-9.5 -103t-11.5 -135.5q-3 -35 -4 -58.5t-2 -37.5t-4.5 -19.5t-10.5 -5.5q-9 0 -12.5 5.5t-5 19t-2 37t-3.5 59.5q-14 162 -20 243.5t-6 83.5q0 11 8.5 13t40.5 2q30 0 40 -1.5t10 -13.5zM232 69q0 -7 -4 -9t-7 -4q-17 -8 -26 -19.5t-10 -14.5
q-4 -25 -17 -25q-8 0 -10 4.5t-4 9.5q-5 16 -14.5 27t-12.5 12q-8 3 -16 7.5t-8 11.5t3.5 8.5t7.5 3.5q17 8 26 19.5t10 14.5q2 10 6 18t12 8t9.5 -4.5t3.5 -9.5q6 -17 17 -29t23 -17q4 -2 7.5 -4t3.5 -8z" />
    <glyph glyph-name="quotedbl" unicode="&#x22;" horiz-adv-x="459" 
d="M318 444q-1 -8 -2.5 -11t-9.5 -8l-22 -14q-5 -3 -8 -3q-6 0 -8 4t-2 9l-18 219q-1 8 1.5 10t8.5 4l61 18q3 1 7 1q9 0 9 -10zM195 444q-1 -7 -2.5 -10.5t-9.5 -8.5l-23 -14q-5 -3 -7 -3q-6 0 -7.5 4t-2.5 9l-19 219q-1 8 2 10t8 4l61 18q3 1 8 1q8 0 8 -10z" />
    <glyph glyph-name="numbersign" unicode="#" horiz-adv-x="566" 
d="M547 495q0 -5 -0.5 -7.5t-1.5 -6.5l-6 -25q-4 -15 -8.5 -18.5t-19.5 -3.5h-60q-15 0 -19.5 -4t-8.5 -19l-29 -121q-1 -4 -1.5 -6.5t-0.5 -7.5q0 -7 6 -7.5t13 -0.5h60q6 0 13 -1t7 -8q0 -5 -1 -7.5t-2 -6.5l-6 -25q-4 -16 -8 -19t-19 -3h-61q-16 0 -19.5 -4.5t-7.5 -18.5
l-37 -153q-4 -14 -8 -18t-20 -4h-18q-7 0 -13 0.5t-6 7.5q0 5 0.5 7.5t1.5 6.5l37 153q1 4 2 6.5t1 7.5q0 7 -6.5 8t-13.5 1h-79q-16 0 -19.5 -4.5t-7.5 -18.5l-37 -153q-4 -15 -8 -18.5t-20 -3.5h-18q-7 0 -13 0.5t-6 7.5q0 5 0.5 7.5t1.5 6.5l37 153q1 4 2 6.5t1 7.5
q0 7 -7 8t-13 1h-63q-7 0 -13 0.5t-6 7.5q0 5 0.5 7.5t1.5 6.5l6 25q4 15 8.5 19t19.5 4h63q15 0 19.5 3.5t8.5 18.5l29 121q1 4 1.5 6.5t0.5 7.5q0 7 -6 8t-13 1h-63q-8 0 -13.5 0.5t-5.5 7.5q0 5 0.5 7.5t1.5 6.5l6 25q4 15 8.5 19t19.5 4h63q14 0 18.5 2.5t8.5 19.5
l29 119q4 15 8 18.5t19 3.5h18q7 0 13.5 -0.5t6.5 -7.5q0 -5 -1 -7.5t-2 -6.5l-28 -119q-1 -4 -2 -7t-1 -8q0 -7 7 -7h13h79q15 0 19 3.5t8 18.5l29 119q4 15 7.5 18.5t19.5 3.5h18q6 0 12.5 -0.5t6.5 -7.5q0 -5 -0.5 -7.5t-1.5 -6.5l-28 -119q-1 -4 -2 -7t-1 -8q0 -7 7 -7
h13h60q7 0 13 -1t6 -8zM363 425q0 7 -6 8t-13 1h-79q-16 0 -20 -4t-8 -19l-29 -121q-1 -4 -1.5 -6.5t-0.5 -7.5q0 -7 6 -7.5t13 -0.5h79q15 0 19.5 3.5t8.5 18.5l29 121q1 4 1.5 6.5t0.5 7.5z" />
    <glyph glyph-name="dollar" unicode="$" 
d="M461 185q0 -36 -12 -66.5t-33.5 -53t-50.5 -37t-63 -19.5q-11 -2 -19.5 -3t-8.5 -7v-77q0 -20 -17 -20h-20q-12 0 -16 4.5t-4 15.5v72q0 8 -6 10.5t-20 2.5q-26 0 -62 7t-67 18q-15 5 -17.5 12t-3.5 20l-4 95q0 2 1.5 5.5t4.5 3.5q8 0 13 -8q13 -23 33 -40.5t42 -29.5
t43.5 -18.5t36.5 -6.5q5 0 5.5 3t0.5 6v200q0 10 -10 14q-85 32 -129.5 72t-44.5 95q0 71 45 108.5t133 51.5q2 0 4 2t2 4v47q0 13 3.5 17t16.5 4h20q12 0 14.5 -5t2.5 -16v-42q0 -7 2.5 -9t10.5 -3q46 -4 73 -8t40 -9t16 -11.5t3 -15.5l-4 -79q0 -3 -0.5 -8t-5.5 -5
t-7.5 3.5t-4.5 5.5q-23 32 -53.5 48t-62.5 16q-7 0 -7 -7v-179q0 -10 9 -14q88 -34 133 -73t45 -93zM217 542q0 4 -1 8t-6 4q-41 0 -68.5 -21.5t-27.5 -59.5q0 -21 13.5 -37.5t30 -28t31.5 -17.5t19 -6q5 0 7 1t2 9v148zM373 156q0 24 -12 43t-28 31.5t-31 19t-22 6.5
q-5 0 -5.5 -4t-0.5 -7v-170q0 -4 1 -7.5t7 -3.5q10 0 26 5t30 16.5t24.5 29t10.5 41.5z" />
    <glyph glyph-name="percent" unicode="%" horiz-adv-x="714" 
d="M328 494q0 -30 -10.5 -54.5t-28.5 -41.5t-41.5 -26t-49.5 -9q-36 0 -64.5 10.5t-48 29t-29.5 43t-10 51.5q0 32 11 58t29 44.5t42 28.5t51 10q70 0 109.5 -39.5t39.5 -104.5zM580 633q0 -7 -4 -13l-383 -628q-1 -2 -3.5 -5t-6.5 -3q-6 0 -9 3l-21 11q-2 1 -5 3.5t-3 5.5
q0 4 2 7t3 5l385 631q1 1 3 4t4 3t4.5 -0.5t6.5 -2.5l21 -13l3.5 -3.5t2.5 -4.5zM668 122q0 -30 -10.5 -54.5t-28.5 -42t-41.5 -26.5t-49.5 -9q-36 0 -64.5 10.5t-48 29t-29.5 43t-10 52.5q0 32 11 58t29.5 44t42.5 27.5t50 9.5q70 0 109.5 -38.5t39.5 -103.5zM255 486
q0 47 -22 76.5t-51 29.5q-35 0 -49 -21t-14 -64q0 -17 5 -34t14.5 -31.5t24 -23.5t34.5 -9q58 0 58 77zM595 114q0 48 -22 77.5t-51 29.5q-35 0 -49 -21.5t-14 -64.5q0 -17 5 -34.5t14.5 -31.5t24 -23.5t34.5 -9.5q58 0 58 78z" />
    <glyph glyph-name="ampersand" unicode="&#x26;" horiz-adv-x="742" 
d="M733 426q0 -8 -2 -12t-11 -4h-40q-9 0 -16 -4t-14 -13t-15 -23l-20 -34q-24 -41 -46 -72l-38 -52.5l-25.5 -34t-9.5 -15.5q0 -8 10.5 -25t28.5 -34.5t41.5 -31t50.5 -13.5q14 0 27.5 1.5t30.5 11.5q7 4 15.5 9.5t13.5 5.5q6 0 8 -4t2 -9q0 -6 -8 -20.5t-24.5 -29.5
t-41.5 -27t-59 -12q-30 0 -53 7.5t-41.5 20.5t-33.5 29.5t-28 33.5q-2 3 -5 3q-4 0 -6 -2q-21 -19 -42 -35.5t-45 -29t-52.5 -19.5t-65.5 -7t-67.5 11.5t-52.5 32.5t-34.5 50t-12.5 64q0 77 57 131q29 27 59 41l57 26q4 1 4 5q0 5 -5 7q-7 3 -10.5 6.5t-9.5 8.5
q-30 22 -44 47t-14 62q0 22 9.5 43.5t27.5 39t44 28.5t58 11q28 0 53 -9.5t44 -26.5t30.5 -40.5t11.5 -51.5q0 -23 -18 -52.5t-50 -49.5q-4 -2 -11 -6.5t-7 -6.5q0 -4 6.5 -10.5l17.5 -17t26 -26.5t33 -39q17 -23 22.5 -31.5t13.5 -8.5q3 0 14.5 15t26.5 40l47.5 79.5
t18.5 45.5q0 5 -4.5 6t-8.5 1h-32q-9 0 -12 3.5t-3 12.5v23q0 8 2 11.5t13 3.5h207q5 0 6 -3.5t1 -7.5v-27zM351 477q0 33 -20 53t-61 20q-8 0 -17.5 -4t-17.5 -12t-13.5 -20t-5.5 -28q0 -18 11 -36t26 -31.5t29 -22t20 -8.5q7 0 15.5 7t16 19.5t12.5 28.5t5 34zM391 147
q0 8 -8 22.5t-20 31.5t-27 35t-29 32.5t-25 24t-16 9.5q-13 0 -32 -8.5t-37 -23.5q-26 -21 -36.5 -45t-10.5 -58q0 -50 30.5 -82.5t82.5 -32.5q22 0 45 11t41.5 26.5t30 31.5t11.5 26z" />
    <glyph glyph-name="quotesingle" unicode="'" horiz-adv-x="301" 
d="M178 444q-1 -7 -2.5 -10.5t-9.5 -8.5l-23 -14q-5 -3 -7 -3q-6 0 -7.5 4t-2.5 9l-19 219q-1 8 2 10t8 4l61 18q3 1 8 1q8 0 8 -10z" />
    <glyph glyph-name="parenleft" unicode="(" horiz-adv-x="422" 
d="M370 -191q0 -2 -3.5 -2h-5.5h-35q-18 0 -26 3t-20 18q-76 96 -112.5 196t-36.5 213q0 105 30.5 195t95.5 180q20 27 37 41t45 14h5q2 0 5 -0.5t3 -2.5q0 -6 -2.5 -8.5l-4.5 -4.5q-31 -36 -57 -82t-44.5 -99t-29 -112t-10.5 -121q0 -122 41 -226t124 -196q2 -2 1.5 -3
t-0.5 -3z" />
    <glyph glyph-name="parenright" unicode=")" horiz-adv-x="422" 
d="M291 237q0 -105 -30.5 -195.5t-95.5 -180.5q-20 -27 -37 -40.5t-45 -13.5h-6q-7 0 -7 2q0 6 2.5 9t4.5 5q30 34 55.5 79t44.5 98t30 113t11 124t-11 121t-32 108.5t-52 99t-71 93.5q-2 2 -1 3t1 3t3.5 2h5.5h35q18 0 26.5 -4t19.5 -18q76 -95 112.5 -194.5t36.5 -213.5z
" />
    <glyph glyph-name="asterisk" unicode="*" 
d="M407 526q0 -6 -5.5 -8.5t-10.5 -3.5l-86 -13q-5 -1 -12.5 -1.5t-7.5 -5.5q0 -2 4.5 -7t6.5 -7l63 -63q2 -2 5 -5.5t3 -7.5q0 -7 -5 -10l-41 -29q-2 -1 -5.5 -3t-7.5 -2q-5 0 -7.5 4l-4.5 7l-40 85q-1 2 -3.5 6.5t-5.5 4.5q-2 0 -4.5 -4.5t-3.5 -6.5l-39 -85q-2 -3 -5 -7
t-8 -4q-4 0 -7 2t-5 3l-41 29q-6 4 -6 10q0 4 3 7.5t5 5.5l63 63q2 2 7 6.5t5 7.5q0 4 -7.5 5t-12.5 2l-87 13q-5 1 -10.5 3.5t-5.5 8.5q0 2 1.5 7t1.5 6l13 40q1 4 3.5 9t7.5 5q7 0 15 -5l81 -47q4 -2 6 -3.5t6 -1.5q2 0 3 2t1 3t-1 7t-1 8l-16 90q-1 3 -1 8q0 9 6 11t16 2
h35q10 0 17 -1.5t7 -11.5q0 -2 -2 -8l-16 -90q0 -2 -1 -7.5t-1 -7.5q0 -5 4 -5q2 0 6.5 2t5.5 3l80 47q8 5 15 5q6 0 8 -5.5t3 -8.5l13 -40q0 -1 1.5 -6t1.5 -7z" />
    <glyph glyph-name="plus" unicode="+" 
d="M467 297q0 -15 -4 -19t-19 -4h-139q-15 0 -18.5 -4t-3.5 -19v-139q0 -15 -4 -19t-19 -4h-24q-15 0 -19 4t-4 19v139q0 14 -3.5 18.5t-18.5 4.5h-139q-16 0 -19.5 4t-3.5 19v21q0 15 3.5 19t19.5 4h139q16 0 19 4t3 19v140q0 15 3.5 19t19.5 4h24q16 0 19.5 -4t3.5 -19
v-140q0 -15 3.5 -19t18.5 -4h139q15 0 19 -4t4 -19v-21v0z" />
    <glyph glyph-name="comma" unicode="," horiz-adv-x="248" 
d="M196 79q0 -4 -2.5 -6.5t-7 -8.5t-11.5 -19t-17 -38q-13 -35 -27 -57t-26.5 -35.5t-22 -18.5t-13.5 -5q-8 0 -9.5 4.5t-1.5 8.5q0 3 3 5q3 3 9.5 11.5t12.5 22t9.5 30t1.5 34.5q-3 26 -14 37.5t-23 20.5q-3 2 -3 10t6 11.5t19 10.5q6 3 13.5 12.5t9.5 17.5q5 14 8 21.5
t13 7.5q2 0 5.5 -1t4.5 -4l13 -29.5t23 -22.5q15 -6 21 -9t6 -11z" />
    <glyph glyph-name="hyphen" unicode="-" horiz-adv-x="336" 
d="M294 258q0 -6 -4 -11.5t-14.5 -13t-27.5 -18.5l-42 -28q-35 -23 -61.5 -43l-45.5 -34t-32 -22t-22 -8q-5 0 -4 5.5t1 10.5v47q0 12 5 20.5t19.5 20t41 29l68.5 46.5q55 38 78.5 57t32.5 19q4 0 5.5 -8t1.5 -15v-54v0z" />
    <glyph glyph-name="period" unicode="." horiz-adv-x="248" 
d="M198 75q0 -8 -4 -10t-9 -4q-21 -8 -31.5 -25t-17.5 -37q-2 -4 -6 -5t-6 -1q-10 0 -12 5t-4 11q-5 16 -15.5 28.5t-15.5 15.5l-21 11t-6 11t3.5 10t8.5 4q23 8 33.5 25.5t16.5 35.5q2 4 6 5t6 1q9 0 11 -5.5l4 -10.5q4 -14 11 -23.5t15 -16t15.5 -10l13.5 -6.5q4 -2 4 -9z
" />
    <glyph glyph-name="slash" unicode="/" horiz-adv-x="548" 
d="M499 657q0 -5 -1.5 -8.5t-2.5 -5.5l-469 -833q-1 -2 -4 -6t-7 -4t-7.5 2t-5.5 3l-21 12q-2 2 -6.5 4t-4.5 7t2.5 9.5t3.5 6.5l466 828l5.5 8t7.5 5q5 0 7.5 -1t5.5 -3l24 -15q2 -1 4.5 -3.5t2.5 -5.5z" />
    <glyph glyph-name="zero" unicode="0" 
d="M457 313q0 -164 -57 -245t-165 -81q-42 0 -78 22t-62.5 63t-41.5 100.5t-15 133.5q0 162 59 244.5t168 82.5q39 0 74 -21.5t61 -62t41.5 -100.5t15.5 -136zM364 291q0 143 -34 213.5t-91 70.5q-58 0 -85 -55.5t-27 -173.5q0 -149 33.5 -223t97.5 -74q59 0 82.5 58.5
t23.5 183.5z" />
    <glyph glyph-name="one" unicode="1" 
d="M367 17q0 -11 -4 -14t-15 -3h-211q-6 0 -11 2t-5 8v35q0 12 10 12h48q15 0 19 5.5t4 16.5v406q0 21 -3.5 30.5t-19.5 9.5q-8 0 -21.5 -4t-18.5 -4q-7 0 -9.5 2t-3.5 12l-1 14q0 2 -0.5 2.5t-0.5 2.5q0 8 4.5 11.5t13.5 8.5l135 69q2 2 7.5 4t10.5 2q3 0 7.5 -4t4.5 -12
q0 -7 -9 -33t-9 -77v-440q0 -9 3 -15.5t13 -6.5h53q5 0 7 -3.5t2 -8.5v-28v0z" />
    <glyph glyph-name="two" unicode="2" 
d="M483 82q0 -2 -1 -2.5t-2 -2.5l-45 -63q-6 -8 -10.5 -11t-16.5 -3h-389q-8 0 -11.5 5t-3.5 13q0 14 8.5 22t23.5 20q71 56 125.5 111t92 106t56.5 96t19 82q0 47 -29 76t-80 29q-35 0 -66 -12.5t-54 -36.5l-15.5 -16t-15.5 -8q-5 0 -8.5 1.5t-3.5 6.5q0 18 14.5 42
t40.5 45.5t61 36.5t76 15q90 0 137 -43.5t47 -126.5q0 -35 -16.5 -71.5t-47 -76t-72.5 -84l-93 -95.5q-23 -23 -36.5 -39t-13.5 -22q0 -2 26 -2h74q53 0 93 2.5t68 5.5q33 4 56 8q6 1 9 0t3 -8z" />
    <glyph glyph-name="three" unicode="3" 
d="M430 147q0 -37 -15 -66.5t-41.5 -50.5t-64 -32t-82.5 -11q-41 0 -73.5 13t-55 31t-34.5 37.5t-12 33.5q0 8 4.5 13t12.5 5q5 0 13.5 -7.5t16.5 -17.5q15 -17 46 -31.5t68 -14.5q54 0 86 26t32 77q0 23 -12.5 45t-35 39.5t-55.5 28t-73 10.5q-29 0 -45.5 -1.5t-18.5 -1.5
q-8 0 -11 3.5t-5 15.5l-3 23q-2 14 13.5 16.5t56.5 4.5q88 3 134.5 40t46.5 93q0 35 -28.5 59.5t-89.5 24.5q-20 0 -40.5 -8t-40.5 -22q-9 -6 -17.5 -12.5t-13.5 -6.5q-13 0 -13 14q0 4 5.5 9t7.5 7l79 80q13 13 24.5 17t28.5 4q90 0 140.5 -41.5t50.5 -107.5q0 -51 -36 -90
t-105 -71q-5 -2 -12.5 -5.5t-7.5 -5.5q0 -3 5 -3q2 0 16.5 -4t33.5 -10q57 -18 88.5 -58t31.5 -91z" />
    <glyph glyph-name="four" unicode="4" 
d="M479 247q0 -3 -2.5 -11t-6 -17.5t-7.5 -17.5t-6 -9q-5 -3 -22.5 -2t-43.5 1q-7 0 -10 -3t-3 -12v-97q0 -9 2.5 -15.5t13.5 -6.5h36q10 0 10 -12v-28q0 -6 -2.5 -11.5t-9.5 -5.5h-185q-6 0 -11 2t-5 8v35q0 12 11 12h36q15 0 18.5 5.5t3.5 16.5v88q0 9 -2 16t-14 7h-265
q-11 0 -14 4.5t-3 14.5q0 8 3 13.5t7 10.5l225 275l49 62.5l28 37t16 18t14 4.5h53q3 0 8 -1t5 -5q0 -1 -2 -5q-10 -14 -15 -27t-7.5 -29.5t-3 -39t-0.5 -55.5v-203q0 -12 13 -12q25 0 45 3t34 3q5 0 7 -3.5t2 -8.5zM296 464q0 11 -0.5 18.5t-8.5 7.5q-5 0 -9.5 -7t-9.5 -12
l-156 -192q-3 -3 -6.5 -8.5t-3.5 -11.5q0 -5 6 -5h11h155q16 0 19 5t3 20v185z" />
    <glyph glyph-name="five" unicode="5" 
d="M465 604q0 -14 -13 -19.5t-37 -11.5l-200 -49q-15 -4 -23 -12t-13 -33l-20 -113q-1 -3 -1 -8v-7t5 -4q4 0 13.5 4t23.5 8.5t33 8.5t43 4q74 0 114.5 -45t40.5 -118q0 -53 -18 -94.5t-50 -69.5t-75 -42.5t-94 -14.5q-35 0 -64 9t-49.5 22t-32 26.5t-11.5 22.5q0 5 1.5 10
t8.5 5q4 0 16 -6.5t29 -14t37.5 -14t43.5 -6.5q37 0 67 12.5t52 34.5t34 52t12 65q0 22 -6.5 41.5t-19 34.5t-31 23.5t-43.5 8.5q-23 0 -42 -6.5t-34.5 -14t-27.5 -14t-21 -6.5q-11 0 -21.5 5t-10.5 15q0 6 2 13.5l3 11.5l57 245q5 20 7.5 31.5t6 17t9.5 7t18 1.5h252
q11 0 20 -1.5t9 -14.5z" />
    <glyph glyph-name="six" unicode="6" 
d="M451 205q0 -49 -21 -89t-52 -68.5t-67.5 -44t-66.5 -15.5q-31 0 -65 19.5t-62 52t-46 76t-18 91.5q0 117 55 212t161 165q26 17 49.5 28t47.5 11h26q2 0 6.5 -1t4.5 -3q0 -5 -4.5 -7t-6.5 -3q-42 -22 -85 -53t-84 -87q-18 -25 -31 -50.5t-21.5 -47t-12 -37t-3.5 -21.5
q0 -2 5 -2t18 8.5l30 19t35 19.5t33 9q36 0 68 -15t56 -40t37.5 -58t13.5 -69zM364 184q0 30 -11.5 55t-29.5 43t-39.5 28t-41.5 10q-18 0 -35.5 -6.5t-32 -20.5t-23.5 -35.5t-9 -51.5q0 -25 11.5 -50.5t29.5 -46.5t41.5 -34t47.5 -13q38 0 65 30.5t27 91.5z" />
    <glyph glyph-name="seven" unicode="7" 
d="M494 600q0 -7 -8.5 -22l-20.5 -36l-273 -471q-9 -15 -15.5 -27t-13 -20.5t-14.5 -13t-21 -5.5l-78 -7q-7 -1 -16.5 -1h-15.5q-5 0 -9 3t-4 8q0 7 11.5 17.5l32.5 30t50.5 51t66.5 79.5l90 123t72.5 107.5t48.5 78t18 33.5q0 12 -39.5 13t-131.5 1q-84 0 -125.5 -8.5
t-49.5 -8.5q-4 0 -7.5 2.5t-3.5 7.5t5 16.5l11 25.5q9 21 15.5 33t20.5 12q8 0 19 -1t17 -1h328q19 0 29.5 -3t10.5 -17z" />
    <glyph glyph-name="eight" unicode="8" 
d="M448 153q0 -38 -15 -68.5t-41.5 -52.5t-63 -33.5t-79.5 -11.5q-41 0 -77 11.5t-63.5 33t-43.5 52t-16 67.5q0 40 27 76.5t78 62.5q15 8 27.5 14t12.5 10t-4 6q-58 29 -90.5 64t-32.5 90q0 35 13.5 64.5t38.5 50.5t60.5 33t79.5 12q42 0 75 -12t56.5 -32.5t36 -48.5
t12.5 -61q0 -44 -27.5 -78.5t-82.5 -63.5q-8 -5 -17 -9.5t-9 -9.5q0 -4 5 -6q29 -16 54.5 -32t44.5 -34.5t30 -41.5t11 -52zM355 477q0 47 -29 75t-74 28q-21 0 -39.5 -8t-32 -22t-21.5 -32.5t-8 -39.5q0 -32 14 -56t32.5 -40t37.5 -24.5t28 -8.5q7 0 22 9.5t30.5 26.5
t27.5 40.5t12 51.5zM355 151q0 30 -13 54t-31 41.5t-37 26.5t-32 9q-11 0 -28 -9t-33 -26.5t-27.5 -43t-11.5 -59.5q0 -21 8 -39t22.5 -31.5t33.5 -21t40 -7.5q52 0 80.5 29.5t28.5 76.5z" />
    <glyph glyph-name="nine" unicode="9" 
d="M448 392q0 -94 -52 -181.5t-157 -162.5q-45 -32 -80.5 -49.5t-66.5 -17.5h-46q-2 0 -4 1t-2 4q0 5 5.5 7.5t8.5 4.5q62 30 111 67t85 74.5t58.5 72.5t32.5 62q1 2 3 7.5t2 11.5q0 3 -5 3q-3 0 -9 -4t-8 -6l-57 -43t-44 -16q-21 0 -49.5 15.5t-53.5 40.5t-42.5 57.5
t-17.5 67.5q0 49 13.5 86t45.5 72q29 32 62.5 50t59.5 18q41 0 78.5 -19t66 -51.5t45.5 -76.5t17 -95zM359 412q0 24 -9.5 50t-26.5 48t-41 36t-52 14q-38 0 -65 -28.5t-27 -73.5q0 -38 12 -67t30 -49t38.5 -30.5t38.5 -10.5q17 0 35 7t33 21t24.5 34.5t9.5 48.5z" />
    <glyph glyph-name="colon" unicode=":" horiz-adv-x="247" 
d="M184 297q0 -8 -7 -13t-15 -12q-8 -6 -12.5 -14t-7.5 -15q-3 -8 -6 -14t-12 -6q-11 0 -14 10l-9 20.5t-16 18.5l-15 10t-6 12t6 12.5t14 9.5q10 6 14.5 15t7.5 17t6.5 13.5t11.5 5.5q11 0 14 -11t13 -24q11 -14 22 -19t11 -16zM184 71q0 -8 -6.5 -13.5l-15.5 -12.5
q-8 -6 -12.5 -13.5t-7.5 -14.5q-3 -8 -6 -14t-12 -6q-10 0 -14 9l-9 20.5t-16 18.5q-10 6 -15.5 10.5t-5.5 12.5t6 12.5t14 9.5q9 5 14 14t8 17t6 13.5t12 5.5q11 0 13.5 -10t13.5 -24t22 -19t11 -16z" />
    <glyph glyph-name="semicolon" unicode=";" horiz-adv-x="247" 
d="M186 296q0 -6 -3.5 -8.5t-7.5 -4.5q-14 -5 -23.5 -16.5t-11.5 -17.5q-5 -14 -7.5 -19.5t-10.5 -5.5q-9 0 -10.5 4.5t-3.5 9.5q-8 19 -16.5 28t-16.5 13.5t-13 7t-5 9.5t3.5 8.5t7.5 3.5q17 8 26 19.5t10 14.5q2 10 6 18t12 8t9.5 -4.5t3.5 -9.5q7 -24 22.5 -34.5
t25.5 -15.5q3 -2 3 -8zM189 84q0 -5 -2 -8.5t-6.5 -10t-10.5 -19.5t-13 -37q-9 -27 -21.5 -48.5t-25 -36t-24.5 -22.5t-19 -8t-7 7q0 2 1.5 4.5t2.5 4.5q22 25 28.5 47t6.5 50q0 11 -5 24t-11 19l-14 14t-6 12t6 10.5l14 10.5q10 7 16 17.5t11 21.5l3 9t9 6q8 0 11.5 -6
t8.5 -17q4 -8 10 -15.5t14 -11.5l15.5 -8t7.5 -9z" />
    <glyph glyph-name="less" unicode="&#x3c;" 
d="M467 117q0 -28 -14 -28q-6 0 -12 3l-399 179q-8 4 -10.5 7.5t-2.5 12.5v31q0 9 2.5 13t10.5 8q2 1 4.5 2t6.5 3l388 171q5 2 9.5 4t7.5 2q9 0 9 -19v-33q0 -9 -2.5 -12.5t-10.5 -7.5l-329 -147l329 -148q8 -4 10.5 -7t2.5 -13v-21v0z" />
    <glyph glyph-name="equal" unicode="=" 
d="M467 365q0 -15 -4 -19t-19 -4h-392q-16 0 -19.5 4t-3.5 19v21q0 7 2 15t10 8h403q15 0 19 -3.5t4 -19.5v-21zM467 229q0 -17 -4.5 -20t-18.5 -3h-392q-15 0 -19 3.5t-4 19.5v21q0 15 3.5 19t19.5 4h392q15 0 19 -4t4 -19v-21z" />
    <glyph glyph-name="greater" unicode="&#x3e;" 
d="M467 291q0 -12 -5 -16q-3 -2 -9 -4.5t-10 -4.5l-388 -174q-6 -3 -12 -3q-14 0 -14 28v21q0 10 2.5 13t10.5 7l329 148l-329 147q-8 4 -10.5 7.5t-2.5 12.5v33q0 19 9 19q3 0 7.5 -2t9.5 -4l388 -171q4 -2 9.5 -4.5t9.5 -4.5q5 -5 5 -17v-31v0z" />
    <glyph glyph-name="question" unicode="?" horiz-adv-x="389" 
d="M292 476q0 -62 -26.5 -94.5t-73.5 -47.5q-8 -3 -10 -32.5t-4 -98.5q-1 -21 -1.5 -29t-12.5 -8h-19q-6 0 -8 3t-2.5 10.5t-0.5 19.5t-2 31q-3 32 -5 57.5t-4 43.5q-2 21 -2 38q0 7 8 7q5 0 15.5 -1t20.5 -1q29 0 47 23t18 66q0 25 -11 46.5t-27 38t-34.5 27t-33.5 13.5
q-9 1 -14 3t-7 7.5t-2 17.5v35q0 10 5 13t15 3q34 0 65 -14.5t54.5 -40t37.5 -60.5t14 -76zM219 69q0 -7 -4 -9t-7 -4q-17 -8 -26 -19.5t-10 -14.5q-4 -25 -17 -25q-8 0 -10 4.5t-4 9.5q-5 16 -14.5 27t-12.5 12q-8 3 -16 7.5t-8 11.5t3.5 8.5t7.5 3.5q17 8 26 19.5t10 14.5
q2 10 6 18t12 8t9.5 -4.5t3.5 -9.5q6 -17 17 -29t23 -17q4 -2 7.5 -4t3.5 -8z" />
    <glyph glyph-name="at" unicode="@" horiz-adv-x="707" 
d="M682 402q0 -44 -24 -87t-60 -77.5t-78.5 -56t-79.5 -21.5q-25 0 -36.5 16t-9.5 37q1 8 0 16t-6 8q-4 0 -6 -1.5t-5 -3.5q-34 -31 -52.5 -46.5t-40.5 -15.5q-14 0 -28 13.5t-24 38.5q-12 30 -12.5 51.5t-0.5 37.5q0 32 16.5 67t42 64t55 48t56.5 19q10 0 20.5 -4.5
t19.5 -9.5l17 -9.5t13 -4.5t11 3.5t8 5.5t7.5 6t10.5 4q7 0 7.5 -6.5t-1.5 -12.5q-45 -192 -45 -244q0 -23 18 -23q20 0 45.5 15t47.5 41t37 60t15 72q0 57 -19 100.5t-51.5 73.5t-74 45.5t-86.5 15.5q-64 0 -117.5 -21t-92 -59.5t-60 -92t-21.5 -118.5q0 -70 22 -127
t61 -97.5t92.5 -62.5t116.5 -22q44 0 89 13t82 35l14 9t13 5t12 -10t7 -19q0 -3 -18.5 -15.5t-50 -27t-72.5 -25.5t-87 -11q-66 0 -120 16t-104 53q-68 51 -99 120t-31 165q0 64 26.5 124t74.5 106.5t115 74t148 27.5q55 0 110 -18t93 -49q50 -39 70 -88.5t20 -119.5z
M423 429q0 14 -11 22.5t-25 8.5q-17 0 -34 -14t-31.5 -34.5t-23.5 -44t-9 -43.5q0 -43 9 -61.5t21 -18.5q10 0 20.5 5.5t21 14.5t19 20t14.5 22q5 10 10 26.5t9.5 34.5t7 35t2.5 27z" />
    <glyph glyph-name="A" unicode="A" horiz-adv-x="689" 
d="M691 9q0 -6 -5.5 -7.5t-10.5 -1.5h-214q-9 0 -12 3.5t-3 12.5v38q0 16 14 16h36q4 0 9.5 0.5t5.5 5.5v5.5t-2 7.5l-56 142q-5 14 -8.5 16.5t-20.5 2.5h-188q-11 0 -15.5 -2.5t-9.5 -15.5l-56 -139q-2 -6 -2 -9q0 -8 1.5 -11t12.5 -3h36q11 0 14 -4t3 -15v-36
q0 -12 -5.5 -13.5t-16.5 -1.5h-188q-8 0 -10 4.5t-2 10.5v39q0 5 1.5 10.5t8.5 5.5h43q14 0 18.5 4t10.5 19l227 557q5 11 8.5 14t15.5 3h45q8 0 11.5 -5.5t5.5 -11.5l220 -558q2 -6 6 -14t13 -8h41q5 0 11.5 -1t6.5 -9v-51zM413 333q0 2 -0.5 3.5t-1.5 3.5l-66 169
q-1 3 -3.5 7t-7.5 4t-8 -4t-5 -8l-67 -169q-1 -2 -1.5 -3.5t-0.5 -3.5q0 -12 11 -12h140q8 0 9 4t1 9z" />
    <glyph glyph-name="B" unicode="B" horiz-adv-x="707" 
d="M646 179q0 -82 -70.5 -130.5t-207.5 -48.5h-280q-5 0 -10 1.5t-5 7.5v47q0 14 14 14h39q14 0 18 5t4 18v481q0 12 -4 17.5t-18 5.5h-39q-8 0 -11 2.5t-3 11.5v47q0 7 5 7.5t10 0.5h298q48 0 86.5 -6.5t64.5 -23.5q33 -21 52 -56t19 -77q0 -58 -35 -90.5t-103 -55.5
q89 -21 132.5 -62t43.5 -116zM512 496q0 53 -42 80.5t-126 27.5q-57 0 -79 -1.5t-22 -11.5v-186q0 -14 3.5 -17t17.5 -3h89q78 0 118.5 27.5t40.5 83.5zM537 187q0 65 -48 99.5t-136 34.5h-90q-8 0 -14 -2.5t-6 -10.5v-210q0 -13 4 -20t16.5 -10.5t35.5 -4.5t62 -1
q88 0 132 32.5t44 92.5z" />
    <glyph glyph-name="C" unicode="C" horiz-adv-x="724" 
d="M673 161q0 -49 -3.5 -80.5t-10.5 -39.5q-4 -5 -20 -14t-43 -17.5t-64 -15t-83 -6.5q-87 0 -158.5 28t-122 74.5t-78 108t-27.5 129.5q0 103 42.5 180t122.5 122q58 32 126 42.5t152 10.5h113q8 0 13 -2t5 -12v-145q0 -5 -1 -10t-9 -5q-10 0 -15 9q-12 20 -26.5 37.5
t-34 31t-45 21.5t-59.5 8q-64 0 -115 -18.5t-86.5 -54.5t-54.5 -89t-19 -122q0 -56 20.5 -105.5t58 -86t90.5 -57.5t119 -21q60 0 103 23t59 52l23 42t15 13q11 0 12 -9t1 -22z" />
    <glyph glyph-name="D" unicode="D" horiz-adv-x="777" 
d="M717 348q0 -172 -100 -260t-298 -88h-231q-5 0 -10 1.5t-5 7.5v47q0 14 14 14h39q14 0 18 5t4 18v481q0 12 -4 17.5t-18 5.5h-39q-7 0 -10.5 2t-3.5 12v46q0 7 5 8.5t10 1.5h218q52 0 103 -2.5t101 -19.5q98 -32 152.5 -110t54.5 -187zM608 336q0 88 -36.5 148.5
t-104.5 89.5q-33 14 -73 18.5t-85 4.5h-49q-8 0 -12.5 -1.5t-4.5 -9.5v-491q0 -14 2.5 -19.5t17.5 -5.5h54q143 0 217 69t74 197z" />
    <glyph glyph-name="E" unicode="E" horiz-adv-x="707" 
d="M631 13q0 -8 -5 -10.5t-13 -2.5h-525q-5 0 -10 1t-5 8v47q0 9 3 11.5t11 2.5h39q14 0 18 5t4 18v481q0 12 -4 17.5t-18 5.5h-39q-7 0 -10.5 2.5t-3.5 11.5v46q0 7 5 8.5t10 1.5h514q20 0 24.5 -4t4.5 -22v-126q0 -4 -2.5 -8t-7.5 -4q-10 0 -15 8l-47 68q-8 11 -22.5 17.5
t-34.5 6.5h-237q-14 0 -18 -5t-4 -19v-179q0 -10 5 -12.5t16 -2.5h232q11 0 13 4t2 15v40q0 6 5 7t10 1h33q8 0 13 -1.5t5 -9.5v-197q0 -6 -5.5 -8t-10.5 -2h-39q-11 0 -11 12v47q0 8 -3 12t-12 4h-231q-12 0 -17 -2.5t-5 -17.5v-201q0 -12 3.5 -16.5t17.5 -4.5h228
q26 0 40 7.5t25 21.5l54 71q5 5 10 5q10 0 10 -10v-149v0z" />
    <glyph glyph-name="F" unicode="F" horiz-adv-x="619" 
d="M610 513q0 -4 -0.5 -7.5t-6.5 -3.5q-9 0 -14 7l-44 60q-9 13 -21.5 17.5t-29.5 4.5h-230q-11 0 -16 -1t-5 -12v-163q0 -14 3 -20t17 -6h211q11 0 14.5 6t3.5 15v36q0 7 4 8.5t10 1.5h39q6 0 9.5 -1t3.5 -9v-197q0 -8 -5.5 -10t-12.5 -2h-31q-10 0 -13.5 3.5t-3.5 14.5v39
q0 8 -3 13.5t-13 5.5h-221q-8 0 -10 -6.5t-2 -14.5v-199q0 -14 4 -18.5t17 -4.5h46q14 0 14 -14v-47q0 -6 -5 -7.5t-10 -1.5h-221q-5 0 -10 1.5t-5 7.5v47q0 14 14 14h39q14 0 18 5t4 18v480q0 12 -4 17.5t-18 5.5h-39q-7 0 -10.5 2.5t-3.5 11.5v46q0 7 5 9t10 2h511
q8 0 9.5 -6.5t1.5 -13.5v-134v0z" />
    <glyph glyph-name="G" unicode="G" horiz-adv-x="795" 
d="M744 285q0 -6 -6.5 -7t-11.5 -1h-26q-9 0 -14.5 -4.5t-7.5 -15t-2.5 -29.5t-0.5 -47q0 -34 0.5 -60.5t0.5 -43.5q0 -8 -1 -12.5t-5 -8.5t-12 -8.5t-21 -13.5q-32 -20 -82.5 -33.5t-107.5 -13.5q-69 0 -125.5 15t-111.5 56q-70 51 -108 122t-38 144q0 86 37 159t106 124
q36 26 72 41.5t75 23t80.5 9.5t87.5 2h94q12 0 15.5 -2.5t3.5 -15.5v-159q0 -3 -2 -6t-6 -3q-8 0 -13.5 6.5t-16.5 28.5q-17 34 -59 59t-104 25q-54 0 -100.5 -21t-80.5 -57.5t-53 -87t-19 -110.5t19.5 -112t54 -90.5t83 -61t107.5 -22.5q42 0 75.5 15.5t44.5 33.5
q9 14 9.5 30t0.5 30v94q0 20 -22 20h-61q-11 0 -14.5 3t-3.5 14v38q0 11 4.5 13t13.5 2h243q6 0 7.5 -4.5t1.5 -8.5v-49v0z" />
    <glyph glyph-name="H" unicode="H" horiz-adv-x="866" 
d="M789 9q0 -6 -5 -7.5t-10 -1.5h-207q-5 0 -9.5 1.5t-4.5 7.5v47q0 14 14 14h37q13 0 17.5 4.5t4.5 18.5v196q0 8 -5.5 9t-10.5 1h-353q-11 0 -13.5 -3t-2.5 -14v-189q0 -14 4.5 -18.5t17.5 -4.5h37q14 0 14 -14v-47q0 -7 -4.5 -8t-9.5 -1h-207q-5 0 -10 1.5t-5 7.5v47
q0 14 14 14h33q13 0 17 4.5t4 18.5v481q0 13 -4 18t-17 5h-33q-7 0 -10.5 2t-3.5 12v46q0 7 5 8.5t10 1.5h207q5 0 9.5 -1.5t4.5 -8.5v-46q0 -9 -3 -11.5t-11 -2.5h-37q-13 0 -17.5 -5t-4.5 -18v-177q0 -11 3.5 -14.5t15.5 -3.5h347q12 0 15.5 3.5t3.5 14.5v177q0 13 -4 18
t-18 5h-37q-8 0 -11 2.5t-3 11.5v46q0 7 4.5 8.5t9.5 1.5h207q5 0 10 -1.5t5 -8.5v-46q0 -9 -3 -11.5t-11 -2.5h-33q-14 0 -17.5 -5t-3.5 -18v-481q0 -14 4 -18.5t17 -4.5h33q14 0 14 -14v-47v0z" />
    <glyph glyph-name="I" unicode="I" horiz-adv-x="389" 
d="M316 9q0 -6 -4.5 -7.5t-9.5 -1.5h-215q-5 0 -9.5 1.5t-4.5 7.5v47q0 14 14 14h40q14 0 17 5t3 18v481q0 12 -3 17.5t-17 5.5h-40q-8 0 -11 2.5t-3 11.5v46q0 7 4.5 8.5t9.5 1.5h215q5 0 9.5 -1.5t4.5 -8.5v-51q0 -5 -5 -7t-9 -2h-40q-13 0 -16.5 -5t-3.5 -18v-481
q0 -14 3.5 -18.5t16.5 -4.5h40q4 0 9 -1.5t5 -6.5v-53v0z" />
    <glyph glyph-name="J" unicode="J" horiz-adv-x="371" 
d="M309 606q0 -5 -4.5 -7t-8.5 -2h-32q-14 0 -17.5 -5.5t-3.5 -17.5v-461q0 -88 -44 -158.5t-130 -119.5q-23 -13 -43.5 -21.5t-37.5 -14t-28.5 -8t-14.5 -2.5q-10 0 -10 10q0 7 5 11.5t10 7.5q67 34 106.5 69t60 79t26 101.5t5.5 136.5v370q0 13 -4 18t-18 5h-33
q-8 0 -11 2.5t-3 11.5v46q0 7 5 8.5t10 1.5h201q5 0 9.5 -1.5t4.5 -8.5v-51v0z" />
    <glyph glyph-name="K" unicode="K" horiz-adv-x="777" 
d="M778 15q0 -8 -2.5 -11.5t-13.5 -3.5h-249q-11 0 -14.5 3t-3.5 13v40q0 14 14 14h35h8.5t5.5 5q0 6 -6.5 12.5t-12.5 11.5l-221 197q-8 7 -17 13.5t-15 6.5q-2 0 -5 -1t-5 -2l-24 -18q-8 -6 -9 -13t-1 -18v-171q0 -14 3.5 -18.5t16.5 -4.5h32q14 0 14 -14v-47
q0 -6 -4.5 -7.5t-9.5 -1.5h-206q-5 0 -10 1.5t-5 7.5v47q0 14 14 14h39q14 0 17.5 5t3.5 18v481q0 12 -3.5 17.5t-17.5 5.5h-39q-7 0 -10.5 2t-3.5 12v46q0 7 5 8.5t10 1.5h206q5 0 9.5 -1.5t4.5 -8.5v-46q0 -9 -3 -11.5t-11 -2.5h-32q-13 0 -16.5 -5t-3.5 -18v-183
q0 -9 0.5 -18t5.5 -9q6 0 25 14t48 38l148 121t50 53q0 7 -6.5 7h-12.5h-8q-11 0 -13.5 6t-2.5 15v35q0 9 4.5 11.5t11.5 2.5h218q6 0 13.5 -1t7.5 -8v-44q0 -12 -4.5 -14.5t-14.5 -2.5h-19q-23 0 -44 -12.5t-53 -37.5l-208 -162q-2 -2 -7.5 -5.5t-5.5 -5.5q0 -4 5.5 -9.5
t8.5 -7.5l288 -254q17 -14 30 -23.5t33 -9.5h20q11 0 14.5 -3t3.5 -13v-39v0z" />
    <glyph glyph-name="L" unicode="L" horiz-adv-x="618" 
d="M621 171q0 -1 -2 -5l-72 -151q-2 -5 -5.5 -10t-11.5 -5h-442q-5 0 -10 1.5t-5 7.5v47q0 14 14 14h39q14 0 17.5 5t3.5 18v481q0 12 -3.5 17.5t-17.5 5.5h-39q-7 0 -10.5 2t-3.5 12v46q0 7 5 8.5t10 1.5h231q5 0 9.5 -1.5t4.5 -8.5v-46q0 -9 -3 -11.5t-10 -2.5h-58
q-13 0 -16.5 -5t-3.5 -18v-475q0 -17 4 -23t21 -6h189q27 0 41.5 6.5t28.5 24.5l45 62q7 9 14.5 13t21.5 4q5 0 9.5 -1t4.5 -8z" />
    <glyph glyph-name="M" unicode="M" horiz-adv-x="972" 
d="M916 606q0 -5 -4.5 -7t-8.5 -2h-50q-14 0 -17.5 -5.5t-3.5 -17.5v-481q0 -13 4 -18t17 -5h41q14 0 14 -14v-47q0 -7 -4.5 -8t-9.5 -1h-211q-5 0 -10 1.5t-5 7.5v47q0 14 14 14h33q14 0 18 4.5t4 18.5v481l-110 -245l-74 -175t-42.5 -106t-14.5 -37q-4 -9 -15 -9
q-6 0 -10 4t-8 13t-9 23t-14 35l-98 221.5t-129 273.5v-479q0 -14 3.5 -18.5t16.5 -4.5h33q14 0 14 -14v-47q0 -6 -5 -7.5t-10 -1.5h-189q-5 0 -10 1.5t-5 7.5v47q0 14 14 14h39q14 0 17.5 5t3.5 18v481q0 12 -3.5 17.5t-17.5 5.5h-39q-7 0 -10.5 2t-3.5 12v46q0 7 5 8.5
t10 1.5h269q16 0 20.5 -2.5t4.5 -15.5v-35q0 -7 -2.5 -12t-9.5 -5h-21q-8 0 -13.5 -2t-5.5 -11q0 -21 100 -236l52.5 -111t23.5 -39t14.5 18.5t23.5 49.5q65 144 95.5 224.5t30.5 95.5q0 8 -7.5 9.5t-16.5 1.5h-14q-11 0 -15.5 3t-4.5 15v34q0 11 4 14.5t16 3.5h283
q5 0 9 -1.5t4 -8.5v-51v0z" />
    <glyph glyph-name="N" unicode="N" horiz-adv-x="937" 
d="M871 611q0 -9 -3.5 -11.5t-10.5 -2.5h-37q-13 0 -16.5 -5t-3.5 -18v-432q0 -57 1.5 -89.5t1.5 -42.5q0 -5 -3.5 -7.5t-7.5 -2.5h-30q-7 0 -11 0.5t-7 2.5t-7 5.5t-10 10.5l-220.5 225l-220.5 220l-40 40.5t-22 14.5q-2 0 -3 -9t-1 -15v-402q0 -14 4 -18.5t17 -4.5h33
q14 0 14 -14v-47q0 -6 -4.5 -7.5t-9.5 -1.5h-190q-10 0 -12.5 3.5t-2.5 13.5v39q0 14 15 14h36q13 0 17.5 4.5t4.5 18.5v481q0 13 -4.5 18t-17.5 5h-38q-7 0 -10 2t-3 12v46q0 7 4.5 8.5t9.5 1.5h254q17 0 21 -3.5t4 -19.5v-28q0 -15 -17 -15h-12q-8 0 -17 -2t-9 -7
q0 -11 9 -21l19 -21q32 -36 120 -125t237 -227l11.5 -11.5t15.5 -6.5q4 0 3.5 4t-0.5 8v382q0 13 -4 18t-18 5h-36q-8 0 -11 2.5t-3 11.5v46q0 7 5 8.5t10 1.5h191q10 0 12.5 -3t2.5 -14v-39v0z" />
    <glyph glyph-name="O" unicode="O" horiz-adv-x="830" 
d="M766 336q0 -167 -113 -266q-47 -41 -104 -63.5t-103 -22.5q-64 0 -117 12t-103 44q-36 23 -65.5 55.5t-51.5 69.5t-34 75.5t-12 74.5q0 106 32.5 180t107.5 125q43 30 95.5 46t104.5 16q81 0 148 -29t114.5 -77.5t74 -111t26.5 -128.5zM653 288q0 81 -21 143t-56.5 104
t-81.5 63.5t-96 21.5t-91.5 -16.5t-71.5 -47.5t-46.5 -75.5t-16.5 -99.5q0 -71 19 -131t54.5 -104.5t86.5 -69.5t115 -25q38 0 79.5 18t69.5 49q27 30 42 74t15 96z" />
    <glyph glyph-name="P" unicode="P" horiz-adv-x="636" 
d="M618 469q0 -25 -10 -51t-29 -49.5t-47 -43.5t-65 -32q-28 -9 -69 -15t-86 -6q-25 0 -39 -0.5t-20.5 -3t-8 -8.5t-1.5 -16v-151q0 -14 4.5 -18.5t17.5 -4.5h49q14 0 14 -14v-47q0 -6 -5 -7.5t-10 -1.5h-225q-5 0 -10 1.5t-5 7.5v47q0 14 14 14h39q14 0 18 5t4 18v481
q0 12 -4 17.5t-18 5.5h-39q-7 0 -10.5 2t-3.5 12v46q0 7 5 8.5t10 1.5h229q73 0 130 -11t102 -45q36 -27 52.5 -61.5t16.5 -80.5zM520 466q0 66 -52.5 104.5t-152.5 38.5h-38.5t-22 -2t-9.5 -7t-2 -14v-238q0 -12 3 -17t17 -5q127 0 192 30t65 110z" />
    <glyph glyph-name="Q" unicode="Q" horiz-adv-x="848" 
d="M1016 -174q0 -16 -7 -20.5t-34 -8.5q-29 -4 -63.5 -6.5t-69.5 -2.5q-128 0 -222 24t-160 82q-14 12 -25 24.5t-19.5 23.5t-14 19t-6.5 11q-5 9 -15 12.5t-28 6.5q-64 10 -117 44t-91 80.5t-59 99.5t-21 101q0 104 34 178.5t109 125.5q45 31 97 46.5t108 15.5
q82 0 150.5 -29t117.5 -77t76.5 -110.5t27.5 -128.5q0 -71 -20 -124t-50.5 -91t-66 -62.5t-66 -39t-50.5 -21t-20 -8.5q0 -8 24.5 -33.5t72 -54t118 -50.5t163.5 -22q54 0 83.5 4.5t35.5 4.5q5 0 6.5 -5t1.5 -9zM671 288q0 80 -21.5 142t-57.5 104t-83.5 64t-99.5 22
q-53 0 -96.5 -16.5t-74.5 -47.5t-48 -75.5t-17 -99.5q0 -70 20 -130.5t57 -105t89.5 -70t116.5 -25.5q40 0 79 16.5t69 47.5t48.5 75t18.5 99z" />
    <glyph glyph-name="R" unicode="R" horiz-adv-x="689" 
d="M684 16q0 -11 -4 -16.5t-23 -5.5q-33 0 -72 17.5t-78 48.5t-75.5 73t-64.5 92l-14.5 26.5t-11 16.5t-11.5 8t-17 2q-26 0 -40.5 -1t-21 -4t-7.5 -9.5t-1 -17.5v-153q0 -14 4.5 -18.5t17.5 -4.5h44q14 0 14 -14v-47q0 -6 -4.5 -7.5t-9.5 -1.5h-221q-5 0 -10 1.5t-5 7.5v47
q0 14 14 14h39q14 0 18 5t4 18v480q0 12 -4 17.5t-18 5.5h-39q-7 0 -10.5 2t-3.5 12v46q0 7 5 9t10 2h225q134 0 203 -51.5t69 -143.5q0 -33 -10.5 -59t-26.5 -45.5t-34.5 -33t-34.5 -22.5l-26.5 -14.5t-10.5 -8.5q0 -8 9 -26.5t26.5 -43.5t43.5 -54.5t60 -60.5
q25 -23 44 -35.5l32 -20.5t20 -14.5t7 -17.5zM492 477q0 54 -46 88.5t-126 34.5h-38t-23.5 -1t-12 -4t-3.5 -9v-224q0 -11 2 -16.5t7.5 -7.5t16 -2h27.5q100 0 148 34.5t48 106.5z" />
    <glyph glyph-name="S" unicode="S" horiz-adv-x="619" 
d="M557 179q0 -39 -17.5 -75t-51.5 -63t-85 -43t-117 -16q-60 0 -111.5 10t-77.5 21q-11 5 -17.5 11t-7.5 18l-6 115q0 5 1.5 9.5t7.5 4.5t11.5 -8l11.5 -17q12 -19 32 -36.5t47.5 -31t61 -21.5t71.5 -8q65 0 105 28.5t40 77.5q0 37 -24 64.5t-65 43.5q-66 25 -122 48.5
t-96.5 50.5t-63.5 61.5t-23 82.5q0 38 16.5 71t49.5 57t82.5 38t115.5 14q37 0 70.5 -4t58.5 -10.5t39.5 -14t14.5 -14.5l-4 -107q0 -3 -1.5 -7t-6.5 -4q-6 0 -8 4q-5 6 -10.5 14.5t-10.5 14.5q-8 10 -24 19.5t-39 17t-51 12.5t-59 5q-140 0 -140 -91q0 -34 27.5 -57.5
t86.5 -46.5l118 -47.5t91 -47t59 -59.5t21 -84z" />
    <glyph glyph-name="T" unicode="T" horiz-adv-x="671" 
d="M695 679q0 -2 -1.5 -6.5t-2.5 -5.5l-60 -154q-2 -4 -5 -8t-8 -4q-11 0 -12 9q-4 20 -7.5 33t-11 20.5t-21 10t-37.5 2.5h-136q-8 0 -15 -2t-7 -12v-469q0 -14 4 -18.5t17 -4.5h46q14 0 14 -14v-47q0 -6 -5 -7.5t-10 -1.5h-228q-5 0 -10 1.5t-5 7.5v47q0 14 14 14h46
q13 0 17.5 4.5t4.5 18.5v456q0 19 -4.5 23t-24.5 4h-127q-35 0 -54 -13t-41 -32q-10 -8 -16 -13.5t-19 -5.5q-5 0 -9 1.5t-4 7.5q0 5 9.5 24.5l24.5 51.5q12 26 18 43l9.5 27t7 14t10.5 4q3 0 6.5 -0.5t5.5 -5.5q5 -10 9 -15.5t10 -8t15 -3t24 -0.5h397q39 0 62.5 2.5
t38.5 7t25 10.5l22 13q3 2 6 2h7t7.5 -1.5t3.5 -6.5z" />
    <glyph glyph-name="U" unicode="U" horiz-adv-x="724" 
d="M685 611q0 -9 -3 -11.5t-11 -2.5h-29q-13 0 -17 -5t-4 -18v-252q0 -92 -17 -156.5t-66 -108.5q-32 -29 -77.5 -45t-96.5 -16q-81 0 -143 36.5t-91 101.5q-19 42 -22 88t-3 100v252q0 12 -4 17.5t-18 5.5h-29q-7 0 -10.5 2t-3.5 12v46q0 7 5 8.5t10 1.5h199q5 0 10 -1.5
t5 -8.5v-46q0 -9 -3 -11.5t-11 -2.5h-30q-17 0 -19.5 -7.5t-2.5 -27.5v-240q0 -62 5.5 -110t34.5 -84q22 -28 57 -43t78 -15q38 0 73.5 18.5t56.5 49.5q23 33 29 78.5t6 105.5v252q0 13 -3 18t-17 5h-30q-7 0 -10.5 2t-3.5 12v46q0 7 5 8.5t10 1.5h177q5 0 9.5 -1.5
t4.5 -8.5v-46v0z" />
    <glyph glyph-name="V" unicode="V" horiz-adv-x="636" 
d="M657 614q0 -6 -2 -11.5t-10 -5.5h-32q-11 0 -17.5 -2.5t-11 -9t-8.5 -17l-10 -26.5q-17 -52 -43 -124l-55.5 -154.5l-81.5 -214.5l-14.5 -39t-19.5 -15h-43q-12 0 -18 4.5t-12 18.5l-84.5 205.5l-59.5 156.5l-38 105.5t-20 52.5q-7 16 -11 27.5t-10 18.5t-15.5 10
t-26.5 3h-15q-7 0 -13 1.5t-6 9.5v43q0 6 2 11t9 5h226q7 0 8 -5.5t1 -10.5v-39q0 -8 -3 -11.5t-12 -3.5h-20q-8 0 -15 -2t-7 -11q0 -8 12 -40l32 -88q107 -295 124 -295q8 0 16.5 20l22.5 55q63 158 92 247.5t29 103.5q0 6 -5.5 8t-11.5 2h-17q-9 0 -13 3t-4 14v36
q0 11 4 14t13 3h182q7 0 9.5 -4.5t2.5 -10.5v-38v0z" />
    <glyph glyph-name="W" unicode="W" horiz-adv-x="1025" 
d="M1059 612q0 -11 -3.5 -13t-12.5 -2h-26q-19 0 -30.5 -4t-21 -17t-20.5 -38.5l-30 -68.5q-27 -62 -81 -166.5t-127 -259.5q-15 -31 -21 -42t-19 -11h-20q-6 0 -10.5 3t-9 11.5t-9.5 22t-14 34.5l-62.5 150t-30.5 50q-15 0 -97 -185l-19.5 -44t-13 -26t-10.5 -12.5
t-12 -3.5h-29q-11 0 -14.5 6.5l-8.5 16.5l-59 133l-76 165l-109 230q-8 16 -13 27t-10.5 17.5t-12 9t-18.5 2.5h-24q-10 0 -15 2.5t-5 14.5v34q0 11 4 15t16 4h212q7 0 8.5 -5t1.5 -10v-44q0 -7 -6 -9t-12 -2h-11q-8 0 -11.5 -2.5t-3.5 -10.5q0 -11 17.5 -51t50.5 -109
l100.5 -206.5t39.5 -69.5q2 0 6.5 9.5t9.5 17.5l70 141l10.5 22.5t5.5 19.5q0 9 -3.5 18.5t-7.5 17.5l-81 162q-10 20 -17 30.5t-27 10.5h-18q-11 0 -14.5 4t-3.5 15v35q0 6 2.5 11t8.5 5h179q8 0 10 -4t2 -11v-45q0 -7 -8 -9q-9 -2 -16 -5t-7 -15q0 -6 3.5 -15.5t6.5 -15.5
l33 -67q2 -5 6 -12t6 -7q1 0 10 14.5t19.5 34.5t19 41t8.5 34q0 5 -7.5 9.5t-15.5 7.5q-2 1 -2.5 5t-0.5 6v38q0 11 4 13.5t15 2.5h140q8 0 10.5 -4t2.5 -12v-36q0 -12 -4 -15t-17 -3h-19q-17 0 -23.5 -6.5t-14.5 -21.5l-81 -167q-3 -6 -5.5 -12.5t-2.5 -18.5q0 -4 4.5 -14
t8.5 -18l72 -163q4 -8 8 -18t6 -10t14.5 21.5t32.5 59.5q88 167 127.5 257.5t39.5 97.5q0 8 -4.5 10.5t-12.5 2.5h-17q-10 0 -11.5 5t-1.5 13v35q0 10 2 13.5t13 3.5h205q6 0 8 -5.5t2 -10.5v-39v0z" />
    <glyph glyph-name="X" unicode="X" horiz-adv-x="777" 
d="M774 16q0 -11 -5.5 -13.5t-17.5 -2.5h-243q-14 0 -18 3t-4 15v35q0 11 3 14t12 3h18q11 0 19 3t8 12q0 8 -7 16.5l-14 16.5l-123 134q-5 6 -12.5 13t-12.5 7t-12 -6.5t-12 -12.5l-123 -138l-12 -14t-6 -15q0 -9 7 -12.5t17 -3.5h9q11 0 15 -3t4 -16v-33q0 -7 -2.5 -12.5
t-10.5 -5.5h-230q-12 0 -15.5 2.5t-3.5 12.5v36q0 13 3.5 16t14.5 3h25q13 0 23.5 2.5t20.5 9.5t22 18.5l29 28.5l168 172q6 6 12.5 13.5t6.5 14.5q0 5 -6.5 13t-12.5 14l-182 193l-33.5 34t-38.5 14h-23q-10 0 -14 2.5t-4 12.5v38q0 11 4.5 14t15.5 3h253q6 0 7 -5.5
t1 -9.5v-39q0 -11 -3 -13.5t-14 -2.5h-20q-7 0 -13 -2t-6 -10t4.5 -14.5t9.5 -11.5l128 -137q4 -5 9.5 -11t11.5 -6q5 0 11.5 6t10.5 11l119 139l9 11.5t5 11.5q0 8 -6.5 10.5t-14.5 2.5h-21q-10 0 -13 3.5t-3 12.5v36q0 11 4.5 14.5t15.5 3.5h234q11 0 14.5 -3t3.5 -14v-35
q0 -9 -2.5 -13.5t-11.5 -4.5h-21q-19 0 -33.5 -4t-28.5 -13t-28.5 -23l-33.5 -34l-139 -146l-13 -13.5t-7 -13.5t6.5 -14t13.5 -15l198 -215l15.5 -17t12.5 -11t14 -6t21 -2h28q8 0 10.5 -5.5t2.5 -12.5v-36v0z" />
    <glyph glyph-name="Y" unicode="Y" horiz-adv-x="654" 
d="M684 614q0 -9 -3 -13t-12 -4h-33q-17 0 -27.5 -4.5t-19 -13.5t-16.5 -22l-19 -30l-86 -136.5l-80 -127.5q-17 -26 -20 -44.5t-3 -37.5v-88q0 -14 4.5 -18.5t17.5 -4.5h39q14 0 14 -14v-47q0 -6 -4.5 -7.5t-9.5 -1.5h-217q-5 0 -10 1.5t-5 7.5v47q0 14 14 14h39
q13 0 18 4.5t5 18.5v77q0 24 -3.5 43.5t-16.5 45.5q-7 14 -44.5 82t-109.5 183l-19.5 32t-16.5 23t-17 13.5t-21 4.5h-24q-9 0 -14 2.5t-5 14.5v37q0 6 2 11t10 5h231q10 0 14 -3t4 -13v-37q0 -5 -2 -11t-8 -6h-27q-11 0 -17.5 -3.5t-6.5 -11.5t4 -16t8 -15l124 -217
l8.5 -14.5t8.5 -7.5q5 0 18 22l36 61l71 124.5t26 62.5q0 15 -23 15h-13q-17 0 -17 17v37q0 10 4 13t13 3h226q7 0 9 -5t2 -11v-37v0z" />
    <glyph glyph-name="Z" unicode="Z" horiz-adv-x="760" 
d="M730 20q0 -5 -1.5 -12.5t-6.5 -7.5q-14 0 -34.5 6.5t-43.5 7.5q-42 2 -94.5 4t-115.5 2q-125 0 -211 -1t-134 -10q-17 -3 -31 -6t-19 -3q-8 0 -13.5 10.5t-5.5 16.5q0 11 15 21.5t37 30.5q45 42 79 77l59 60l312 315q3 3 8.5 9t5.5 9q0 4 -19 6t-48.5 2.5t-63.5 0.5h-64
h-100t-65 -6.5t-37.5 -21.5t-16.5 -45q-3 -23 -7.5 -32.5t-13.5 -9.5q-8 0 -9.5 5.5t-1.5 13.5v185v10.5t5 5.5q4 0 11 -1.5t11 -2.5q25 -5 96.5 -8.5t188.5 -3.5q138 0 211.5 7.5t85.5 7.5q6 0 11.5 -8t5.5 -18q0 -3 -46.5 -51l-137.5 -142l-300 -307l-6 -6t-4 -9
q0 -7 20.5 -7.5t64.5 -0.5q132 0 213.5 1t111.5 12t45 33.5t18 45.5q3 26 7.5 35t14.5 9q13 0 13 -13v-216v0z" />
    <glyph glyph-name="bracketleft" unicode="[" horiz-adv-x="397" 
d="M330 -181q0 -6 -4.5 -8t-9.5 -2h-176q-5 0 -9.5 2t-4.5 8v838q0 6 4.5 8.5t9.5 2.5h176q5 0 9.5 -2t4.5 -9v-29q0 -14 -13 -14h-96q-14 0 -19 -4.5t-5 -18.5v-706q0 -14 5 -18t19 -4h96q13 0 13 -15v-29v0z" />
    <glyph glyph-name="backslash" unicode="\" horiz-adv-x="548" 
d="M578 -172q0 -5 -4 -7t-6 -4l-22 -12q-2 -1 -5.5 -3t-7.5 -2t-7 4t-4 6l-468 833q-1 2 -3 5.5t-2 8.5q0 3 3 5.5t5 3.5l24 15q8 4 13 4q4 0 7.5 -5l5.5 -8l465 -828q1 -2 3.5 -6.5t2.5 -9.5z" />
    <glyph glyph-name="bracketright" unicode="]" horiz-adv-x="397" 
d="M271 -181q0 -6 -4.5 -8t-9.5 -2h-176q-5 0 -9.5 2t-4.5 8v35q0 5 4 7t9 2h96q14 0 19.5 4t5.5 18v706q0 14 -5.5 18.5t-19.5 4.5h-96q-4 0 -8.5 2t-4.5 7v34q0 6 4.5 8.5t9.5 2.5h176q5 0 9.5 -2t4.5 -9v-838v0z" />
    <glyph glyph-name="asciicircum" unicode="^" 
d="M466 290q0 -7 -19 -7h-33q-9 0 -13 1.5t-7 8.5l-147 264l-148 -264q-3 -7 -6.5 -8.5t-13.5 -1.5h-21q-28 0 -28 11q0 4 3 10l89.5 156.5t89.5 162.5q4 6 7.5 8t12.5 2h31q9 0 13 -2t8 -8q1 -3 5 -9l171 -310q2 -5 4 -8.5t2 -5.5z" />
    <glyph glyph-name="underscore" unicode="_" horiz-adv-x="500" 
d="M500 -109q0 -13 -4 -14.5t-13 -1.5h-466q-13 0 -15 3.5t-2 12.5v23q0 13 4 14t13 1h466q13 0 15 -3t2 -12v-23v0z" />
    <glyph glyph-name="grave" unicode="`" horiz-adv-x="500" 
d="M308 433q0 -2 -1 -2.5t-3 -2.5l-4 -3q-4 -2 -7 -2q-2 0 -3.5 1.5l-3.5 3.5l-122 138q-1 2 -3.5 5t-2.5 7q0 3 3.5 5.5t5.5 3.5l32 21q1 1 4 3t6 2q5 0 8 -5.5t5 -8.5l84 -156q2 -4 2 -10z" />
    <glyph glyph-name="a" unicode="a" horiz-adv-x="434" 
d="M432 104q0 -4 -11 -21.5t-29 -37t-40 -35t-44 -15.5q-27 0 -43 21l-10.5 13.5t-12.5 5.5q-5 0 -9 -3q-22 -12 -44 -21q-19 -8 -42 -14t-43 -6q-32 0 -50.5 21t-18.5 60q0 20 10 41t26 35q26 24 67.5 35.5t89.5 21.5q11 2 14 8t3 17q0 38 -12 59.5t-52 21.5
q-32 0 -49.5 -10t-27 -22t-14.5 -22t-14 -10q-3 0 -4 1l-4 1q-4 1 -4 7t8.5 26t26.5 41t45 38t64 17q61 0 88 -17t27 -62q0 -17 -0.5 -35t-0.5 -32v-107q0 -24 4 -38t20 -14q11 0 24 6.5t23 14.5q8 8 16 14t16 6q7 0 7 -10zM249 133q0 27 -3 34t-14 7q-15 0 -35 -5t-38 -15
t-30.5 -24t-12.5 -32q0 -21 16.5 -35t41.5 -14q29 0 49.5 12.5t22.5 19.5q2 9 2.5 23.5t0.5 28.5z" />
    <glyph glyph-name="b" unicode="b" horiz-adv-x="477" 
d="M446 213q0 -48 -14.5 -88.5t-39.5 -70t-58 -46.5t-70 -17q-22 0 -41 5.5t-33.5 12.5l-25 12.5t-15.5 5.5q-8 0 -11 -7.5l-7 -17.5q-3 -9 -7.5 -10.5t-12.5 -1.5l-34 1q-4 0 -9 2t-5 7t5.5 36.5t5.5 83.5v308q0 53 -1 74.5t-19 21.5q-11 0 -21 -6.5t-15 -6.5q-3 0 -5 3
t-3 5l-10 21q-1 2 -3 5t-2 7t5 8t8 6q75 45 112 73t45 28q6 0 9 -5l14 -24q3 -5 3 -8q0 -4 -5.5 -9.5t-10.5 -9.5q-17 -16 -20 -49t-3 -87v-116q0 -12 0.5 -23t5.5 -11q6 0 14.5 5.5l18.5 12.5q52 35 104 35q30 0 57.5 -12t48 -34t33 -52t12.5 -67zM365 187q0 24 -9 47
t-25 41t-38 29.5t-49 11.5q-26 0 -47 -15t-35 -40q-8 -14 -9 -28.5t-1 -32.5v-32q0 -23 4 -40.5t23 -35.5q17 -16 39 -25t44 -9q47 0 75 31.5t28 97.5z" />
    <glyph glyph-name="c" unicode="c" horiz-adv-x="335" 
d="M317 87q0 -4 -1.5 -7l-2.5 -5l-22 -45l-8 -15.5t-12.5 -12.5t-22 -8t-37.5 -3q-41 0 -74.5 15t-56.5 41t-35.5 62t-12.5 77q0 51 15 89t47 64q23 18 50.5 28.5t50.5 10.5q25 0 47 -5t38 -12.5t25.5 -15t9.5 -11.5t-3 -10l-4 -8l-16 -35q-2 -3 -4.5 -7.5t-7.5 -4.5
q-3 0 -7 4q-3 4 -13.5 11t-24 14t-30 12.5t-31.5 5.5q-35 0 -55.5 -21.5t-20.5 -59.5t10.5 -69.5t28.5 -54t41 -34.5t47 -12q29 0 44 9t31 20q4 2 6 2q5 0 8 -3.5t3 -5.5z" />
    <glyph glyph-name="d" unicode="d" horiz-adv-x="459" 
d="M454 69q0 -3 -9.5 -8.5l-18.5 -10.5q-45 -26 -69.5 -42.5t-30.5 -16.5t-8 5l-5 11q0 1 -1 4t-1 5q0 4 2.5 15t2.5 24q0 5 -1.5 10t-6.5 5t-15.5 -12.5t-26.5 -27t-38.5 -27t-50.5 -12.5q-47 0 -91 47q-17 19 -27.5 37t-16.5 37.5t-8 41t-2 46.5q0 36 13 68t34 57
t48.5 39.5t56.5 14.5q31 0 54 -6.5t38 -12.5t22.5 -8.5t7.5 5.5q0 5 0.5 14.5t0.5 15.5v81q0 32 -3 49t-16 17q-6 0 -11.5 -3.5t-10.5 -3.5q-3 0 -5 3t-3 4l-11 16q-1 2 -3 5.5t-2 6.5q0 6 7.5 12t21.5 14l34.5 20.5t46.5 31.5q14 11 25.5 19t16.5 8q4 0 6.5 -2.5t3.5 -4.5
l10 -18q1 -2 2.5 -4.5t1.5 -7.5q0 -6 -7 -9q-2 -2 -9 -10.5t-10 -16.5q-6 -14 -6.5 -43.5t-0.5 -74.5v-344q0 -21 1.5 -30t15.5 -9q11 0 19.5 5t13.5 5q6 0 9 -5l6 -15q1 -2 2.5 -6t1.5 -8zM307 212q0 17 -3 31.5t-18 31.5q-17 20 -45 33t-52 13q-45 0 -68 -25t-23 -61
q0 -38 10 -67t26.5 -48.5t38 -29.5t43.5 -10q37 0 64 26t27 79v27z" />
    <glyph glyph-name="e" unicode="e" horiz-adv-x="380" 
d="M360 92q0 -6 -12 -23t-32.5 -34t-48 -30.5t-57.5 -13.5q-17 0 -28.5 0.5t-27.5 5.5q-26 7 -48 23t-38.5 39.5t-26 52t-9.5 60.5q0 47 14 85t37 65t53 41.5t63 14.5q37 0 65.5 -9.5t47 -23.5t28 -29.5t9.5 -26.5q0 -9 -8 -11.5t-23 -6.5q-42 -11 -90 -30.5t-95 -44.5
q-5 -3 -9.5 -6.5t-4.5 -11.5q0 -18 9 -37t27 -35t45.5 -26.5t63.5 -10.5q23 0 38.5 7t29.5 15q4 2 10 6t10 4t6 -3t2 -6zM232 294q0 14 -15 26t-36 12q-32 0 -50 -23.5t-18 -71.5q0 -5 6 -5q1 0 19 7.5t39 18t38 20.5t17 16z" />
    <glyph glyph-name="f" unicode="f" horiz-adv-x="283" 
d="M371 590q0 -4 -6.5 -12.5t-15.5 -17.5t-18 -16t-14 -7t-12.5 6.5l-13.5 11.5q-11 10 -24 16.5t-27 6.5q-23 0 -37.5 -11.5t-22 -32.5t-10 -51.5t-2.5 -67.5q0 -23 4 -32.5t29 -8.5l64 2q2 0 3.5 0.5t3.5 0.5q6 0 7 -6.5t1 -23.5q0 -18 -1 -25t-9 -7q-4 0 -6 1t-6 1h-60
q-15 0 -22 -2t-7 -18v-181q0 -38 2.5 -50t18.5 -12h29q14 0 14 -13v-25q0 -8 -1.5 -12t-9.5 -4h-177q-11 0 -11 11v30q0 13 14 13h24q14 0 16.5 12.5t2.5 49.5v190q0 7 -7 8t-15 1l-27 -1q-10 0 -12 3.5t-2 14.5v35q0 6 4 7.5t9 1.5h28q10 0 14 2t5.5 10t1.5 24.5t1 45.5
q1 34 5 54.5t12 35.5t22 28t34 34q22 23 40 40t50 17q18 0 39 -10.5t38 -23.5t28.5 -26t11.5 -17z" />
    <glyph glyph-name="g" unicode="g" horiz-adv-x="424" 
d="M433 323q0 -17 -7 -19.5t-29 -3.5q-17 -1 -32 -7.5t-15 -17.5q0 -6 3 -21.5t3 -33.5q0 -57 -36 -91t-109 -48q-16 -3 -31.5 -7.5t-27.5 -9.5t-19.5 -10.5t-7.5 -9.5q0 -7 13 -11t34 -9l77.5 -17.5t57.5 -18.5q38 -17 58.5 -46.5t20.5 -62.5q0 -24 -11 -46t-33.5 -39
t-56 -27.5t-79.5 -10.5q-38 0 -71 9t-57.5 25t-38.5 37t-14 44q0 35 50 59q17 8 30 17t13 15q0 4 -7 6q-4 1 -15.5 7.5t-23.5 16t-21.5 21.5t-9.5 25q0 9 10.5 14t21.5 9q26 9 43.5 16t17.5 12t-5 8q-84 37 -84 127q0 30 11 58t31 49t48.5 34t64.5 13q40 0 67 -17.5
t50 -41.5q3 -3 5 -3q6 0 18.5 10.5l26.5 22.5t29 22.5t26 10.5q7 0 9 -16.5t2 -42.5zM278 196q0 57 -27 92.5t-69 35.5q-31 0 -47.5 -22t-16.5 -52q0 -58 26.5 -91t64.5 -33q33 0 51 19t18 51zM324 -123q0 25 -38 46t-103 21q-26 0 -45.5 -19t-19.5 -49q0 -25 28.5 -48
t81.5 -23q40 0 68 18.5t28 53.5z" />
    <glyph glyph-name="h" unicode="h" 
d="M472 16q0 -8 -1.5 -12t-9.5 -4h-151q-11 0 -11 10v30q0 14 14 14h14q14 0 16.5 12t2.5 49v55q0 78 -26 116.5t-84 38.5q-20 0 -41 -7.5t-28 -19.5q-4 -7 -5.5 -20.5t-1.5 -27.5v-135q0 -36 2.5 -48.5t16.5 -12.5h14q14 0 14 -14v-30q0 -10 -11 -10h-150q-5 0 -8.5 2.5
t-3.5 7.5v30q0 14 15 14h14q14 0 16.5 12t2.5 49v389q0 11 -4.5 19t-13.5 8q-7 0 -13 -2.5t-11 -2.5q-2 0 -2.5 1t-2.5 3l-15 22q-1 1 -2.5 4t-1.5 5q0 5 9.5 11.5t22.5 14.5q57 38 85.5 58.5t36.5 20.5q2 0 6 -4l17 -21q1 -2 2.5 -4.5t1.5 -5.5t-1 -4l-14.5 -15t-11 -17.5
t-7.5 -27t-3 -41.5v-166q0 -7 6 -7q4 0 13.5 4t23.5 9t31.5 9t38.5 4q68 0 109.5 -43t41.5 -121v-100q0 -36 2.5 -48.5t16.5 -12.5h15q14 0 14 -14v-24v0z" />
    <glyph glyph-name="i" unicode="i" horiz-adv-x="247" 
d="M205 602q0 -4 -2 -13t-5 -18.5t-6.5 -18t-5.5 -11.5q-5 -5 -14.5 -9.5t-20 -7.5t-20 -5t-13.5 -2q-3 0 -9 3.5t-6 11.5q0 1 1.5 10t4.5 20.5t6.5 21.5t8.5 14q3 3 12.5 5.5t20 4.5t20.5 3.5t16 1.5q2 0 7 -4.5t5 -6.5zM224 10q0 -5 -3.5 -7.5t-8.5 -2.5h-164q-8 0 -10 4
t-2 12v24q0 14 15 14h20q15 0 17.5 12.5t2.5 48.5v134q0 12 -3.5 19t-14.5 7q-2 0 -8 -1t-7 -1h-5.5t-5.5 4l-8 16q-3 4 -3 8q0 5 1.5 7.5t6.5 4.5q64 33 96.5 51.5t41.5 18.5q2 0 4.5 -1.5t3.5 -2.5l5 -6q3 -3 3 -7q0 -6 -4 -9q-13 -11 -19 -45.5t-6 -90.5v-106
q0 -36 3 -48.5t18 -12.5h19q15 0 15 -14v-30z" />
    <glyph glyph-name="j" unicode="j" horiz-adv-x="229" 
d="M167 572q-3 -18 -14.5 -29.5t-25 -18.5t-25 -10t-15.5 -3q-3 0 -8.5 4.5t-5.5 16.5l0.5 6t2 15t3 19t4.5 19q2 6 12.5 13t23.5 13t24 9.5t14 3.5q10 0 13.5 -4.5t3.5 -12.5t-2.5 -18.5t-4.5 -22.5zM173 365q0 -1 -3 -30.5t-3 -87.5q0 -57 1 -105.5t1 -87.5
q0 -41 -9.5 -72.5t-34.5 -66.5q-21 -30 -42.5 -52t-39.5 -37t-30.5 -22.5t-15.5 -7.5q-9 0 -9 7q0 4 11.5 18t30.5 35q21 23 40 76t19 128v149q0 35 -7.5 49t-25.5 14q-2 0 -7.5 -1t-9.5 -1q-2 0 -2 1t-1 2l-7 15q-1 1 -1.5 3.5t-0.5 3.5q0 8 14 16t42 28l45 32t22 12
q4 0 8 -2l7 -4l5 -5t3 -7z" />
    <glyph glyph-name="k" unicode="k" horiz-adv-x="459" 
d="M452 13q0 -8 -2 -10.5t-12 -2.5h-167q-11 0 -14 1.5t-3 11.5v32q0 6 5.5 7.5t11.5 1.5h14q3 0 5.5 0.5t2.5 5.5q0 6 -9 19l-22 32l-35 49.5t-18 17.5q-16 -7 -28 -15q-11 -7 -19 -16.5t-8 -21.5v-9q0 -37 2.5 -49.5t16.5 -12.5h9q15 0 15 -13v-25q0 -8 -2 -12t-10 -4
h-149q-8 0 -9.5 4.5t-1.5 11.5v25q0 13 14 13h18q14 0 16.5 12.5t2.5 49.5v353q0 33 -3.5 48.5t-21.5 15.5q-5 0 -10.5 -1.5t-6.5 -1.5q-3 0 -5 2t-3 4l-11 20q-1 2 -2 5t-1 5q0 8 19.5 19.5l56.5 34.5q32 20 50 33.5t25 13.5q2 0 4.5 -2t3.5 -3l14 -17q1 -1 3 -5t2 -6
q0 -4 -6 -11.5l-13 -15.5q-12 -14 -14.5 -45.5t-2.5 -84.5v-264q0 -2 0.5 -7t4.5 -5t25 14.5t45 34t43 37.5t19 26q0 5 -6 6.5t-11 1.5h-5q-5 0 -10 1t-5 6v34q0 5 0.5 9t7.5 4h182q5 0 6.5 -3.5t1.5 -8.5v-30q0 -12 -12 -13q-35 -4 -69.5 -20t-71.5 -50q-4 -3 -10 -8.5
t-6 -8.5q0 -5 9 -20.5t23 -32.5q20 -26 34.5 -48.5t27.5 -40t25.5 -27.5t29.5 -10q8 0 14 -1t6 -10v-30v0z" />
    <glyph glyph-name="l" unicode="l" horiz-adv-x="229" 
d="M213 16q0 -7 -1 -11.5t-9 -4.5h-167q-11 0 -11 10v30q0 14 14 14h17q15 0 17 12.5t2 48.5v339q0 45 -3.5 63.5t-23.5 18.5q-6 0 -12.5 -2.5t-10.5 -2.5q-2 0 -4.5 4t-3.5 5l-11 19q-2 4 -2 5q0 6 5.5 10.5t21.5 13.5q54 31 87.5 55t42.5 24q3 0 5 -2l4 -4l14 -21
q3 -3 3 -9q0 -2 -3 -5.5t-4 -4.5q-19 -15 -23 -40t-4 -63v-403q0 -37 2.5 -49t16.5 -12h28q13 0 13 -14v-24v0z" />
    <glyph glyph-name="m" unicode="m" horiz-adv-x="760" 
d="M741 16q0 -8 -2 -12t-10 -4h-154q-8 0 -9.5 4t-1.5 12v24q0 14 14 14h15q14 0 16.5 12t2.5 49v81q0 61 -30 94t-75 33q-24 0 -47 -13q-12 -7 -18 -15t-9 -18t-3 -23v-31v-108q0 -37 2.5 -49t16.5 -12h9q15 0 15 -14v-24q0 -8 -2 -12t-10 -4h-143q-8 0 -9.5 4t-1.5 12v24
q0 14 14 14h12q14 0 16.5 12t2.5 49v69q0 139 -97 139q-26 0 -47.5 -10.5t-29.5 -24.5q-4 -8 -5 -26t-1 -40v-107q0 -36 2 -48.5t16 -12.5h9q14 0 14 -14v-30q0 -10 -11 -10h-148q-8 0 -9.5 4.5t-1.5 11.5v24q0 14 14 14h18q14 0 16.5 12.5t2.5 48.5v123q0 22 -6 35t-19 13
q-5 0 -11 -2.5t-8 -2.5q-5 0 -8 5l-10 22q0 1 -1.5 3.5t-1.5 4.5q0 8 23.5 18t63.5 32q11 6 22.5 11.5t16.5 5.5q4 0 6.5 -3t3.5 -4l7 -8q5 -5 5 -9q0 -5 -5 -12.5t-5 -11.5t4 -4q11 0 21 12q1 1 10 6.5t23 11.5t31.5 11t35.5 5q29 0 53 -11t47 -30q4 -3 9.5 -8t9.5 -5
q1 0 5 2q32 20 61 36t70 16q64 0 103.5 -41t39.5 -116v-105q0 -37 2.5 -49t16.5 -12h17q15 0 15 -14v-24v0z" />
    <glyph glyph-name="n" unicode="n" 
d="M479 16q0 -8 -2 -12t-10 -4h-154q-8 0 -9.5 4t-1.5 12v24q0 14 14 14h14q14 0 17 12t3 49v78q0 61 -31.5 92t-79.5 31q-13 0 -25 -3.5t-21 -9t-15 -10.5t-6 -8q-1 -8 -2 -21.5t-1 -34.5v-114q0 -36 2 -48.5t17 -12.5h14q15 0 15 -14v-30q0 -5 -3.5 -7.5t-8.5 -2.5h-154
q-8 0 -9.5 4t-1.5 12v24q0 14 14 14h18q14 0 16.5 12t2.5 49v113q0 23 -3 39.5t-21 16.5q-11 0 -17.5 -2.5t-9.5 -2.5q-4 0 -5.5 2.5t-2.5 4.5l-10 18l-1 5q0 7 24.5 18.5t72.5 39.5l18.5 10.5t16.5 5.5q2 0 4.5 -0.5t3.5 -2.5l11 -11q3 -3 3 -5q0 -8 -5 -17.5t-5 -15.5
q0 -1 4 -1q2 0 13.5 7.5t28.5 16.5t37 16.5t40 7.5q24 0 43.5 -6.5t39.5 -20.5q38 -28 47.5 -60t9.5 -76v-100q0 -37 2 -49t16 -12h18q15 0 15 -14v-24v0z" />
    <glyph glyph-name="o" unicode="o" horiz-adv-x="442" 
d="M410 177q0 -44 -14 -78.5t-38 -59t-55.5 -37.5t-65.5 -13q-49 0 -87 15t-64.5 41.5t-40 61.5t-13.5 74q0 46 15 82.5t40 62t57 39t67 13.5q94 0 146.5 -53.5t52.5 -147.5zM326 165q0 34 -9 62.5t-24 49t-35 32t-43 11.5q-54 0 -76.5 -31.5t-22.5 -94.5q0 -24 7.5 -49.5
t22.5 -46.5t37 -34t52 -13q43 0 67 28t24 86z" />
    <glyph glyph-name="p" unicode="p" horiz-adv-x="494" 
d="M464 210q0 -105 -48.5 -160t-137.5 -55q-25 0 -44.5 3.5t-33.5 7.5t-22 7.5t-9 3.5q-7 0 -7 -4.5v-10.5v-110q0 -21 0.5 -33.5t4 -19.5t12 -9.5t24.5 -2.5h23q10 0 12 -2.5t2 -11.5v-24q0 -5 -1 -10.5t-8 -5.5h-190q-8 0 -10 4.5t-2 11.5v25q0 8 3.5 10.5t11.5 2.5h21
q14 0 16.5 11.5t2.5 49.5v325q0 27 -5.5 43t-19.5 16q-7 0 -14 -2t-9 -2q-3 0 -5.5 2.5t-3.5 4.5l-9 16q-1 1 -2 4.5t-1 5.5q0 5 21 16.5t59 34.5l37.5 22.5t18.5 8.5q7 0 13 -6l6 -7q3 -3 3 -7q0 -7 -8.5 -21.5t-8.5 -23.5q0 -6 1.5 -7t5.5 -1q3 0 7 4l12.5 10t31.5 22
t42 22t45 10q37 0 67 -14.5t51.5 -38.5t33 -54t11.5 -61zM383 154q0 32 -10 60t-27 49t-40 33t-48 12q-18 0 -35.5 -7.5t-31 -21.5t-21.5 -33t-8 -42v-24q0 -22 1.5 -41t21.5 -40q42 -46 116 -46q15 0 29.5 6t26.5 18t19 31t7 46z" />
    <glyph glyph-name="q" unicode="q" horiz-adv-x="459" 
d="M456 -211q0 -8 -1.5 -12t-9.5 -4h-174q-5 0 -8.5 2.5t-3.5 7.5v31q0 9 4 11t11 2h27q14 0 16.5 12t2.5 49v116q0 2 0.5 4.5t-1.5 2.5q-5 0 -13.5 -3t-22 -7t-33 -7t-46.5 -3q-34 0 -64.5 13.5t-54 37.5t-37 56t-13.5 69q0 43 14.5 81t40 67t60 46t74.5 17q47 0 85 -30
l25 -19t16 -8q9 0 15 12.5l19 41.5q1 2 4 7.5t6 5.5q6 0 6 -5q0 -7 -1 -31.5t-1 -63.5v-400q0 -36 2.5 -48.5t16.5 -12.5h25q8 0 11 -2.5t3 -10.5v-25zM320 183q0 21 -2 38t-19 37q-41 49 -100 49q-41 0 -66 -32t-25 -79q0 -32 10.5 -58.5t28.5 -45t41 -29t49 -10.5t49 10.5
t29 23.5q4 8 4.5 24t0.5 33v39z" />
    <glyph glyph-name="r" unicode="r" horiz-adv-x="336" 
d="M321 316q0 -3 -6.5 -12.5t-14.5 -20t-15.5 -18.5t-9.5 -8q-8 0 -13 4.5t-10 10.5q-7 8 -15.5 15t-16.5 7t-15 -7.5l-14 -15.5q-19 -20 -20.5 -36.5t-1.5 -31.5v-88q0 -37 2.5 -49t16.5 -12h31q8 0 10.5 -3t2.5 -11v-24q0 -8 -1 -12t-9 -4h-167q-11 0 -11 10v30
q0 14 14 14h14q14 0 16.5 12.5t2.5 48.5v113q0 20 -2.5 36.5t-21.5 16.5q-9 0 -14.5 -4t-11.5 -4q-2 0 -4 2l-14 25q-2 2 -2 6q0 8 24 19t71 37l25.5 14.5t18.5 6.5q2 0 4 -2l5 -6q1 -1 2.5 -3.5t1.5 -5.5q0 -9 -2.5 -27t-2.5 -38q0 -6 6 -6q4 0 12.5 10t15.5 21
q17 26 30.5 41.5t22.5 15.5q7 0 18.5 -9.5t22 -21.5t18 -22.5t7.5 -13.5z" />
    <glyph glyph-name="s" unicode="s" horiz-adv-x="353" 
d="M322 94q0 -42 -32.5 -72.5t-92.5 -30.5q-37 0 -61.5 10t-38.5 10q-7 0 -11 -4t-7 -8.5t-6.5 -8.5t-10.5 -4q-5 0 -6 4t-1 7l-5 102q0 6 0.5 12t8.5 6q5 0 8.5 -3t5.5 -6q19 -27 47 -47.5t79 -20.5q24 0 37 12t13 31q0 22 -23 36.5t-71 34.5q-58 24 -85 53t-27 67
q0 45 29.5 74.5t84.5 29.5q18 0 33.5 -4t28 -8.5l22 -8t15.5 -3.5q4 0 7.5 4.5t5.5 6.5l8.5 13.5t9.5 5.5q3 0 4 -4.5t1 -6.5l4 -93q0 -5 -1.5 -11t-6.5 -6q-7 0 -17 8.5t-25 22.5q-14 14 -39.5 24.5t-45.5 10.5q-26 0 -39 -10.5t-13 -25.5q0 -17 13.5 -28.5t45.5 -25.5
q46 -19 75.5 -34.5t47 -31.5t24.5 -35t7 -44z" />
    <glyph glyph-name="t" unicode="t" horiz-adv-x="300" 
d="M295 91q0 -11 -9.5 -28t-25.5 -32.5t-37 -27t-44 -11.5q-41 0 -66.5 22.5t-25.5 66.5q0 32 1 65t1 65v92q0 8 -2 13t-16 4l-35 -1q-16 0 -16 13v29q0 8 2 11.5t11 3.5l24 -1q15 -1 21.5 4.5t17.5 18.5l56 70q2 3 6.5 7.5t9.5 4.5q6 0 6 -7l-6 -77q-1 -14 3.5 -17.5
t20.5 -3.5l87 2q11 0 13 -2t2 -11v-33q0 -8 -3.5 -9.5t-11.5 -1.5h-93q-8 0 -13.5 -2t-5.5 -10v-153q0 -42 7.5 -63.5t43.5 -21.5q17 0 28.5 4.5t22.5 12.5q2 2 7.5 6t10.5 4q2 0 5 -1.5t3 -4.5z" />
    <glyph glyph-name="u" unicode="u" horiz-adv-x="494" 
d="M475 47q0 -3 -4.5 -5.5t-6.5 -3.5q-56 -23 -85.5 -36.5t-32.5 -13.5q-6 0 -8 5l-3 4q-1 2 -1 3q-1 1 -1 3q0 5 3.5 17.5t3.5 20.5q0 2 -0.5 5t-3.5 3q-2 0 -4 -1.5t-3 -1.5q-38 -26 -70 -40.5t-72 -14.5q-46 0 -77 28.5t-31 86.5q0 42 2 73t2 52q0 24 -5 35.5t-22 11.5
h-4q-2 -1 -5 -1h-8q-3 0 -5 7l-8 19q0 1 -0.5 1.5t-0.5 1.5q0 8 11.5 13.5l35.5 17.5l57.5 30t24.5 11q4 0 6 -3l10 -15q1 -2 2 -3t1 -3q0 -3 -2 -8t-5 -14t-6 -23.5t-4 -36.5q-2 -21 -2 -39.5v-35.5q0 -76 18 -110t70 -34q12 0 25.5 3.5t25.5 9.5t21.5 13.5t12.5 14.5
q4 8 4.5 19t0.5 20v70q0 32 -4.5 50.5t-27.5 18.5q-2 0 -7 -0.5t-6 -0.5q-3 0 -4.5 2t-2.5 4l-6 13q0 1 -1 3.5t-1 4.5q0 6 13.5 13l40.5 22q38 21 59 34t29 13q3 0 5 -3l9 -14q3 -3 3 -7q0 -5 -2 -8q-14 -21 -18.5 -43t-4.5 -51v-121q0 -30 4 -46t27 -16q6 0 13.5 2.5
t9.5 2.5q6 0 7 -4l6 -14q2 -4 2 -11z" />
    <glyph glyph-name="v" unicode="v" horiz-adv-x="424" 
d="M434 339q0 -7 -2.5 -12.5t-13.5 -5.5h-17q-16 0 -24 -6t-19 -33l-108 -267q-4 -10 -6 -12.5t-11 -2.5h-36q-6 0 -9 7t-8 16l-112 244q-8 17 -12.5 27.5t-9 16.5t-10.5 8t-16 2h-14q-9 0 -12 2.5t-3 11.5v27q0 8 2.5 10.5t13.5 2.5h156q10 0 13 -2.5t3 -10.5v-26
q0 -8 -2 -11.5t-10 -3.5h-20q-5 0 -11 -1t-6 -6q0 -6 2.5 -11.5t3.5 -7.5l87 -188q2 -5 3 -6t6 -1q2 0 2 2.5t1 4.5l71 179q2 3 4.5 9.5t2.5 14.5q0 6 -5 8.5t-11 2.5h-13q-11 0 -13.5 2t-2.5 11v28q0 9 4 11t15 2h127q6 0 13 -1t7 -9v-26v0z" />
    <glyph glyph-name="w" unicode="w" horiz-adv-x="654" 
d="M660 334q0 -8 -2 -10.5t-10 -2.5h-10q-26 0 -38.5 -19.5t-26.5 -52.5l-105 -236q-4 -8 -6.5 -10.5t-12.5 -2.5h-22q-11 0 -15.5 4.5t-7.5 13.5l-63 173q-2 6 -4 6q-1 0 -3 -2l-77 -177q-5 -10 -7.5 -14t-13.5 -4h-40q-8 0 -10 3.5t-7 14.5l-95 236q-14 33 -25 50t-34 17
h-16q-5 0 -6.5 5.5t-1.5 9.5v26q0 9 6 11t12 2h144q7 0 11 -1.5t4 -9.5v-27q0 -6 -2.5 -11t-10.5 -5h-5q-15 0 -15 -15q0 -5 2 -12t4 -11l77 -186q2 -5 2.5 -6t5.5 -1q2 0 4 6l68 153q2 3 3 9t1 10q0 10 -4 21t-8 20q-3 7 -10.5 9t-14.5 3h-5q-8 1 -11 2t-3 11v29
q0 10 5.5 11t12.5 1h129q6 0 7.5 -3.5t1.5 -8.5v-34q0 -5 -3.5 -6.5t-6.5 -1.5h-7q-8 0 -15.5 -2t-7.5 -10q0 -7 2.5 -15.5t4.5 -13.5l66 -179q1 -2 1.5 -4t4.5 -2q2 0 4 4.5t3 6.5l80 176q2 4 5 11t3 12q0 16 -18 16h-6q-5 0 -8.5 1.5t-3.5 8.5v30q0 8 3 11t13 3h128
q5 0 5.5 -4t0.5 -7v-30v0z" />
    <glyph glyph-name="x" unicode="x" horiz-adv-x="477" 
d="M468 13q0 -6 -2 -9.5t-11 -3.5h-169q-5 0 -10.5 1t-5.5 10v29q0 9 8 9q8 1 16 2.5t8 11.5q0 6 -6.5 13.5t-12.5 15.5l-38 46q-2 2 -5.5 7t-7.5 5q-3 0 -6.5 -3t-4.5 -5l-55 -62q-2 -2 -6 -7t-4 -10q0 -4 2.5 -8t6.5 -4q7 -1 12.5 -1.5t5.5 -5.5v-29q0 -8 -1 -11.5
t-8 -3.5h-148q-11 0 -13.5 1.5t-2.5 9.5v30q0 8 3 10.5t13 2.5h20q21 0 37.5 12t34.5 32l73 79q1 1 4 5t3 7q0 2 -3.5 6.5t-5.5 6.5l-59 69q-20 24 -37 37t-34 13h-10q-3 0 -7.5 1t-4.5 6v37q0 10 8 10h163q7 0 10 -1t3 -10v-28q0 -2 -0.5 -6t-4.5 -4q-10 -1 -16 -3.5
t-6 -13.5q0 -5 4 -10.5t6 -8.5l36 -41q2 -2 4.5 -4t6.5 -2q5 0 8.5 3.5l5.5 5.5l39 43q2 2 5.5 6.5t3.5 9.5q0 8 -4 10t-9 3t-9 2.5t-4 7.5v30q0 3 1 7t6 4h141q2 0 6.5 -1t4.5 -5v-32q0 -9 -2.5 -12.5t-13.5 -3.5h-11q-17 0 -27.5 -6t-24.5 -20l-75 -80l-5.5 -5.5
t-3.5 -6.5t4.5 -8t6.5 -7l42 -48q18 -20 30.5 -36t24.5 -27.5t25 -17.5t31 -6q8 0 14.5 -0.5t6.5 -9.5v-30v0z" />
    <glyph glyph-name="y" unicode="y" horiz-adv-x="442" 
d="M443 337q0 -6 -1 -10t-8 -5q-21 -2 -33.5 -5.5t-23 -15.5t-22.5 -36l-32 -67l-176 -374l-10 -21.5t-8 -14t-10 -8.5t-16 -3l-51 -2q-5 0 -13.5 -0.5t-13.5 -0.5q-8 0 -3 9t10 17l136 230q2 2 4.5 7.5t2.5 10.5q0 7 -3 14l-5 12l-100 206q-11 21 -18 31t-18 10h-14
q-8 0 -11 2t-3 10v29q0 8 3.5 10.5t16.5 2.5h146q11 0 14.5 -1.5t3.5 -9.5v-28q0 -8 -5 -10t-12 -2h-11q-7 0 -13 -2t-6 -9q0 -8 3 -16l5 -13l67 -146q1 -2 3.5 -6.5t4.5 -4.5q3 0 5 3.5t3 5.5l73 156q2 3 4.5 9.5t2.5 11.5q0 7 -4.5 9t-10.5 2h-17q-4 0 -5.5 3t-1.5 6v27
q0 8 1.5 11.5t12.5 3.5h151q5 0 5.5 -4.5t0.5 -7.5v-26v0z" />
    <glyph glyph-name="z" unicode="z" horiz-adv-x="406" 
d="M387 124q0 -5 -14 -31t-34 -79q-8 -23 -11 -36t-9 -13t-10 5.5t-9 14.5q-6 11 -28.5 13t-60.5 2h-179q-5 0 -9.5 4t-4.5 11q0 8 15.5 24.5l42.5 45.5l134 149t45 63q0 5 -11 6t-24 1h-50q-49 0 -76 -16l-35 -21q-5 -3 -11.5 -4t-6.5 4q0 4 9.5 21.5l24.5 45.5
q18 34 25.5 56.5t15.5 22.5q5 0 8.5 -6t8.5 -16q6 -14 17.5 -17t24.5 -3h202q2 0 6 -0.5t4 -4.5q0 -6 -7.5 -14l-15.5 -16q-113 -115 -166.5 -177.5t-53.5 -69.5q0 -8 7 -10.5t16 -2.5h57q35 0 62 6t46 20l29 21.5t19 8.5t7 -8z" />
    <glyph glyph-name="braceleft" unicode="{" horiz-adv-x="412" 
d="M368 -181q0 -11 -15.5 -13.5t-62.5 -2.5q-71 0 -104.5 34t-33.5 115q0 48 3 92.5t3 82.5q0 14 -0.5 23t-3.5 23q-1 4 -6 11t-11.5 13.5t-13.5 12t-13 7.5q-14 5 -20.5 8.5t-6.5 11.5t3.5 10t8.5 4q22 9 35 19t19 21t7.5 24.5t1.5 30.5q0 38 -3 82.5t-3 92.5q0 81 34 115
t104 34q48 0 63 -2.5t15 -13.5q0 -12 -12 -13q-31 -3 -55 -8.5t-41 -19t-26 -38t-9 -63.5q0 -49 3 -89.5t3 -73.5q0 -31 -6.5 -52t-16 -34t-19.5 -18t-17 -3q-3 1 -7 0.5t-4 -3.5q0 -8 4 -7t9 -1q30 -8 43.5 -35.5t13.5 -71.5q0 -33 -3 -73.5t-3 -89.5q0 -42 10 -66
t27.5 -37t41.5 -17.5t52 -7.5q12 -1 12 -14z" />
    <glyph glyph-name="bar" unicode="|" horiz-adv-x="322" 
d="M196 -234q0 -12 -3.5 -14.5t-13.5 -2.5h-36q-13 0 -15 4t-2 13v884q0 12 4 14.5t13 2.5h36q12 0 14.5 -3.5t2.5 -13.5v-884v0z" />
    <glyph glyph-name="braceright" unicode="}" horiz-adv-x="412" 
d="M331 237q0 -8 -4.5 -10t-9.5 -4q-22 -9 -34.5 -18.5t-18.5 -21t-7.5 -25.5t-1.5 -31q0 -39 3 -84t3 -91q0 -81 -34 -115t-104 -34q-47 0 -62.5 2.5t-15.5 13.5q0 13 11 14q27 3 51 7.5t42 17.5t28.5 37t10.5 66q0 45 -3 86t-3 77q0 44 12.5 71.5t43.5 35.5q5 2 8.5 1
t3.5 7q0 3 -3 3.5t-6 -0.5q-6 -2 -14 2.5t-16.5 13t-15 20t-8.5 24.5q-2 14 -3.5 23.5t-1.5 23.5q0 36 3 77t3 86q0 39 -9 63.5t-26.5 38t-42 19t-54.5 8.5q-11 1 -11 13q0 11 15 13.5t63 2.5q70 0 104 -34t34 -115q0 -46 -3 -91t-3 -84q0 -14 0.5 -23t3.5 -23q1 -5 6 -11
t11.5 -12.5t13.5 -12t13 -7.5q15 -5 21.5 -8.5t6.5 -11.5z" />
    <glyph glyph-name="asciitilde" unicode="~" 
d="M485 343q0 -2 -5 -12.5t-14 -24t-22.5 -28t-30.5 -24.5q-22 -13 -41 -16.5t-39 -3.5q-17 0 -41.5 11t-50.5 24t-50.5 24t-42.5 11q-31 0 -49.5 -15t-41.5 -50q0 -3 -4 -3q-5 0 -8.5 2t-5.5 4l-19 16q-5 5 -7.5 6.5t-2.5 8.5l8 17.5t24.5 37.5t43 37t63.5 17
q24 0 50.5 -11t53 -24t52.5 -24t49 -11q24 0 44 17t40 47q0 3 4 3q5 0 8 -2t5 -4l20 -16q5 -4 7.5 -5.5t2.5 -8.5z" />
    <glyph glyph-name="uni00A0" unicode="&#xa0;" 
 />
    <glyph glyph-name="exclamdown" unicode="&#xa1;" horiz-adv-x="336" 
d="M232 371q0 -7 -4 -8.5t-7 -3.5q-17 -8 -26 -19.5t-10 -14.5q-2 -9 -5.5 -17.5t-11.5 -8.5t-10 5l-4 10q-4 13 -13 24.5t-14 13.5q-12 6 -18 8.5t-6 10.5q0 6 3.5 8.5t7.5 4.5q14 5 24 17t12 17q5 14 7.5 19.5t10.5 5.5t9.5 -4.5t3.5 -9.5q4 -13 13.5 -24.5t14.5 -13.5
q12 -7 17.5 -9.5t5.5 -10.5zM215 -212q0 -11 -9 -13t-40 -2q-30 0 -39.5 1.5t-9.5 13.5q0 1 7 88.5t21 238.5q3 35 4 58t2 37t4 20t11 6q9 0 12.5 -5.5t5 -19t2 -37t3.5 -59.5q14 -163 20 -244.5t6 -82.5z" />
    <glyph glyph-name="cent" unicode="&#xa2;" 
d="M404 228q0 -2 -2 -4.5t-2 -3.5l-30 -60q-5 -10 -12 -16.5t-20 -8.5q-23 -2 -29.5 -3.5t-6.5 -11.5v-57q0 -6 -4 -7.5t-9 -1.5h-25q-11 0 -12.5 5t-1.5 12v50q0 2 -0.5 5.5t-3.5 4.5q-20 6 -38.5 13.5t-40.5 27.5q-32 30 -48.5 73.5t-16.5 97.5q0 40 11 72t28 55.5
t37 37.5t38 19q22 5 28 7.5t6 11.5v33q0 8 2 13t12 5h25q10 0 11.5 -5.5t1.5 -12.5v-32q0 -9 6 -11t28 -6q10 -2 22 -6.5t21.5 -10t16 -11.5t6.5 -10v-5t-2 -5l-24 -48q-1 -2 -3.5 -6t-5.5 -4q-6 0 -9.5 3t-5.5 5q-14 11 -26 19.5t-15 8.5q-5 0 -7 -2t-2 -10v-231
q0 -8 3.5 -9.5t9.5 -1.5q12 0 26.5 4t21.5 10l17.5 14.5t12.5 5.5q2 0 6.5 -3.5t4.5 -8.5zM250 461q0 9 -2.5 10.5t-9.5 1.5q-8 0 -19.5 -4.5t-22 -15t-18 -27.5t-7.5 -41q0 -38 10 -67.5t23.5 -50t26 -31t18.5 -10.5q2 0 1.5 2.5t-0.5 4.5v228z" />
    <glyph glyph-name="sterling" unicode="&#xa3;" 
d="M487 91q0 -2 -1.5 -6.5t-2.5 -5.5l-33 -52q-6 -9 -10 -14.5t-9 -8t-13.5 -3.5t-23.5 -1h-320q-19 0 -26.5 10t-7.5 21q0 4 3 7q19 19 32.5 34.5t22.5 34t14 42t8 58.5l5 55q0 13 -17 13l-42 -2q-17 -2 -17 15v30q0 10 3 14t13 4h41q17 0 22.5 4.5t7.5 21.5l8 76
q3 33 9 52.5t15 33t21.5 24l29.5 24.5q47 40 76 60t56 20q14 0 30 -2.5t29.5 -6t22.5 -8.5t9 -10t-3 -17t-8 -24t-11 -21t-12 -9q-15 0 -36.5 8t-43.5 8q-12 0 -22.5 -5.5t-19.5 -11.5q-17 -11 -26.5 -22t-15.5 -24t-8.5 -29.5t-5.5 -39.5l-10 -87v-8q0 -5 6 -7t12 -2l106 3
q8 0 12.5 -2t4.5 -12l1 -35q0 -16 -17 -16l-109 4q-14 0 -19 -5.5t-6.5 -17t-3 -28t-7.5 -38.5q-6 -19 -15 -35.5t-17.5 -30l-15 -23t-6.5 -14.5q0 -2 9 -2.5t15 -1.5q23 -2 59.5 -2h85.5q78 0 117.5 9.5t46.5 9.5q3 0 5.5 -0.5t2.5 -5.5z" />
    <glyph glyph-name="currency" unicode="&#xa4;" horiz-adv-x="528" 
d="M447 141l-66 66q-57 -41 -118 -41q-24 0 -54.5 8.5t-62.5 32.5l-67 -66l-32 33l67 64q-40 61 -40 116q0 28 9.5 57.5t30.5 58.5l-67 65l32 33l67 -66q34 23 63.5 32t53.5 9q26 0 57 -9.5t60 -31.5l67 66l32 -33l-66 -65q23 -32 31.5 -61t8.5 -55q0 -27 -9.5 -55.5
t-30.5 -60.5l66 -64zM408 355q0 31 -12.5 57.5t-32.5 45.5t-46 29.5t-53 10.5q-31 0 -57 -11.5t-45.5 -31t-30.5 -45.5t-11 -55t11.5 -55.5t31 -46t45.5 -31t55 -11.5q30 0 56 11.5t46 31t31.5 45.5t11.5 56z" />
    <glyph glyph-name="yen" unicode="&#xa5;" 
d="M506 570q0 -14 -15 -14h-16q-23 0 -38 -20.5t-32 -55.5q-14 -29 -23.5 -47t-9.5 -22t0.5 -6t6.5 -2h63q5 0 7 -4.5t2 -8.5v-23q0 -9 -4.5 -11.5t-12.5 -2.5h-81q-10 0 -14 -9l-15 -34l-2.5 -5t-1.5 -8q0 -2 5.5 -2.5t7.5 -0.5h108q2 0 6 -2.5t4 -5.5v-28q0 -9 -4.5 -12
t-12.5 -3h-133q-5 0 -8.5 -6.5t-6 -16.5t-4 -21.5t-1.5 -21.5v-76q0 -20 3 -28.5t20 -8.5h20q9 0 13.5 -1.5t4.5 -12.5v-34q0 -5 -1.5 -10.5t-7.5 -5.5h-183q-5 0 -8 5t-3 11v34q0 9 4 11.5t12 2.5h26q17 0 19.5 8t2.5 29v53q0 43 -5 66t-18 23h-128q-8 0 -11.5 2.5
t-3.5 12.5v22q0 10 3.5 12t11.5 2h99q11 0 12.5 3.5t-2.5 12.5l-14 34q-3 9 -14 9h-81q-9 0 -12 2.5t-3 11.5v23q0 9 3.5 11t11.5 2h53q2 0 7 0.5t5 2.5q0 9 -13.5 36l-35.5 73q-8 16 -19.5 28t-22.5 12q-14 1 -20.5 2t-6.5 13v37q0 9 4 11t10 2h169q10 0 12 -3t2 -14v-33
q0 -14 -14 -14h-14q-10 0 -15.5 -3t-5.5 -13q0 -9 19 -56l54 -131q11 -27 19 -43t13 -16q6 0 15.5 23l27.5 64l42.5 101t15.5 55q0 19 -21 19h-9q-8 0 -9.5 4t-1.5 10v33q0 12 4.5 14.5t13.5 2.5h161q7 0 11 -2t4 -11v-37v0z" />
    <glyph glyph-name="brokenbar" unicode="&#xa6;" horiz-adv-x="322" 
d="M196 340q0 -12 -3.5 -14.5t-13.5 -2.5h-36q-13 0 -15 4t-2 13v311q0 12 4 14.5t13 2.5h36q12 0 14.5 -3.5t2.5 -13.5v-311zM196 -174q0 -12 -3.5 -14.5t-13.5 -2.5h-36q-13 0 -15 4t-2 13v311q0 12 4 14.5t13 2.5h36q12 0 14.5 -3.5t2.5 -13.5v-311z" />
    <glyph glyph-name="section" unicode="&#xa7;" 
d="M447 153q0 -19 -8.5 -38.5t-19.5 -28.5q-5 -4 -9.5 -8t-9.5 -7q-5 -4 -10 -7q0 -7 2 -10.5t4 -5.5q22 -38 22 -80q0 -32 -12.5 -61.5t-37 -51.5t-61 -35t-84.5 -13q-26 0 -51.5 4.5t-46 11t-33.5 14.5t-13 16q0 2 1 4l2 4l17 43q1 3 3.5 7t7.5 4t17.5 -6.5t31.5 -14
t42 -14t49 -6.5q42 0 64.5 23t22.5 62q0 27 -18 50.5t-48 49.5l-96 82.5t-70 66.5t-42.5 59.5t-14.5 61.5q0 31 14 57t30 37q5 4 13 8.5t8 6.5t-1 3t-2 3q-12 17 -22 35t-10 46q0 31 14 58.5t39 47t60 31t77 11.5q31 0 56.5 -4.5t42.5 -11t26.5 -13.5t9.5 -12
q0 -2 -1.5 -6.5t-2.5 -5.5l-19 -41q-1 -2 -4.5 -7t-5.5 -5q-6 0 -17.5 7t-28 15t-39 15t-51.5 7q-34 0 -54.5 -20t-20.5 -54q0 -23 21 -51.5t59 -61.5l91 -81t65 -66t39 -60.5t13 -63.5zM374 138q0 19 -6 35t-18 31.5t-29.5 32l-40.5 38.5l-44.5 42.5l-43.5 41.5l-34 31.5
t-16 12.5q-7 0 -14 -14.5t-7 -37.5q0 -18 7.5 -34t22 -33.5t36.5 -38l51 -47.5q55 -52 83.5 -76.5t39.5 -24.5q5 0 9 13.5t4 27.5z" />
    <glyph glyph-name="dieresis" unicode="&#xa8;" horiz-adv-x="500" 
d="M374 507q0 -17 -11.5 -29t-28.5 -12t-29 12t-12 29t12 29t29 12t28.5 -12t11.5 -29zM207 507q0 -17 -11.5 -29t-28.5 -12t-29 12t-12 29t12 29t29 12t28.5 -12t11.5 -29z" />
    <glyph glyph-name="copyright" unicode="&#xa9;" horiz-adv-x="760" 
d="M700 310q0 -68 -25.5 -127t-69 -102.5t-101.5 -68.5t-124 -25t-124.5 25t-102 69t-68.5 102.5t-25 126.5q0 67 25 126t68.5 102.5t102 69t124.5 25.5t124 -25.5t101.5 -69t69 -102.5t25.5 -126zM648 310q0 57 -21 108t-57.5 88.5t-85.5 59.5t-104 22q-56 0 -104.5 -22
t-84.5 -59.5t-57 -88.5t-21 -108q0 -58 21 -108.5t57.5 -88t85 -59.5t103.5 -22t103.5 22t85 59.5t58 88t21.5 108.5zM520 225q0 -23 -1.5 -40t-6.5 -22t-35.5 -16t-79.5 -11q-46 0 -83.5 14t-64.5 37.5t-41.5 54.5t-14.5 65q0 180 234 180h59q7 0 11.5 -1.5t4.5 -9.5v-72
q0 -14 -12 -14q-7 0 -10 6q-12 18 -30 33t-54 15q-65 0 -100.5 -34t-35.5 -100q0 -27 10.5 -50t29 -40.5t45 -27.5t59.5 -10q29 0 51 11.5t30 25.5q8 12 12 20t10 8q11 0 12 -7t1 -15z" />
    <glyph glyph-name="ordfeminine" unicode="&#xaa;" horiz-adv-x="387" 
d="M368 459q0 -5 -9.5 -20t-25 -30.5t-34 -27.5t-36.5 -12q-15 0 -23.5 5t-14 10.5t-9 10.5t-8.5 5q-3 0 -13.5 -5.5t-25.5 -12t-33.5 -12t-38.5 -5.5q-59 0 -59 68q0 23 14 46t47 38q27 12 47 16t33.5 6t20 5t6.5 14q0 28 -7.5 42.5t-38.5 14.5q-46 0 -69 -34
q-2 -4 -6 -9.5t-9 -5.5q-2 0 -4 1l-6 2q-7 3 -7 10q0 6 7.5 23t22.5 34.5t38 31.5t54 14q51 0 75 -15t24 -54q0 -11 -0.5 -25.5t-0.5 -27.5v-88q0 -16 2 -26t12 -10q9 0 19 5.5t18.5 12.5l15.5 12.5t10 5.5q8 0 10 -3.5t2 -9.5zM371 285q0 -11 -2.5 -14t-14.5 -3h-321
q-12 0 -14.5 3t-2.5 14v13q0 11 3 14t14 3h321q11 0 14 -3t3 -14v-13zM209 482q0 16 -0.5 22t-8.5 6q-10 0 -25 -3.5t-29.5 -10.5t-24.5 -17.5t-10 -24.5q0 -16 12.5 -25.5t30.5 -9.5q19 0 35 8t18 15q1 3 1.5 15t0.5 25z" />
    <glyph glyph-name="guillemotleft" unicode="&#xab;" horiz-adv-x="424" 
d="M371 351q0 -2 -2 -5t-2 -4l-61 -131q-1 -2 -2 -5.5t-1 -6.5q0 -2 1 -6t2 -6l60 -131q0 -1 1.5 -4.5t1.5 -5.5q0 -5 -4 -7l-8 -5q-2 -1 -4 -1h-3q-2 0 -4 3t-3 4l-124 145l-5.5 5.5t-3.5 8.5t3.5 8.5l5.5 5.5l122 147q2 2 3.5 4.5t6.5 2.5q2 0 6 -2l8 -7q1 -1 3.5 -3
t2.5 -4zM213 351q0 -2 -1.5 -5t-1.5 -4l-61 -131q-1 -2 -2 -5.5t-1 -6.5t1 -6.5t2 -5.5l59 -131q0 -1 2 -4.5t2 -5.5q0 -5 -4 -7l-9 -5q-2 -1 -6 -1q-2 0 -4.5 3t-3.5 4l-124 145q-2 2 -5 5.5t-3 8.5t3 8.5t5 5.5l122 147q2 2 4 4.5t7 2.5q1 0 5 -2l9 -7l3 -3t2 -4z" />
    <glyph glyph-name="logicalnot" unicode="&#xac;" 
d="M467 203q0 -13 -3.5 -15t-12.5 -2h-46q-12 0 -14.5 4t-2.5 13v122q0 12 -3.5 14.5t-13.5 2.5h-325q-13 0 -15 3.5t-2 12.5v34q0 12 4 14.5t13 2.5h405q13 0 14.5 -4t1.5 -13v-189v0z" />
    <glyph glyph-name="uni00AD" unicode="&#xad;" horiz-adv-x="336" 
d="M294 258q0 -6 -4 -11.5t-14.5 -13t-27.5 -18.5l-42 -28q-35 -23 -61.5 -43l-45.5 -34t-32 -22t-22 -8q-5 0 -4 5.5t1 10.5v47q0 12 5 20.5t19.5 20t41 29l68.5 46.5q55 38 78.5 57t32.5 19q4 0 5.5 -8t1.5 -15v-54v0z" />
    <glyph glyph-name="registered" unicode="&#xae;" horiz-adv-x="550" 
d="M490 487q0 -45 -17 -84t-46.5 -68.5t-68.5 -46t-83 -16.5t-83.5 16.5t-68.5 46t-46 68.5t-17 84t17 84t46 68t68 46t84 17q44 0 83 -17t68.5 -46t46.5 -68t17 -84zM450 487q0 37 -13.5 70t-37.5 57.5t-56 38.5t-68 14t-68 -14t-56 -38.5t-37.5 -57.5t-13.5 -70
q0 -38 14 -70.5t38 -57t55.5 -38.5t67.5 -14t67.5 14t55.5 38.5t38 57t14 70.5zM394 385q0 -13 -15 -13q-14 0 -30 7.5t-30 19.5t-26 25.5t-18 25.5q-5 11 -7.5 13t-7.5 2q-14 0 -16 -0.5t-2 -5.5v-48q0 -5 3 -5h14q9 0 9 -9v-16q0 -5 -3.5 -6.5t-5.5 -1.5h-78q-2 0 -6 1.5
t-4 6.5v16q0 9 10 9h12q3 0 3 5v153v3t-3 1h-12q-10 0 -10 9v16q0 2 2 5t5 3h82q48 0 74.5 -18.5t26.5 -50.5q0 -24 -14 -36.5t-36 -24.5l1 -1q4 -7 10 -16q5 -8 13.5 -17t21.5 -20q6 -5 12.5 -9.5l13.5 -9.5q11 -6 11 -13zM316 534q0 14 -14 24t-40 10h-13h-7v-3v-67
q0 -5 5 -5l7 1q62 0 62 40z" />
    <glyph glyph-name="macron" unicode="&#xaf;" horiz-adv-x="500" 
d="M387 500q0 -12 -3.5 -16t-15.5 -4h-235q-12 0 -15.5 4t-3.5 16v15q0 12 3.5 15.5t15.5 3.5h235q11 0 15 -4t4 -15v-15v0z" />
    <glyph glyph-name="degree" unicode="&#xb0;" 
d="M390 528q0 -30 -11.5 -55.5t-31 -44.5t-45.5 -30t-55 -11t-55 11t-45.5 30t-30.5 45t-11 55q0 30 11 55.5t30.5 45t45 30.5t55.5 11t56 -11t45.5 -30.5t30.5 -45t11 -55.5zM324 528q0 33 -22.5 56.5t-54.5 23.5q-16 0 -29.5 -6.5t-24 -17.5t-16.5 -25.5t-6 -30.5t6 -30.5
t16.5 -25t24 -17t29.5 -6.5q31 0 54 22.5t23 56.5z" />
    <glyph glyph-name="plusminus" unicode="&#xb1;" 
d="M467 317q0 -15 -4 -19t-19 -4h-139q-15 0 -18.5 -4t-3.5 -19v-139q0 -15 -4 -19t-19 -4h-24q-15 0 -19 4t-4 19v139q0 14 -3.5 18.5t-18.5 4.5h-139q-16 0 -19.5 4t-3.5 19v21q0 15 3.5 19t19.5 4h139q16 0 19 4t3 19v140q0 15 3.5 19t19.5 4h24q16 0 19.5 -4t3.5 -19
v-140q0 -15 3.5 -19t18.5 -4h139q15 0 19 -4t4 -19v-21zM467 27q0 -16 -4 -19.5t-19 -3.5h-392q-15 0 -19 3.5t-4 19.5v21q0 16 3.5 19.5t19.5 3.5h392q16 0 19.5 -3.5t3.5 -19.5v-21z" />
    <glyph glyph-name="uni00B2" unicode="&#xb2;" horiz-adv-x="318" 
d="M310 319q0 -2 -0.5 -2t-1.5 -2l-28 -38q-5 -7 -9.5 -8t-11.5 -1h-242q-14 0 -14 14q0 11 7 17t15 12q87 65 132.5 125t45.5 102q0 25 -16.5 40.5t-44.5 15.5q-17 0 -35 -7.5t-34 -20.5l-11.5 -9.5t-12.5 -5.5q-13 0 -13 10q0 11 10 26t26.5 28.5t39 23t48.5 9.5
q60 0 92 -27t32 -78q0 -33 -25.5 -68.5t-70.5 -78.5l-25 -24t-27 -23l-19 -15.5t-9 -12.5q0 -2 4.5 -3t6.5 -1q17 0 43 2t58 4q28 1 46 4t27.5 4t13 -1.5t3.5 -10.5z" />
    <glyph glyph-name="uni00B3" unicode="&#xb3;" horiz-adv-x="318" 
d="M293 358q0 -45 -36.5 -72t-96.5 -27q-27 0 -48 8t-35.5 19.5t-22.5 24t-8 21.5q0 16 16 16q4 0 7 -2.5t5 -4.5q12 -12 29.5 -24t47.5 -12q29 0 46.5 14.5t17.5 41.5q0 25 -26 45.5t-74 20.5q-14 0 -26 -1t-17 -1q-6 0 -8.5 5.5t-3.5 10.5l-1 14q-1 14 11 15.5t35 2.5
q51 2 78.5 22t27.5 50q0 19 -16 32t-48 13q-12 0 -25 -5.5t-23 -12.5q-5 -3 -11 -7t-11 -4q-14 0 -14 14q0 4 4 7t6 5l47 45q8 8 15 12t23 4q59 0 92.5 -26t33.5 -67q0 -32 -24 -55.5t-69 -43.5q50 -13 76 -36.5t26 -61.5z" />
    <glyph glyph-name="acute" unicode="&#xb4;" horiz-adv-x="500" 
d="M365 578q0 -4 -2.5 -7t-3.5 -5l-122 -138q-2 -2 -3 -3.5t-3 -1.5q-3 0 -7 2l-5 3q-2 2 -3 2.5t-1 2.5q0 6 2 10l85 156q2 3 4.5 8.5t7.5 5.5q3 0 6.5 -2t4.5 -3l32 -21q2 -1 5 -3.5t3 -5.5z" />
    <glyph glyph-name="mu" unicode="&#xb5;" horiz-adv-x="500" 
d="M452 17q0 -13 -4 -15t-13 -2h-41q-13 0 -14.5 4t-1.5 13v45q0 7 -3 7q-14 0 -20 -14t-17 -30q-9 -14 -36 -25.5t-56 -11.5q-33 0 -53 8.5t-32 19t-19 19t-13 8.5q-4 0 -4.5 -4.5t-0.5 -6.5v-182q0 -13 -4 -14.5t-13 -1.5h-41q-13 0 -14.5 3.5t-1.5 12.5v613q0 13 3.5 15
t12.5 2h41q13 0 15 -4t2 -13v-253q0 -43 7 -74.5t40 -57.5q36 -28 77 -28q27 0 50.5 12t41.5 34t28 53t10 70v244q0 13 3.5 15t12.5 2h41q13 0 15 -4t2 -13v-446v0z" />
    <glyph glyph-name="paragraph" unicode="&#xb6;" horiz-adv-x="830" 
d="M799 -57q0 -11 -5 -13.5t-16 -2.5h-302q-64 0 -117 12t-101 47q-68 48 -105.5 130t-37.5 181q0 45 12.5 91.5t35.5 89t57 78.5t76 62q51 30 99 39.5t102 9.5h279q14 0 18.5 -3t4.5 -15v-24q0 -14 -4.5 -16t-15.5 -2h-122q-17 0 -22 -6t-5 -24v-564q0 -20 6 -23t25 -3h112
q14 0 20 -1.5t6 -12.5v-30zM579 574q0 22 -13.5 28.5t-38.5 6.5q-24 0 -38.5 -5.5t-21.5 -18t-9 -32.5t-2 -50v-412q0 -29 2 -49.5t9 -33t21.5 -18t38.5 -5.5q26 0 39 7t13 28v554z" />
    <glyph glyph-name="periodcentered" unicode="&#xb7;" horiz-adv-x="248" 
d="M179 310q0 -23 -16 -38.5t-39 -15.5t-38.5 15.5t-15.5 38.5t15.5 38.5t38.5 15.5t39 -15.5t16 -38.5z" />
    <glyph glyph-name="cedilla" unicode="&#xb8;" horiz-adv-x="500" 
d="M339 -119q0 -20 -9.5 -37t-24.5 -29t-34.5 -19t-38.5 -7q-34 0 -52 8.5t-18 19.5q0 5 4.5 7.5t8.5 2.5q5 0 14.5 -0.5t17.5 -0.5q32 0 49 14t17 28q0 18 -15 29t-39 26l-4.5 4.5t-2.5 6.5q0 2 2 5.5t3 4.5l34 56h35l-11 -19l-3 -6t-2 -6q0 -6 9.5 -12.5t24.5 -14.5
q13 -7 24 -23.5t11 -37.5z" />
    <glyph glyph-name="uni00B9" unicode="&#xb9;" horiz-adv-x="318" 
d="M240 279q0 -8 -3.5 -10t-10.5 -2h-144q-8 0 -8 8v30q0 9 10 9h34q7 0 7 7v241q0 11 -9 11q-5 0 -13.5 -2.5t-16.5 -2.5q-5 0 -6.5 5.5t-2.5 8.5l-1 12q-1 6 4 10t10 6l86 40q2 1 6.5 2.5t8.5 1.5q3 0 7.5 -3.5t4.5 -11.5q0 -4 -6 -20t-6 -44v-254q0 -7 7 -7h35
q4 0 5.5 -3t1.5 -6v-26v0z" />
    <glyph glyph-name="ordmasculine" unicode="&#xba;" horiz-adv-x="387" 
d="M353 518q0 -35 -12 -63t-32 -48t-46.5 -30.5t-56.5 -10.5q-41 0 -73 12t-54 33t-33.5 49.5t-11.5 60.5q0 37 13 67t34 51t48 32t56 11q78 0 123 -44t45 -120zM371 286q0 -11 -2.5 -14t-14.5 -3h-321q-12 0 -14.5 3t-2.5 14v13q0 11 3 14t14 3h321q11 0 14 -3t3 -14v-13z
M272 508q0 54 -24 87t-59 33q-42 0 -58 -24t-16 -72q0 -18 5.5 -38t16.5 -36.5t28 -27t40 -10.5q67 0 67 88z" />
    <glyph glyph-name="guillemotright" unicode="&#xbb;" horiz-adv-x="424" 
d="M371 199q0 -5 -3.5 -8.5l-5.5 -5.5l-124 -145q-1 -2 -3 -4.5t-7 -2.5q-3 0 -4 1l-8 5q-4 2 -4 7q0 2 1.5 5.5t1.5 4.5l60 131q1 2 2 5.5t1 6.5q0 2 -1 6t-2 6l-61 131q0 1 -2 4t-2 5t2.5 4t3.5 3l9 7q4 2 5 2q5 0 6.5 -2.5t3.5 -4.5l122 -147l5.5 -5.5t3.5 -8.5zM213 199
q0 -5 -3 -8.5t-5 -5.5l-124 -145q-1 -2 -3 -4.5t-7 -2.5q-3 0 -4 1l-8 5q-4 2 -4 7q0 2 1.5 5.5t1.5 4.5l59 131q1 2 2 5.5t1 6.5q0 2 -1 6t-2 6l-61 131q0 1 -1.5 4t-1.5 5q0 3 2.5 4.5t3.5 2.5l8 7q4 2 5 2q5 0 7 -2.5t4 -4.5l122 -147q2 -2 5 -5.5t3 -8.5z" />
    <glyph glyph-name="onequarter" unicode="&#xbc;" horiz-adv-x="794" 
d="M759 149q0 -2 -2.5 -8.5t-4.5 -10.5q-4 -10 -7 -14t-8 -5t-13 0t-20 1q-2 0 -4.5 -1t-2.5 -4v-54v-5.5t4 -3.5h27q4 0 5 -3t1 -6v-23q0 -8 -4 -10t-12 -2h-117q-5 0 -8.5 2t-3.5 7v25q0 10 13 10h21q8 0 8 9v46q0 7 -1.5 9.5t-8.5 2.5h-158q-16 0 -16 17q0 6 2.5 10
l4.5 7l140 161q18 20 29 34l18 22.5t11 12t9 3.5h39h7t5 -2q0 -8 -4 -12q-9 -13 -10 -33t-1 -52v-115q0 -5 3 -5.5t7 -0.5q11 0 24 2t17 2q10 0 10.5 -2.5t0.5 -10.5zM594 633q0 -7 -4 -13l-383 -628q-1 -2 -3.5 -5t-6.5 -3q-6 0 -9 3l-21 11q-2 1 -5 3.5t-3 5.5q0 4 2 7
t3 5l385 631q1 1 3 4t4 3t4.5 -0.5t6.5 -2.5l21 -13l3.5 -3.5t2.5 -4.5zM216 279q0 -8 -3.5 -10t-10.5 -2h-144q-4 0 -6 3t-2 6v29q0 9 8 9h36q7 0 7 7v241q0 11 -9 11q-5 0 -13.5 -2.5t-16.5 -2.5q-5 0 -6.5 5.5t-2.5 8.5l-1 12q-1 6 4 10t10 6l86 40q2 1 6.5 2.5t8.5 1.5
q3 0 7.5 -3.5t4.5 -11.5q0 -4 -6 -20t-6 -44v-254q0 -7 7 -7h35q4 0 5.5 -3t1.5 -6v-26zM631 276q0 2 1 3.5t-1 1.5q-5 0 -7 -4l-97 -112q-2 -2 -2 -4q0 -3 1 -3h97q8 0 8 10v108z" />
    <glyph glyph-name="onehalf" unicode="&#xbd;" horiz-adv-x="795" 
d="M763 53q0 -1 -2 -5l-28 -38q-2 -3 -6.5 -6.5t-9.5 -3.5h-247q-14 0 -14 16q0 11 7 17t15 12q86 64 132 124t46 102q0 25 -16.5 40.5t-44.5 15.5q-18 0 -36.5 -8.5t-32.5 -19.5q-5 -5 -12 -10t-12 -5q-13 0 -13 10q0 11 10 26t26.5 28.5t39 23t48.5 9.5q60 0 92 -27
t32 -78q0 -32 -25.5 -67.5t-70.5 -78.5q-15 -14 -25 -24.5t-27 -23.5q-11 -8 -19.5 -15.5t-8.5 -12.5q0 -2 4.5 -3.5t6.5 -1.5q20 0 46 3t55 4q27 1 44.5 3.5l27.5 4t14 0t4 -10.5zM591 633q0 -5 -1.5 -8t-3.5 -5l-383 -628q-1 -2 -3 -5t-6 -3q-7 0 -10 3l-20 11
q-2 1 -5 3.5t-3 5.5q0 4 1.5 7l2.5 5l385 631q1 1 3 4t4 3t4.5 -0.5t6.5 -2.5l21 -13q1 -1 4 -3.5t3 -4.5zM216 279q0 -8 -3.5 -10t-10.5 -2h-144q-4 0 -6 3t-2 6v29q0 9 8 9h36q7 0 7 7v241q0 11 -9 11q-5 0 -13.5 -2.5t-16.5 -2.5q-5 0 -6.5 5.5t-2.5 8.5l-1 12q-1 6 4 10
t10 6l86 40q2 1 6.5 2.5t8.5 1.5q3 0 7.5 -3.5t4.5 -11.5q0 -4 -6 -20t-6 -44v-254q0 -7 7 -7h35q4 0 5.5 -3t1.5 -6v-26z" />
    <glyph glyph-name="threequarters" unicode="&#xbe;" horiz-adv-x="794" 
d="M773 149l-1.5 -5.5t-4 -11.5t-5.5 -12t-6 -7q-5 -3 -16 -2t-22 1q-2 0 -4.5 -1t-2.5 -4v-54v-5.5t4 -3.5h27q4 0 5 -3t1 -6v-23q0 -8 -4 -10t-12 -2h-117q-5 0 -8.5 2t-3.5 7v25q0 10 13 10h21q2 0 5 1t3 4v55q0 5 -3 6t-7 1h-158q-16 0 -16 17q0 6 2.5 10l4.5 7l140 161
q18 20 29 34l18 22.5t11 12t9 3.5h39h7t5 -2q0 -8 -4 -12q-9 -13 -10 -33t-1 -52v-115q0 -5 3 -5.5t7 -0.5q11 0 24 2t17 2q10 0 10.5 -2.5t0.5 -10.5zM608 633q0 -5 -1.5 -8t-3.5 -5l-382 -628q-1 -2 -3.5 -5t-6.5 -3q-7 0 -10 3l-20 11q-2 1 -5 3.5t-3 5.5q0 4 1.5 7
l2.5 5l385 631q1 1 3 4t4 3t5 -0.5t7 -2.5l21 -13l3.5 -3.5t2.5 -4.5zM283 358q0 -45 -36.5 -72t-96.5 -27q-27 0 -48 8t-35.5 19.5t-22.5 24t-8 21.5q0 16 16 16q4 0 7 -2.5t5 -4.5q12 -12 29.5 -24t47.5 -12q29 0 46.5 14.5t17.5 41.5q0 25 -26 45.5t-74 20.5
q-14 0 -26 -1t-17 -1q-6 0 -8.5 5.5t-3.5 10.5l-1 14q-1 14 11 15.5t35 2.5q51 2 78.5 22t27.5 50q0 19 -16 32t-48 13q-12 0 -25 -5.5t-23 -12.5q-5 -3 -11 -7t-11 -4q-14 0 -14 14q0 4 4 7t6 5l47 45q8 8 15 12t23 4q59 0 92.5 -26t33.5 -67q0 -32 -24 -55.5t-69 -43.5
q50 -13 76 -36.5t26 -61.5zM645 276q0 2 1 3.5t-1 1.5q-5 0 -7 -4l-97 -112q-2 -2 -2 -4q0 -3 1 -3h97q8 0 8 10v108z" />
    <glyph glyph-name="questiondown" unicode="&#xbf;" horiz-adv-x="389" 
d="M299 372q0 -7 -4 -9t-7 -4q-17 -8 -26 -19.5t-10 -14.5q-2 -8 -6 -17t-12 -9t-9.5 5t-3.5 10q-4 13 -13.5 24.5t-14.5 13.5q-12 6 -17.5 8.5t-5.5 10.5q0 6 3.5 8.5t7.5 4.5q14 5 23.5 16.5t11.5 17.5q5 14 7.5 19.5t10.5 5.5t10 -4.5t4 -9.5q7 -19 15.5 -28t16.5 -13
t13.5 -6.5t5.5 -9.5zM288 -211q0 -16 -20 -16q-33 0 -64 14t-55 39.5t-38 60.5t-14 77q0 62 26.5 94.5t73.5 48.5q8 2 10.5 38t4.5 117q0 13 12 13h18q11 0 12 -8t2 -28q3 -73 7.5 -115t4.5 -53q0 -4 -3 -5.5t-6 -1.5q-5 0 -15 1t-20 1q-30 0 -47.5 -23t-17.5 -66
q0 -25 11 -46.5t27 -38t34.5 -27t33.5 -13.5q9 -2 14 -3.5t7 -7t2 -18v-34.5z" />
    <glyph glyph-name="Agrave" unicode="&#xc0;" horiz-adv-x="689" 
d="M388 726q-2 -1 -3 -2t-2 -1t-1 -1q-4 0 -6 1l-4 2l-174 116q-2 1 -6 4t-4 6q0 5 2 8t4 5l29 33l4.5 4.5t5.5 3.5q7 0 11.5 -4t6.5 -7l138 -147q4 -4 6 -8t-3 -9zM691 9q0 -6 -5.5 -7.5t-10.5 -1.5h-214q-9 0 -12 3.5t-3 12.5v38q0 16 14 16h36q4 0 9.5 0.5t5.5 5.5v5.5
t-2 7.5l-56 142q-5 14 -8.5 16.5t-20.5 2.5h-188q-11 0 -15.5 -2.5t-9.5 -15.5l-56 -139q-2 -6 -2 -9q0 -8 1.5 -11t12.5 -3h36q11 0 14 -4t3 -15v-36q0 -12 -5.5 -13.5t-16.5 -1.5h-188q-8 0 -10 4.5t-2 10.5v39q0 5 1.5 10.5t8.5 5.5h43q14 0 18.5 4t10.5 19l227 557
q5 11 8.5 14t15.5 3h45q8 0 11.5 -5.5t5.5 -11.5l220 -558q2 -6 6 -14t13 -8h41q5 0 11.5 -1t6.5 -9v-51zM413 333q0 2 -0.5 3.5t-1.5 3.5l-66 169q-1 3 -3.5 7t-7.5 4t-8 -4t-5 -8l-67 -169q-1 -2 -1.5 -3.5t-0.5 -3.5q0 -12 11 -12h140q8 0 9 4t1 9z" />
    <glyph glyph-name="Aacute" unicode="&#xc1;" horiz-adv-x="689" 
d="M501 851q0 -3 -4 -6t-6 -4l-174 -116q-5 -3 -7 -3q-6 0 -9 3l-4 5q-5 5 -2.5 9.5t5.5 7.5l138 147q2 3 6.5 7t11.5 4q2 0 5.5 -3.5l4.5 -4.5l29 -33q2 -2 4 -5t2 -8zM691 9q0 -6 -5.5 -7.5t-10.5 -1.5h-214q-9 0 -12 3.5t-3 12.5v38q0 16 14 16h36q4 0 9.5 0.5t5.5 5.5
v5.5t-2 7.5l-56 142q-5 14 -8.5 16.5t-20.5 2.5h-188q-11 0 -15.5 -2.5t-9.5 -15.5l-56 -139q-2 -6 -2 -9q0 -8 1.5 -11t12.5 -3h36q11 0 14 -4t3 -15v-36q0 -12 -5.5 -13.5t-16.5 -1.5h-188q-8 0 -10 4.5t-2 10.5v39q0 5 1.5 10.5t8.5 5.5h43q14 0 18.5 4t10.5 19l227 557
q5 11 8.5 14t15.5 3h45q8 0 11.5 -5.5t5.5 -11.5l220 -558q2 -6 6 -14t13 -8h41q5 0 11.5 -1t6.5 -9v-51zM413 333q0 2 -0.5 3.5t-1.5 3.5l-66 169q-1 3 -3.5 7t-7.5 4t-8 -4t-5 -8l-67 -169q-1 -2 -1.5 -3.5t-0.5 -3.5q0 -12 11 -12h140q8 0 9 4t1 9z" />
    <glyph glyph-name="Acircumflex" unicode="&#xc2;" horiz-adv-x="689" 
d="M492 740q0 -4 -3 -5l-7 -6q-2 -2 -6 -2q-2 0 -7 2.5l-7 3.5l-106 63q-1 1 -5 3t-6 2t-6.5 -2t-5.5 -3l-106 -62q-2 -1 -6.5 -4t-7.5 -3q-4 0 -6 2l-7 6q-3 1 -3 5q0 6 3 9.5t5 5.5l116 113q5 5 8 7.5t13 2.5h5q10 0 13.5 -2.5t8.5 -7.5l116 -113q2 -2 4.5 -5.5t2.5 -9.5z
M691 9q0 -6 -5.5 -7.5t-10.5 -1.5h-214q-9 0 -12 3.5t-3 12.5v38q0 16 14 16h36q4 0 9.5 0.5t5.5 5.5v5.5t-2 7.5l-56 142q-5 14 -8.5 16.5t-20.5 2.5h-188q-11 0 -15.5 -2.5t-9.5 -15.5l-56 -139q-2 -6 -2 -9q0 -8 1.5 -11t12.5 -3h36q11 0 14 -4t3 -15v-36
q0 -12 -5.5 -13.5t-16.5 -1.5h-188q-8 0 -10 4.5t-2 10.5v39q0 5 1.5 10.5t8.5 5.5h43q14 0 18.5 4t10.5 19l227 557q5 11 8.5 14t15.5 3h45q8 0 11.5 -5.5t5.5 -11.5l220 -558q2 -6 6 -14t13 -8h41q5 0 11.5 -1t6.5 -9v-51zM413 333q0 2 -0.5 3.5t-1.5 3.5l-66 169
q-1 3 -3.5 7t-7.5 4t-8 -4t-5 -8l-67 -169q-1 -2 -1.5 -3.5t-0.5 -3.5q0 -12 11 -12h140q8 0 9 4t1 9z" />
    <glyph glyph-name="Atilde" unicode="&#xc3;" horiz-adv-x="689" 
d="M531 836q0 -4 -8.5 -17t-22.5 -26.5t-32 -24.5t-37 -11q-21 0 -40.5 6t-38.5 13.5t-37 13.5t-37 6q-14 0 -24 -5t-17.5 -10.5t-13 -10.5t-10.5 -5q-1 0 -5 2l-7 4q-4 2 -4 6q0 3 7.5 16t21.5 27.5t33.5 26t43.5 11.5q17 0 36 -6t38.5 -13.5t39.5 -13.5t38 -6q12 0 23.5 6
t21.5 14l7 7t9 5t7 -3l7 -6q1 -1 1 -3v-3zM691 9q0 -6 -5.5 -7.5t-10.5 -1.5h-214q-9 0 -12 3.5t-3 12.5v38q0 16 14 16h36q4 0 9.5 0.5t5.5 5.5v5.5t-2 7.5l-56 142q-5 14 -8.5 16.5t-20.5 2.5h-188q-11 0 -15.5 -2.5t-9.5 -15.5l-56 -139q-2 -6 -2 -9q0 -8 1.5 -11
t12.5 -3h36q11 0 14 -4t3 -15v-36q0 -12 -5.5 -13.5t-16.5 -1.5h-188q-8 0 -10 4.5t-2 10.5v39q0 5 1.5 10.5t8.5 5.5h43q14 0 18.5 4t10.5 19l227 557q5 11 8.5 14t15.5 3h45q8 0 11.5 -5.5t5.5 -11.5l220 -558q2 -6 6 -14t13 -8h41q5 0 11.5 -1t6.5 -9v-51zM413 333
q0 2 -0.5 3.5t-1.5 3.5l-66 169q-1 3 -3.5 7t-7.5 4t-8 -4t-5 -8l-67 -169q-1 -2 -1.5 -3.5t-0.5 -3.5q0 -12 11 -12h140q8 0 9 4t1 9z" />
    <glyph glyph-name="Adieresis" unicode="&#xc4;" horiz-adv-x="689" 
d="M488 806q0 -20 -13 -33t-33 -13t-33.5 13t-13.5 33t13.5 33.5t33.5 13.5t33 -13.5t13 -33.5zM294 806q0 -20 -13.5 -33t-33.5 -13t-33 13t-13 33t13 33.5t33 13.5t33.5 -13.5t13.5 -33.5zM691 9q0 -6 -5.5 -7.5t-10.5 -1.5h-214q-9 0 -12 3.5t-3 12.5v38q0 16 14 16h36
q4 0 9.5 0.5t5.5 5.5v5.5t-2 7.5l-56 142q-5 14 -8.5 16.5t-20.5 2.5h-188q-11 0 -15.5 -2.5t-9.5 -15.5l-56 -139q-2 -6 -2 -9q0 -8 1.5 -11t12.5 -3h36q11 0 14 -4t3 -15v-36q0 -12 -5.5 -13.5t-16.5 -1.5h-188q-8 0 -10 4.5t-2 10.5v39q0 5 1.5 10.5t8.5 5.5h43
q14 0 18.5 4t10.5 19l227 557q5 11 8.5 14t15.5 3h45q8 0 11.5 -5.5t5.5 -11.5l220 -558q2 -6 6 -14t13 -8h41q5 0 11.5 -1t6.5 -9v-51zM413 333q0 2 -0.5 3.5t-1.5 3.5l-66 169q-1 3 -3.5 7t-7.5 4t-8 -4t-5 -8l-67 -169q-1 -2 -1.5 -3.5t-0.5 -3.5q0 -12 11 -12h140
q8 0 9 4t1 9z" />
    <glyph glyph-name="Aring" unicode="&#xc5;" horiz-adv-x="689" 
d="M439 815q0 -37 -26 -62.5t-62 -25.5t-62 25.5t-26 62.5q0 36 25.5 62t62.5 26t62.5 -26t25.5 -62zM691 9q0 -6 -5.5 -7.5t-10.5 -1.5h-214q-9 0 -12 3.5t-3 12.5v38q0 16 14 16h36q4 0 9.5 0.5t5.5 5.5v5.5t-2 7.5l-56 142q-5 14 -8.5 16.5t-20.5 2.5h-188
q-11 0 -15.5 -2.5t-9.5 -15.5l-56 -139q-2 -6 -2 -9q0 -8 1.5 -11t12.5 -3h36q11 0 14 -4t3 -15v-36q0 -12 -5.5 -13.5t-16.5 -1.5h-188q-8 0 -10 4.5t-2 10.5v39q0 5 1.5 10.5t8.5 5.5h43q14 0 18.5 4t10.5 19l227 557q5 11 8.5 14t15.5 3h45q8 0 11.5 -5.5t5.5 -11.5
l220 -558q2 -6 6 -14t13 -8h41q5 0 11.5 -1t6.5 -9v-51zM394 815q0 20 -13 33t-30 13t-30 -13.5t-13 -32.5q0 -18 12.5 -32t30.5 -14t30.5 13t12.5 33zM413 333q0 2 -0.5 3.5t-1.5 3.5l-66 169q-1 3 -3.5 7t-7.5 4t-8 -4t-5 -8l-67 -169q-1 -2 -1.5 -3.5t-0.5 -3.5
q0 -12 11 -12h140q8 0 9 4t1 9z" />
    <glyph glyph-name="AE" unicode="&#xc6;" horiz-adv-x="1027" 
d="M947 19q0 -10 -2.5 -14.5t-16.5 -4.5h-512q-5 0 -10 1t-5 8v47q0 14 14 14h39q13 0 17.5 4.5t4.5 18.5v199q0 10 -7.5 13.5t-18.5 3.5h-144q-12 0 -20 -2.5t-18 -18.5l-115 -190q-2 -3 -5.5 -9t-3.5 -11q0 -8 10 -8h37q11 0 13.5 -4.5t2.5 -15.5v-29q0 -14 -3 -17.5
t-18 -3.5h-200q-11 0 -14.5 3t-3.5 15v37q0 11 4.5 13t15.5 2h29q13 0 23.5 8.5t18.5 22.5l296 474q2 2 5 7.5t3 8.5q0 5 -6 5.5t-11 0.5h-39q-7 0 -10.5 2.5t-3.5 11.5v39q0 10 2 13.5t12 3.5h606q20 0 24 -4t4 -22v-126q0 -4 -1.5 -8t-6.5 -4q-4 0 -8.5 1.5t-7.5 6.5
l-47 68q-8 11 -22.5 17.5t-34.5 6.5h-220q-14 0 -18 -4.5t-4 -19.5v-170q0 -15 3 -19.5t18 -4.5h218q11 0 13 4.5t2 14.5v35q0 9 3.5 11t12.5 2h33q8 0 12.5 -1.5t4.5 -9.5v-186q0 -12 -1.5 -16.5t-14.5 -4.5h-38q-8 0 -10 6.5t-2 14.5v38q0 8 -2.5 12t-11.5 4h-218
q-11 0 -16.5 -2t-5.5 -18v-201q0 -14 4.5 -16t16.5 -2h220q23 0 38.5 5t27.5 21l53 71q4 5 12 5q7 0 7.5 -4.5t0.5 -10.5zM476 583q0 4 -1 10.5t-6 6.5q-8 0 -13 -6.5t-12 -17.5l-103 -168q-2 -3 -5.5 -9t-3.5 -9q0 -10 10 -10h103q17 0 24 2.5t7 22.5v178z" />
    <glyph glyph-name="Ccedilla" unicode="&#xc7;" horiz-adv-x="724" 
d="M673 161q0 -46 -2 -71t-7 -38.5t-15 -19t-26 -12.5q-37 -16 -67 -22t-52 -7.5t-35 -2t-16 -6.5l-5 -9q-1 -2 -3 -7t-2 -7q0 -10 37 -30q14 -8 26.5 -25.5t12.5 -40.5q0 -22 -10 -40.5t-26.5 -32t-38 -21t-43.5 -7.5q-37 0 -57 9.5t-20 20.5q0 5 4.5 8t9.5 3q8 0 17.5 -1
t17.5 -1q35 0 54 16t19 32q0 15 -10.5 25.5t-23 18l-23 14t-10.5 14.5q0 2 2 5.5t3 4.5l31 51q1 1 1 3q0 3 -3 3.5t-5 0.5q-19 2 -42 5t-50 10.5t-56.5 22t-62.5 40.5q-66 52 -100 118.5t-34 142.5q0 103 42.5 180t122.5 122q58 32 126 42.5t152 10.5h113q8 0 13 -2t5 -12
v-145q0 -5 -1 -10t-9 -5q-10 0 -15 9q-12 20 -26.5 37.5t-34 31t-45 21.5t-59.5 8q-64 0 -115 -18.5t-86.5 -54.5t-54.5 -89t-19 -122q0 -56 20.5 -105.5t58 -86t90.5 -57.5t119 -21q60 0 103 23t59 52l23 42t15 13q11 0 12 -9t1 -22z" />
    <glyph glyph-name="Egrave" unicode="&#xc8;" horiz-adv-x="707" 
d="M403 726l-2 -2q-1 -1 -2 -1t-1 -1q-4 0 -6 1l-4 2l-174 116q-2 1 -6.5 4t-4.5 6q0 5 2.5 8t4.5 5l29 33l4.5 4.5t5.5 3.5q7 0 11 -4t6 -7l139 -147q3 -4 5 -8t-3 -9zM631 13q0 -8 -5 -10.5t-13 -2.5h-525q-5 0 -10 1t-5 8v47q0 9 3 11.5t11 2.5h39q14 0 18 5t4 18v481
q0 12 -4 17.5t-18 5.5h-39q-7 0 -10.5 2.5t-3.5 11.5v46q0 7 5 8.5t10 1.5h514q20 0 24.5 -4t4.5 -22v-126q0 -4 -2.5 -8t-7.5 -4q-10 0 -15 8l-47 68q-8 11 -22.5 17.5t-34.5 6.5h-237q-14 0 -18 -5t-4 -19v-179q0 -10 5 -12.5t16 -2.5h232q11 0 13 4t2 15v40q0 6 5 7t10 1
h33q8 0 13 -1.5t5 -9.5v-197q0 -6 -5.5 -8t-10.5 -2h-39q-11 0 -11 12v47q0 8 -3 12t-12 4h-231q-12 0 -17 -2.5t-5 -17.5v-201q0 -12 3.5 -16.5t17.5 -4.5h228q26 0 40 7.5t25 21.5l54 71q5 5 10 5q10 0 10 -10v-149z" />
    <glyph glyph-name="Eacute" unicode="&#xc9;" horiz-adv-x="707" 
d="M510 851q0 -3 -4 -6t-6 -4l-174 -116q-3 -3 -7 -3q-6 0 -9 3l-4 5q-5 5 -2.5 9.5t5.5 7.5l138 147q2 3 6.5 7t11.5 4q2 0 5.5 -3.5l4.5 -4.5l29 -33q2 -2 4 -5t2 -8zM631 13q0 -8 -5 -10.5t-13 -2.5h-525q-5 0 -10 1t-5 8v47q0 9 3 11.5t11 2.5h39q14 0 18 5t4 18v481
q0 12 -4 17.5t-18 5.5h-39q-7 0 -10.5 2.5t-3.5 11.5v46q0 7 5 8.5t10 1.5h514q20 0 24.5 -4t4.5 -22v-126q0 -4 -2.5 -8t-7.5 -4q-10 0 -15 8l-47 68q-8 11 -22.5 17.5t-34.5 6.5h-237q-14 0 -18 -5t-4 -19v-179q0 -10 5 -12.5t16 -2.5h232q11 0 13 4t2 15v40q0 6 5 7t10 1
h33q8 0 13 -1.5t5 -9.5v-197q0 -6 -5.5 -8t-10.5 -2h-39q-11 0 -11 12v47q0 8 -3 12t-12 4h-231q-12 0 -17 -2.5t-5 -17.5v-201q0 -12 3.5 -16.5t17.5 -4.5h228q26 0 40 7.5t25 21.5l54 71q5 5 10 5q10 0 10 -10v-149z" />
    <glyph glyph-name="Ecircumflex" unicode="&#xca;" horiz-adv-x="707" 
d="M501 740q0 -4 -3 -5l-7 -6q-2 -2 -6 -2q-2 0 -7.5 2.5t-7.5 3.5l-105 63q-1 1 -5.5 3t-6.5 2t-6.5 -2t-5.5 -3l-105 -62q-2 -1 -6.5 -4t-7.5 -3q-4 0 -6 2l-7 6q-3 1 -3 5q0 6 2.5 9.5t4.5 5.5l116 113q5 5 8.5 7.5t13.5 2.5h5q9 0 13 -2.5t9 -7.5l115 -113q2 -2 5 -5.5
t3 -9.5zM631 13q0 -8 -5 -10.5t-13 -2.5h-525q-5 0 -10 1t-5 8v47q0 9 3 11.5t11 2.5h39q14 0 18 5t4 18v481q0 12 -4 17.5t-18 5.5h-39q-7 0 -10.5 2.5t-3.5 11.5v46q0 7 5 8.5t10 1.5h514q20 0 24.5 -4t4.5 -22v-126q0 -4 -2.5 -8t-7.5 -4q-10 0 -15 8l-47 68
q-8 11 -22.5 17.5t-34.5 6.5h-237q-14 0 -18 -5t-4 -19v-179q0 -10 5 -12.5t16 -2.5h232q11 0 13 4t2 15v40q0 6 5 7t10 1h33q8 0 13 -1.5t5 -9.5v-197q0 -6 -5.5 -8t-10.5 -2h-39q-11 0 -11 12v47q0 8 -3 12t-12 4h-231q-12 0 -17 -2.5t-5 -17.5v-201q0 -12 3.5 -16.5
t17.5 -4.5h228q26 0 40 7.5t25 21.5l54 71q5 5 10 5q10 0 10 -10v-149z" />
    <glyph glyph-name="Edieresis" unicode="&#xcb;" horiz-adv-x="707" 
d="M497 806q0 -20 -13 -33t-33 -13t-33.5 13t-13.5 33t13.5 33.5t33.5 13.5t33 -13.5t13 -33.5zM303 806q0 -20 -13.5 -33t-33.5 -13t-33 13t-13 33t13 33.5t33 13.5t33.5 -13.5t13.5 -33.5zM631 13q0 -8 -5 -10.5t-13 -2.5h-525q-5 0 -10 1t-5 8v47q0 9 3 11.5t11 2.5h39
q14 0 18 5t4 18v481q0 12 -4 17.5t-18 5.5h-39q-7 0 -10.5 2.5t-3.5 11.5v46q0 7 5 8.5t10 1.5h514q20 0 24.5 -4t4.5 -22v-126q0 -4 -2.5 -8t-7.5 -4q-10 0 -15 8l-47 68q-8 11 -22.5 17.5t-34.5 6.5h-237q-14 0 -18 -5t-4 -19v-179q0 -10 5 -12.5t16 -2.5h232q11 0 13 4
t2 15v40q0 6 5 7t10 1h33q8 0 13 -1.5t5 -9.5v-197q0 -6 -5.5 -8t-10.5 -2h-39q-11 0 -11 12v47q0 8 -3 12t-12 4h-231q-12 0 -17 -2.5t-5 -17.5v-201q0 -12 3.5 -16.5t17.5 -4.5h228q26 0 40 7.5t25 21.5l54 71q5 5 10 5q10 0 10 -10v-149z" />
    <glyph glyph-name="Igrave" unicode="&#xcc;" horiz-adv-x="389" 
d="M237 726l-2 -2q-1 -1 -2 -1t-1 -1q-4 0 -6.5 1t-4.5 2l-173 116q-2 1 -6.5 4t-4.5 6q0 5 2.5 8t4.5 5l29 33l4.5 4.5t5.5 3.5q7 0 11 -4t6 -7l139 -147q4 -4 5.5 -8t-3.5 -9zM316 9q0 -7 -4.5 -8t-9.5 -1h-215q-5 0 -9.5 1t-4.5 8v47q0 8 2.5 11t10.5 3h40q14 0 17.5 4.5
t3.5 18.5v481q0 13 -3.5 18t-17.5 5h-40q-8 0 -10.5 2.5t-2.5 11.5v46q0 7 4.5 8.5t9.5 1.5h215q5 0 9.5 -1.5t4.5 -8.5v-51q0 -5 -4.5 -7t-8.5 -2h-42q-13 0 -16 -5t-3 -18v-481q0 -14 3 -18.5t16 -4.5h42q4 0 8.5 -1.5t4.5 -6.5v-53z" />
    <glyph glyph-name="Iacute" unicode="&#xcd;" horiz-adv-x="389" 
d="M351 851q0 -3 -4 -6t-6 -4l-174 -116q-5 -3 -7 -3q-6 0 -9 3l-4 5q-5 5 -2.5 9.5t5.5 7.5l138 147q2 3 6.5 7t11.5 4q2 0 5.5 -3.5l4.5 -4.5l29 -33q2 -2 4 -5t2 -8zM316 9q0 -6 -4.5 -7.5t-9.5 -1.5h-215q-5 0 -9.5 1.5t-4.5 7.5v47q0 14 14 14h40q14 0 17 5t3 18v481
q0 12 -3 17.5t-17 5.5h-40q-8 0 -11 2.5t-3 11.5v46q0 7 4.5 8.5t9.5 1.5h215q5 0 9.5 -1.5t4.5 -8.5v-51q0 -5 -5 -7t-9 -2h-40q-13 0 -16.5 -5t-3.5 -18v-481q0 -14 3.5 -18.5t16.5 -4.5h40q4 0 9 -1.5t5 -6.5v-53z" />
    <glyph glyph-name="Icircumflex" unicode="&#xce;" horiz-adv-x="389" 
d="M342 740q0 -4 -3 -5l-6 -6q-1 -1 -3.5 -1.5t-3.5 -0.5q-2 0 -7 2.5l-7 3.5l-105 63q-1 1 -5.5 3t-6.5 2t-6.5 -2t-5.5 -3l-105 -62q-2 -1 -7 -4t-8 -3q-4 0 -6 2l-7 6q-3 1 -3 5q0 6 3 9.5t5 5.5l116 113q5 5 8.5 7.5t13.5 2.5h4q9 0 13 -2.5t9 -7.5l116 -113
q2 -2 4.5 -5.5t2.5 -9.5zM316 9q0 -6 -4.5 -7.5t-9.5 -1.5h-214q-5 0 -10 1.5t-5 7.5v47q0 14 14 14h40q14 0 17 5t3 18v481q0 12 -3 17.5t-17 5.5h-40q-7 0 -10.5 2.5t-3.5 11.5v46q0 7 5 8.5t10 1.5h214q5 0 9.5 -1.5t4.5 -8.5v-51q0 -5 -4.5 -7t-8.5 -2h-41
q-13 0 -16.5 -5t-3.5 -18v-481q0 -14 4 -18.5t16 -4.5h41q4 0 8.5 -1.5t4.5 -6.5v-53z" />
    <glyph glyph-name="Idieresis" unicode="&#xcf;" horiz-adv-x="389" 
d="M338 806q0 -20 -13 -33t-33 -13t-33.5 13t-13.5 33t13.5 33.5t33.5 13.5t33 -13.5t13 -33.5zM144 806q0 -20 -13.5 -33t-33.5 -13t-33 13t-13 33t13 33.5t33 13.5t33.5 -13.5t13.5 -33.5zM316 9q0 -6 -4.5 -7.5t-9.5 -1.5h-214q-5 0 -10 1.5t-5 7.5v47q0 14 14 14h40
q14 0 17 5t3 18v481q0 12 -3 17.5t-17 5.5h-40q-8 0 -11 2.5t-3 11.5v46q0 7 5 8.5t10 1.5h214q5 0 9.5 -1.5t4.5 -8.5v-51q0 -5 -4.5 -7t-8.5 -2h-41q-13 0 -16.5 -5t-3.5 -18v-481q0 -14 3.5 -18.5t16.5 -4.5h41q4 0 8.5 -1.5t4.5 -6.5v-53z" />
    <glyph glyph-name="Eth" unicode="&#xd0;" horiz-adv-x="777" 
d="M717 348q0 -172 -100 -260t-298 -88h-231q-5 0 -10 1.5t-5 7.5v47q0 14 14 14h39q14 0 18 5t4 18v212q0 12 -12 12h-62q-3 0 -7 1t-4 6v41q0 12 10 12h60q15 0 15 13v184q0 12 -4 17.5t-18 5.5h-39q-7 0 -10.5 2.5t-3.5 11.5v46q0 7 5 8.5t10 1.5h218q52 0 103 -2.5
t101 -19.5q98 -32 152.5 -110t54.5 -187zM608 336q0 88 -36.5 148.5t-104.5 89.5q-33 14 -73 18.5t-85 4.5h-49q-8 0 -12.5 -1.5t-4.5 -9.5v-198q0 -11 11 -11h143q7 0 10 -2t3 -10v-37q0 -11 -12 -11h-144q-11 0 -11 -10v-212q0 -14 2.5 -19.5t17.5 -5.5h54q143 0 217 69
t74 197z" />
    <glyph glyph-name="Ntilde" unicode="&#xd1;" horiz-adv-x="937" 
d="M659 835q0 -4 -8.5 -17t-22.5 -26.5t-32 -24.5t-37 -11q-21 0 -40.5 6t-38.5 13.5t-37.5 13.5t-37.5 6q-14 0 -24 -5t-17 -10.5t-12.5 -10.5t-10.5 -5q-2 0 -6 2l-6 4q-4 2 -4 6q0 3 7.5 16t21.5 27.5t33.5 26t43.5 11.5q17 0 36 -6t38.5 -13.5t39.5 -13.5t38 -6
q12 0 23 6t21 14q3 2 8.5 7t8.5 5q4 0 7 -3l6 -6q2 -2 2 -6zM871 611q0 -9 -3.5 -11.5t-10.5 -2.5h-37q-13 0 -16.5 -5t-3.5 -18v-432q0 -57 1.5 -89.5t1.5 -42.5q0 -5 -3.5 -7.5t-7.5 -2.5h-30q-7 0 -11 0.5t-7 2.5t-7 5.5t-10 10.5l-220.5 225l-220.5 220l-40 40.5
t-22 14.5q-2 0 -3 -9t-1 -15v-402q0 -14 4 -18.5t17 -4.5h33q14 0 14 -14v-47q0 -6 -4.5 -7.5t-9.5 -1.5h-190q-10 0 -12.5 3.5t-2.5 13.5v39q0 14 15 14h36q13 0 17.5 4.5t4.5 18.5v481q0 13 -4.5 18t-17.5 5h-38q-7 0 -10 2t-3 12v46q0 7 4.5 8.5t9.5 1.5h254
q17 0 21 -3.5t4 -19.5v-28q0 -15 -17 -15h-12q-8 0 -17 -2t-9 -7q0 -11 9 -21l19 -21q32 -36 120 -125t237 -227l11.5 -11.5t15.5 -6.5q4 0 3.5 4t-0.5 8v382q0 13 -4 18t-18 5h-36q-8 0 -11 2.5t-3 11.5v46q0 7 5 8.5t10 1.5h191q10 0 12.5 -3t2.5 -14v-39z" />
    <glyph glyph-name="Ograve" unicode="&#xd2;" horiz-adv-x="830" 
d="M458 726l-2 -2q-1 -1 -2 -1t-1 -1q-4 0 -6.5 1t-4.5 2l-173 116q-2 1 -6.5 4t-4.5 6q0 5 2.5 8t4.5 5l29 33l4.5 4.5t5.5 3.5q7 0 11 -4t6 -7l139 -147q4 -4 5.5 -8t-3.5 -9zM766 336q0 -167 -113 -266q-47 -41 -104 -63.5t-103 -22.5q-64 0 -117 12t-103 44
q-36 23 -65.5 55.5t-51.5 69.5t-34 75.5t-12 74.5q0 106 32.5 180t107.5 125q43 30 95.5 46t104.5 16q81 0 148 -29t114.5 -77.5t74 -111t26.5 -128.5zM653 288q0 81 -21 143t-56.5 104t-81.5 63.5t-96 21.5t-91.5 -16.5t-71.5 -47.5t-46.5 -75.5t-16.5 -99.5q0 -71 19 -131
t54.5 -104.5t86.5 -69.5t115 -25q38 0 79.5 18t69.5 49q27 30 42 74t15 96z" />
    <glyph glyph-name="Oacute" unicode="&#xd3;" horiz-adv-x="830" 
d="M572 851q0 -3 -4.5 -6t-6.5 -4l-174 -116q-2 -2 -3 -2.5t-3 -0.5q-6 0 -9 3l-4 5q-5 5 -3 9.5t5 7.5l139 147q2 3 6 7t11 4q2 0 5.5 -3.5l4.5 -4.5l29 -33q2 -2 4.5 -5t2.5 -8zM766 336q0 -167 -113 -266q-47 -41 -104 -63.5t-103 -22.5q-64 0 -117 12t-103 44
q-36 23 -65.5 55.5t-51.5 69.5t-34 75.5t-12 74.5q0 106 32.5 180t107.5 125q43 30 95.5 46t104.5 16q81 0 148 -29t114.5 -77.5t74 -111t26.5 -128.5zM653 288q0 81 -21 143t-56.5 104t-81.5 63.5t-96 21.5t-91.5 -16.5t-71.5 -47.5t-46.5 -75.5t-16.5 -99.5q0 -71 19 -131
t54.5 -104.5t86.5 -69.5t115 -25q38 0 79.5 18t69.5 49q27 30 42 74t15 96z" />
    <glyph glyph-name="Ocircumflex" unicode="&#xd4;" horiz-adv-x="830" 
d="M563 740q0 -4 -3 -5l-7 -6q-1 -1 -3.5 -1.5t-3.5 -0.5q-2 0 -7 2.5l-7 3.5l-105 63q-1 1 -5.5 3t-6.5 2t-6.5 -2t-5.5 -3l-105 -62q-2 -1 -6.5 -4t-7.5 -3q-1 0 -3.5 0.5t-3.5 1.5l-7 6q-3 1 -3 5q0 6 3 9.5t5 5.5l116 113q5 5 8.5 7.5t13.5 2.5h4q10 0 13.5 -2.5
t8.5 -7.5l116 -113q2 -2 5 -5.5t3 -9.5zM766 336q0 -167 -113 -266q-47 -41 -104 -63.5t-103 -22.5q-64 0 -117 12t-103 44q-36 23 -65.5 55.5t-51.5 69.5t-34 75.5t-12 74.5q0 106 32.5 180t107.5 125q43 30 95.5 46t104.5 16q81 0 148 -29t114.5 -77.5t74 -111
t26.5 -128.5zM653 288q0 81 -21 143t-56.5 104t-81.5 63.5t-96 21.5t-91.5 -16.5t-71.5 -47.5t-46.5 -75.5t-16.5 -99.5q0 -71 19 -131t54.5 -104.5t86.5 -69.5t115 -25q38 0 79.5 18t69.5 49q27 30 42 74t15 96z" />
    <glyph glyph-name="Otilde" unicode="&#xd5;" horiz-adv-x="830" 
d="M602 835q0 -4 -8.5 -17t-22.5 -26.5t-32 -24.5t-37 -11q-21 0 -40.5 6t-38.5 13.5t-37.5 13.5t-37.5 6q-14 0 -24 -5t-17 -10.5t-12.5 -10.5t-10.5 -5q-2 0 -6 2l-6 4q-4 2 -4 6q0 3 7.5 16t21.5 27.5t33.5 26t43.5 11.5q17 0 36 -6t38.5 -13.5t39.5 -13.5t38 -6
q12 0 23 6t21 14q2 2 7.5 7t9.5 5t7 -3l6 -6q2 -2 2 -6zM766 336q0 -167 -113 -266q-47 -41 -104 -63.5t-103 -22.5q-64 0 -117 12t-103 44q-36 23 -65.5 55.5t-51.5 69.5t-34 75.5t-12 74.5q0 106 32.5 180t107.5 125q43 30 95.5 46t104.5 16q81 0 148 -29t114.5 -77.5
t74 -111t26.5 -128.5zM653 288q0 81 -21 143t-56.5 104t-81.5 63.5t-96 21.5t-91.5 -16.5t-71.5 -47.5t-46.5 -75.5t-16.5 -99.5q0 -71 19 -131t54.5 -104.5t86.5 -69.5t115 -25q38 0 79.5 18t69.5 49q27 30 42 74t15 96z" />
    <glyph glyph-name="Odieresis" unicode="&#xd6;" horiz-adv-x="830" 
d="M559 806q0 -20 -13.5 -33t-33.5 -13t-33 13t-13 33t13 33.5t33 13.5t33.5 -13.5t13.5 -33.5zM364 806q0 -20 -13 -33t-33 -13t-33.5 13t-13.5 33t13.5 33.5t33.5 13.5t33 -13.5t13 -33.5zM766 336q0 -167 -113 -266q-47 -41 -104 -63.5t-103 -22.5q-64 0 -117 12t-103 44
q-36 23 -65.5 55.5t-51.5 69.5t-34 75.5t-12 74.5q0 106 32.5 180t107.5 125q43 30 95.5 46t104.5 16q81 0 148 -29t114.5 -77.5t74 -111t26.5 -128.5zM653 288q0 81 -21 143t-56.5 104t-81.5 63.5t-96 21.5t-91.5 -16.5t-71.5 -47.5t-46.5 -75.5t-16.5 -99.5q0 -71 19 -131
t54.5 -104.5t86.5 -69.5t115 -25q38 0 79.5 18t69.5 49q27 30 42 74t15 96z" />
    <glyph glyph-name="multiply" unicode="&#xd7;" 
d="M420 177q0 -5 -4.5 -9.5l-6.5 -6.5l-15 -15l-6.5 -6.5t-9.5 -4.5t-9.5 4.5l-6.5 6.5l-99 100l-6.5 6.5t-9.5 4.5t-9.5 -4.5l-6.5 -6.5l-99 -100q-2 -2 -6.5 -6t-9.5 -4t-9.5 4t-6.5 6l-15 15l-6.5 6.5t-4.5 9.5t4.5 9.5l6.5 6.5l100 99l6.5 6.5t4.5 9.5t-4.5 9.5
l-6.5 6.5l-100 99l-6.5 6.5t-4.5 9.5t4.5 9.5l6.5 6.5l15 15l6.5 6.5t9.5 4.5t9.5 -4.5l6.5 -6.5l99 -100l6.5 -6.5t9.5 -4.5t9.5 4.5l6.5 6.5l99 100l6.5 6.5t9.5 4.5t10 -4.5t7 -6.5l14 -14l6.5 -6.5t4.5 -9.5t-4.5 -10t-6.5 -7l-100 -99l-6.5 -6.5t-4.5 -9.5t4.5 -9.5
l6.5 -6.5l100 -99l6.5 -6.5t4.5 -9.5z" />
    <glyph glyph-name="Oslash" unicode="&#xd8;" horiz-adv-x="830" 
d="M767 330q0 -77 -27.5 -140.5t-74 -109.5t-106.5 -71t-124 -25q-58 0 -107.5 13t-94.5 41q-5 3 -11.5 7.5t-7.5 4.5q-7 0 -10 -4l-56 -66q-2 -2 -5.5 -5t-7.5 -3q-8 0 -14 5l-20 17q-2 2 -5 4.5t-3 7.5t3 9t5 6l56 65q1 2 2.5 3.5t1.5 5.5q0 3 -4 6q-6 4 -21 24.5t-31 51
t-28.5 69t-12.5 77.5q0 93 28 161.5t90 119.5q45 38 103.5 58t118.5 20q55 0 103.5 -12.5t86.5 -35.5q5 -3 12.5 -8t9.5 -5q6 0 10 4l55 64q2 2 5.5 6.5t8.5 4.5q4 0 6.5 -2t4.5 -3l21 -16l5 -5t3 -8t-3 -8.5t-5 -5.5l-56 -66q-3 -3 -3 -9q0 -3 3 -6q15 -11 31.5 -35.5
t31 -56.5t24 -70.5t9.5 -78.5zM560 557q0 4 -12.5 14t-34.5 21t-51.5 19.5t-62.5 8.5q-46 0 -86.5 -15t-71.5 -43q-40 -36 -55.5 -83.5t-15.5 -113.5q0 -38 8.5 -74t19.5 -65t20.5 -46.5t12.5 -17.5q2 0 5.5 4t4.5 6l312 374q1 1 4 5t3 6zM658 299q0 49 -8 88t-17.5 66
t-18.5 41t-10 14q-6 0 -7.5 -3t-3.5 -5l-312 -376q-1 -1 -3.5 -4.5t-2.5 -6.5t11.5 -13t33.5 -21t54 -19.5t73 -8.5q43 0 81 16t67 47t46 77.5t17 107.5z" />
    <glyph glyph-name="Ugrave" unicode="&#xd9;" horiz-adv-x="724" 
d="M406 726l-2 -2q-1 -1 -2 -1t-1 -1q-4 0 -6.5 1t-4.5 2l-174 116q-2 1 -6 4t-4 6q0 5 2 8t4 5l30 33q1 1 4 4.5t5 3.5q7 0 11.5 -4t6.5 -7l138 -147q4 -4 6 -8t-3 -9zM685 611q0 -9 -3 -11.5t-11 -2.5h-29q-13 0 -17 -5t-4 -18v-252q0 -92 -17 -156.5t-66 -108.5
q-32 -29 -77.5 -45t-96.5 -16q-81 0 -143 36.5t-91 101.5q-19 42 -22 88t-3 100v252q0 12 -4 17.5t-18 5.5h-29q-7 0 -10.5 2t-3.5 12v46q0 7 5 8.5t10 1.5h199q5 0 10 -1.5t5 -8.5v-46q0 -9 -3 -11.5t-11 -2.5h-30q-17 0 -19.5 -7.5t-2.5 -27.5v-240q0 -62 5.5 -110
t34.5 -84q22 -28 57 -43t78 -15q38 0 73.5 18.5t56.5 49.5q23 33 29 78.5t6 105.5v252q0 13 -3 18t-17 5h-30q-7 0 -10.5 2t-3.5 12v46q0 7 5 8.5t10 1.5h177q5 0 9.5 -1.5t4.5 -8.5v-46z" />
    <glyph glyph-name="Uacute" unicode="&#xda;" horiz-adv-x="724" 
d="M533 851q0 -3 -4.5 -6t-6.5 -4l-174 -116q-2 -2 -3 -2.5t-3 -0.5q-6 0 -9 3l-4 5q-5 5 -3 9.5t5 7.5l139 147q2 3 6 7t11 4q2 0 5.5 -3.5l4.5 -4.5l29 -33q2 -2 4.5 -5t2.5 -8zM685 611q0 -9 -3 -11.5t-11 -2.5h-29q-13 0 -17 -5t-4 -18v-252q0 -92 -17 -156.5
t-66 -108.5q-32 -29 -77.5 -45t-96.5 -16q-81 0 -143 36.5t-91 101.5q-19 42 -22 88t-3 100v252q0 12 -4 17.5t-18 5.5h-29q-7 0 -10.5 2t-3.5 12v46q0 7 5 8.5t10 1.5h199q5 0 10 -1.5t5 -8.5v-46q0 -9 -3 -11.5t-11 -2.5h-30q-17 0 -19.5 -7.5t-2.5 -27.5v-240
q0 -62 5.5 -110t34.5 -84q22 -28 57 -43t78 -15q38 0 73.5 18.5t56.5 49.5q23 33 29 78.5t6 105.5v252q0 13 -3 18t-17 5h-30q-7 0 -10.5 2t-3.5 12v46q0 7 5 8.5t10 1.5h177q5 0 9.5 -1.5t4.5 -8.5v-46z" />
    <glyph glyph-name="Ucircumflex" unicode="&#xdb;" horiz-adv-x="724" 
d="M524 740q0 -4 -3 -5l-7 -6q-1 -1 -3.5 -1.5t-3.5 -0.5q-2 0 -7 2.5l-7 3.5l-105 63q-1 1 -5.5 3t-6.5 2t-6.5 -2t-5.5 -3l-105 -62q-2 -1 -6.5 -4t-7.5 -3q-1 0 -3.5 0.5t-3.5 1.5l-7 6q-3 1 -3 5q0 6 3 9.5t5 5.5l116 113q5 5 8.5 7.5t13.5 2.5h4q9 0 13 -2.5t9 -7.5
l116 -113q2 -2 5 -5.5t3 -9.5zM685 611q0 -9 -3 -11.5t-11 -2.5h-29q-13 0 -17 -5t-4 -18v-252q0 -92 -17 -156.5t-66 -108.5q-32 -29 -77.5 -45t-96.5 -16q-81 0 -143 36.5t-91 101.5q-19 42 -22 88t-3 100v252q0 12 -4 17.5t-18 5.5h-29q-7 0 -10.5 2t-3.5 12v46
q0 7 5 8.5t10 1.5h199q5 0 10 -1.5t5 -8.5v-46q0 -9 -3 -11.5t-11 -2.5h-30q-17 0 -19.5 -7.5t-2.5 -27.5v-240q0 -62 5.5 -110t34.5 -84q22 -28 57 -43t78 -15q38 0 73.5 18.5t56.5 49.5q23 33 29 78.5t6 105.5v252q0 13 -3 18t-17 5h-30q-7 0 -10.5 2t-3.5 12v46
q0 7 5 8.5t10 1.5h177q5 0 9.5 -1.5t4.5 -8.5v-46z" />
    <glyph glyph-name="Udieresis" unicode="&#xdc;" horiz-adv-x="724" 
d="M506 806q0 -20 -13 -33t-33 -13t-33.5 13t-13.5 33t13.5 33.5t33.5 13.5t33 -13.5t13 -33.5zM312 806q0 -20 -13.5 -33t-33.5 -13t-33 13t-13 33t13 33.5t33 13.5t33.5 -13.5t13.5 -33.5zM685 611q0 -9 -3 -11.5t-11 -2.5h-29q-13 0 -17 -5t-4 -18v-252q0 -92 -17 -156.5
t-66 -108.5q-32 -29 -77.5 -45t-96.5 -16q-81 0 -143 36.5t-91 101.5q-19 42 -22 88t-3 100v252q0 12 -4 17.5t-18 5.5h-29q-7 0 -10.5 2t-3.5 12v46q0 7 5 8.5t10 1.5h199q5 0 10 -1.5t5 -8.5v-46q0 -9 -3 -11.5t-11 -2.5h-30q-17 0 -19.5 -7.5t-2.5 -27.5v-240
q0 -62 5.5 -110t34.5 -84q22 -28 57 -43t78 -15q38 0 73.5 18.5t56.5 49.5q23 33 29 78.5t6 105.5v252q0 13 -3 18t-17 5h-30q-7 0 -10.5 2t-3.5 12v46q0 7 5 8.5t10 1.5h177q5 0 9.5 -1.5t4.5 -8.5v-46z" />
    <glyph glyph-name="Yacute" unicode="&#xdd;" horiz-adv-x="654" 
d="M517 851q0 -3 -4.5 -6t-6.5 -4l-174 -116q-3 -3 -6 -3q-6 0 -9 3l-4 5q-5 5 -3 9t5 8l139 147q3 3 6.5 7t10.5 4q2 0 5.5 -3.5l4.5 -4.5l29 -33q2 -2 4.5 -5t2.5 -8zM684 614q0 -9 -3 -13t-12 -4h-33q-17 0 -27.5 -4.5t-19 -13.5t-16.5 -22l-19 -30l-86 -136.5
l-80 -127.5q-17 -26 -20 -44.5t-3 -37.5v-88q0 -14 4.5 -18.5t17.5 -4.5h39q14 0 14 -14v-47q0 -6 -4.5 -7.5t-9.5 -1.5h-217q-5 0 -10 1.5t-5 7.5v47q0 14 14 14h39q13 0 18 4.5t5 18.5v77q0 24 -3.5 43.5t-16.5 45.5q-7 14 -44.5 82t-109.5 183l-19.5 32t-16.5 23
t-17 13.5t-21 4.5h-24q-9 0 -14 2.5t-5 14.5v37q0 6 2 11t10 5h231q10 0 14 -3t4 -13v-37q0 -5 -2 -11t-8 -6h-27q-11 0 -17.5 -3.5t-6.5 -11.5t4 -16t8 -15l124 -217l8.5 -14.5t8.5 -7.5q5 0 18 22l36 61l71 124.5t26 62.5q0 15 -23 15h-13q-17 0 -17 17v37q0 10 4 13t13 3
h226q7 0 9 -5t2 -11v-37z" />
    <glyph glyph-name="Thorn" unicode="&#xde;" horiz-adv-x="618" 
d="M600 366q0 -36 -18 -71t-54 -62t-90.5 -43.5t-128.5 -17.5q-24 0 -37 -0.5t-19.5 -3t-8 -8t-1.5 -15.5v-49q0 -15 4.5 -20.5t17.5 -5.5h39q8 0 11 -2.5t3 -11.5v-47q0 -6 -5 -7.5t-10 -1.5h-215q-5 0 -10 1.5t-5 7.5v47q0 9 3.5 11.5t10.5 2.5h39q14 0 18 5t4 18v478
q0 13 -4 18t-18 5h-39q-8 0 -11 2.5t-3 11.5v46q0 7 5 7.5t10 0.5h216q5 0 9.5 -0.5t4.5 -7.5v-47q0 -9 -3 -11t-11 -2h-40q-14 0 -17.5 -5t-3.5 -17q0 -10 1 -11.5t10 -1.5h63q70 0 123.5 -11t95.5 -45q35 -28 49.5 -60t14.5 -77zM501 363q0 62 -47.5 100t-138.5 38h-39
t-21.5 -2t-9.5 -7t-2 -14v-229q0 -12 3 -16.5t17 -4.5q58 0 102.5 6.5t74.5 22.5t45.5 42t15.5 64z" />
    <glyph glyph-name="germandbls" unicode="&#xdf;" horiz-adv-x="565" 
d="M527 100q0 -19 -7.5 -38.5t-23 -35.5t-39 -26t-55.5 -10q-21 0 -36 3.5t-26.5 7t-21 7t-18.5 3.5q-8 0 -10.5 -5.5t-8.5 -13.5q-5 -6 -14 -6q-6 0 -6.5 7.5t-0.5 12.5l-4 90q0 2 -0.5 4t-0.5 4q0 5 1 8.5t7 3.5t11.5 -4t7.5 -9q5 -10 16.5 -20.5t27 -19t34.5 -14t40 -5.5
q54 0 54 47q0 20 -15.5 38t-41.5 38l-61.5 46.5t-42 37t-24.5 35.5t-8 42q0 15 8 31t22 27q29 24 50.5 46t21.5 54q0 45 -28 74t-70 29q-22 0 -46 -19t-35 -47q-6 -16 -8 -40t-2 -53v-314q0 -38 2.5 -50t18.5 -12h9q13 0 13 -13v-30q0 -11 -10 -11h-157q-10 0 -10 11v30
q0 13 13 13h24q14 0 16.5 12.5t2.5 49.5v190q0 6 -5.5 7.5t-12.5 1.5h-4l-27 -1h-2q-8 0 -10 4t-2 14v35q0 6 4 7.5t9 1.5h28q11 0 17 3t6 20q0 3 -0.5 6.5t-0.5 8.5q-1 10 -1.5 18.5t-0.5 16.5q0 30 4.5 51t11.5 36.5t16 26t17 18.5l36.5 37t29.5 27t27.5 16.5t29.5 5.5
q36 0 67.5 -12t55 -33t37 -48.5t13.5 -58.5q0 -65 -47 -103q-28 -23 -43 -36.5t-15 -24.5q0 -10 6 -19.5t18.5 -20.5t32 -25.5l45.5 -34.5q49 -37 70 -70.5t21 -80.5z" />
    <glyph glyph-name="agrave" unicode="&#xe0;" horiz-adv-x="434" 
d="M255 433q0 -2 -1 -2.5t-3 -2.5l-5 -3q-2 -2 -6 -2q-2 0 -3.5 1.5l-3.5 3.5l-122 138q-1 2 -3.5 5t-2.5 7q0 3 3 5.5t5 3.5l33 21q1 1 4 3t6 2q5 0 7.5 -5.5t4.5 -8.5l85 -156q2 -4 2 -10zM432 104q0 -4 -11 -21.5t-29 -37t-40 -35t-44 -15.5q-27 0 -43 21l-10.5 13.5
t-12.5 5.5q-5 0 -9 -3q-22 -12 -44 -21q-19 -8 -42 -14t-43 -6q-32 0 -50.5 21t-18.5 60q0 20 10 41t26 35q26 24 67.5 35.5t89.5 21.5q11 2 14 8t3 17q0 38 -12 59.5t-52 21.5q-32 0 -49.5 -10t-27 -22t-14.5 -22t-14 -10q-3 0 -4 1l-4 1q-4 1 -4 7t8.5 26t26.5 41t45 38
t64 17q61 0 88 -17t27 -62q0 -17 -0.5 -35t-0.5 -32v-107q0 -24 4 -38t20 -14q11 0 24 6.5t23 14.5q8 8 16 14t16 6q7 0 7 -10zM249 133q0 27 -3 34t-14 7q-15 0 -35 -5t-38 -15t-30.5 -24t-12.5 -32q0 -21 16.5 -35t41.5 -14q29 0 49.5 12.5t22.5 19.5q2 9 2.5 23.5
t0.5 28.5z" />
    <glyph glyph-name="aacute" unicode="&#xe1;" horiz-adv-x="434" 
d="M322 578q0 -4 -3 -7t-4 -5l-122 -138q-2 -2 -3 -3.5t-3 -1.5q-3 0 -7 2l-5 3q-2 2 -3 2.5t-1 2.5t1 5t2 5l84 156q2 3 5 8.5t8 5.5q3 0 6 -2t4 -3l32 -21q2 -1 5.5 -3.5t3.5 -5.5zM432 104q0 -4 -11 -21.5t-29 -37t-40 -35t-44 -15.5q-27 0 -43 21l-10.5 13.5t-12.5 5.5
q-5 0 -9 -3q-22 -12 -44 -21q-19 -8 -42 -14t-43 -6q-32 0 -50.5 21t-18.5 60q0 20 10 41t26 35q26 24 67.5 35.5t89.5 21.5q11 2 14 8t3 17q0 38 -12 59.5t-52 21.5q-32 0 -49.5 -10t-27 -22t-14.5 -22t-14 -10q-3 0 -4 1l-4 1q-4 1 -4 7t8.5 26t26.5 41t45 38t64 17
q61 0 88 -17t27 -62q0 -17 -0.5 -35t-0.5 -32v-107q0 -24 4 -38t20 -14q11 0 24 6.5t23 14.5q8 8 16 14t16 6q7 0 7 -10zM249 133q0 27 -3 34t-14 7q-15 0 -35 -5t-38 -15t-30.5 -24t-12.5 -32q0 -21 16.5 -35t41.5 -14q29 0 49.5 12.5t22.5 19.5q2 9 2.5 23.5t0.5 28.5z
" />
    <glyph glyph-name="acircumflex" unicode="&#xe2;" horiz-adv-x="434" 
d="M333 436q0 -4 -3 -5l-6 -5q-3 -3 -6 -3t-6.5 3.5l-5.5 5.5l-83 84q-1 1 -5 4t-6 3t-5.5 -3t-4.5 -4l-83 -84q-2 -2 -5.5 -5t-8.5 -3q-3 0 -5 2l-6 5q-1 2 -2 3t-1 3q0 3 3 7t4 6l93 131q2 2 5.5 6t8.5 4h14q5 0 8.5 -4t5.5 -6l93 -131q1 -2 4 -5.5t3 -8.5zM432 104
q0 -4 -11 -21.5t-29 -37t-40 -35t-44 -15.5q-27 0 -43 21l-10.5 13.5t-12.5 5.5q-5 0 -9 -3q-22 -12 -44 -21q-19 -8 -42 -14t-43 -6q-32 0 -50.5 21t-18.5 60q0 20 10 41t26 35q26 24 67.5 35.5t89.5 21.5q11 2 14 8t3 17q0 38 -12 59.5t-52 21.5q-32 0 -49.5 -10t-27 -22
t-14.5 -22t-14 -10q-3 0 -4 1l-4 1q-4 1 -4 7t8.5 26t26.5 41t45 38t64 17q61 0 88 -17t27 -62q0 -17 -0.5 -35t-0.5 -32v-107q0 -24 4 -38t20 -14q11 0 24 6.5t23 14.5q8 8 16 14t16 6q7 0 7 -10zM249 133q0 27 -3 34t-14 7q-15 0 -35 -5t-38 -15t-30.5 -24t-12.5 -32
q0 -21 16.5 -35t41.5 -14q29 0 49.5 12.5t22.5 19.5q2 9 2.5 23.5t0.5 28.5z" />
    <glyph glyph-name="atilde" unicode="&#xe3;" horiz-adv-x="434" 
d="M353 539q4 -3 -2.5 -15t-18.5 -25.5t-29 -24t-34 -10.5q-18 0 -35 5t-33.5 11.5t-33 11.5t-32.5 5q-8 0 -18.5 -4t-15.5 -10q-7 -8 -12 -12.5t-10 -0.5l-7 5q-2 1 -2 6q0 3 6 14.5t17.5 24t28 22t36.5 9.5q16 0 32.5 -5t33 -11.5t33 -11.5t33.5 -5q12 0 23.5 8t24.5 20
q2 2 5 2q2 0 2 -1t1 -2zM432 104q0 -4 -11 -21.5t-29 -37t-40 -35t-44 -15.5q-27 0 -43 21l-10.5 13.5t-12.5 5.5q-5 0 -9 -3q-22 -12 -44 -21q-19 -8 -42 -14t-43 -6q-32 0 -50.5 21t-18.5 60q0 20 10 41t26 35q26 24 67.5 35.5t89.5 21.5q11 2 14 8t3 17q0 38 -12 59.5
t-52 21.5q-32 0 -49.5 -10t-27 -22t-14.5 -22t-14 -10q-3 0 -4 1l-4 1q-4 1 -4 7t8.5 26t26.5 41t45 38t64 17q61 0 88 -17t27 -62q0 -17 -0.5 -35t-0.5 -32v-107q0 -24 4 -38t20 -14q11 0 24 6.5t23 14.5q8 8 16 14t16 6q7 0 7 -10zM249 133q0 27 -3 34t-14 7q-15 0 -35 -5
t-38 -15t-30.5 -24t-12.5 -32q0 -21 16.5 -35t41.5 -14q29 0 49.5 12.5t22.5 19.5q2 9 2.5 23.5t0.5 28.5z" />
    <glyph glyph-name="adieresis" unicode="&#xe4;" horiz-adv-x="434" 
d="M340 507q0 -17 -11.5 -29t-28.5 -12t-29 12t-12 29t12 29t29 12t28.5 -12t11.5 -29zM173 507q0 -17 -11.5 -29t-28.5 -12t-29 12t-12 29t12 29t29 12t28.5 -12t11.5 -29zM432 104q0 -4 -11 -21.5t-29 -37t-40 -35t-44 -15.5q-27 0 -43 21l-10.5 13.5t-12.5 5.5
q-5 0 -9 -3q-22 -12 -44 -21q-19 -8 -42 -14t-43 -6q-32 0 -50.5 21t-18.5 60q0 20 10 41t26 35q26 24 67.5 35.5t89.5 21.5q11 2 14 8t3 17q0 38 -12 59.5t-52 21.5q-32 0 -49.5 -10t-27 -22t-14.5 -22t-14 -10q-3 0 -4 1l-4 1q-4 1 -4 7t8.5 26t26.5 41t45 38t64 17
q61 0 88 -17t27 -62q0 -17 -0.5 -35t-0.5 -32v-107q0 -24 4 -38t20 -14q11 0 24 6.5t23 14.5q8 8 16 14t16 6q7 0 7 -10zM249 133q0 27 -3 34t-14 7q-15 0 -35 -5t-38 -15t-30.5 -24t-12.5 -32q0 -21 16.5 -35t41.5 -14q29 0 49.5 12.5t22.5 19.5q2 9 2.5 23.5t0.5 28.5z
" />
    <glyph glyph-name="aring" unicode="&#xe5;" horiz-adv-x="434" 
d="M300 509q0 -18 -7 -33.5t-18.5 -27t-27 -18.5t-33.5 -7t-33.5 7t-27 18.5t-18.5 27t-7 33.5t7 33.5t18.5 27t27 18.5t33.5 7t33.5 -7t27 -18.5t18.5 -27t7 -33.5zM432 104q0 -4 -11 -21.5t-29 -37t-40 -35t-44 -15.5q-27 0 -43 21l-10.5 13.5t-12.5 5.5q-5 0 -9 -3
q-22 -12 -44 -21q-19 -8 -42 -14t-43 -6q-32 0 -50.5 21t-18.5 60q0 20 10 41t26 35q26 24 67.5 35.5t89.5 21.5q11 2 14 8t3 17q0 38 -12 59.5t-52 21.5q-32 0 -49.5 -10t-27 -22t-14.5 -22t-14 -10q-3 0 -4 1l-4 1q-4 1 -4 7t8.5 26t26.5 41t45 38t64 17q61 0 88 -17
t27 -62q0 -17 -0.5 -35t-0.5 -32v-107q0 -24 4 -38t20 -14q11 0 24 6.5t23 14.5q8 8 16 14t16 6q7 0 7 -10zM255 509q0 20 -12 33t-29 13t-29 -13t-12 -33t12 -33t29 -13t29 13t12 33zM249 133q0 27 -3 34t-14 7q-15 0 -35 -5t-38 -15t-30.5 -24t-12.5 -32q0 -21 16.5 -35
t41.5 -14q29 0 49.5 12.5t22.5 19.5q2 9 2.5 23.5t0.5 28.5z" />
    <glyph glyph-name="ae" unicode="&#xe6;" horiz-adv-x="586" 
d="M566 97q0 -5 -11 -22t-32 -35.5t-51 -33t-67 -14.5q-28 0 -57 9t-51 24l-23 16.5t-15 7.5q-4 0 -15 -8l-26 -19q-19 -14 -46 -22.5t-53 -8.5q-36 0 -60 20.5t-24 55.5q0 45 35 72t108 42q20 4 32 7t18.5 7t8.5 10.5t2 17.5q0 50 -20 72t-49 22q-28 0 -46 -13.5t-35 -35.5
q-2 -2 -6 -8t-6 -6h-4.5t-4.5 1l-8 4q-3 1 -3 6q0 7 11 25.5t30 38t43.5 35t51.5 15.5q25 0 40.5 -7.5t29.5 -15.5q11 -6 21 -12.5t16 -6.5q5 0 16.5 6.5t26.5 14t32.5 14t35.5 6.5q36 0 63 -11.5t45 -26t27 -28.5t9 -18q0 -10 -7 -14t-15 -8q-51 -21 -90.5 -43l-74.5 -43
q-17 -10 -27 -17t-10 -19t9 -26.5t26.5 -27.5t42.5 -21.5t58 -8.5q23 0 39.5 8t33.5 21q3 2 9 7t9 5q8 0 8 -10zM442 288q0 5 -3 12t-10 13.5t-18 11t-26 4.5q-26 0 -47 -26t-21 -72q0 -17 2.5 -19t9.5 -2q1 0 19 8.5t39 21t38 26t17 22.5zM238 94q1 8 0.5 19t-0.5 20
q0 19 -0.5 22t-10.5 3q-6 0 -22.5 -4t-33.5 -12.5t-30 -22t-13 -33.5q0 -41 44 -41q10 0 21.5 5t21.5 12.5t16.5 16t6.5 15.5z" />
    <glyph glyph-name="ccedilla" unicode="&#xe7;" horiz-adv-x="335" 
d="M317 87q0 -4 -1.5 -7l-2.5 -5l-22 -45q-6 -12 -14.5 -23t-32.5 -13q-15 -1 -22.5 -2.5t-12.5 -10.5l-2 -4q0 -1 -1.5 -3.5t-1.5 -4.5q0 -5 10 -12t24 -15q13 -7 24 -23.5t11 -37.5q0 -20 -9.5 -37t-24.5 -29t-34.5 -19t-38.5 -7q-33 0 -51.5 8.5t-18.5 19.5q0 5 4.5 7.5
t8.5 2.5q5 0 14.5 -0.5t17.5 -0.5q32 0 49 14t17 28t-9.5 23.5t-21 16.5l-21 12.5t-9.5 13.5q0 2 2 5.5t3 4.5l26 42q2 2 2 3q0 5 -3 6.5t-17 3.5q-21 3 -43.5 17.5t-41 39t-30.5 57.5t-12 73q0 51 15 89t47 64q23 18 50.5 28.5t50.5 10.5q25 0 47 -5t38 -12.5t25.5 -15
t9.5 -11.5t-3 -10l-4 -8l-16 -35q-2 -3 -4.5 -7.5t-7.5 -4.5q-3 0 -7 4q-3 4 -13.5 11t-24 14t-30 12.5t-31.5 5.5q-35 0 -55.5 -21.5t-20.5 -59.5t10.5 -69.5t28.5 -54t41 -35t47 -12.5q29 0 44 9.5l31 20.5q4 2 6 2q5 0 8 -3.5t3 -5.5z" />
    <glyph glyph-name="egrave" unicode="&#xe8;" horiz-adv-x="380" 
d="M248 433q0 -2 -1 -2.5t-3 -2.5l-5 -3q-4 -2 -7 -2q-2 0 -3 1.5t-3 3.5l-122 138q-1 2 -4 5t-3 7q0 3 3.5 5.5t5.5 3.5l32 21q1 1 4 3t6 2q5 0 8 -5.5t5 -8.5l84 -156q1 -2 2 -5t1 -5zM360 92q0 -6 -12 -23t-32.5 -34t-48 -30.5t-57.5 -13.5q-17 0 -28.5 0.5t-27.5 5.5
q-26 7 -48 23t-38.5 39.5t-26 52t-9.5 60.5q0 47 14 85t37 65t53 41.5t63 14.5q37 0 65.5 -9.5t47 -23.5t28 -29.5t9.5 -26.5q0 -9 -8 -11.5t-23 -6.5q-42 -11 -90 -30.5t-95 -44.5q-5 -3 -9.5 -6.5t-4.5 -11.5q0 -18 9 -37t27 -35t45.5 -26.5t63.5 -10.5q23 0 38.5 7
t29.5 15q4 2 10 6t10 4t6 -3t2 -6zM232 294q0 14 -15 26t-36 12q-32 0 -50 -23.5t-18 -71.5q0 -5 2 -5h4q1 0 18.5 7.5t38.5 18t38.5 20.5t17.5 16z" />
    <glyph glyph-name="eacute" unicode="&#xe9;" horiz-adv-x="380" 
d="M331 578q0 -4 -2.5 -7t-3.5 -5l-122 -138q-2 -2 -3 -3.5t-3 -1.5q-3 0 -7 2l-5 3q-2 2 -3 2.5t-1 2.5t1 5t2 5l84 156q2 3 4.5 8.5t7.5 5.5q3 0 6.5 -2t4.5 -3l32 -21q2 -1 5 -3.5t3 -5.5zM360 92q0 -6 -12 -23t-32.5 -34t-48 -30.5t-57.5 -13.5q-17 0 -28.5 0.5
t-27.5 5.5q-26 7 -48 23t-38.5 39.5t-26 52t-9.5 60.5q0 47 14 85t37 65t53 41.5t63 14.5q37 0 65.5 -9.5t47 -23.5t28 -29.5t9.5 -26.5q0 -9 -8 -11.5t-23 -6.5q-42 -11 -90 -30.5t-95 -44.5q-5 -3 -9.5 -6.5t-4.5 -11.5q0 -18 9 -37t27 -35t45.5 -26.5t63.5 -10.5
q23 0 38.5 7t29.5 15q4 2 10 6t10 4t6 -3t2 -6zM232 294q0 14 -15 26t-36 12q-32 0 -50 -23.5t-18 -71.5q0 -5 3 -5t21.5 7.5t39.5 18t38 20.5t17 16z" />
    <glyph glyph-name="ecircumflex" unicode="&#xea;" horiz-adv-x="380" 
d="M313 436q0 -3 -2 -5l-7 -5q-3 -3 -5 -3q-3 0 -7 3.5t-6 5.5l-83 84q-1 1 -4.5 4t-5.5 3t-6 -3t-5 -4l-83 -84q-2 -2 -5.5 -5t-8.5 -3q-2 0 -4 2l-6 5q-1 2 -2 3q-2 2 -2 3q0 3 3.5 7t4.5 6l93 131q2 2 5.5 6t8.5 4h13q5 0 9 -4l6 -6l93 -131q1 -2 3.5 -5.5t2.5 -8.5z
M360 92q0 -6 -12 -23t-32.5 -34t-48 -30.5t-57.5 -13.5q-17 0 -28.5 0.5t-27.5 5.5q-26 7 -48 23t-38.5 39.5t-26 52t-9.5 60.5q0 47 14 85t37 65t53 41.5t63 14.5q37 0 65.5 -9.5t47 -23.5t28 -29.5t9.5 -26.5q0 -9 -8 -11.5t-23 -6.5q-42 -11 -90 -30.5t-95 -44.5
q-5 -3 -9.5 -6.5t-4.5 -11.5q0 -18 9 -37t27 -35t45.5 -26.5t63.5 -10.5q23 0 38.5 7t29.5 15q4 2 10 6t10 4t6 -3t2 -6zM232 294q0 14 -15 26t-36 12q-32 0 -50 -23.5t-18 -71.5q0 -5 6 -5q1 0 19 7.5t39 18t38 20.5t17 16z" />
    <glyph glyph-name="edieresis" unicode="&#xeb;" horiz-adv-x="380" 
d="M310 507q0 -17 -12 -29t-29 -12t-28.5 12t-11.5 29t11.5 29t28.5 12t29 -12t12 -29zM143 507q0 -17 -12 -29t-29 -12t-28.5 12t-11.5 29t11.5 29t28.5 12t29 -12t12 -29zM360 92q0 -6 -12 -23t-32.5 -34t-48 -30.5t-57.5 -13.5q-17 0 -28.5 0.5t-27.5 5.5q-26 7 -48 23
t-38.5 39.5t-26 52t-9.5 60.5q0 47 14 85t37 65t53 41.5t63 14.5q37 0 65.5 -9.5t47 -23.5t28 -29.5t9.5 -26.5q0 -9 -8 -11.5t-23 -6.5q-42 -11 -90 -30.5t-95 -44.5q-5 -3 -9.5 -6.5t-4.5 -11.5q0 -18 9 -37t27 -35t45.5 -26.5t63.5 -10.5q23 0 38.5 7t29.5 15q4 2 10 6
t10 4t6 -3t2 -6zM232 294q0 14 -15 26t-36 12q-32 0 -50 -23.5t-18 -71.5q0 -5 6 -5q1 0 19 7.5t39 18t38 20.5t17 16z" />
    <glyph glyph-name="igrave" unicode="&#xec;" horiz-adv-x="247" 
d="M181 433q0 -2 -1 -2.5t-3 -2.5l-4 -3q-4 -2 -7 -2q-2 0 -3.5 1.5l-3.5 3.5l-122 138q-1 2 -3.5 5t-2.5 7q0 3 3.5 5.5t5.5 3.5l32 21q1 1 4 3t6 2q5 0 8 -5.5t5 -8.5l84 -156q2 -4 2 -10zM224 10q0 -5 -3.5 -7.5t-8.5 -2.5h-164q-8 0 -10 4t-2 12v24q0 14 15 14h19
q15 0 18 12.5t3 48.5v134q0 26 -19 26q-2 0 -7.5 -1t-6.5 -1h-5.5t-5.5 4l-8 16q-3 4 -3 8q0 5 1.5 7.5t6.5 4.5q64 33 96 51.5t41 18.5q2 0 4.5 -1.5t3.5 -2.5l5 -6l2.5 -2.5t1.5 -4.5q0 -6 -4 -9q-13 -11 -19 -45.5t-6 -90.5v-106q0 -36 2.5 -48.5t17.5 -12.5h20
q15 0 15 -14v-30z" />
    <glyph glyph-name="iacute" unicode="&#xed;" horiz-adv-x="247" 
d="M252 578q0 -4 -3 -7t-4 -5l-122 -138q-2 -2 -3 -3.5t-3 -1.5q-3 0 -7 2l-4 3q-2 2 -3 2.5t-1 2.5q0 6 2 10l84 156q2 3 5 8.5t8 5.5q3 0 6 -2t4 -3l32 -21q2 -1 5.5 -3.5t3.5 -5.5zM224 10q0 -5 -3.5 -7.5t-8.5 -2.5h-164q-8 0 -10 4t-2 12v24q0 14 15 14h20
q15 0 17.5 12.5t2.5 48.5v134q0 12 -3.5 19t-14.5 7q-2 0 -8 -1t-7 -1h-5.5t-5.5 4l-8 16q-3 4 -3 8q0 5 1.5 7.5t6.5 4.5q64 33 96.5 51.5t41.5 18.5q2 0 4.5 -1.5t3.5 -2.5l5 -6q3 -3 3 -8t-4 -8q-12 -11 -18.5 -45.5t-6.5 -90.5v-106q0 -36 3 -48.5t18 -12.5h19
q15 0 15 -14v-30z" />
    <glyph glyph-name="icircumflex" unicode="&#xee;" horiz-adv-x="247" 
d="M244 436q0 -2 -3 -5l-6 -5q-3 -3 -6 -3t-7 3.5t-6 5.5l-82 84q-1 1 -5 4t-6 3t-5.5 -3t-4.5 -4l-83 -84q-2 -2 -6 -5t-9 -3q-2 0 -4 2l-6 5q-1 2 -2 3t-1 3q0 3 3 7t4 6l93 131q2 2 5.5 6t8.5 4h14q5 0 8.5 -4t5.5 -6l93 -131q1 -2 4 -5.5t3 -8.5zM224 10q0 -5 -3.5 -7.5
t-8.5 -2.5h-164q-8 0 -10 4t-2 12v24q0 14 15 14h19q15 0 18 12.5t3 48.5v134q0 26 -19 26q-2 0 -7.5 -1t-6.5 -1h-5.5t-5.5 4l-8 16q-3 4 -3 8q0 5 1.5 7.5t6.5 4.5q64 33 96 51.5t41 18.5q2 0 4.5 -1.5t3.5 -2.5l5 -6l2.5 -2.5t1.5 -4.5q0 -6 -4 -9q-13 -11 -19 -45.5
t-6 -90.5v-106q0 -36 2.5 -48.5t17.5 -12.5h20q15 0 15 -14v-30z" />
    <glyph glyph-name="idieresis" unicode="&#xef;" horiz-adv-x="247" 
d="M249 507q0 -17 -12 -29t-29 -12t-28.5 12t-11.5 29t11.5 29t28.5 12t29 -12t12 -29zM82 507q0 -17 -12 -29t-29 -12t-28.5 12t-11.5 29t11.5 29t28.5 12t29 -12t12 -29zM224 10q0 -5 -3.5 -7.5t-8.5 -2.5h-164q-8 0 -10 4t-2 12v24q0 14 15 14h20q15 0 17.5 12.5
t2.5 48.5v134q0 12 -3.5 19t-14.5 7q-2 0 -8 -1t-7 -1h-5.5t-5.5 4l-8 16q-3 4 -3 8q0 5 1.5 7.5t6.5 4.5q64 33 96.5 51.5t41.5 18.5q2 0 4.5 -1.5t3.5 -2.5l5 -6q3 -3 3 -7q0 -6 -4 -9q-13 -11 -19 -45.5t-6 -90.5v-106q0 -36 3 -48.5t18 -12.5h19q15 0 15 -14v-30z" />
    <glyph glyph-name="eth" unicode="&#xf0;" horiz-adv-x="442" 
d="M410 188q0 -94 -49 -146.5t-137 -52.5q-39 0 -74 13.5t-61.5 39.5t-41.5 63t-15 84q0 42 15 77t39.5 59.5t54.5 38.5t60 14q16 0 30.5 -4.5t26 -9.5t18.5 -9.5t10 -4.5q5 0 5 6q0 3 -1 5t-2 5l-43 116l-3 6t-5 4q-7 0 -10 -3l-78 -33q-1 0 -5 -2t-6 -2q-4 0 -6 6l-10 24
q-1 1 -1 2q-1 1 -1 3q0 4 5 6l88 37q2 1 6 3.5t4 5.5q0 2 -1 6t-2 5l-32 85q-1 1 -2 5.5t-1 6.5q0 3 3 4.5t4 2.5l25 10q2 1 3.5 2t3.5 1t3.5 -2t1.5 -3l43 -89q1 -2 3 -7t7 -5q2 0 5.5 1.5t4.5 1.5l81 34q1 0 5 1.5t6 1.5q3 0 5 -3l10 -25q2 -4 2 -6q0 -4 -3 -5.5l-5 -2.5
l-81 -35l-6 -3t-4 -6q0 -2 1 -6t2 -5l35 -71q28 -57 49 -115.5t21 -129.5zM326 158q0 72 -30 117t-84 45q-48 0 -72 -30t-24 -82q0 -31 8 -59.5t22.5 -50t35.5 -34.5t48 -13q96 0 96 107z" />
    <glyph glyph-name="ntilde" unicode="&#xf1;" 
d="M402 533q0 -2 -6.5 -12.5t-18 -23.5t-27 -23t-33.5 -10t-35 5t-33.5 11.5t-33 11.5t-32.5 5q-8 0 -19 -4t-16 -10q-7 -8 -12 -12.5t-10 -0.5l-6 5q-3 3 -3 6t6 14.5t17.5 23.5t28 22t36.5 10q15 0 32 -5t34 -11.5t34 -11.5t33 -5q12 0 23.5 8t24.5 20q2 2 4 2q1 0 4 -3
l6 -6q2 -2 2 -6zM479 16q0 -8 -2 -12t-10 -4h-154q-8 0 -9.5 4t-1.5 12v24q0 14 14 14h14q14 0 17 12t3 49v78q0 61 -31.5 92t-79.5 31q-13 0 -25 -3.5t-21 -9t-15 -10.5t-6 -8q-1 -8 -2 -21.5t-1 -34.5v-114q0 -36 2 -48.5t17 -12.5h14q15 0 15 -14v-30q0 -5 -3.5 -7.5
t-8.5 -2.5h-154q-8 0 -9.5 4t-1.5 12v24q0 14 14 14h18q14 0 16.5 12t2.5 49v113q0 23 -3 39.5t-21 16.5q-11 0 -17.5 -2.5t-9.5 -2.5q-4 0 -5.5 2.5t-2.5 4.5l-10 18l-1 5q0 7 24.5 18.5t72.5 39.5l18.5 10.5t16.5 5.5q2 0 4.5 -0.5t3.5 -2.5l11 -11q3 -3 3 -5
q0 -8 -4.5 -16t-4.5 -12q0 -2 -1 -3.5t1 -1.5q5 0 17 7.5t28.5 16t36.5 16t40 7.5q24 0 43.5 -6.5t39.5 -20.5q38 -28 47.5 -60t9.5 -76v-100q0 -37 2 -49t16 -12h18q15 0 15 -14v-24z" />
    <glyph glyph-name="ograve" unicode="&#xf2;" horiz-adv-x="442" 
d="M270 433q0 -2 -1.5 -2.5t-3.5 -2.5l-4 -3q-4 -2 -7 -2q-2 0 -3 1.5t-3 3.5l-122 138q-1 2 -4 5t-3 7q0 3 3.5 5.5t5.5 3.5l32 21q1 1 4 3t6 2q5 0 8 -5.5t5 -8.5l84 -156q1 -2 2 -5t1 -5zM410 177q0 -44 -14 -78.5t-38 -59t-55.5 -37.5t-65.5 -13q-49 0 -87 15
t-64.5 41.5t-40 61.5t-13.5 74q0 46 15 82.5t40 62t57 39t67 13.5q94 0 146.5 -53.5t52.5 -147.5zM326 165q0 34 -9 62.5t-24 49t-35 32t-43 11.5q-54 0 -76.5 -31.5t-22.5 -94.5q0 -24 7.5 -49.5t22.5 -46.5t37 -34t52 -13q43 0 67 28t24 86z" />
    <glyph glyph-name="oacute" unicode="&#xf3;" horiz-adv-x="442" 
d="M337 578q0 -4 -3 -7t-4 -5l-122 -138q-2 -2 -3 -3.5t-3 -1.5q-3 0 -7 2l-5 3q-2 2 -3 2.5t-1 2.5t1 5t2 5l84 156q2 3 5 8.5t8 5.5q3 0 6 -2t4 -3l32 -21q2 -1 5.5 -3.5t3.5 -5.5zM410 177q0 -44 -14 -78.5t-38 -59t-55.5 -37.5t-65.5 -13q-49 0 -87 15t-64.5 41.5
t-40 61.5t-13.5 74q0 46 15 82.5t40 62t57 39t67 13.5q94 0 146.5 -53.5t52.5 -147.5zM326 165q0 34 -9 62.5t-24 49t-35 32t-43 11.5q-54 0 -76.5 -31.5t-22.5 -94.5q0 -24 7.5 -49.5t22.5 -46.5t37 -34t52 -13q43 0 67 28t24 86z" />
    <glyph glyph-name="ocircumflex" unicode="&#xf4;" horiz-adv-x="442" 
d="M342 436q0 -4 -3 -5l-6 -5q-3 -3 -6 -3t-6.5 3.5l-5.5 5.5l-83 84q-1 1 -5 4t-6 3t-5.5 -3t-4.5 -4l-83 -84q-2 -2 -5.5 -5t-8.5 -3q-3 0 -5 2l-6 5q-1 2 -2 3t-1 3q0 3 3 7t4 6l93 131q2 2 5.5 6t8.5 4h14q5 0 8.5 -4t5.5 -6l93 -131q1 -2 4 -5.5t3 -8.5zM410 177
q0 -44 -14 -78.5t-38 -59t-55.5 -37.5t-65.5 -13q-49 0 -87 15t-64.5 41.5t-40 61.5t-13.5 74q0 46 15 82.5t40 62t57 39t67 13.5q94 0 146.5 -53.5t52.5 -147.5zM326 165q0 34 -9 62.5t-24 49t-35 32t-43 11.5q-54 0 -76.5 -31.5t-22.5 -94.5q0 -24 7.5 -49.5t22.5 -46.5
t37 -34t52 -13q43 0 67 28t24 86z" />
    <glyph glyph-name="otilde" unicode="&#xf5;" horiz-adv-x="442" 
d="M362 539q4 -3 -2.5 -15t-18.5 -25.5t-29 -24t-34 -10.5q-18 0 -35 5t-33.5 11.5t-33 11.5t-32.5 5q-8 0 -18.5 -4t-15.5 -10q-7 -8 -12 -12.5t-10 -0.5l-7 5q-2 1 -2 6q0 3 6 14.5t17.5 24t28 22t36.5 9.5q16 0 32.5 -5t33 -11.5t33 -11.5t33.5 -5q12 0 23.5 8t24.5 20
q2 2 5 2q2 0 2 -1t1 -2zM410 177q0 -44 -14 -78.5t-38 -59t-55.5 -37.5t-65.5 -13q-49 0 -87 15t-64.5 41.5t-40 61.5t-13.5 74q0 46 15 82.5t40 62t57 39t67 13.5q94 0 146.5 -53.5t52.5 -147.5zM326 165q0 34 -9 62.5t-24 49t-35 32t-43 11.5q-54 0 -76.5 -31.5
t-22.5 -94.5q0 -24 7.5 -49.5t22.5 -46.5t37 -34t52 -13q43 0 67 28t24 86z" />
    <glyph glyph-name="odieresis" unicode="&#xf6;" horiz-adv-x="442" 
d="M346 507q0 -17 -12 -29t-29 -12t-28.5 12t-11.5 29t11.5 29t28.5 12t29 -12t12 -29zM178 507q0 -17 -11.5 -29t-28.5 -12t-29 12t-12 29t12 29t29 12t28.5 -12t11.5 -29zM410 177q0 -44 -14 -78.5t-38 -59t-55.5 -37.5t-65.5 -13q-49 0 -87 15t-64.5 41.5t-40 61.5
t-13.5 74q0 46 15 82.5t40 62t57 39t67 13.5q94 0 146.5 -53.5t52.5 -147.5zM326 165q0 34 -9 62.5t-24 49t-35 32t-43 11.5q-54 0 -76.5 -31.5t-22.5 -94.5q0 -24 7.5 -49.5t22.5 -46.5t37 -34t52 -13q43 0 67 28t24 86z" />
    <glyph glyph-name="divide" unicode="&#xf7;" 
d="M303 473q0 -23 -16 -38.5t-39 -15.5t-38.5 15.5t-15.5 38.5t15.5 38.5t38.5 15.5t39 -15.5t16 -38.5zM467 297q0 -15 -4 -19t-19 -4h-392q-16 0 -19.5 4t-3.5 19v21q0 3 -0.5 7t1 7.5t6.5 6t16 2.5h392q15 0 19 -4t4 -19v-21zM303 143q0 -22 -16 -38t-39 -16t-38.5 15.5
t-15.5 38.5t15.5 38.5t38.5 15.5t39 -15.5t16 -38.5z" />
    <glyph glyph-name="oslash" unicode="&#xf8;" horiz-adv-x="442" 
d="M414 371q0 -3 -2 -6t-3 -4l-35 -38q-1 -2 -3.5 -5t-2.5 -6q0 -1 2 -5q16 -24 28 -53t12 -76q0 -46 -15 -81t-40 -59t-56 -36.5t-64 -12.5q-31 0 -57.5 6.5t-52.5 21.5q-2 1 -6.5 3.5t-7.5 2.5q-5 0 -8.5 -3t-5.5 -5l-34 -37l-3.5 -3.5t-3.5 -1.5q-5 0 -8 2.5t-5 4.5
l-17 16l-4 4t-3 5q0 4 2 7t4 5l35 40q5 5 5 9q0 5 -1 7q-12 20 -22.5 45t-10.5 64q0 45 15 81.5t40 62t57.5 39t67.5 13.5q29 0 49 -4t33 -9t20 -9t10 -4q5 0 8 3.5t5 5.5l30 33q2 2 5 6t8 4q3 0 6.5 -3t4.5 -4l16 -15l4.5 -4.5t3.5 -6.5zM274 297q0 12 -17.5 17.5
t-43.5 5.5q-49 0 -75 -30t-26 -92q0 -32 5.5 -53.5t7.5 -21.5h4.5t4.5 3l138 168q2 2 2 3zM329 165q0 18 -2 35t-5.5 30t-7.5 21t-7 8t-4 -2.5t-3 -4.5l-138 -168q-3 -3 -3 -7t18.5 -15t56.5 -11q45 0 70 28.5t25 85.5z" />
    <glyph glyph-name="ugrave" unicode="&#xf9;" horiz-adv-x="494" 
d="M292 433q0 -2 -1 -2.5t-3 -2.5l-5 -3q-4 -2 -6 -2t-3.5 1.5l-3.5 3.5l-122 138q-1 2 -3.5 5t-2.5 7q0 3 3 5.5t5 3.5l33 21q1 1 4 3t6 2q5 0 7.5 -5.5t4.5 -8.5l85 -156q2 -4 2 -10zM475 47q0 -3 -4.5 -5.5t-6.5 -3.5q-56 -23 -85.5 -36.5t-32.5 -13.5q-6 0 -8 5l-3 4
q-1 2 -1 3q-1 1 -1 3q0 5 3.5 17.5t3.5 20.5q0 2 -0.5 5t-3.5 3q-2 0 -4 -1.5t-3 -1.5q-38 -26 -70 -40.5t-72 -14.5q-46 0 -77 28.5t-31 86.5q0 42 2 73t2 52q0 24 -5 35.5t-22 11.5h-4q-2 -1 -5 -1h-8q-3 0 -5 7l-8 19q0 1 -0.5 1.5t-0.5 1.5q0 8 11.5 13.5l35.5 17.5
l57.5 30t24.5 11q4 0 6 -3l10 -15q1 -2 2 -3t1 -3q0 -3 -2 -8t-5 -14t-6 -23.5t-4 -36.5q-2 -21 -2 -39.5v-35.5q0 -76 18 -110t70 -34q12 0 25.5 3.5t25.5 9.5t21.5 13.5t12.5 14.5q4 8 4.5 19t0.5 20v70q0 32 -4.5 50.5t-27.5 18.5q-2 0 -7 -0.5t-6 -0.5q-3 0 -4.5 2
t-2.5 4l-6 13q0 1 -1 3.5t-1 4.5q0 6 13.5 13l40.5 22q38 21 59 34t29 13q3 0 5 -3l9 -14q3 -3 3 -7q0 -5 -2 -8q-14 -21 -18.5 -43t-4.5 -51v-121q0 -30 4 -46t27 -16q6 0 13.5 2.5t9.5 2.5q6 0 7 -4l6 -14q2 -4 2 -11z" />
    <glyph glyph-name="uacute" unicode="&#xfa;" horiz-adv-x="494" 
d="M386 578q0 -4 -3 -7t-4 -5l-122 -138q-2 -2 -3 -3.5t-3 -1.5q-3 0 -7 2l-5 3q-2 2 -3 2.5t-1 2.5t1 5t2 5l84 156q2 3 5 8.5t8 5.5q3 0 6 -2t4 -3l32 -21q2 -1 5.5 -3.5t3.5 -5.5zM475 47q0 -3 -4.5 -5.5t-6.5 -3.5q-56 -23 -85.5 -36.5t-32.5 -13.5q-6 0 -8 5l-3 4
q-1 2 -1 3q-1 1 -1 3q0 5 3.5 17.5t3.5 20.5q0 2 -0.5 5t-3.5 3q-2 0 -4 -1.5t-3 -1.5q-38 -26 -70 -40.5t-72 -14.5q-46 0 -77 28.5t-31 86.5q0 42 2 73t2 52q0 24 -5 35.5t-22 11.5h-4q-2 -1 -5 -1h-8q-3 0 -5 7l-8 19q0 1 -0.5 1.5t-0.5 1.5q0 8 11.5 13.5l35.5 17.5
l57.5 30t24.5 11q4 0 6 -3l10 -15q1 -2 2 -3t1 -3q0 -3 -2 -8t-5 -14t-6 -23.5t-4 -36.5q-2 -21 -2 -39.5v-35.5q0 -76 18 -110t70 -34q12 0 25.5 3.5t25.5 9.5t21.5 13.5t12.5 14.5q4 8 4.5 19t0.5 20v70q0 32 -4.5 50.5t-27.5 18.5q-2 0 -7 -0.5t-6 -0.5q-3 0 -4.5 2
t-2.5 4l-6 13q0 1 -1 3.5t-1 4.5q0 6 13.5 13l40.5 22q38 21 59 34t29 13q3 0 5 -3l9 -14q3 -3 3 -7q0 -5 -2 -8q-14 -21 -18.5 -43t-4.5 -51v-121q0 -30 4 -46t27 -16q6 0 13.5 2.5t9.5 2.5q6 0 7 -4l6 -14q2 -4 2 -11z" />
    <glyph glyph-name="ucircumflex" unicode="&#xfb;" horiz-adv-x="494" 
d="M368 436q0 -2 -3 -5l-6 -5q-3 -3 -6 -3t-7 3.5t-6 5.5l-82 84q-1 1 -5 4t-6 3t-5.5 -3t-4.5 -4l-83 -84q-2 -2 -6 -5t-9 -3q-2 0 -4 2l-6 5q-1 2 -2 3t-1 3q0 3 3 7t4 6l93 131q2 2 5.5 6t8.5 4h14q5 0 8.5 -4t5.5 -6l93 -131q1 -2 4 -5.5t3 -8.5zM475 47q0 -3 -4.5 -5.5
t-6.5 -3.5q-56 -23 -85.5 -36.5t-32.5 -13.5q-6 0 -8 5l-3 4q-1 2 -1 3q-1 1 -1 3q0 5 3.5 17.5t3.5 20.5q0 2 -0.5 5t-3.5 3q-2 0 -4 -1.5t-3 -1.5q-38 -26 -70 -40.5t-72 -14.5q-46 0 -77 28.5t-31 86.5q0 42 2 73t2 52q0 24 -5 35.5t-22 11.5h-4q-2 -1 -5 -1h-8
q-3 0 -5 7l-8 19q0 1 -0.5 1.5t-0.5 1.5q0 8 11.5 13.5l35.5 17.5l57.5 30t24.5 11q4 0 6 -3l10 -15q1 -2 2 -3t1 -3q0 -3 -2 -8t-5 -14t-6 -23.5t-4 -36.5q-2 -21 -2 -39.5v-35.5q0 -76 18 -110t70 -34q12 0 25.5 3.5t25.5 9.5t21.5 13.5t12.5 14.5q4 8 4.5 19t0.5 20v70
q0 32 -4.5 50.5t-27.5 18.5q-2 0 -7 -0.5t-6 -0.5q-3 0 -4.5 2t-2.5 4l-6 13q0 1 -1 3.5t-1 4.5q0 6 13.5 13l40.5 22q38 21 59 34t29 13q3 0 5 -3l9 -14q3 -3 3 -7q0 -5 -2 -8q-14 -21 -18.5 -43t-4.5 -51v-121q0 -30 4 -46t27 -16q6 0 13.5 2.5t9.5 2.5q6 0 7 -4l6 -14
q2 -4 2 -11z" />
    <glyph glyph-name="udieresis" unicode="&#xfc;" horiz-adv-x="494" 
d="M375 507q0 -17 -12 -29t-29 -12t-28.5 12t-11.5 29t11.5 29t28.5 12t29 -12t12 -29zM208 507q0 -17 -12 -29t-29 -12t-28.5 12t-11.5 29t11.5 29t28.5 12t29 -12t12 -29zM475 47q0 -3 -4.5 -5.5t-6.5 -3.5q-56 -23 -85.5 -36.5t-32.5 -13.5q-6 0 -8 5l-3 4q-1 2 -1 3
q-1 1 -1 3q0 5 3.5 17.5t3.5 20.5q0 2 -0.5 5t-3.5 3q-2 0 -4 -1.5t-3 -1.5q-38 -26 -70 -40.5t-72 -14.5q-46 0 -77 28.5t-31 86.5q0 42 2 73t2 52q0 24 -5 35.5t-22 11.5h-4q-2 -1 -5 -1h-8q-3 0 -5 7l-8 19q0 1 -0.5 1.5t-0.5 1.5q0 8 11.5 13.5l35.5 17.5l57.5 30
t24.5 11q4 0 6 -3l10 -15q1 -2 2 -3t1 -3q0 -3 -2 -8t-5 -14t-6 -23.5t-4 -36.5q-2 -21 -2 -39.5v-35.5q0 -76 18 -110t70 -34q12 0 25.5 3.5t25.5 9.5t21.5 13.5t12.5 14.5q4 8 4.5 19t0.5 20v70q0 32 -4.5 50.5t-27.5 18.5q-2 0 -7 -0.5t-6 -0.5q-3 0 -4.5 2t-2.5 4l-6 13
q0 1 -1 3.5t-1 4.5q0 6 13.5 13l40.5 22q38 21 59 34t29 13q3 0 5 -3l9 -14q3 -3 3 -7q0 -5 -2 -8q-14 -21 -18.5 -43t-4.5 -51v-121q0 -30 4 -46t27 -16q6 0 13.5 2.5t9.5 2.5q6 0 7 -4l6 -14q2 -4 2 -11z" />
    <glyph glyph-name="yacute" unicode="&#xfd;" horiz-adv-x="442" 
d="M352 578q0 -4 -3 -7t-4 -5l-122 -138q-2 -2 -3 -3.5t-3 -1.5q-3 0 -7 2l-4 3q-2 2 -3 2.5t-1 2.5q0 4 2 10l84 156q2 3 5 8.5t8 5.5q3 0 6 -2t4 -3l32 -21q2 -1 5.5 -3.5t3.5 -5.5zM443 337q0 -6 -1 -10t-8 -5q-21 -2 -33.5 -5.5t-23 -15.5t-22.5 -36l-32 -67l-176 -374
l-10 -21.5t-8 -14t-10 -8.5t-16 -3l-51 -2q-5 0 -13.5 -0.5t-13.5 -0.5q-8 0 -3 9t10 17l136 230q2 2 4.5 7.5t2.5 10.5q0 7 -3 14l-5 12l-100 206q-11 21 -18 31t-18 10h-14q-8 0 -11 2t-3 10v29q0 8 3.5 10.5t16.5 2.5h146q11 0 14.5 -1.5t3.5 -9.5v-28q0 -8 -5 -10
t-12 -2h-11q-7 0 -13 -2t-6 -9q0 -8 3 -16l5 -13l67 -146q1 -2 3.5 -6.5t4.5 -4.5q3 0 5 3.5t3 5.5l73 156q2 3 4.5 9.5t2.5 11.5q0 7 -4.5 9t-10.5 2h-17q-4 0 -5.5 3t-1.5 6v27q0 8 1.5 11.5t12.5 3.5h151q5 0 5.5 -4.5t0.5 -7.5v-26z" />
    <glyph glyph-name="thorn" unicode="&#xfe;" horiz-adv-x="494" 
d="M464 210q0 -105 -48.5 -160t-137.5 -55q-25 0 -44.5 3.5t-33.5 7.5t-22 7.5t-9 3.5q-7 0 -7 -4.5v-10.5v-110q0 -21 0.5 -34t4 -19.5t12 -9t24.5 -2.5h23q10 0 12 -2.5t2 -11.5v-24q0 -5 -1 -10.5t-8 -5.5h-190q-5 0 -8.5 2.5t-3.5 7.5v31q0 9 3.5 11t11.5 2h21
q14 0 16.5 11.5t2.5 49.5v540q0 53 -1 74.5t-19 21.5q-11 0 -21 -6.5t-15 -6.5q-3 0 -5 3t-3 5l-10 21q-1 2 -3 5t-2 7t5 8t8 6q75 46 112 73.5t45 27.5q6 0 9 -5l14 -24q3 -5 3 -8q0 -4 -5.5 -9.5t-10.5 -9.5q-17 -16 -20 -49t-3 -87v-143v-12.5t3 -7.5q5 0 7 2t4 3
q30 23 60 42t65 19q37 0 67 -14.5t51.5 -38.5t33 -54t11.5 -61zM383 154q0 33 -10 61t-27.5 48.5t-40 32.5t-47.5 12q-18 0 -35.5 -7.5t-31 -21.5t-21.5 -33t-8 -42v-24q0 -22 2 -41t21 -40q42 -46 116 -46q31 0 56.5 24t25.5 77z" />
    <glyph glyph-name="ydieresis" unicode="&#xff;" horiz-adv-x="442" 
d="M346 507q0 -17 -12 -29t-29 -12t-28.5 12t-11.5 29t11.5 29t28.5 12t29 -12t12 -29zM179 507q0 -17 -12 -29t-29 -12t-28.5 12t-11.5 29t11.5 29t28.5 12t29 -12t12 -29zM443 337q0 -6 -1 -10t-8 -5q-21 -2 -33.5 -5.5t-23 -15.5t-22.5 -36l-32 -67l-176 -374l-10 -21.5
t-8 -14t-10 -8.5t-16 -3l-51 -2q-5 0 -13.5 -0.5t-13.5 -0.5q-8 0 -3 9t10 17l136 230q2 2 4.5 7.5t2.5 10.5q0 7 -3 14l-5 12l-100 206q-11 21 -18 31t-18 10h-14q-8 0 -11 2t-3 10v29q0 8 3.5 10.5t16.5 2.5h146q11 0 14.5 -1.5t3.5 -9.5v-28q0 -8 -5 -10t-12 -2h-11
q-7 0 -13 -2t-6 -9q0 -8 3 -16l5 -13l67 -146q1 -2 3.5 -6.5t4.5 -4.5q3 0 5 3.5t3 5.5l73 156q2 3 4.5 9.5t2.5 11.5q0 7 -4.5 9t-10.5 2h-17q-4 0 -5.5 3t-1.5 6v27q0 8 1.5 11.5t12.5 3.5h151q5 0 5.5 -4.5t0.5 -7.5v-26z" />
    <glyph glyph-name="OE" unicode="&#x152;" horiz-adv-x="1168" 
d="M1088 19q0 -10 -3 -14.5t-17 -4.5h-458q-10 0 -10 10v37q-41 -28 -83 -42.5t-91 -14.5q-84 0 -151.5 28.5t-114.5 79t-72 118.5t-25 146q0 73 25.5 131.5t69 99t102.5 62t127 21.5q60 0 112.5 -15.5t100.5 -48.5v49q0 4 4 5t6 1h441q20 0 24 -4t4 -22v-126q0 -4 -2 -8
t-7 -4q-10 0 -15 8l-47 68q-7 10 -22 17t-36 7h-233q-14 0 -18 -4.5t-4 -19.5v-181q0 -13 14 -13h239q11 0 13 4t2 15v40q0 6 5.5 7t10.5 1h33q8 0 12.5 -1.5t4.5 -9.5v-186q0 -11 -1.5 -16t-14.5 -5h-39q-11 0 -11 12v47q0 8 -2.5 12t-11.5 4h-240q-14 0 -14 -13v-208
q0 -14 4 -17.5t17 -3.5h236q23 0 39 6.5t28 22.5l53 71q4 5 12 5q6 0 7 -3t1 -7zM600 472q0 22 -18.5 47t-48.5 46t-69 35t-81 14q-105 0 -162 -62t-57 -175q0 -68 20.5 -126t56 -101.5t84 -68t104.5 -24.5q33 0 64 10t55 26.5t38 38t14 44.5v296z" />
    <glyph glyph-name="oe" unicode="&#x153;" horiz-adv-x="647" 
d="M627 93q0 -6 -11 -22.5t-31 -34t-48.5 -31t-64.5 -13.5q-17 0 -42 8.5t-39 19.5q-7 5 -14.5 12t-13.5 12l-14 12q-5 0 -7.5 -2t-4.5 -4q-27 -23 -55 -41.5t-65 -18.5q-45 0 -79.5 14.5t-58 40t-35.5 60t-12 74.5q0 47 17.5 84t44 62.5t58 39t60.5 13.5q35 0 65 -8.5
t63 -32.5l12.5 -10t11.5 -6q5 0 16 8.5t25 20.5t37 20.5t41 8.5q33 0 59 -12t44.5 -27.5t28 -30.5t9.5 -20q0 -3 -16 -12.5t-39.5 -22l-51.5 -27t-51.5 -28.5t-39.5 -26t-16 -20q0 -10 7.5 -25t24 -28.5t41.5 -23.5t61 -10q15 0 31.5 9t34.5 23q4 3 8 3q3 0 6 -2.5t3 -5.5z
M507 286q0 15 -12 27t-37 12q-9 0 -20.5 -6t-21.5 -18t-16.5 -31t-6.5 -44q0 -6 1.5 -12.5t8.5 -6.5q4 0 20.5 9t35 21.5t33.5 26t15 22.5zM324 109q0 5 -3.5 30.5t-3.5 67.5q0 8 1.5 18.5t1.5 16.5q0 1 -6.5 13t-20.5 25.5t-36.5 24.5t-54.5 11q-39 0 -62.5 -30.5
t-23.5 -77.5q0 -36 10 -64.5t27.5 -49t40 -31.5t47.5 -11q15 0 30 5.5t26.5 14t19 18.5t7.5 19z" />
    <glyph glyph-name="Scaron" unicode="&#x160;" horiz-adv-x="619" 
d="M467 866q0 -6 -2.5 -9.5t-4.5 -5.5l-116 -113q-4 -4 -8 -7.5t-14 -3.5h-5q-10 0 -14 3.5t-8 7.5l-116 113q-2 2 -4.5 5.5t-2.5 9.5q0 3 3 5l7 5q2 2 6 2q2 0 7.5 -2.5t7.5 -3.5l105 -63q1 -1 5 -3t7 -2q2 0 6 2t5 3l106 63l7 3.5t7 2.5q4 0 6 -2l7 -5q3 -2 3 -5zM557 179
q0 -39 -17.5 -75t-51.5 -63t-85 -43t-117 -16q-60 0 -111.5 10t-77.5 21q-11 5 -17.5 11t-7.5 18l-6 115q0 5 1.5 9.5t7.5 4.5t11.5 -8l11.5 -17q12 -19 32 -36.5t47.5 -31t61 -21.5t71.5 -8q65 0 105 28.5t40 77.5q0 37 -24 64.5t-65 43.5q-66 25 -122 48.5t-96.5 50.5
t-63.5 61.5t-23 82.5q0 38 16.5 71t49.5 57t82.5 38t115.5 14q37 0 70.5 -4t58.5 -10.5t39.5 -14t14.5 -14.5l-4 -107q0 -3 -1.5 -7t-6.5 -4q-6 0 -8 4q-5 6 -10.5 14.5t-10.5 14.5q-8 10 -24 19.5t-39 17t-51 12.5t-59 5q-140 0 -140 -91q0 -34 27.5 -57.5t86.5 -46.5
l118 -47.5t91 -47t59 -59.5t21 -84z" />
    <glyph glyph-name="scaron" unicode="&#x161;" horiz-adv-x="353" 
d="M298 577q0 -3 -3 -7t-4 -6l-93 -131q-2 -2 -5.5 -6t-8.5 -4h-14q-5 0 -8.5 4t-5.5 6l-93 131q-1 2 -4 6t-3 9q0 1 3 4l6 5q3 3 6 3t7 -3.5t6 -5.5l83 -84q1 -1 4.5 -4t5.5 -3t5.5 3t4.5 4l83 84q2 2 6 5.5t9 3.5q1 0 4 -3l6 -5q0 -2 1 -3q0 -1 0.5 -1t0.5 -1t1 -1z
M322 94q0 -42 -32.5 -72.5t-92.5 -30.5q-37 0 -61.5 10t-38.5 10q-7 0 -11 -4t-7 -8.5t-6.5 -8.5t-10.5 -4q-5 0 -6 4t-1 7l-5 102q0 6 0.5 12t8.5 6q5 0 8.5 -3t5.5 -6q19 -27 47 -47.5t79 -20.5q24 0 37 12t13 31q0 22 -23 36.5t-71 34.5q-58 24 -85 53t-27 67
q0 45 29.5 74.5t84.5 29.5q18 0 33.5 -4t28 -8.5l22 -8t15.5 -3.5q4 0 7.5 4.5t5.5 6.5l8.5 13.5t9.5 5.5q3 0 4 -4.5t1 -6.5l4 -93q0 -5 -1.5 -11t-6.5 -6q-7 0 -17 8.5t-25 22.5q-14 14 -39.5 24.5t-45.5 10.5q-26 0 -39 -10.5t-13 -25.5q0 -17 13.5 -28.5t45.5 -25.5
q46 -19 75.5 -34.5t47 -31.5t24.5 -35t7 -44z" />
    <glyph glyph-name="Ydieresis" unicode="&#x178;" horiz-adv-x="654" 
d="M484 806q0 -20 -13.5 -33t-33.5 -13t-33 13t-13 33t13 33.5t33 13.5t33.5 -13.5t13.5 -33.5zM289 806q0 -20 -13 -33t-33 -13t-33.5 13t-13.5 33t13.5 33.5t33.5 13.5t33 -13.5t13 -33.5zM684 614q0 -9 -3 -13t-12 -4h-33q-17 0 -27.5 -4.5t-19 -13.5t-16.5 -22l-19 -30
l-86 -136.5l-80 -127.5q-17 -26 -20 -44.5t-3 -37.5v-88q0 -14 4.5 -18.5t17.5 -4.5h39q14 0 14 -14v-47q0 -6 -4.5 -7.5t-9.5 -1.5h-217q-5 0 -10 1.5t-5 7.5v47q0 14 14 14h39q13 0 18 4.5t5 18.5v77q0 24 -3.5 43.5t-16.5 45.5q-7 14 -44.5 82t-109.5 183l-19.5 32
t-16.5 23t-17 13.5t-21 4.5h-24q-9 0 -14 2.5t-5 14.5v37q0 6 2 11t10 5h231q10 0 14 -3t4 -13v-37q0 -5 -2 -11t-8 -6h-27q-11 0 -17.5 -3.5t-6.5 -11.5t4 -16t8 -15l124 -217l8.5 -14.5t8.5 -7.5q5 0 18 22l36 61l71 124.5t26 62.5q0 15 -23 15h-13q-17 0 -17 17v37
q0 10 4 13t13 3h226q7 0 9 -5t2 -11v-37z" />
    <glyph glyph-name="Zcaron" unicode="&#x17d;" horiz-adv-x="760" 
d="M528 866q0 -6 -3 -9.5t-5 -5.5l-116 -113q-4 -4 -8 -7.5t-14 -3.5h-4q-10 0 -14 3.5t-8 7.5l-116 113q-2 2 -5 5.5t-3 9.5q0 3 3 5l7 5q1 1 3.5 1.5t3.5 0.5q2 0 7 -2.5l7 -3.5l105 -63q1 -1 5.5 -3t6.5 -2t6.5 2t5.5 3l105 63l7 3.5t7 2.5q1 0 3.5 -0.5t3.5 -1.5l7 -5
q3 -2 3 -5zM730 20q0 -5 -1.5 -12.5t-6.5 -7.5q-14 0 -34.5 6.5t-43.5 7.5q-42 2 -94.5 4t-115.5 2q-125 0 -211 -1t-134 -10q-17 -3 -31 -6t-19 -3q-8 0 -13.5 10.5t-5.5 16.5q0 11 15 21.5t37 30.5q45 42 79 77l59 60l312 315q3 3 8.5 9t5.5 9q0 4 -19 6t-48.5 2.5
t-63.5 0.5h-64h-100t-65 -6.5t-37.5 -21.5t-16.5 -45q-3 -23 -7.5 -32.5t-13.5 -9.5q-8 0 -9.5 5.5t-1.5 13.5v185v10.5t5 5.5q4 0 11 -1.5t11 -2.5q25 -5 96.5 -8.5t188.5 -3.5q138 0 211.5 7.5t85.5 7.5q6 0 11.5 -8t5.5 -18q0 -3 -46.5 -51l-137.5 -142l-300 -307l-6 -6
t-4 -9q0 -7 20.5 -7.5t64.5 -0.5q132 0 213.5 1t111.5 12t45 33.5t18 45.5q3 26 7.5 35t14.5 9q13 0 13 -13v-216z" />
    <glyph glyph-name="zcaron" unicode="&#x17e;" horiz-adv-x="406" 
d="M348 577q0 -3 -3 -7t-4 -6l-93 -131q-2 -2 -5.5 -6t-8.5 -4h-14q-5 0 -8.5 4t-5.5 6l-93 131q-1 2 -4 6t-3 9q0 1 3 4l6 5q3 3 6 3t7 -3.5t6 -5.5l82 -84q1 -1 5 -4t6 -3t5.5 3t4.5 4l83 84q2 2 6 5.5t9 3.5q1 0 4 -3l6 -5q0 -2 1 -3q0 -1 0.5 -1t0.5 -1t1 -1zM387 124
q0 -5 -14 -31t-34 -79q-8 -23 -11 -36t-9 -13t-10 5.5t-9 14.5q-6 11 -28.5 13t-60.5 2h-179q-5 0 -9.5 4t-4.5 11q0 8 15.5 24.5l42.5 45.5l134 149t45 63q0 5 -11 6t-24 1h-50q-49 0 -76 -16l-35 -21q-5 -3 -11.5 -4t-6.5 4q0 4 9.5 21.5l24.5 45.5q18 34 25.5 56.5
t15.5 22.5q5 0 8.5 -6t8.5 -16q6 -14 17.5 -17t24.5 -3h202q2 0 6 -0.5t4 -4.5q0 -6 -7.5 -14l-15.5 -16q-113 -115 -166.5 -177.5t-53.5 -69.5q0 -8 7 -10.5t16 -2.5h57q35 0 62 6t46 20l29 21.5t19 8.5t7 -8z" />
    <glyph glyph-name="florin" unicode="&#x192;" 
d="M532 643q0 -2 -4 -13.5t-10.5 -25t-14 -24.5t-13.5 -11q-4 0 -8.5 2.5t-12 5.5t-18 5.5t-25.5 2.5q-13 0 -29 -7.5t-30.5 -19.5t-26 -27t-16.5 -29q-16 -48 -22 -79t-6 -36q0 -8 9 -11t23 -2l41 2q4 0 6.5 0.5t6.5 0.5q8 0 10 -4.5t2 -10.5v-36q0 -8 -8 -8.5t-17 -0.5
h-62q-16 0 -22.5 -3.5t-11.5 -23.5l-40 -184q-12 -56 -22 -98.5t-23 -76t-31.5 -59.5t-47.5 -48q-40 -30 -77 -44.5t-77 -14.5q-7 0 -7 7q0 5 3 22.5t8 40.5q1 3 2.5 7t6.5 4q3 0 13 -1.5t22 -1.5q36 0 59 18t38 52.5t26.5 84.5l25.5 114l39 178q1 4 1.5 6.5t0.5 6.5
q0 8 -1.5 11t-13.5 3l-35 -1q-2 0 -3 -0.5t-3 -0.5q-7 0 -7.5 5.5t-0.5 10.5v30q0 16 12 16q4 0 6.5 -0.5t6.5 -0.5h42q11 0 15.5 6.5t6.5 18.5q10 55 18 84.5t18 46.5t25.5 29l41.5 32q19 14 35.5 27.5t32.5 24t33 16.5t37 6q29 0 51 -7.5t22 -16.5z" />
    <glyph glyph-name="circumflex" unicode="&#x2c6;" horiz-adv-x="500" 
d="M371 436q0 -2 -3 -5l-6 -5q-3 -3 -6 -3t-7 3.5t-6 5.5l-82 84q-1 1 -5 4t-6 3t-5.5 -3t-4.5 -4l-83 -84q-2 -2 -6 -5t-9 -3q-2 0 -4 2l-6 5q-1 2 -2 3t-1 3q0 3 3 7t4 6l93 131q2 2 5.5 6t8.5 4h14q5 0 8.5 -4t5.5 -6l93 -131q1 -2 4 -5.5t3 -8.5z" />
    <glyph glyph-name="tilde" unicode="&#x2dc;" horiz-adv-x="500" 
d="M391 539q3 -3 -3 -15.5t-18 -25.5t-28.5 -23.5t-33.5 -10.5q-18 0 -35 5t-33.5 11.5t-33 11.5t-32.5 5q-8 0 -19 -4t-16 -10q-7 -8 -12 -12.5t-10 -0.5l-6 5q-3 1 -3 6q0 3 6 14.5t17.5 24t28 22t36.5 9.5q16 0 32.5 -5t33.5 -11.5t33.5 -11.5t33.5 -5q12 0 23.5 8
t24.5 20q2 2 4 2q1 0 4 -3l6 -6v0z" />
    <glyph glyph-name="endash" unicode="&#x2013;" 
d="M429 205q0 -27 -1 -33t-12 -6t-53.5 1.5t-114.5 1.5h-152q-12 0 -18.5 2.5t-9 8.5t-3 16.5t-0.5 26.5q0 12 2 17t14 5q1 0 47 -1t139 -1h119q16 0 25 -1t13 -5t4.5 -11.5t0.5 -20.5z" />
    <glyph glyph-name="emdash" unicode="&#x2014;" horiz-adv-x="599" 
d="M599 207q0 -24 -0.5 -31t-11.5 -7q-2 0 -103 1.5t-305 1.5q-50 0 -87.5 -1t-60.5 -1q-12 0 -18 1.5t-9 6.5t-3.5 16t-0.5 29q0 9 1.5 14.5t14.5 5.5q32 -1 77 -2q38 -1 95 -1.5t133 -0.5q106 0 164.5 1.5t70.5 1.5q17 0 26 -0.5t12.5 -4t4 -10.5t0.5 -20z" />
    <glyph glyph-name="quoteleft" unicode="&#x2018;" horiz-adv-x="301" 
d="M220 496q0 -8 -5 -11l-19 -11q-6 -4 -14 -13.5t-10 -16.5q-7 -29 -21 -29q-7 0 -10 6.5t-8 20.5q-3 8 -12 18t-15 12q-14 5 -21 8.5t-7 11.5q0 4 2.5 6.5t7.5 8.5t12 19t17 38q13 34 27 56.5t26.5 35.5t22 18.5t13.5 5.5q8 0 9 -4.5t1 -8.5t-3 -5q-8 -7 -20 -30t-12 -68
q0 -21 11.5 -34.5t24.5 -23.5q3 -2 3 -10z" />
    <glyph glyph-name="quoteright" unicode="&#x2019;" horiz-adv-x="301" 
d="M222 597q0 -5 -2.5 -7t-7 -8t-11.5 -19t-17 -38q-13 -34 -27 -56.5t-26.5 -36t-22 -19t-13.5 -5.5q-8 0 -9.5 4.5t-1.5 8.5q0 3 3 5q3 3 9.5 12t12.5 22.5t9.5 30t1.5 34.5q-3 26 -13.5 36.5t-23.5 20.5q-3 2 -3 10t6 11.5t19 10.5q6 3 13.5 13.5t9.5 17.5q7 28 21 28
q7 0 10 -6.5l9 -20.5q3 -8 11.5 -18t15.5 -12l21 -8.5t6 -10.5z" />
    <glyph glyph-name="quotesinglbase" unicode="&#x201a;" horiz-adv-x="301" 
d="M215 84q0 -5 -2.5 -8.5t-6.5 -10.5t-10 -19.5t-13 -36.5q-8 -26 -20 -47.5t-25 -36.5t-25 -23t-19 -8q-8 0 -8 7q0 2 1.5 4.5t2.5 4.5q23 26 29 48t6 49q0 24 -11 37t-21 23q-5 5 -5 9q0 7 6.5 11t14.5 10q12 8 18.5 21t11.5 27q4 6 9 6q8 0 11 -6t8 -17q4 -8 10.5 -16
t13.5 -11q9 -4 16.5 -8t7.5 -9z" />
    <glyph glyph-name="quotedblleft" unicode="&#x201c;" horiz-adv-x="459" 
d="M381 666q0 -2 -1 -4.5t-2 -4.5q-21 -24 -28 -45.5t-7 -50.5q0 -11 4.5 -24.5t10.5 -19.5l14 -13.5t7 -12.5q0 -7 -6.5 -10.5t-14.5 -9.5q-9 -7 -15 -18t-11 -22q-1 -3 -3.5 -8.5t-9.5 -5.5q-8 0 -11 6.5t-8 16.5q-4 8 -10 15.5t-14 11.5l-15.5 8t-7.5 9t2 8.5t6.5 10
t10 19.5t13.5 37q9 27 21 48.5t25 36t24.5 22t18.5 7.5t7 -7zM204 666q0 -6 -3 -9q-21 -24 -28 -45.5t-7 -50.5q0 -11 5 -24.5t11 -19.5l13.5 -13.5t6.5 -12.5t-6.5 -10t-14.5 -10q-11 -8 -17.5 -21t-11.5 -27q-2 -6 -9 -6q-8 0 -11.5 6t-8.5 17q-4 8 -10 16t-14 11l-15.5 8
t-7.5 9t2 8.5t6.5 10t10 19.5t13.5 37q8 27 20.5 48t25.5 35.5t25 22.5t19 8q6 0 6 -7z" />
    <glyph glyph-name="quotedblright" unicode="&#x201d;" horiz-adv-x="459" 
d="M383 606q0 -5 -2.5 -8.5t-6.5 -10.5t-10 -19.5t-13 -36.5q-8 -26 -20 -47t-25 -36t-25 -23t-19 -8t-7 7q0 5 4 9q23 26 28.5 48.5t5.5 48.5q0 23 -11 36.5t-21 23.5q-4 4 -4 9q0 7 6 11l15 10q12 8 18 21t11 27q1 2 4.5 3.5t5.5 1.5q8 0 11 -6.5t8 -16.5q4 -8 10 -16
t14 -11l15.5 -8t7.5 -9zM206 606q0 -5 -2 -8.5t-6.5 -10t-10.5 -19.5t-13 -37q-8 -27 -20.5 -48t-25 -35.5t-24.5 -22.5t-19 -8t-7 7q0 5 4 9q22 24 28 46.5t6 50.5q0 23 -11 36.5t-21 23.5q-4 4 -4 9q0 7 6.5 11t14.5 10q9 6 15 17t11 22q1 2 3.5 8t9.5 6q8 0 11 -6.5
t8 -16.5q4 -8 10.5 -15.5t14.5 -11.5t15 -8t7 -9z" />
    <glyph glyph-name="quotedblbase" unicode="&#x201e;" horiz-adv-x="459" 
d="M383 84q0 -5 -2.5 -8.5t-6.5 -10.5t-10 -19.5t-13 -36.5q-8 -26 -20 -47.5t-25 -36.5t-25 -23t-19 -8t-7 7q0 5 4 9q23 26 28.5 48t5.5 49q0 24 -11 37t-21 23q-4 4 -4 9q0 7 6.5 11t14.5 10q11 8 17.5 21t11.5 27q1 2 4.5 4t5.5 2q8 0 11 -6t8 -17q4 -8 10 -16t14 -11
l15.5 -8t7.5 -9zM206 84q0 -5 -2 -8.5t-6.5 -10t-10.5 -19.5t-13 -37q-8 -27 -20.5 -48t-25 -36t-24.5 -23t-19 -8t-7 7q0 5 4 9q21 23 27.5 46t6.5 51q0 16 -5.5 26.5t-12.5 18l-12.5 13t-5.5 11.5t6.5 10.5l14.5 10.5q9 6 15 17t11 22q1 3 3.5 9t9.5 6q8 0 11 -6t8 -17
q4 -8 10.5 -15.5t14.5 -11.5t15 -8t7 -9z" />
    <glyph glyph-name="dagger" unicode="&#x2020;" 
d="M474 401q0 -5 -1 -7.5t-2 -7.5l-4 -16q-4 -14 -8.5 -17t-20.5 -2l-135 5q-15 1 -18.5 -2.5t-3.5 -19.5l8 -491q0 -17 -2.5 -20.5t-16.5 -7.5l-40 -10l-7.5 -1.5t-7.5 -0.5q-8 0 -9 7.5t-1 14.5l9 509q0 16 -4 19.5t-19 2.5l-148 -5q-8 0 -15 1.5t-7 9.5q0 5 0.5 7t1.5 7
l4 17q3 14 8.5 16.5t20.5 1.5l135 -5q15 -1 19 3t3 20l-7 189q-1 15 1.5 19.5t16.5 9.5l40 12q5 2 7 2.5t7 0.5q8 0 9.5 -7t1.5 -15l-8 -202q-1 -20 3 -26.5t20 -5.5l147 5q8 0 15.5 -1t7.5 -9z" />
    <glyph glyph-name="daggerdbl" unicode="&#x2021;" 
d="M474 167q0 -5 -1 -7t-2 -7l-4 -17q-3 -14 -8.5 -16.5t-20.5 -1.5l-135 5q-14 1 -18.5 -2.5t-3.5 -19.5l8 -258q1 -18 -2 -21.5t-17 -6.5l-40 -10l-7.5 -1.5t-7.5 -0.5q-8 0 -9 7t-1 15l9 276q1 16 -3.5 19.5t-19.5 2.5l-148 -5q-8 0 -15 1t-7 9q0 5 0.5 7.5l1.5 7.5l4 16
q4 14 9 17t20 2l135 -5q17 -1 20 4t3 19v138q0 16 -4 19.5t-19 2.5l-148 -5q-8 0 -15 1.5t-7 9.5q0 5 0.5 7t1.5 7l4 17q3 14 8.5 16.5t20.5 1.5l135 -5q15 -1 19 3t3 20l-7 189q-1 15 1.5 19.5t16.5 9.5l40 12q5 2 7 2.5t7 0.5q8 0 9.5 -7t1.5 -15l-8 -202q-1 -20 3 -26.5
t20 -5.5l147 5q8 0 15.5 -1t7.5 -9q0 -5 -1 -7.5t-2 -7.5l-4 -16q-4 -14 -8.5 -17t-20.5 -2l-135 5q-16 1 -19.5 -2.5t-3.5 -19.5v-129q0 -20 3.5 -26.5t20.5 -5.5l147 5q8 0 15.5 -1.5t7.5 -9.5z" />
    <glyph glyph-name="bullet" unicode="&#x2022;" horiz-adv-x="500" 
d="M390 340q0 -29 -11 -54.5t-30 -44.5t-44.5 -30t-54.5 -11t-54.5 11t-44.5 30t-30 44.5t-11 54.5t11 54.5t30 44.5t44.5 30t54.5 11t54.5 -11t44.5 -30t30 -44.5t11 -54.5z" />
    <glyph glyph-name="ellipsis" unicode="&#x2026;" horiz-adv-x="743" 
d="M693 75q0 -8 -4 -10t-9 -4q-21 -8 -31.5 -25t-17.5 -37q-2 -4 -6 -5t-6 -1q-10 0 -11.5 5t-3.5 11q-5 16 -16 28.5t-16 15.5l-21 11t-6 11t4 10t9 4q23 9 33 26.5t16 34.5q2 4 6 5t6 1q9 0 11.5 -5.5t4.5 -10.5q9 -29 26 -40t28 -16q4 -2 4 -9zM445 75q0 -8 -3.5 -10
t-8.5 -4q-21 -8 -32 -25t-18 -37q-2 -4 -6 -5t-6 -1q-10 0 -11.5 5t-3.5 11q-5 16 -15.5 29t-15.5 15l-21 11t-6 11t3.5 10t8.5 4q23 8 33 25.5t16 35.5q2 4 6 5t6 1q9 0 11.5 -5.5t4.5 -10.5q4 -14 11 -23.5t15 -16t15.5 -10l13.5 -6.5q3 -2 3 -4v-5zM198 75q0 -8 -4 -10
t-9 -4q-21 -8 -31.5 -25t-17.5 -37q-2 -4 -6 -5t-6 -1q-10 0 -12 5t-4 11q-5 16 -15.5 28.5t-15.5 15.5l-21 11t-6 11t3.5 10t8.5 4q23 8 33.5 25.5t16.5 35.5q2 4 6 5t6 1q9 0 11 -5.5l4 -10.5q4 -14 11 -23.5t15 -16t15.5 -10l13.5 -6.5q4 -2 4 -9z" />
    <glyph glyph-name="perthousand" unicode="&#x2030;" horiz-adv-x="1042" 
d="M997 122q0 -30 -10.5 -54.5t-28.5 -42t-41.5 -26.5t-49.5 -9q-36 0 -64.5 11t-48 29.5t-29.5 43t-10 51.5q0 32 11 58t30 44t43 27.5t50 9.5q70 0 109 -38.5t39 -103.5zM328 494q0 -30 -10.5 -54.5t-28.5 -41.5t-41.5 -26t-49.5 -9q-36 0 -64.5 10.5t-48 29t-29.5 43
t-10 51.5q0 32 11 58t29 44.5t42 28.5t51 10q70 0 109.5 -39.5t39.5 -104.5zM580 633q0 -7 -4 -13l-383 -628q-1 -2 -3.5 -5t-6.5 -3q-6 0 -9 3l-21 11q-2 1 -5 3.5t-3 5.5q0 4 2 7t3 5l385 631q1 1 3 4t4 3t4.5 -0.5t6.5 -2.5l21 -13l3.5 -3.5t2.5 -4.5zM668 122
q0 -30 -10.5 -54.5t-28.5 -42t-41.5 -26.5t-49.5 -9q-36 0 -64.5 10.5t-48 29t-29.5 43t-10 52.5q0 32 11 58t29.5 44t42.5 27.5t50 9.5q70 0 109.5 -38.5t39.5 -103.5zM924 114q0 48 -21 77.5t-51 29.5q-35 0 -49.5 -21.5t-14.5 -64.5q0 -17 5 -34.5t14.5 -32t24 -23.5
t34.5 -9q58 0 58 78zM255 486q0 47 -22 76.5t-51 29.5q-35 0 -49 -21t-14 -64q0 -17 5 -34t14.5 -31.5t24 -23.5t34.5 -9q58 0 58 77zM595 114q0 48 -22 77.5t-51 29.5q-35 0 -49 -21.5t-14 -64.5q0 -17 5 -34.5t14.5 -31.5t24 -23.5t34.5 -9.5q58 0 58 78z" />
    <glyph glyph-name="guilsinglleft" unicode="&#x2039;" horiz-adv-x="265" 
d="M213 351q0 -2 -1.5 -5t-1.5 -4l-61 -131q-1 -2 -2 -5.5t-1 -6.5t1 -6.5t2 -5.5l59 -131q0 -1 2 -4.5t2 -5.5q0 -5 -4 -7l-9 -5q-2 -1 -6 -1q-2 0 -4.5 3t-3.5 4l-124 145q-2 2 -5 5.5t-3 8.5t3 8.5t5 5.5l122 147q2 2 4 4.5t7 2.5q1 0 5 -2l9 -7l3 -3t2 -4z" />
    <glyph glyph-name="guilsinglright" unicode="&#x203a;" horiz-adv-x="265" 
d="M213 199q0 -5 -3 -8.5t-5 -5.5l-124 -145q-1 -2 -3 -4.5t-7 -2.5q-3 0 -4 1l-8 5q-4 2 -4 7q0 2 1.5 5.5t1.5 4.5l59 131q1 2 2 5.5t1 6.5q0 2 -1 6t-2 6l-61 131q0 1 -1.5 4t-1.5 5q0 3 2.5 4.5t3.5 2.5l8 7q4 2 5 2q5 0 7 -2.5t4 -4.5l122 -147q2 -2 5 -5.5t3 -8.5z
" />
    <glyph glyph-name="Euro" unicode="&#x20ac;" 
d="M451 138q0 -45 -1.5 -71.5t-6.5 -34.5q-3 -5 -12 -12.5t-25 -14.5t-39.5 -12.5t-53.5 -5.5q-52 0 -94.5 18.5t-74.5 51.5t-53 78.5t-29 99.5h-47q-8 0 -11.5 2.5t-3.5 12.5v22q0 10 3.5 12t11.5 2h42v16v19.5t1 18.5h-43q-8 0 -11.5 2.5t-3.5 12.5v22q0 10 3.5 12t11.5 2
h48q9 56 29.5 100.5t55 76t85 48.5t118.5 17h75q5 0 8.5 -2t3.5 -11v-130q0 -5 -3 -9.5t-8 -4.5q-4 0 -8.5 2.5t-6.5 6.5q-8 18 -17 34.5t-21 29t-28 19.5t-39 7q-65 0 -103 -49.5t-52 -134.5h193q2 0 6 -2.5t4 -5.5v-28q0 -9 -4.5 -12t-12.5 -3h-191q-1 -8 -1 -16.5v-17.5
q0 -5 0.5 -10t0.5 -10h198q2 0 6 -2.5t4 -5.5v-28q0 -9 -4.5 -12t-12.5 -3h-185q6 -38 19 -71.5t33.5 -59t48 -40.5t62.5 -15q39 0 60.5 19.5t32.5 47.5l16 39t13 12q9 0 11 -8.5t2 -20.5z" />
    <glyph glyph-name="trademark" unicode="&#x2122;" horiz-adv-x="1007" 
d="M948 631q0 -8 -3 -10t-10 -2h-30q-7 0 -7 -8v-268q0 -4 3 -6t5 -2h24q13 0 13 -8v-30q0 -6 -4 -7.5t-9 -1.5h-128q-13 0 -13 9v26q0 8 3 10t10 2h19q8 0 8 8v244q-35 -70 -58.5 -122.5l-39.5 -87.5q-18 -41 -30 -71q-3 -8 -5.5 -13t-11.5 -5q-11 0 -15 11t-15 34
l-59.5 126l-64.5 128v-236v-11t7 -5h19q14 0 14 -12v-26q0 -5 -4.5 -7t-9.5 -2h-115q-5 0 -9.5 2t-4.5 7v26q0 12 14 12h23q8 0 8 8v267q0 9 -8 9h-23q-14 0 -14 12v26q0 3 3 6t6 3h176q11 0 11 -14v-20q0 -13 -12 -13h-13q-5 0 -5 -6q0 -1 14.5 -34t43.5 -92l26.5 -55
t13.5 -20q7 0 14 17.5t26 60.5l37 84t14 38q0 2 -0.5 4.5t-3.5 2.5h-18q-12 0 -12 13v19q0 9 4 12t13 3h174q3 0 6 -3t3 -6v-26zM410 666q0 -2 -1 -3.5t-2 -3.5l-35 -86q-4 -10 -12 -10q-11 0 -12 9q-2 10 -4 16.5t-5.5 10.5t-11 5t-20.5 1h-79q-5 0 -6.5 -4t-1.5 -8v-249
q0 -3 2 -6t6 -3h27q5 0 9.5 -1.5t4.5 -6.5v-30q0 -5 -5 -7t-10 -2h-137q-5 0 -9.5 2t-4.5 7v26q0 8 3.5 10t10.5 2h27q7 0 7 8v252q0 5 -3.5 7.5t-8.5 2.5h-74q-20 0 -29.5 -6.5t-22.5 -17.5l-10 -8t-14 -4q-13 0 -13 11q0 5 10 23t22 48q5 12 7 19t13 7q7 0 12 -6
q2 -4 4.5 -8t10.5 -4h248q30 0 46 3t24.5 6.5t13 6.5t12.5 3q10 0 10.5 -3.5t0.5 -8.5z" />
    </font>
</defs>
</svg>
