<?xml version="1.0" standalone="no"?>
<!DOCTYPE svg PUBLIC "-//W3C//DTD SVG 1.1//EN" "http://www.w3.org/Graphics/SVG/1.1/DTD/svg11.dtd" >
<svg>
<metadata>
Created by FontForge 20110222 at Thu Oct  9 14:06:54 2014
 By deploy user
True Golden v. 1.0 - Copyright 1997, David F. Nalle - Scriptorium Font Library.  To register this font and get a disk of other fonts send $15 to Ragnarok, POB 140333, Austin, TX 78714
</metadata>
<defs>
<font id="TrueGolden" horiz-adv-x="1136" >
  <font-face 
    font-family="True GoldenTM"
    font-weight="400"
    font-stretch="normal"
    units-per-em="1000"
    panose-1="0 0 4 0 0 0 0 0 0 0"
    ascent="800"
    descent="-200"
    x-height="361"
    cap-height="652"
    bbox="-103 -280 1053 824"
    underline-thickness="20"
    underline-position="-123"
    unicode-range="U+0020-2022"
  />
<missing-glyph horiz-adv-x="500" 
d="M63 0v800h375v-800h-375zM125 63h250v675h-250v-675z" />
    <glyph glyph-name=".notdef" horiz-adv-x="500" 
d="M63 0v800h375v-800h-375zM125 63h250v675h-250v-675z" />
    <glyph glyph-name=".null" horiz-adv-x="0" 
 />
    <glyph glyph-name="nonmarkingreturn" horiz-adv-x="301" 
 />
    <glyph glyph-name="space" unicode=" " horiz-adv-x="301" 
 />
    <glyph glyph-name="exclam" unicode="!" horiz-adv-x="196" 
d="M102 147h-51l-13 456q26 26 45 26t44 -23zM71 0l-42 48l45 41l39 -51z" />
    <glyph glyph-name="quotedbl" unicode="&#x22;" horiz-adv-x="231" 
d="M204 571q-17 -37 -78 -75l-7 12q20 13 37 35q22 31 22 58q0 18 -8 30l-42 50l44 41l39 -52q8 -65 -7 -99zM27 495l-7 12q20 13 37 35q22 31 22 58q0 18 -9 30l-41 50l44 40l39 -51q8 -65 -8 -101t-77 -73z" />
    <glyph glyph-name="numbersign" unicode="#" 
 />
    <glyph glyph-name="dollar" unicode="$" 
 />
    <glyph glyph-name="percent" unicode="%" 
 />
    <glyph glyph-name="ampersand" unicode="&#x26;" horiz-adv-x="691" 
d="M686 458q-1 -2 -3 -7l-3 -8q-22 -11 -43 -13q-12 -1 -27 -18q-66 -59 -182 -242q84 -131 166 -125l76 47q-5 -8 -11 -28q-9 -10 -19 -22q-33 -27 -52 -34q-9 -3 -23 -3h-15h-19q-20 0 -73 40q-15 12 -40.5 41.5t-35.5 36.5q-9 -11 -33 -32q-131 -97 -173 -97
q-20 0 -68 21.5t-65 40.5q-38 39 -38 126q0 53 80 115q41 31 82 52q-18 17 -37 34q-37 38 -42 63q-3 14 -3 47q0 62 55.5 112.5t125.5 50.5q33 0 65 -14q11 -6 29 -21.5t23 -24.5q24 -49 24 -72q0 -39 -39 -88t-97 -86q6 -19 116 -128q15 17 44 50q15 23 44 63q23 29 27 37
q7 14 7 39q-13 17 -35 23q-35 8 -36 9l-4 8q-2 6 -2 8q0 12 22 12t71.5 1.5t76.5 1.5q84 0 84 -16zM338 511q0 33 -18 65q-25 44 -68 44q-44 0 -70 -31q-24 -27 -24 -65t20 -65q54 -74 70 -74q25 0 88 92q2 13 2 34zM347 167l-143 154q-42 -2 -84 -57q-38 -49 -38 -82
q0 -41 33 -79q36 -42 85 -42q29 0 69.5 27t77.5 79z" />
    <glyph glyph-name="quotesingle" unicode="'" horiz-adv-x="196" 
d="M59 495l-8 12q21 13 38 35q23 31 23 58q0 18 -9 30l-43 50l45 40l40 -51q8 -65 -8.5 -101t-77.5 -73z" />
    <glyph glyph-name="parenleft" unicode="(" horiz-adv-x="383" 
d="M349 -13q0 -11 -4 -11h-20q-118 70 -199 179q-92 124 -92 245t92 245q81 109 199 179h20q4 0 4 -11q0 -1 -60 -63q-63 -64 -70 -73q-41 -54 -73 -128q-37 -84 -37 -141t37 -149q34 -84 73 -136q7 -9 70 -74l42 -43q9 -9 18 -19z" />
    <glyph glyph-name="parenright" unicode=")" horiz-adv-x="383" 
d="M349 400q0 -121 -92 -245q-81 -109 -199 -179h-20q-4 0 -4 11q0 1 60 62q63 65 70 74q39 52 73 136q37 92 37 149t-37 141q-32 74 -73 128q-7 9 -70 74l-42 43q-9 9 -18 19q0 11 4 11h20q118 -70 199 -179q92 -124 92 -245z" />
    <glyph glyph-name="asterisk" unicode="*" horiz-adv-x="307" 
d="M270 560l-88 18l-28 -86l-29 86l-88 -18l60 67l-60 67l88 -18l29 86l28 -86l88 18l-60 -67z" />
    <glyph glyph-name="plus" unicode="+" 
 />
    <glyph glyph-name="comma" unicode="," horiz-adv-x="196" 
d="M52 -135l-8 13q21 12 38 35q22 30 22 58q0 17 -9 30l-42 49l45 41l40 -51q8 -65 -8.5 -101t-77.5 -74z" />
    <glyph glyph-name="hyphen" unicode="-" horiz-adv-x="336" 
d="M22 56v75q63 42 127 84q72 48 150 109l9 -30q2 -5 8 -22q-227 -159 -294 -216z" />
    <glyph glyph-name="period" unicode="." horiz-adv-x="196" 
d="M71 8l-41 50l45 41l39 -52z" />
    <glyph glyph-name="slash" unicode="/" 
 />
    <glyph glyph-name="zero" unicode="0" horiz-adv-x="487" 
d="M470 248q-16 -115 -75 -186q-64 -77 -160 -77q-239 0 -239 370q0 96 63 186q71 103 174 103q105 0 178 -87q67 -80 64 -174zM219 606q-125 0 -125 -235q0 -128 18 -206q34 -147 129 -147q82 0 118 84q24 57 24 142q0 127 -24 214q-40 148 -140 148z" />
    <glyph glyph-name="one" unicode="1" horiz-adv-x="345" 
d="M301 2h-309v20q24 6 73 21t49 48v385q0 62 -25 75q-19 4 -63 22v16q54 19 165 54q10 -10 10 -21l-1 -490q0 -53 25.5 -76.5t87.5 -22.5q5 -2 16 -7v-12q-13 -12 -28 -12z" />
    <glyph glyph-name="two" unicode="2" horiz-adv-x="505" 
d="M394 1h-357q-26 0 -54 13q2 25 56 88q17 20 119 129q177 190 177 268q0 38 -27 58t-70 20q-50 0 -88 -28q-51 -37 -69 -44q-5 4 -5 14q0 39 83 85q78 43 128 43q67 0 106 -37t39 -95q0 -64 -80 -160q-42 -50 -160 -162q-65 -62 -91 -93q9 -20 35 -20h192q48 0 82 24
l62 48q16 -6 16 -16q0 -12 -39.5 -69t-54.5 -66z" />
    <glyph glyph-name="three" unicode="3" horiz-adv-x="426" 
d="M29 -7q-32 0 -32 21q0 10 23.5 30t36.5 22q255 35 255 161q0 51 -48 79q-41 22 -102 22q-10 0 -93 -8l-5 21q45 20 136 67q90 53 90 105q0 31 -22.5 52.5t-58.5 21.5q-32 0 -77 -25q-35 -19 -69 -38l-10 8q30 45 88 79q62 37 118 37q52 0 90.5 -31.5t38.5 -76.5
q0 -49 -94 -111l-48 -32q16 -6 26 -7.5t20.5 -2.5t28 -12.5t42.5 -28.5q9 -8 26 -28q10 -19 10 -57q0 -81 -138 -176q-133 -92 -232 -92z" />
    <glyph glyph-name="four" unicode="4" horiz-adv-x="505" 
d="M458 234q-14 0 -55 -4l-1 -223h-91v156q0 15 -1 70q-38 0 -115.5 3t-114.5 3q-68 0 -98 14l394 385h16q11 -8 11 -16v-318q1 -3 2.5 -10.5t9.5 -7.5h21q18 -1 21 0t33 0q-1 -6 0 -26v-27q8 1 -32 1zM301 512q-117 -91 -227 -216q49 -9 107 -9q18 0 60 2q39 1 62 1
q5 11 5 96q0 110 -7 126z" />
    <glyph glyph-name="five" unicode="5" horiz-adv-x="381" 
d="M304 560q-28 -10 -88 -10q-10 0 -29 2t-29 2q-25 0 -82 -17v-26q99 -60 147 -106q75 -71 75 -142q0 -42 -13 -68q-16 -31 -128 -120q-116 -92 -146 -92q-21 0 -21 15q0 3 32 28q82 62 115 95q69 70 69 128q0 49 -60 108q-10 10 -100 84q-29 23 -29 30q0 18 31 79
q30 58 47 79h181q18 0 42 14q18 13 37 26l9 -4v-22q0 -7 -26.5 -44t-33.5 -39z" />
    <glyph glyph-name="six" unicode="6" horiz-adv-x="505" 
d="M238 -16q-108 0 -176.5 65t-68.5 159q0 9 15 65q32 125 172 231q119 91 281 144l9 -12l-2 -2q-21 -25 -65 -52q-73 -44 -74 -44q-112 -77 -166 -146q-72 -92 -72 -196q0 -68 38 -115q43 -54 120 -54q67 0 103 37q33 35 33 94q0 144 -144 144q-50 0 -100 -31q-15 8 -15 14
q0 24 75 48q66 21 106 21q78 0 126 -57q44 -50 44 -121q0 -77 -74 -134.5t-165 -57.5z" />
    <glyph glyph-name="seven" unicode="7" horiz-adv-x="505" 
d="M158 -9q-9 -6 -33 -6q-23 0 -35 9v12l310 528l-12 12q-62 6 -205 6q-110 0 -177 -58h-24q-3 0 -2 9q0 9 45 64t62 66l1 -7l335 5q66 1 67 -22q-66 -117 -167 -309q-128 -241 -165 -309z" />
    <glyph glyph-name="eight" unicode="8" horiz-adv-x="447" 
d="M172 -15q-77 0 -129.5 44.5t-52.5 110.5q0 94 141 169q-18 20 -43 42q-41 33 -52 47q-23 31 -23 73q0 69 70 121t153 52q67 0 120 -41t53 -98q0 -76 -141 -154q18 -15 51 -36q52 -33 72 -52q35 -32 35 -68q0 -93 -72 -151.5t-182 -58.5zM219 611q-52 0 -86 -30.5
t-34 -75.5q0 -41 25 -72q11 -13 51 -40q43 -30 58 -30q36 0 92 91q3 15 3 37q0 44 -29 79q-31 41 -80 41zM331 185q-10 25 -69.5 69t-86.5 44q-41 0 -75 -55q-29 -47 -29 -85q0 -50 41.5 -92.5t98.5 -42.5q53 0 90.5 33t37.5 79q0 30 -8 50z" />
    <glyph glyph-name="nine" unicode="9" horiz-adv-x="484" 
d="M112 -19h-24q-3 0 -3 9q1 1 6 4l66 60q77 68 86 78q50 57 89 135q46 90 46 150q0 71 -37 123q-44 62 -122 62q-65 0 -105 -41q-36 -39 -36 -97q0 -57 31 -96q35 -46 99 -46q46 0 103 27l20 -4v-12l-74 -44q-38 -18 -90 -18q-80 0 -130.5 50t-50.5 121q0 51 40 112
q15 24 79 57t95 33q119 0 191 -57q73 -60 73 -161q0 -127 -112 -257q-98 -114 -240 -188z" />
    <glyph glyph-name="colon" unicode=":" horiz-adv-x="196" 
d="M100 212l-41 48l45 41l39 -51zM95 0l-42 49l45 41l39 -51z" />
    <glyph glyph-name="semicolon" unicode=";" horiz-adv-x="196" 
d="M101 212l-42 48l45 41l39 -51zM130 -60q-17 -37 -78 -75l-8 13q21 12 38 35q22 30 22 57q0 18 -9 30l-42 49l45 41l40 -51q8 -65 -8 -99z" />
    <glyph glyph-name="less" unicode="&#x3c;" 
 />
    <glyph glyph-name="equal" unicode="=" 
 />
    <glyph glyph-name="greater" unicode="&#x3e;" 
 />
    <glyph glyph-name="question" unicode="?" horiz-adv-x="253" 
d="M164 339q-20 -12 -61 -22l-6 -169h-52l-19 263q50 -31 79 -31q12 0 31 16.5t28 37.5t9 42q0 42 -37 73q-29 24 -105 16v66q75 7 113 -10q52 -22 76 -62q20 -33 20 -68q0 -25 -11 -62q-19 -61 -65 -90zM66 -3l-49 57l53 47l46 -58z" />
    <glyph glyph-name="at" unicode="@" horiz-adv-x="581" 
d="M307 287q-26 -1 -51 -9q-35 -12 -35 -30q0 -37 37 -37h13q11 0 24.5 12.5t13.5 23.5v17q0 16 -2 23zM336 187q-11 0 -17.5 12t-13.5 12q-5 0 -31.5 -12.5t-40.5 -12.5q-18 0 -34.5 14.5t-16.5 32.5q0 41 45 54l78 16v2q0 5 1.5 12.5t1.5 11.5q0 13 -5 34q-21 19 -42 19
t-34 -12q-20 -18 -27 -21l-11 3q0 17 31 38t51 21q40 0 77 -27q4 -14 4 -54q0 -12 -1.5 -36t-1.5 -37q0 -39 22 -39q32 13 85 38q34 53 34 112q0 55 -33 88q-84 84 -195 84q-67 0 -140 -58q-54 -70 -54 -168q0 -76 34 -138q36 -67 100.5 -95t127.5 -28q93 0 166 59
q29 38 29 67q0 15 -8 28l43 43q12 -18 12 -41q0 -48 -38 -86l-42 -42q-75 -75 -189 -75q-130 0 -206 76t-76 207q0 122 71 193l42 42q22 22 72.5 42t95.5 19q112 -1 198 -87q35 -35 35 -92q0 -83 -57 -140l-42 -42q-9 -9 -91 -44z" />
    <glyph glyph-name="A" unicode="A" horiz-adv-x="768" 
d="M749 -1h-205q-1 0 -8 3l-5 10l3 12q18 5 37 11q23 9 23 26q-3 4 -6 25q-3 15 -30.5 64t-39.5 65q-41 6 -79 6q-174 0 -230 -5q-35 -39 -77 -141q0 -23 27 -36q5 -2 45 -15l-1 -21l-10 -6l-181 -2q-13 0 -13 15q0 5 24.5 20.5t29.5 20.5q46 46 126 203q56 115 111 230
l48 96q4 7 41 71q23 -27 104 -183q107 -209 143 -272q81 -143 117 -156q8 -4 26 -10v-24zM440 366q-29 52 -72 128q-13 0 -16 -4q-25 -35 -67 -114q-51 -96 -51 -103q0 -8 4 -13h226q7 0 22 7q-6 25 -46 99z" />
    <glyph glyph-name="B" unicode="B" horiz-adv-x="545" 
d="M271 -6q-5 0 -124.5 6t-124.5 6q-22 0 -22 13q0 2 2 8l4 8l34 10q20 6 33 24q10 124 10 177v224q0 9 -8 111q-14 18 -33 24l-34 10l-4 8q-2 7 -2 8q0 7 22 13v0l229 9q244 0 244 -153q0 -59 -81 -136q34 -16 72 -43q57 -41 57 -128q0 -101 -90 -155q-74 -44 -184 -44z
M255 616q-63 0 -76.5 -18.5t-13.5 -95.5q0 -1 1 -35q1 -41 1 -101q39 -4 54 -4q72 0 119 25q63 35 63 113q0 58 -43 89q-39 27 -105 27zM241 329h-12q10 0 -59 -1v-232q0 -6 4.5 -20t5.5 -22q29 -23 82 -23q54 0 97 19q57 26 74.5 78.5t17.5 60.5q0 90 -75 121
q-44 19 -135 19z" />
    <glyph glyph-name="C" unicode="C" horiz-adv-x="612" 
d="M600 89l-29 -78q-27 -19 -61 -19q-5 0 -82.5 -5.5t-83.5 -5.5t-25 5q-24 5 -32 6q-139 22 -215 126q-65 88 -65 203q0 151 115 248q110 92 268 92q5 0 81.5 -6.5t82.5 -6.5q17 0 35 8q-4 -26 -3 -88q0 -34 -5 -69l-10 1q-5 10 -11 27q-8 24 -13 32q-10 15 -33 26
q-48 23 -133 23q-54 0 -71 -4q-124 -25 -170 -104q-32 -55 -32 -157q0 -137 70 -219q76 -90 218 -90q49 0 98 21q60 25 89 71q9 15 22 31l12 -8q1 -14 -17 -60z" />
    <glyph glyph-name="D" unicode="D" horiz-adv-x="772" 
d="M410 -1h-375q-23 0 -23 14q0 1 6 17q3 1 36 11q18 5 30 21q10 122 10 174v220q0 11 -8 110q-13 16 -30 21q-33 9 -36 11q-6 16 -6 17q0 4 15.5 13t21.5 11q72 14 317 14q149 0 266 -91q126 -98 126 -242q0 -126 -113 -225q-109 -96 -237 -96zM636 442q-4 8 -33 45.5
t-36 42.5q-43 29 -61 39q-41 25 -64 29q-3 0 -60 13q-35 7 -63 7q-86 0 -104 -8q-35 -17 -35 -90q0 -67 -1 -175q-2 -141 -2 -175q-1 -61 -1 -63q2 -56 39 -67q24 -7 75 -7q102 0 163 15q87 22 138 81q7 12 23 34q47 65 47 155q0 75 -25 124z" />
    <glyph glyph-name="E" unicode="E" horiz-adv-x="581" 
d="M535 2l-309 -3q-3 0 -99.5 -3t-98.5 -3q-22 0 -22 13q0 3 2 8l4 9l34 10q19 5 33 23q10 124 10 177v242q0 9 -8 112q-14 17 -33 23q-34 10 -35 10l-3 9q-2 6 -3 8q0 7 23 12h483q14 0 29 -13l-14 -132l-10 -9q-10 4 -14 25q-5 31 -9 41q-10 25 -37 38q-32 14 -147 14
q-117 0 -127 -21l-1 -239h229q34 0 56 58q2 6 8 17q3 -1 8 3l3 2q3 3 4 3v-2l1 -170q0 -36 -2 -39q-6 3 -10 -2q0 1 -1 2l-9 25q-8 19 -10 23q-16 28 -62 33q-92 8 -176 1l-39 -3l1 -192q7 -8 7 -66q11 -11 24 -11h43q40 -1 43 -1q2 0 36.5 2.5t39.5 2.5q92 -5 136 53
q11 15 27 50q12 29 17 29q3 0 9.5 -1.5t8.5 -1.5l-11 -49q-10 -38 -29 -117z" />
    <glyph glyph-name="F" unicode="F" horiz-adv-x="552" 
d="M530 504l-10 -9q-9 3 -17 40t-43 54q-58 26 -146 26q-118 0 -127 -20v-230l13 -12h214q28 0 48 37q10 25 21 50q15 -8 15 -23q0 -185 -5 -192q-14 7 -21 23q-5 13 -10 25q-15 28 -61 33q-18 1 -177 1q-37 0 -37 -20v-175q1 -2 0 -24q-1 -30 -1 -25q13 -17 39 -23
q38 -10 42 -12l3 -8q3 -6 3 -8q0 -6 -22 -13v0l-221 -6q-22 0 -22 13q0 3 3 8l3 9l34 10q20 5 33 23q10 124 10 177v224q0 28 -8 130q-14 18 -33 23q-34 10 -34 11l-4 8q-2 6 -2 8q0 7 22 13l483 -1q14 0 29 -13z" />
    <glyph glyph-name="G" unicode="G" horiz-adv-x="706" 
d="M447 655q17 0 65.5 -7t71.5 -7t37 5q-1 -5 0 -79q1 -51 -16 -72q-6 16 -17 47q-14 32 -89 52q-59 16 -108 16q-130 0 -204 -79.5t-74 -209.5q0 -139 81 -219t219 -80q54 0 73 6q40 11 40 49q0 26 -5 65q-7 54 -7 65q-13 17 -35 22q-34 9 -39 11q-6 14 -6 16q0 13 22 13
q26 0 77 1.5t77 1.5q86 0 86 -16q0 -2 -6 -17q-23 -5 -65 -20q-9 -4 -11 -94q-2 -98 -11 -117l-13 -9q-145 -18 -195 -18q-159 0 -268 89q-117 95 -117 251q0 40 31 114q26 65 86.5 118t128.5 75q22 9 64 19q87 8 127 8z" />
    <glyph glyph-name="H" unicode="H" horiz-adv-x="834" 
d="M822 625l-4 -9q-2 -1 -39 -10q-25 -6 -39 -25q-9 -107 -9 -119l-1 -356v-49q11 -12 41 -19q37 -9 39 -10l3 -9q3 -6 3 -8q0 -5 -8.5 -9.5t-14.5 -4.5q-26 0 -80 -1.5t-85 -1.5q-92 0 -92 17l3 9l4 9q12 6 51 13q21 4 23 5q11 5 14 18q2 8 2 28q-1 15 -2 41v95q0 8 1 31
t1 51h-432q0 -28 1 -51t1 -31v-3v-92q-1 -13 -2 -41q0 -25 3 -31q8 -14 36 -20q18 -3 51 -13l4 -9q2 -7 3 -9q0 -17 -92 -17q-31 0 -85 1.5t-80 1.5q-6 0 -14.5 4.5t-8.5 9.5q0 2 3 8l3 9q2 1 39 10q30 7 41 19v49l-1 356q0 10 -9 119q-14 19 -39 25q-37 9 -39 10l-4 9
q-3 7 -3 9q0 5 8.5 9t15.5 4q25 0 79.5 1.5t84.5 1.5q92 0 92 -17q-1 -3 -3 -8l-3 -9q-24 -12 -48 -14q-13 -1 -30 -20q-3 -13 -2 -77v-130q2 -2 0 -8l-1 -3q-2 -5 1 -7q-19 1 270 1q177 0 158 -1q3 2 1 7l-1 3q-2 6 0 8v130q0 64 -2 77q-17 19 -30 20q-24 2 -48 14l-3 9
q-3 6 -3 8q0 17 92 17q30 0 84.5 -1.5t79.5 -1.5q7 0 15.5 -4t8.5 -9z" />
    <glyph glyph-name="I" unicode="I" horiz-adv-x="296" 
d="M275 627l-3 -9q-23 -11 -46 -13q-13 -1 -29 -19q0 -17 -2 -74q-3 -74 -4 -53q-1 1 -2 0l1 -301q0 -81 1 -80q-5 -28 36 -36q17 -3 49 -13l4 -8q2 -7 2 -8q0 -17 -88 -17q-30 0 -81 2q-54 1 -77.5 1t-23.5 13q1 3 3 8l3 9q2 1 39 10q23 6 37 24q8 91 8 362l-1 46
q0 21 -4 57q-6 46 -7 57q-14 18 -38 24q-36 9 -38 10l-3 9q-3 6 -3 8q0 5 8 9t14 4q25 0 77.5 1.5t82.5 1.5q88 0 88 -17q0 -2 -3 -8z" />
    <glyph glyph-name="J" unicode="J" horiz-adv-x="302" 
d="M288 629l-3 -9q-2 -1 -38 -10q-24 -6 -38 -23l-17 -30v-527q0 -5 -6 -17t-7 -18q-25 -93 -82 -152q-70 -72 -171 -70q-13 0 -21 10.5t-8 21.5q0 6 4 7q34 10 67.5 20.5t66.5 32.5q18 25 30 46q31 52 35 75l5 527q0 60 -3 74q-16 19 -29 20q-22 2 -45 13l-4 8q-2 7 -3 9
q0 16 89 16q29 0 81.5 -1.5t77.5 -1.5q22 0 22 -13q0 -2 -3 -8z" />
    <glyph glyph-name="K" unicode="K" horiz-adv-x="733" 
d="M712 1q-4 0 -13.5 -2.5t-15.5 -2.5h-234q-9 9 -14 9v19l33 12q16 6 16 25q0 10 -55 62q-37 33 -74 67q-32 33 -65 66q-62 60 -79 60q-27 0 -25 -39q1 -18 1 -15q0 11 -2 -57q-2 -56 -1 -87v-33q1 -25 12 -34q6 -5 27 -9q16 -3 48 -13l4 -8q2 -7 2 -8q0 -16 -87 -17
q-29 0 -81 1.5t-75 1.5t-23 13q1 3 3 8l3 9q2 1 38 10q23 5 37 23q2 14 5 45q5 64 4 120l-5 345q0 27 -31 37l-48 12l-3 8q-3 7 -3 9q0 12 23.5 12t74 1.5t77.5 1.5q84 0 84 -16q0 -3 -2 -8l-4 -9q-22 -10 -53 -14q-16 -2 -20 -18q-2 -8 -3 -73l-1 -145q9 -12 19 -12
q26 0 135 99q87 80 114 111q6 7 6 21q0 21 -23 28q-30 10 -36 15q1 6 15 19h238q6 -2 15 -9q-1 -11 -10 -18q-43 -1 -100 -38q-17 -11 -132 -109q-121 -104 -121 -114q0 -13 75 -82q55 -49 110 -99q33 -25 90 -76q25 -28 70 -52q35 -17 70 -35q-1 -11 -10 -18z" />
    <glyph glyph-name="L" unicode="L" horiz-adv-x="607" 
d="M555 -1l-470 4q-28 -7 -67 -7q-5 0 -9 3l-2 1v23q3 1 8 4l2 1q67 8 72 91q1 8 1 34l1 390q0 32 -12.5 49t-34.5 22q-11 1 -31 6q-6 6 -6 16q0 14 23 13h218q22 -4 22 -13q0 -10 -6 -17q-11 -2 -30 -6q-23 -5 -36 -22q-8 -12 -9 -107l-4 -420q6 -7 6 -20q12 -10 25 -10
h155q4 0 11.5 1.5t11.5 1.5q94 -5 139 55q11 15 27 51q13 29 16 29t9.5 2t9.5 1q4 -1 3 -7l-7 -25z" />
    <glyph glyph-name="M" unicode="M" horiz-adv-x="966" 
d="M915 0q-3 -1 -9 -1l-11 1q-16 0 -85 -3q-56 -2 -85 -1q-22 2 -22 18q4 9 4 15q51 12 60 18q18 14 18 61q0 56 4 168.5t4 169.5q0 94 -10 100l-260 -441q-41 -71 -58 -87q-44 76 -154 262q-129 217 -155 233q-5 -120 -5 -306q1 -24 3 -76t16 -70t42 -25t29 -11h4
q2 -6 2 -13q0 -2 -6 -6l-2 -1q-4 -3 -5 -5q-9 -2 -55 -2h-37h-23q5 0 -46 -2q-30 -1 -46 2q-10 2 -10 18q0 1 2 11q48 16 62.5 32t16.5 49q1 0 3 50q2 66 2 188v212q0 48 -37 51q-22 1 -23 1q-12 4 -12 19q0 19 16 19q25 0 115 2q70 2 114 0l23 -1l4 -12l-5 -18
q-9 -7 -30.5 -6t-30.5 -6l-5 -8q142 -240 167 -286q13 -18 45 -79q28 -55 48 -75q16 4 128 200q61 106 143 250q-35 0 -57 8q1 11 1.5 22.5t13.5 11.5h220q0 -3 2 -9t2 -9q0 -12 -23 -16q-13 -3 -19 -5q-10 -4 -14 -12q-10 -24 -9 -378q0 -21 1.5 -66t1.5 -69
q0 -35 14 -46.5t48 -11.5l2 -8q2 -7 2 -9q0 -10 -34 -12z" />
    <glyph glyph-name="N" unicode="N" horiz-adv-x="798" 
d="M787 628l-4 -9q-2 -1 -36 -10q-23 -5 -36 -22q-10 -37 -10 -125v-329q0 7 2 -51q2 -49 1 -73q-7 -10 -21 -10t-35 24q-65 80 -111 122q-133 125 -387 361q-6 6 -6 -4v-365q0 -25 14 -75q13 -17 35 -23q35 -8 37 -9q6 -16 6 -18q0 -7 -23 -14h-28h-66q-128 0 -84 0
q-23 0 -23 14q0 2 6 17q21 4 43.5 8.5t29.5 37.5q2 13 7 44v96v246q0 45 -10 90q-3 12 -27 33q-11 9 -31 26q-8 4 -16 11q-5 25 -2 27q-8 0 67 0q9 0 60 -7q105 -91 264 -243q180 -173 250 -236q1 14 7 40l-5 298q-2 27 -10 73q-7 33 -32 39q-21 4 -42 7q-6 16 -6 17
q0 14 23 14h178q23 -6 23 -14q0 -3 -2 -8z" />
    <glyph glyph-name="O" unicode="O" horiz-adv-x="769" 
d="M758 246q-2 -6 -11 -36q-35 -110 -146 -174q-100 -58 -221 -58q-161 0 -264 88q-109 93 -109 256q0 106 66 194q64 85 163 121q73 26 108 25l106 -2q30 0 94 -27q218 -94 218 -349q0 -18 -4 -38zM149 186q49 -77 128 -118.5t171 -41.5q94 0 158 80q60 75 60 173
q0 127 -88 233q-92 111 -213 111q-100 0 -174 -64t-80 -163l-4 -71q0 -31 14 -75q13 -40 28 -64z" />
    <glyph glyph-name="P" unicode="P" horiz-adv-x="550" 
d="M538 390q-16 -63 -91 -108q-65 -39 -123 -40l-114 -3q-28 0 -36 4v-165q2 -5 3 -15l3 -6q7 -13 34 -18q16 -3 48 -13l3 -8q3 -6 3 -8q0 -16 -86 -16q-29 0 -80 1.5t-74 1.5t-23 12q0 3 2 8l4 9q1 1 37 10q23 5 36 23q3 28 3 39l-1 434q-2 8 1 21q2 11 -2 23q-7 33 -33 39
q-15 1 -42 8l-3 8q-3 7 -3 8q0 13 22 13h114q105 -1 100 -1q85 0 98 -2q60 -7 118 -42q70 -43 82 -100q6 -30 6 -56q0 -36 -6 -61zM235 614q-48 0 -57 -11.5t-8 -63.5l5 -259q19 -10 37 -10q46 0 76 5q42 8 74 27q38 22 50 40l30 68q9 19 9 36q0 86 -70 131q-59 37 -146 37z
" />
    <glyph glyph-name="Q" unicode="Q" horiz-adv-x="751" 
d="M530 627q92 -28 153.5 -117t61.5 -187q0 -59 -27 -125.5t-68 -109.5q-34 -35 -100 -68q-73 -35 -118 -34q17 -48 102 -114q74 -59 132 -83q30 -12 90 -27q65 -16 96 -28q-13 -6 -27 -7h-23q-213 0 -392 152q-61 52 -75 91q-165 37 -240 107q-89 83 -89 242q0 55 17 91
q14 73 95 147q78 71 158 89q71 16 126 14q50 -2 85 -15q22 -9 43 -18zM488 572q-20 11 -59 33q-61 4 -63 4q-116 0 -187.5 -69.5t-71.5 -185.5q0 -135 79 -232q85 -102 217 -102q108 0 175 86q62 79 62 191q0 78 -43 155.5t-109 119.5z" />
    <glyph glyph-name="R" unicode="R" horiz-adv-x="629" 
d="M578 -2q-98 0 -168 69q-45 44 -87 130q-35 73 -45 76t-56 3q-26 0 -43 -2q0 -30 8 -195q0 -4 -1 -8t-4 -2q12 -20 41 -27q45 -10 48 -11l4 -9q2 -7 2 -8q0 -12 -42 -15q-17 -2 -51 -2q-26 0 -78 1.5t-76.5 1.5t-24.5 13q1 2 3 8l3 9q4 2 40 11q23 6 37 23q3 42 3 122v383
q-2 6 -6 17q-13 23 -60 31q-1 8 -2 23q98 9 175 9q155 0 241 -35q38 -16 71 -53q36 -42 36 -80q0 -3 2.5 -9.5t2.5 -9.5q0 -53 -41 -98q-37 -42 -91 -60q-9 -3 -19.5 -6t-10.5 -14q41 -93 57 -122q39 -70 84 -103q11 -8 58 -21q36 -10 36 -23q0 -17 -46 -17zM286 615
q-61 0 -80 -10q-29 -16 -29 -70v-195q7 -10 1 -22q15 0 53.5 -2t51.5 -2q7 0 20.5 3.5t20.5 3.5q52 0 93.5 44t41.5 96q0 61 -57 109q-54 45 -116 45z" />
    <glyph glyph-name="S" unicode="S" horiz-adv-x="524" 
d="M119 -5q-24 0 -38.5 -13t-25.5 -13q-7 0 -15 5q-2 11 -22 93q-14 57 -14 94q0 15 21 15l9 -1l5 -4q59 -143 213 -143q137 0 169 113q-10 89 -83 116q-65 22 -130 43q-80 29 -120 65q-54 48 -54 119q0 80 93 131q78 42 165 42q15 0 44.5 -4.5t45.5 -3.5h19q14 12 26 12
q8 0 16 -5q17 -55 21 -164q-10 -4 -17 -4q-5 0 -13 5q-5 16 -19 47q-16 24 -16 25q-50 35 -70 43q-25 9 -81 9q-34 0 -79 -33q-48 -35 -48 -67q0 -79 103 -123l192 -76q104 -56 104 -164q0 -62 -59 -106q-50 -38 -116 -45q-74 -8 -226 -8z" />
    <glyph glyph-name="T" unicode="T" horiz-adv-x="716" 
d="M682 594q-12 -29 -32 -82q-18 3 -17 29q1 7 1 19q0 17 -13 24q-7 4 -33 8.5t-64 5.5q-29 1 -65 0q-42 -2 -36 -2q-6 0 -28 2l-1 -478q0 -41 11 -56.5t40 -22.5q10 0 31 -6q7 -7 7 -18q0 -12 -24 -16h-217q-24 0 -24 15q0 11 7 19q11 2 30 6q25 6 41 25q8 96 8 109l-3 422
q-3 -1 -22 0q-58 1 -132 1q-58 0 -105 -74q-5 -8 -23 -10q0 2 -5 9t0 13q11 15 31 81q17 56 31 56q6 0 23 -7q6 -2 8.5 -9t5.5 -7l469 -1q60 0 101 24q6 0 13 -6.5t7 -14.5q0 -6 -21 -58z" />
    <glyph glyph-name="U" unicode="U" horiz-adv-x="794" 
d="M779 626l-3 -9q-3 -1 -38 -9q-22 -6 -36 -23q-10 -37 -10 -116q2 -5 1 -50l-1 -32v-17q1 -50 1 -146q-1 -82 -33 -128q-17 -23 -56 -52t-62 -35q-27 -9 -54 -17q-36 -9 -79 -10h-27q-83 0 -157 34q-91 42 -110 118q-4 9 -8 19q-5 17 -5 43v271q0 -7 -10 114
q-14 17 -36 23q-35 8 -38 10q-6 15 -6 17q0 14 23.5 14t74.5 1.5t80 1.5q87 0 87 -18q0 -1 -6 -17q-23 -11 -44 -12q-12 -1 -28 -19q-1 -16 -3 -72l-3 -105l1 -2v0l4 -212q1 -18 13 -37q9 -51 66 -86q50 -29 100 -29h59q40 0 93 19q59 22 76 48q31 48 37 114q1 5 1 112
q0 109 -8 239q-7 33 -32 39l-42 8q-7 15 -7 17q0 14 24 14h180q24 -6 24 -14z" />
    <glyph glyph-name="V" unicode="V" horiz-adv-x="778" 
d="M768 626l-3 -8q-2 -1 -38 -10q-23 -6 -36 -23q-20 -21 -45 -70q-19 -40 -39 -79q-78 -147 -238 -445q-9 -17 -22 -22v0q-14 -2 -23 18q-14 44 -44 122q-7 15 -98 243q-62 154 -117 239q-12 19 -32.5 24.5t-25.5 14.5q3 21 52 19l210 -5v-3l2 -6q2 -9 2 -14l-48 -14
q-28 -12 -28 -44q0 -13 60 -165l76 -188q9 -26 18 -51q11 -31 28 -53q14 7 29 39q42 85 122 254q15 26 43 80q41 95 41 107q-4 19 -25 24l-38 8l-3 9q-3 6 -3 8q0 12 22 12h182q22 -6 22 -13q-1 -2 -3 -8z" />
    <glyph glyph-name="W" unicode="W" horiz-adv-x="1060" 
d="M731 644q2 0 9 -2l9 -3q5 -12 7 -20q-2 -6 -23 -16q-14 -6 -29 -13q-24 -13 -148 -232q2 -24 121 -221h9q18 14 115 210q79 160 110 230q0 18 -32.5 25.5t-46.5 8.5l-5 13q3 9 5 20q7 3 92 3h58q33 -1 40 -1q31 0 31 -6q0 -19 -28 -33q-32 -17 -35 -23q-53 -91 -147 -266
q-33 -64 -96 -192q-15 -36 -30 -71q-18 -43 -36 -67q-8 -11 -18 -11q-18 0 -79 118q-71 137 -80 148h-9q-22 -33 -74 -134q-48 -91 -72 -122q-4 -5 -19 -10q-15 4 -18 9q-7 11 -56 145q-52 142 -85 205q-2 14 -53 128.5t-64 126.5q-10 6 -28.5 16.5t-18.5 28.5q0 16 19 15
q30 0 104 -1q44 1 94 -1q2 -13 2 -18q0 -24 -28 -24.5t-28 -18.5q0 -10 89.5 -217t104.5 -234h6q31 41 103 171q-26 57 -81 157q-1 10 -29 64q-26 50 -35 64q-6 8 -21 13q-19 6 -24 9l-4 -1v30q7 4 41 4q58 0 171 -3q7 -11 7 -19q0 -12 -14 -15.5t-28 -7.5q-8 -4 -8 -13
q0 -16 34 -85q32 -64 47 -86q15 7 50 75.5t35 85.5q0 18 -30 25.5t-30 13.5q0 27 15 27q18 0 28 -2h67h67z" />
    <glyph glyph-name="X" unicode="X" horiz-adv-x="738" 
d="M721 0h-280q-5 8 -5 14q0 12 28 19.5t28 36.5q0 31 -61 105q-44 48 -87 96q-33 -19 -94 -99q-64 -83 -64 -116l1 -4q5 -14 20 -19q27 -10 28 -10v-23h-222l-6 4v15q14 13 59 41q40 26 56 43q34 37 101 114q84 96 84 103q0 17 -105 140q-101 119 -126 137q-4 2 -33 13
q-16 6 -20 26q5 7 10 12q18 2 58 2q108 0 174 -3l11 -1l15 -16q-1 -1 -35 -14q-20 -7 -20 -31q0 -31 55 -101q40 -47 81 -95q11 2 77 78q49 58 78 95q6 7 6 23q0 21 -10 27q-14 5 -28 9v0q-2 11 -9 28l187 1q32 0 44 -3l5 -18q-9 -10 -29 -15q-27 -7 -31 -8
q-27 -13 -139.5 -131t-113.5 -132q20 -25 61 -76q51 -64 101 -127q72 -84 118 -98q15 -3 41 -16q1 2 1 -8q0 -9 -10 -18z" />
    <glyph glyph-name="Y" unicode="Y" horiz-adv-x="745" 
d="M324 229q-7 39 -113 191q-99 145 -135 178q-11 10 -36.5 21.5t-29.5 15.5q-2 11 -1 26q39 0 103 1h88h66l1 -27q-27 -8 -72 -30q10 -17 28 -44q25 -41 78 -124.5t91 -124.5q19 1 98.5 125t78.5 148v15q-10 12 -34 24l-28 14q-5 14 -6 24q21 2 55 2q23 0 55.5 -1t35.5 -1
q2 0 27.5 1t39.5 1q22 0 27 -2v-24q-16 -8 -46 -24q-47 -26 -155 -172q-98 -134 -124 -192q-2 -5 0 -88q2 -103 2 -91q0 -21 34 -30q26 -6 51 -13q6 -14 6 -16q0 -16 -86 -16q-26 0 -78 1.5t-78 1.5q-22 0 -22 12q0 2 6 17q5 2 39 11q22 5 35 22l2 129q0 23 -3 39z" />
    <glyph glyph-name="Z" unicode="Z" horiz-adv-x="649" 
d="M23 0l-5 9l453 574v12q-7 8 -19 8q-188 0 -297 -19q-30 -5 -58 -39q-35 -43 -48 -51l-4 4q-1 4 -1 9q0 10 24.5 82t31.5 80q5 -2 21 -14q13 -11 20 -11l482 10v-21l-449 -572q0 -8 49 -10q28 -1 56 -1q169 -5 261 22q27 8 53 58.5t40 53.5q5 -23 5 -20q0 -14 -12.5 -73.5
t-17.5 -73t-31 -13.5z" />
    <glyph glyph-name="bracketleft" unicode="[" horiz-adv-x="990" 
 />
    <glyph glyph-name="backslash" unicode="\" horiz-adv-x="990" 
 />
    <glyph glyph-name="bracketright" unicode="]" horiz-adv-x="990" 
 />
    <glyph glyph-name="asciicircum" unicode="^" horiz-adv-x="990" 
 />
    <glyph glyph-name="underscore" unicode="_" horiz-adv-x="990" 
 />
    <glyph glyph-name="grave" unicode="`" horiz-adv-x="196" 
d="M145 507l-7 -12q-62 37 -78.5 73t-8.5 101l40 51l45 -40l-42 -50q-9 -12 -9 -30q0 -27 23 -58q17 -22 37 -35z" />
    <glyph glyph-name="a" unicode="a" horiz-adv-x="352" 
d="M347 29q-20 -13 -63 -33h-22q-17 0 -28 20t-24 20q-9 0 -52 -20.5t-67 -20.5q-30 0 -58 24.5t-28 53.5q0 49 37 75q28 20 83 29q43 7 86 13v4q0 7 2 20t2 20q0 22 -8 56l-11 10q-24 21 -59 21q-34 0 -56 -20q-34 -29 -45 -35l-20 5q1 30 53 64t84 34q52 0 91 -24
q47 -29 47 -76q0 -26 -3.5 -77.5t-3.5 -77.5q0 -65 36 -65q6 0 16.5 3t14.5 4zM214 163q-44 -2 -85 -15q-58 -19 -58 -50q0 -62 61 -62h21q19 0 41.5 21t22.5 39v37q0 19 -3 30z" />
    <glyph glyph-name="b" unicode="b" horiz-adv-x="401" 
d="M162 1h-77q-28 0 -37 24q-4 13 -4 48q0 58 5 487l-7 11q1 6 -30 6l-5 6l-3 7q1 14 8 20q4 4 56.5 28t57.5 25q14 -13 14 -24v-3q-23 -23 -24 -94l-2 -190q0 -9 4 -32q59 29 61 29q35 15 65 15q64 0 108 -45t44 -109q0 -8 -4.5 -24t-4.5 -23q-6 -69 -82 -118
q-69 -44 -143 -44zM199 312q-19 0 -45 -8q-29 -10 -37 -22q-1 -7 -3.5 -21.5t-2.5 -22.5v-82q0 -110 94 -110q55 0 89 36.5t34 93.5q0 58 -35.5 97t-93.5 39z" />
    <glyph glyph-name="c" unicode="c" horiz-adv-x="331" 
d="M201 -7q-41 -5 -34 -5q-76 0 -120 50q-40 45 -40 112q0 66 24 108q32 60 118 97q20 9 53 9q27 0 62 -11q44 -12 44 -31q0 -15 -13 -26.5t-23 -11.5q-4 0 -26 7q-25 8 -34 10q-25 5 -50 5q-19 0 -45 -13.5t-33 -29.5q-21 -41 -21 -80q0 -56 38.5 -98.5t95.5 -42.5
q26 0 50 8q30 11 61 22q0 -3 2 -5.5t2 -8.5q0 -19 -50 -43q-43 -20 -61 -22z" />
    <glyph glyph-name="d" unicode="d" horiz-adv-x="467" 
d="M349 0q-26 -10 -28 -10v49l-33 -9q-8 -6 -37.5 -18t-35.5 -12q-61 0 -73 2q-56 11 -94.5 63t-38.5 109q0 48 24 86q4 7 56 69q28 13 57 25t62 12q1 0 66 -5q1 -1 46 -12l1 56q0 22 -2.5 63.5t-2.5 60t-16 27.5l-24 2q-9 11 -9 16q0 12 8 22q4 4 55 27t61 26
q17 -14 17 -27l-1 -4q-23 -24 -23 -82q0 -99 6 -345q-1 -46 3 -138q11 -1 28 5q21 6 28 7q9 -4 9 -20q-37 -12 -61 -24q-31 -15 -48 -21zM210 324q-60 0 -94.5 -31t-34.5 -90q0 -51 27 -91t74 -54q8 -8 27 -8q43 0 74 13q40 17 40 53v101v35q0 29 2 34q-55 38 -115 38z" />
    <glyph glyph-name="e" unicode="e" horiz-adv-x="328" 
d="M151 -12q-38 2 -60 22q-21 4 -48 49q-24 41 -27 65q-3 19 -3 37q0 148 121 196q17 6 40 6q58 0 94 -37.5t44 -98.5q-113 -16 -216 -45l-2 -31q0 -48 20 -79q24 -38 69 -38q65 0 115 48h13q4 -2 4 -8q0 -32 -57.5 -60t-106.5 -26zM157 324q-25 0 -43.5 -29.5t-18.5 -55.5
q0 -11 -1 -23q8 0 63 15t66 20l-13 39q-25 34 -53 34z" />
    <glyph glyph-name="f" unicode="f" horiz-adv-x="324" 
d="M282 573q-16 0 -44.5 10.5t-44.5 10.5q-50 0 -50 -142q0 -15 -2.5 -53t-2.5 -50q18 -3 51 -2q42 2 51 2l5 -36l-105 -16q-2 -97 -2 -207q0 -43 14 -49q25 -7 51 -15l5 -13l-1 -5q-6 0 -16 -7l-40 -1q-92 -2 -80 -2q-64 1 -64 14l5 14q3 1 29 8q17 5 26 16q0 25 1 105
q1 68 1 105q0 -1 -3 36l-3 5q-14 2 -42 13v33q28 -1 43.5 8t15.5 134q0 67 54.5 116.5t122.5 49.5q21 0 40.5 -12t19.5 -32q0 -15 -10.5 -26.5t-24.5 -11.5z" />
    <glyph glyph-name="g" unicode="g" horiz-adv-x="420" 
d="M446 -107q0 -58 -65 -106q-57 -41 -118 -50q-9 -7 -60 -13q-41 -4 -65 -4q-44 0 -97 27q-60 32 -60 72q0 46 36 76q14 12 75 43l-10 11q-19 3 -41 17q-27 16 -27 32q0 27 47 38q64 16 67 17q-32 17 -62 48q-35 35 -42 66q-2 10 -10 30q3 16 7 50q34 63 56 81
q34 27 114 35q15 2 43.5 -5.5t42.5 -7.5q37 0 96 5q15 5 45 12q0 -6 3 -45q-7 -1 -9.5 -7.5t-18.5 -6.5q-32 0 -32 -14q26 -44 26 -104q0 -86 -153 -142q-17 -6 -42 -8q-32 -3 -41 -5q-30 -6 -32 -22q26 -17 116 -22q106 -5 142 -17q69 -21 69 -81zM317 186q0 54 -38.5 99
t-90.5 45q-99 0 -99 -104q0 -44 28 -80q15 -19 43 -35q25 -12 51 -24h31q31 0 54 35q21 32 21 64zM383 -145q0 31 -21 48q-12 10 -49 24l-35 -1q-16 0 -48.5 3t-48.5 3q-46 0 -83 -18q-47 -23 -46 -64l1 -21q13 -27 47 -44q31 -15 63 -15q22 0 63.5 3t62.5 3q29 15 59 29
q35 21 35 50z" />
    <glyph glyph-name="h" unicode="h" horiz-adv-x="454" 
d="M455 12l-1 -5q-5 1 -17 -7h-167q-18 0 -18 12l5 13q16 8 32.5 16.5t27.5 22.5h1q2 0 2 4v142q0 5 -3 3q0 41 -19 70q-22 32 -59 32q-24 0 -53 -10q-33 -11 -45 -26q-7 -8 -5 -116q0 -31 1 -75q1 -37 1 -39q10 -11 29 -14q26 -5 33 -9l5 -14l-1 -5q-5 1 -16 -7h-167
q-18 0 -18 12l4 13q5 3 31 9q16 4 25 16q0 24 4 78q3 50 3 79v327q0 24 -18 35l-23 2q-8 12 -8 13q0 14 6.5 19t59 29t57.5 25q15 -13 15 -24l-1 -3q-24 -25 -24 -86q0 -37 -1 -115v-115q21 10 54 26q47 23 98 23q34 0 63 -26q26 -25 37 -59q5 -15 5 -86q0 -12 -1 -72
t-1 -71q9 -11 28 -14q26 -5 34 -9z" />
    <glyph glyph-name="i" unicode="i" horiz-adv-x="217" 
d="M124 509q-7 2 -22 4l-2 6q9 24 46 91q14 7 27 7q20 0 20 -28q0 -8 -1 -15zM208 8q-9 -2 -16 -7l-34 -1h-36q-80 0 -62 0q-51 1 -51 12l4 14q4 2 30 8q16 4 25 16q10 79 10 208q0 34 -41 36l-4 5l-4 8q1 14 7.5 19t58 28.5t56.5 25.5q14 -13 14 -25v-3q-27 -27 -27 -114
q0 -130 4 -189q10 -10 29 -14q27 -6 33 -9l4 -13v-5z" />
    <glyph glyph-name="j" unicode="j" horiz-adv-x="177" 
d="M97 500q-7 3 -22 5l-2 6q8 23 45 91q15 7 27 7q21 0 21 -28q0 -8 -2 -15zM130 258q0 -47 -3 -181q-2 -114 -1 -181q-65 -128 -116 -149h-14q-10 4 -28 16v7q70 44 95 109q8 22 8 57v68v79.5v78.5q0 104 -21 118q-6 4 -28 4l-5 6l-3 7q1 15 7.5 20t58.5 28.5t60 24.5
q14 -12 14 -25v-2q-24 -24 -24 -85z" />
    <glyph glyph-name="k" unicode="k" horiz-adv-x="463" 
d="M464 8q-8 -2 -16 -7q-17 -1 -51 -1q-100 0 -73 -1q-60 2 -62 13l4 14q8 2 16 5q4 1 13 12q-21 39 -67 87t-82 65q-11 -10 -9 -91q1 -50 4 -59t18 -9q22 1 43 -10l5 -13l-1 -5q-8 -2 -16 -7q-18 -1 -51 -1q-95 0 -74 -1q-62 2 -62 13l5 14q4 2 30 8q17 4 26 17
q3 163 9 488q0 35 -42 37l-5 5l-3 8q0 14 8 20q5 4 58 28t58 26q15 -13 15 -24l-1 -4q-24 -24 -24 -102q0 -2 4 -311v0q1 -1 6 -1q10 0 67 42.5t57 51.5q0 10 -20 16q-15 3 -29 6v25q48 2 97 2q46 0 92 -2l5 -21q-69 -16 -188 -112q50 -59 170 -179q13 -12 30 -15
q24 -4 32 -9l5 -13z" />
    <glyph glyph-name="l" unicode="l" horiz-adv-x="217" 
d="M208 8q-9 -2 -16 -7l-36 -1h-76q-51 0 -41 -1q-30 2 -30 13l4 14q4 2 30 8q16 4 25 16q8 60 8 116l-1 338q0 37 -4 45q-7 17 -37 18l-5 5l-3 8q0 14 6.5 19t58 28.5t57.5 25.5q14 -13 14 -24l-1 -3q-20 -21 -23 -69q1 9 1 -76v-43v-43l1 -268q0 -75 2 -78q9 -11 29 -15
q27 -5 33 -8l4 -14v-4z" />
    <glyph glyph-name="m" unicode="m" horiz-adv-x="643" 
d="M132 46q1 -13 18.5 -20.5t18.5 -9.5l1 -9l-6 -7h-145l-8 5l1 9l8 6q12 0 38 27q8 119 8 151q0 51 -13 68l-3 15l-3 -2q-10 1 -30 4q-8 9 -8 13q0 12 8 20q3 4 55.5 27.5t62.5 26.5q14 -12 14 -24v-3q-19 -18 -19 -25q0 5 1 -14l9 -2q15 19 47 38q39 24 71 24q37 0 59 -20
q5 -5 39 -49q21 19 43 38q40 31 101 31q47 0 77 -69q24 -58 24 -124q0 -20 -3 -34q4 -13 4 -29q0 -10 -1.5 -29t-1.5 -29q0 -16 18 -24t19 -10l1 -9l-7 -7h-144l-8 5l1 9l7 6q14 0 43 31q-2 10 -2 92q0 157 -62 159l-36 1q-17 0 -42 -15.5t-26 -33.5v-162q0 -10 4 -53
q18 -11 36 -23l1 -9l-6 -7h-145l-8 5l2 9l7 6q11 0 20 9l18 18q8 34 8 119q0 142 -78 140h-20q-7 0 -34 -19.5t-31 -26.5q-8 -14 -8 -124q0 -74 8 -95h-1z" />
    <glyph glyph-name="n" unicode="n" horiz-adv-x="486" 
d="M133 297l9 -3q80 69 177 69q15 0 17 -1l26 -10q58 -41 58 -116q0 -30 -1.5 -89t-1.5 -88q0 -4 1 -9q9 -11 30 -15q26 -5 33 -8l5 -14l-1 -5q-9 -2 -17 -7q-17 -1 -51 -1q-98 0 -75 -1q-61 2 -61 13l5 14q4 2 29 8q17 5 27 17q0 5 6 39q5 24 5 38q0 11 -4 33.5t-4 33.5
q0 45 -7.5 61.5t-41.5 41.5q-18 0 -45 6q-23 0 -63 -14q-46 -16 -50 -32l-3 -25v-144q0 -19 2 -39q10 -11 30 -15q27 -5 33 -8l5 -14l-1 -5q-8 -2 -16 -7q-18 -1 -51 -1q-98 0 -75 -1q-62 2 -62 13l5 14q4 2 30 8q17 5 26 17q9 72 9 111v60q-4 40 -20 50l-24 2q-8 11 -8 13
q0 13 8 20q4 4 56.5 28t60.5 26q15 -13 15 -25l-1 -3q-10 -10 -15 -16q-9 -12 -9 -20z" />
    <glyph glyph-name="o" unicode="o" horiz-adv-x="419" 
d="M414 144q-16 -77 -82 -120q-56 -38 -123 -38q-151 0 -193 127q-10 30 -10 60q0 35 17 82q13 35 61 71q45 34 83 42q28 5 52 5q90 0 148 -59q54 -57 54 -140q0 5 -7 -30zM199 332q-54 0 -89 -45q-29 -38 -29 -82q0 -32 5 -57q8 -35 48 -77q46 -48 85 -48h17q45 0 77 41
t32 94t-36 108q-45 66 -110 66z" />
    <glyph glyph-name="p" unicode="p" horiz-adv-x="430" 
d="M197 -9q-12 0 -32 6q-29 8 -33 9q-3 -5 -3 -16q0 -123 10 -159q7 -10 25 -14q15 -4 31 -8l4 -14l-5 -9q-3 0 -11 -2q-17 -1 -43 -1q-127 0 -129 6q-2 7 2 19q4 2 29 8q16 4 25 16v402q0 57 -41 59l-5 5l-3 7q0 14 8 20q5 4 56 27.5t56 24.5q14 -12 14 -23v-4
q-6 -5 -12 -14q31 11 63 22t66 11q72 0 114 -48q39 -45 39 -118q0 -81 -71.5 -146.5t-153.5 -65.5zM209 318q-55 0 -75 -19q0 -8 -3 -31q-2 -19 -2 -30q0 2 3 -73q1 -45 -3 -73q12 -43 90 -43q138 0 138 125q0 69 -39.5 106.5t-108.5 37.5z" />
    <glyph glyph-name="q" unicode="q" horiz-adv-x="399" 
d="M432 -231q-1 0 -7 -3q2 0 -160 0q-18 0 -18 11q0 1 5 14q14 4 40 13q5 2 19 20q3 21 3 120q0 51 -4 71q-17 2 -58 -12q-46 -16 -72 -16q-72 0 -122.5 48t-50.5 118q0 82 62 149q64 71 151 71q5 0 53 -8l33 -5q16 -3 19 -3q-3 0 45 12q3 -3 9 -10q1 -23 1 -134v-401
q5 -8 19 -20q13 -3 38 -13l5 -13q0 -4 -1.5 -5.5t-8.5 -3.5zM200 321q-57 0 -93.5 -35t-36.5 -89q0 -62 38 -108q42 -50 112 -50h14q64 0 79 36q9 20 9 101q0 73 -19 102q-26 43 -103 43z" />
    <glyph glyph-name="r" unicode="r" horiz-adv-x="320" 
d="M288 274q-7 -2 -20 -1q-6 2 -24 14q-13 9 -28 9q-23 -13 -70 -37q0 -7 -6 -21q4 -14 4 -95v-34l-1 -26q0 -30 8 -39q5 -6 22 -8q22 -3 36 -10l4 -13v-5q-10 -3 -17 -7l-31 -1h-44q-81 0 -61 -1q-50 2 -50 13l5 14q4 2 29 8q17 4 27 17q5 41 5 98v100q1 42 -46 43l-5 6
l-3 7q0 15 7 20t59 29t58 25q14 -13 14 -25v-2q-23 -24 -23 -36q0 -17 10 -26q10 4 29.5 20t31.5 18v3q5 2 30 21q15 12 34 12q6 0 36 -25v-11l4 -2l3 -7q0 -18 -27 -45z" />
    <glyph glyph-name="s" unicode="s" horiz-adv-x="265" 
d="M116 -15q-4 -1 -23 1q-23 2 -22 2q-22 0 -57 12q-6 14 -6 21v82q0 12 14 12q6 0 14 -16q17 -31 17 -32q30 -47 76 -47q17 0 39.5 18t22.5 34q0 37 -54 69q-39 24 -77 47q-40 30 -40 68q0 6 3 12q0 49 45 78q39 26 90 26q37 0 49 -6q9 -9 21 -43q1 -8 6 -28q4 -16 4 -28
l-11 -6q-13 9 -30.5 31t-42.5 36q-7 0 -15.5 2t-11.5 2q-16 0 -32 -15t-16 -30q0 -30 46 -54l86 -43q46 -33 47 -87v-7q0 -49 -48 -82q-44 -30 -94 -29z" />
    <glyph glyph-name="t" unicode="t" horiz-adv-x="251" 
d="M241 56q0 -11 -36 -37.5t-58 -26.5q-42 0 -67 29t-25 72v83q0 20 1 51t1 51q0 14 -2 46q-17 0 -39 1l-5 6l-3 7q0 15 7 20q56 49 119 100q14 -13 14 -25v-3q-19 -19 -19 -42q0 -2 1 -20q70 -6 105 -6q1 -8 0 -19l-2 -14l-106 -4q-1 -2 -1 -25v-202q0 -54 37 -54
q23 0 34.5 10t23.5 21l7 -2q13 -11 13 -17z" />
    <glyph glyph-name="u" unicode="u" horiz-adv-x="471" 
d="M321 50q-10 0 -74 -25t-98 -25q-47 0 -73 30t-26 77q0 21 1 57.5t1 57.5q0 58 -3 70q-7 9 -34 10l-4 5l-4 8q1 14 7.5 19t58 28.5t56.5 24.5q15 -12 15 -24l-1 -3q-24 -24 -24 -84l1 -148q0 -28 21.5 -50.5t49.5 -22.5q46 0 86 15q32 13 37 17q12 10 13 38l2 143
q0 34 -41 36l-5 5l-3 8q0 14 7 19t58.5 28.5t56.5 24.5q14 -12 14 -24v-3q-24 -24 -24 -90l1 -177q0 -31 17.5 -33.5t50.5 -10.5v-18q0 -9 -51 -20q-45 -9 -62 -9q-10 0 -16 1q-10 12 -9 43z" />
    <glyph glyph-name="v" unicode="v" horiz-adv-x="442" 
d="M329 320q-12 8 -45 23l-1 7q0 9 7 9h138l8 -5l-1 -10q-17 -6 -34 -13.5t-26 -21.5q-7 -10 -81 -173q-63 -139 -88 -155h-5q-11 0 -18 13q0 1 -26 76q-17 48 -96 230h1q-11 14 -62 38v20q0 3 122 3q58 0 69 -3q3 -2 3 -7l-5 -13q-6 -3 -25 -6q-15 -1 -23 -10
q4 -31 35 -118.5t50 -122.5q6 5 71 136q14 28 33 90z" />
    <glyph glyph-name="w" unicode="w" horiz-adv-x="688" 
d="M679 348q-37 -15 -55 -35q-14 -15 -35 -56l-73 -146q-63 -123 -74 -131l-4 8l-9 -5q-23 65 -61 150q-2 13 -22 56q-1 11 -12 28q-88 -173 -101 -216q-11 -13 -22 -12h-5q-11 3 -67 149q-63 164 -68.5 174.5t-26.5 15.5q-30 8 -32 9v18q0 7 146 7q41 0 59 -4q3 -3 3 -7
l-5 -15q-9 -4 -29 -6q-13 -1 -27 -16q2 3 3 3t1 -5q0 -19 44 -122l-1 -8q6 -20 27 -54l8 4q55 117 96 225l7 6l4 1q4 -1 11 -1q25 -65 54 -128q13 -42 49 -123l7 5q13 18 55 104t42 92l-1 9q-11 13 -27.5 16.5t-20.5 8.5l-1 7q0 10 7 10h149l9 -6z" />
    <glyph glyph-name="x" unicode="x" horiz-adv-x="442" 
d="M426 348l-19 -8q-21 -12 -72 -64q-73 -75 -73 -80q0 1 30 -46q15 -24 41 -64q18 -28 38 -45q11 -12 21 -13t21 -2l5 -14q0 -11 -17 -12q3 0 -168 0q-18 0 -18 11q0 1 4 14q4 2 30 8q16 4 26 17q-21 38 -68 92q-1 0 -12 -10q-27 -26 -56 -64q-4 -7 -4 -18v-9v-1
q11 -12 22 -16t14 -8q3 -13 -5 -16h-143l-8 6l1 9l7 6q22 0 60 39q24 23 69 70q34 36 34 46q0 13 -94 137q-10 13 -27 17q-27 7 -29 8l-5 14q0 11 18 11h169q7 -2 15 -4q2 -2 2 -8l-5 -13q-11 -6 -28 -6q-12 -1 -25 -16q0 1 1 2l1 1q1 -1 1 -5.5t8 -15.5q12 -15 13 -15
q9 -18 38 -55q9 4 34 33q30 35 40 44q4 4 4 9v9q-7 14 -30 16l-4 1q-7 1 -12 6q-3 14 5 17h143l8 -6z" />
    <glyph glyph-name="y" unicode="y" horiz-adv-x="450" 
d="M174 238q6 -14 22 -68q12 -42 27 -64h3q6 7 17 24q20 42 61 123q2 2 15.5 28.5t13.5 29.5v8q-10 11 -25.5 14.5t-19.5 8.5l-1 7q0 11 8 11h140l9 -6l-1 -11q-19 -10 -58 -18q-12 -27 -182 -364q-29 -57 -57 -114q-47 -91 -58 -99h-2q-32 0 -51 7q-3 5 -6 14
q4 12 17.5 27.5t17.5 21.5l60 96q49 79 49 87q0 14 -52 158q-51 139 -58 151t-25 17q-27 7 -30 8q-3 8 -2 20q1 6 127 6q57 0 69 -3q4 -3 4 -8q0 -1 -5 -15q-4 0 -13 -1.5t-22 -4.5q-8 -1 -14 -12q7 -44 22 -79z" />
    <glyph glyph-name="z" unicode="z" horiz-adv-x="354" 
d="M319 6q-10 -6 -17 -6l-292 3q-2 4 -5 13l239 307l-4 5l-3 1q-10 2 -26 2q-88 0 -102 -4q-41 -10 -75 -62h-17v17q0 6 26 84l5 6q6 4 11 4q12 0 34.5 -6t34.5 -6h210q5 -5 6 -14l-234 -309l10 -10l107 1q37 0 58 16q11 8 27 34q15 23 30 30l5 -4q2 -4 2 -9q0 -23 -30 -93z
" />
    <glyph glyph-name="bullet" unicode="&#x2022;" horiz-adv-x="911" 
d="M886 505q-31 13 -54 13q-8 0 -14 -2q-22 -6 -48 -40v-28q17 -9 29 -19q30 -25 37 -51q3 -10 3 -25q0 -41 -19 -105l-50 43q-19 17 -55 46q0 -14 -2 -27q-3 -30 -12 -46q-19 -34 -92 -57q6 26 5 41q0 31 -24 81h-36l-97 -100q24 -5 43 -12q46 -16 60 -40q9 -15 9 -43
q0 -24 -6 -49q-39 -8 -60 -2q-39 10 -68 64q-11 22 -16 65q-41 5 -83 5q-65 0 -103.5 -12.5t-48.5 -16.5q-23 -10 -41 -28q-32 -30 -52 -108h-49q8 32 19 59q24 65 54 93q40 38 138 65q-17 53 -17 96q0 38 15 59q25 35 105 54q9 -77 -2 -119q-9 -33 -41 -84q38 -8 73 -8
q32 0 52 8q40 15 90 76l-14 8q-24 1 -38 -3q-21 -5 -52 -32q-9 63 3 95q15 39 81 81q-23 9 -75 33q-15 7 -41 22q15 18 30 32q35 33 62 41q14 4 33 4q29 0 62 -7q-5 14 -11 46q0 21 12 71q13 -8 52 -21q23 -5 51 -28q33 -27 29 -103q17 11 58 27q27 5 42 5q31 0 52 -19
q27 -25 22 -98zM712 466q0 37 -25.5 63t-61.5 26t-61.5 -26t-25.5 -63q0 -36 25.5 -62t61.5 -26t61.5 26t25.5 62z" />
  </font>
</defs>
</svg>
