<svg xmlns="http://www.w3.org/2000/svg" viewBox="0 0 553.94 78.41"><defs><style>.cls-1{fill:#778a6e;}</style></defs><title>morris-logo</title><g id="Layer_2" data-name="Layer 2"><g id="Layer_1-2" data-name="Layer 1"><path class="cls-1" d="M523.7.18c1.86,5,3.63,10,5.43,15-.58,1.15-2.34,2.2-3.53,3.16-3.93-6.62-8.88-13.88-18.43-13.76-8.74.11-13.4,9-15.78,16.29-4.8,14.68-3.57,36.07,4.8,45.7,4.14,4.77,13.74,8.79,20.83,3.79,4.72-3.33,7.67-12,4.42-19.57-.51-1.19-1.41-2.29-1.89-3.28,10.24-1.2,13.27,11.24,9.47,19.32-4.43,9.41-16.84,13.7-30.17,10.35C482.64,73.13,474.49,57.4,476.1,36c.93-12.38,6-23,13.38-29.29,4.41-3.8,10.07-7.19,19.06-6.69A24.54,24.54,0,0,1,513,.81c1.34.33,2.84,1,4.29.76,1-.13,1.21-1.1,2.27-1.39,1.28-.34,2.35.25,4.17,0"/><path class="cls-1" d="M378.76,1.06c1.54,4.73,3.36,9.18,4.92,13.89-1.22.51-2.67.78-3.79,1.39C375.57,11,371.27,4.85,361.47,4.85c-8,0-15.64,6.24-12.75,14.27,1.46,4.07,6.9,6.23,11.11,8.08s8.74,3.59,12.63,5.55c7.82,4,15.63,8.89,15.66,20.7,0,18-14.64,27.62-33.59,24.12-3.05-.57-6.6-2.09-9.22-.38-.54.36-.87,1-1.52,1.14-1.07.26-2-.2-3.28,0-.76-6.23-1.4-12.58-2.15-18.81q1.93-.85,3.91-1.64c2.05,4.1,4.17,7.77,7.58,10.61,3.2,2.67,7.73,5.45,13.38,5.18a15.1,15.1,0,0,0,14.65-14.9A12.79,12.79,0,0,0,373.59,49c-4.21-3.63-11.06-6.05-17-8.84-8.67-4-18.61-7.58-18.94-19.95A21,21,0,0,1,340.26,10C343.89,4.08,350.68-.4,361,.18a37.26,37.26,0,0,1,6.06,1c1.76.4,3.91,1.47,5.93,1.14,1.09-.18,1-.72,1.89-1.26Z"/><path class="cls-1" d="M99.87,16.46C96,22.66,94.09,31.79,94.82,41.71c.68,9.38,3.27,17,7.83,22.6a24,24,0,0,0,21.34,9,24.45,24.45,0,0,0,18.68-11.74c4-6.31,6.05-15,5.68-24.87C147.66,18.17,138.8,3.43,119.06,5A23.79,23.79,0,0,0,99.87,16.46m18.05-16c13.14-.91,23.39,3.09,30.43,9,6.84,5.71,12.16,14.8,12.75,26.64.66,13.12-3.31,22.58-9.72,29.42s-14.94,11.39-27,12.37c-12.65,1-22.82-2.86-29.92-9s-12-14.52-13-26.39c-1.05-13.08,3.7-23,9.6-29.54C97.23,6,105.58,1.28,117.92.43"/><path class="cls-1" d="M0,73.4v-.13c1.26-.33,3.23-.73,4.29-1.77C7,68.91,6.45,60.61,6.81,55.22c.71-10.35,1.35-21.11,1.9-31.44C9,19,10.3,11.72,9,8.38,8.13,6.32,5.52,5.3,3.41,4.85A27.84,27.84,0,0,1,4.92,1.06H23.86c5.3,8.63,10.33,17.53,15.66,26.14C43.73,20,48.58,11.69,53,4.22c.64-1.08,1.46-2.92,2.15-3.16.93-.32,3,0,4.17,0H72.21C72.47,2.45,73.4,3.83,73.48,5a8.72,8.72,0,0,0-3.66,1.39c-3.25,2.49-1.89,11-1.51,16.79.83,12.77,1.69,26.26,2.4,38.51A32.06,32.06,0,0,0,71.59,69c.92,2.89,3,3.66,5.55,4.42-.57,1.2-.91,2.63-1.51,3.79H54.41c-.39-1.42-1-2.63-1.39-4,1.62-.44,3.44-.79,4.42-1.77,1.9-1.9,1.37-6.24,1.14-9.85C57.52,45.3,56.33,26.29,55.3,11,48.6,21.84,41.87,33.71,35.1,44.87,28.33,33.58,21.78,22.08,14.77,11c-.81,15.53-1.95,35-2.9,51.26-.15,2.54-.37,5.42.25,7.32.76,2.3,2.92,3.06,5.43,3.66-.74.89-.68,3.47-1.77,3.91-.7.29-2.39,0-3.53,0H1.51C1,76,.62,74.55,0,73.4"/><path class="cls-1" d="M186.1,6.61V33.13c7.21.1,13.79.4,18.43-2.4s7.71-10.33,5.17-17c-2.84-7.54-12.53-7.77-23.35-7.45a.34.34,0,0,0-.25.38M169.43,1.06c21.62,1.4,52-6.05,53.4,15.28.78,11.57-6.35,16.87-15.4,19.32,5.2,3.73,8.46,8.67,11,15.78,1.11,3.12,2.09,6.8,3.16,10.23C223.36,67.42,225.64,73,233.06,73c-.34,1.47-.85,2.77-1.26,4.17-5.63.91-10.82.92-14.14-.76s-5.36-5.43-6.94-9.21A114.53,114.53,0,0,1,206.8,55c-1.69-5.88-3-12.58-7.45-15.28-3.29-2-7.86-1.62-13.26-1.64V62.92c0,2.9-.13,5.65.76,7.45s3.28,2.45,5.3,2.9c-.5,1.31-.92,2.7-1.51,3.91H169.43c-.39-1.42-1-2.63-1.39-4,1.73-.44,4-.85,5-2.52,1.61-2.64.89-10.3.89-15.4V22.65c0-5.37,1.13-13.74-1.64-16.16-1.08-.94-3-1.26-4.29-1.51a20.05,20.05,0,0,1,1.39-3.91"/><path class="cls-1" d="M254.78,6.61V33.13c14.38,1.22,25.58-2.1,24.37-15.91-.94-10.68-11.8-11.55-24.12-11a.34.34,0,0,0-.25.38M238.11,1.06c18.82,1.19,45-4.37,51.76,9,2,4,2.29,11.06.13,15.65-2.51,5.34-7.54,8.22-13.89,10,7.76,4.93,10.62,14.5,13.76,24.49,2,6.39,3.72,12.89,11.87,12.88-.33,1.48-.92,2.7-1.26,4.17-5.63.93-10.85.89-14.14-.76s-5.24-5.35-6.82-9.21a122,122,0,0,1-4-12c-1.72-6-2.95-12.79-7.45-15.53-3.27-2-7.79-1.62-13.13-1.64-.23,6.78-.12,16.84-.12,24.87,0,6.18.48,9.92,6.06,10.36-.52,1.29-.94,2.68-1.51,3.91H238.11c-.4-1.41-1-2.62-1.39-4,1.53-.41,4.05-.84,5-2.52,1.67-2.84.88-10.32.88-15.4V22.9c0-5.5,1.08-13.76-1.51-16.29-1.07-1-2.93-1.33-4.42-1.64a17.43,17.43,0,0,1,1.39-3.91"/><path class="cls-1" d="M307.18,1.06h21c.84,1,1.09,2.61,1.64,3.91-3.48.15-5.77,2.16-6.06,6.19-.35,4.87,0,10.16,0,15.53V57.62c0,5-.63,11.74,1.52,13.89,1.12,1.13,2.93,1.33,4.42,1.64a20.08,20.08,0,0,1-1.39,4H307.05c-.43-1.38-1-2.59-1.39-4,3.13-.41,5.59-2,5.94-5.55.42-4.37,0-9.3,0-14.27V24.92c0-5,.38-9.81,0-14.14-.32-3.68-2.51-5.39-5.94-5.68a15.83,15.83,0,0,1,1.52-4"/><path class="cls-1" d="M436,27.57c-8.63,3.23-14.95,5.8-15,17,0,6.26,2.18,11.4,5.43,14.64a13.85,13.85,0,0,0,9.85,4.17c7,0,10.6-5.2,10.6-12.37,0-4.43-1.19-8.72-4.67-10-5.63-2-7.81,4.47-5.18,8.21-5.29,0-6.27-6.64-4.42-10.73,3.32-7.32,14.17-8.68,15.91-17.3A6.05,6.05,0,0,1,451,24.67c1.53,6.2-2.75,10.37-5.93,12.62a18.21,18.21,0,0,1,5.55,3c4.67,4,5.7,12.82,2.52,18.94-2.67,5.15-8.55,8.85-15.78,9.34-15.1,1-26.31-8.35-25.12-23.48.71-9.13,5.43-14.72,12.63-17.8-4.62-2-8.06-4.49-8.08-10.61,0-9.18,6.76-14.74,15.91-14.77,5.71,0,11,2.55,11.74,7.58C445,14,442,19.06,437,17.09a4.57,4.57,0,0,1-2.53-5.43c.33-1.32,1.79-2.05,1.77-3.28,0-2.35-3.76-2.76-5.81-1.9C424.38,9,423.85,21.16,429,25c1.85,1.39,4.08,1.94,6.95,2.53"/><path class="cls-1" d="M535.32,39.44a6.4,6.4,0,0,0,7.2,1.77c4.7-2.17,5.23-13.36,2.4-18.43a6.05,6.05,0,0,0-6.44-3c-7.07,1-7,15.06-3.16,19.69m2.9-23c9.11-.8,15,4.36,15.66,12.5.48,6.21-1.79,11.61-6.31,14.27s-12,3.07-16.92-.51c-4.5-3.26-6.91-12.17-3.79-18.81a13.82,13.82,0,0,1,6.06-6.19,16.93,16.93,0,0,1,5.3-1.26"/><path class="cls-1" d="M538.73,49.29c1.75-.43,3.87.33,4.42,2,1,3-1.88,6.08-4.92,4.8-2.67-1.13-2.61-6.06.51-6.82"/></g></g></svg>